<svg width="511" height="511" viewBox="0 0 511 511" fill="none" xmlns="http://www.w3.org/2000/svg">
<g clip-path="url(#clip0)">
<path d="M6.40911 253.247C6.40911 253.247 283.859 368.404 493.749 291.652C494.595 283.375 495.031 274.978 495.031 266.479C495.031 131.43 385.558 21.9531 250.51 21.9531C119.875 21.9531 13.1732 124.397 6.34283 253.329L6.40911 253.247Z" fill="#2299F2"/>
<path d="M112.038 0.846172C71.2003 6.41341 67.3173 29.5673 67.3017 38.0624C67.2978 39.8441 66.3076 41.4932 64.7052 42.273C43.4616 52.6082 54.9158 104.409 54.9158 104.409C57.0483 104.55 59.2823 105.415 60.947 106.222C61.3563 103.684 63.021 99.189 63.9606 96.7718C64.6779 94.9317 65.5707 93.072 66.6935 91.3176C68.635 88.2689 69.52 84.6744 69.2549 81.0799C68.4908 70.69 67.8631 51.2125 81.5746 45.041C93.1964 39.8129 107.45 42.8422 116.537 45.8636C122.44 47.8246 128.834 47.8246 134.736 45.8636C143.824 42.8422 158.077 39.8129 169.695 45.041C183.372 51.1969 182.779 70.5731 182.023 80.9902C181.761 84.612 182.623 88.2455 184.58 91.3176C185.738 93.1305 186.654 95.0525 187.379 96.9512C188.284 99.3098 189.925 103.746 190.323 106.222C192.424 105.205 195.422 104.097 197.991 104.46C198.303 93.5672 199.309 79.8323 199.309 79.8323C211.414 20.5576 156.011 -5.14212 112.038 0.846172Z" fill="#3C2B8E"/>
<path d="M67.3017 38.0625C67.2978 39.8441 66.3076 41.4932 64.7052 42.273C43.4616 52.6082 54.9158 104.409 54.9158 104.409C57.0483 104.55 59.2823 105.415 60.947 106.222C61.3563 103.684 63.021 99.189 63.9606 96.7718C64.6779 94.9317 65.5707 93.072 66.6935 91.3177C68.635 88.2689 69.52 84.6744 69.2549 81.0799C68.4908 70.69 67.8631 51.2125 81.5785 45.041C90.7052 40.9357 101.446 41.926 110.042 44.004C109.875 43.6336 109.723 43.2554 109.539 42.8851C96.8728 17.3257 112.038 0.846191 112.038 0.846191C71.2003 6.41343 67.3173 29.5674 67.3017 38.0625Z" fill="#2C217C"/>
<path d="M146.584 487.854V315.418C146.584 302.826 149.617 290.424 155.426 279.251L156.572 277.044C172.128 252.448 173.196 231.2 172.526 221.009C167.949 212.826 166.588 201.602 166.299 193.239C155.274 206.085 142.709 214.838 125.637 214.838C108.565 214.838 96.0073 206.085 84.9742 193.239C84.6857 201.606 83.325 212.826 78.7481 221.009C78.0775 231.204 79.1496 252.448 94.7012 277.044L95.8513 279.251C101.656 290.424 104.69 302.826 104.69 315.418V462.763C117.715 472.459 131.746 480.876 146.584 487.854Z" fill="#FE9D9A"/>
<path d="M100.311 289.609C101.532 293.106 102.498 296.681 103.208 300.311C117.118 273.625 121.925 245.496 122.545 214.736C106.861 213.734 95.1145 205.052 84.9742 193.239C84.6623 202.265 83.1574 213.126 78.7481 221.009C76.6116 253.508 95.1223 274.643 100.311 289.609Z" fill="#F98F8F"/>
<path d="M125.637 298.677C107.255 298.677 90.9196 289.972 80.4869 276.471H76.2451V437.987C103.473 465.648 137.231 486.856 175.032 499.109V276.467H170.787C160.358 289.972 144.019 298.677 125.637 298.677Z" fill="#D9F5FF"/>
<path d="M125.637 298.677C107.255 298.677 90.9196 289.972 80.4869 276.471H76.2451V301.609C89.9215 312.139 107.04 318.42 125.637 318.42C144.233 318.42 161.356 312.139 175.032 301.609V276.467H170.787C160.358 289.972 144.019 298.677 125.637 298.677Z" fill="#ABE4FE"/>
<path d="M188.381 96.951C187.652 95.0523 186.736 93.1303 185.582 91.3174C183.625 88.2453 182.763 84.6118 183.025 80.99C183.781 70.5729 183.375 50.1987 169.699 44.0427C158.081 38.8147 143.828 41.8439 134.74 44.8653C128.838 46.8302 122.44 46.8302 116.537 44.8653C107.446 41.8439 93.1964 38.8147 81.5785 44.0427C67.8631 50.2142 67.4927 70.6898 68.2569 81.0797C68.522 84.6742 67.637 88.2687 65.6955 91.3174C64.5727 93.0757 63.6799 94.9354 62.9625 96.7755C60.6389 102.744 59.9606 109.216 60.83 115.555L64.0658 139.107C64.0658 172.962 82.136 195.976 97.5121 207.914C105.536 214.148 115.438 217.532 125.637 217.532C135.836 217.532 145.738 214.148 153.765 207.914C169.138 195.976 187.212 172.962 187.212 139.107L190.444 115.563C191.305 109.286 190.65 102.873 188.381 96.951Z" fill="#FFBAAE"/>
<path d="M119.38 207.913C107.61 195.976 93.7734 172.962 93.7734 139.107L91.2977 115.555C90.6311 109.216 91.1496 102.744 92.9274 96.7715C93.4771 94.9313 94.1632 93.0717 95.017 91.3173C96.5063 88.2686 97.1847 84.6741 96.9819 81.0795C96.3971 70.6897 96.6778 50.2141 107.181 44.0426C107.949 43.5904 108.74 43.22 109.539 42.8847C101.029 40.8925 90.5258 40.0192 81.5785 44.0426C67.8631 50.2141 67.4927 70.6897 68.2569 81.0795C68.522 84.6741 67.637 88.2686 65.6955 91.3173C64.5727 93.0717 63.6799 94.9313 62.9625 96.7715C60.6389 102.744 59.9606 109.216 60.83 115.555L64.0658 139.107C64.0658 172.962 82.1399 195.976 97.5121 207.913C105.536 214.143 115.438 217.531 125.637 217.531C128.561 217.531 131.454 217.243 134.288 216.701C128.88 215.348 123.762 212.362 119.38 207.913Z" fill="#FE9D9A"/>
<path d="M202.584 103.879C199.403 100.963 193.067 102.44 190.327 104.226C190.927 107.961 190.962 111.785 190.444 115.559L187.212 139.107C187.212 141.005 187.149 142.865 187.04 144.693C194.923 147.072 198.841 139.996 199.5 135.142C199.785 133.048 200.249 130.99 200.892 128.978C202.989 122.428 210.553 111.181 202.584 103.879Z" fill="#F98F8F"/>
<path d="M48.6936 103.879C51.8748 100.963 58.2101 102.44 60.9469 104.226C60.3466 107.961 60.3154 111.785 60.8339 115.559L64.0658 139.107C64.0658 141.005 64.1243 142.865 64.2335 144.693C56.3505 147.072 52.4362 139.996 51.7774 135.142C51.4928 133.048 51.0288 130.99 50.3856 128.978C48.2881 122.428 40.7248 111.181 48.6936 103.879Z" fill="#F98F8F"/>
<path d="M96.6973 277.044C74.8611 242.514 81.5707 214.572 81.5707 214.572C80.1555 218.775 78.1789 222.658 75.4654 225.668C75.2237 225.933 74.9937 226.214 74.7403 226.467C66.3192 228.412 57.8748 231.075 50.3778 234.065C25.6332 243.847 21.0835 250.826 12.0972 251.559C10.1362 251.718 8.24924 251.956 6.40909 252.249C6.14008 256.958 5.98804 261.699 5.98804 266.479C5.98804 347.761 45.6604 419.765 106.686 464.228V315.418C106.686 302.825 103.652 290.424 97.8435 279.25L96.6973 277.044Z" fill="#FBC840"/>
<path d="M96.6973 277.044C96.5765 276.849 96.4673 276.662 96.3465 276.467L85.6096 286.1C85.6096 286.1 99.0677 297.765 106.686 315.418C106.686 302.825 103.652 290.424 97.8435 279.25L96.6973 277.044Z" fill="#F9B50B"/>
<path d="M81.5707 214.572C81.5707 214.572 64.9781 218.486 55.7891 232.023C55.7891 255.625 63.4304 278.03 68.2686 289.851C70.058 294.213 75.5941 295.527 79.1418 292.42L96.6973 277.044C78.0814 235.407 81.5707 214.572 81.5707 214.572Z" fill="#FFEBB3"/>
<path d="M239.176 251.559C230.19 250.826 225.64 243.847 200.896 234.065C193.399 231.075 184.951 228.412 176.529 226.467C176.276 226.214 176.046 225.933 175.804 225.668C173.095 222.658 171.118 218.779 169.703 214.572C169.703 214.572 176.409 242.514 154.576 277.044L153.426 279.25C147.621 290.424 144.588 302.825 144.588 315.418V486.93C163.703 496.127 184.198 502.903 205.676 506.883H228.888C228.888 506.883 235.262 479.605 235.262 453.655C235.262 435.71 240.264 417.328 243.352 397.909C243.461 397.235 244.038 396.736 244.72 396.736C245.473 396.736 246.085 397.32 246.112 398.069C246.447 406.895 249.457 423.558 250.51 433.047L310.471 425.25C311.246 408.622 307.808 378.416 300.369 351.671C300.369 351.671 310.517 257.391 239.176 251.559Z" fill="#FBC840"/>
<path d="M154.576 277.044C154.697 276.849 154.806 276.662 154.927 276.467L165.664 286.1C165.664 286.1 152.206 297.765 144.588 315.418C144.588 302.825 147.621 290.424 153.43 279.25L154.576 277.044Z" fill="#F9B50B"/>
<path d="M169.703 214.572C169.703 214.572 186.299 218.486 195.488 232.023C195.488 255.625 187.843 278.03 183.005 289.851C181.219 294.213 175.68 295.527 172.132 292.42L154.576 277.044C173.192 235.407 169.703 214.572 169.703 214.572Z" fill="#FFEBB3"/>
<path d="M141.075 100.947C133.543 103.384 129.695 112.409 134.405 119.832C140.12 128.83 150.943 140.623 164.561 140.623C178.179 140.623 182.798 127.368 182.798 119.345C182.798 111.321 177.816 98.0659 160.303 98.0659C152.167 98.0659 145.684 99.4577 141.075 100.947Z" fill="#3C2B8E"/>
<path d="M110.198 100.947C117.734 103.384 121.582 112.409 116.869 119.832C111.153 128.83 100.335 140.623 86.713 140.623C73.0951 140.623 68.4752 127.368 68.4752 119.345C68.4752 111.321 73.4615 98.0659 90.9703 98.0659C99.1067 98.0659 105.59 99.4577 110.198 100.947Z" fill="#3C2B8E"/>
<path d="M149.543 117.169C144.83 109.75 148.682 100.721 156.214 98.2845C156.327 98.2494 156.459 98.2143 156.576 98.1753C150.175 98.5184 144.954 99.6919 141.075 100.947C133.543 103.384 129.695 112.413 134.405 119.832C140.12 128.826 150.943 140.624 164.561 140.624C168.732 140.624 172.054 139.376 174.662 137.423C163.418 135.017 154.533 125.025 149.543 117.169Z" fill="#2C217C"/>
<path d="M83.6135 116.682C83.6135 110.916 86.1866 102.448 94.1359 98.14C93.1067 98.0932 92.058 98.0659 90.9703 98.0659C73.4615 98.0659 68.4752 111.317 68.4752 119.345C68.4752 127.368 73.099 140.623 86.7169 140.623C90.9313 140.623 94.8767 139.489 98.4868 137.66C87.4654 135.676 83.6135 124.003 83.6135 116.682Z" fill="#2C217C"/>
<path d="M129.59 114.732C127.188 113.169 124.085 113.169 121.684 114.732C121.606 114.783 121.528 114.83 121.446 114.877C119.15 116.19 116.222 115.391 114.908 113.095C113.629 110.861 114.346 108.031 116.498 106.67C122.073 103.068 129.255 103.079 134.818 106.701C137.036 108.144 137.664 111.114 136.218 113.333C134.775 115.551 131.808 116.179 129.59 114.732Z" fill="#554CBF"/>
<path d="M304.779 166.148L378.314 177.606L451.846 166.148C451.846 166.148 463.067 162.596 463.067 152.943C463.067 143.286 422.646 128.269 378.314 128.269C378.314 128.269 294.786 132.296 294.786 152.939C294.786 152.939 294.116 161.575 304.779 166.148Z" fill="#F9B50B"/>
<path d="M275.293 456.252C274.993 451.535 275.262 446.802 276.151 442.159C279.02 427.137 279.441 411.141 279.547 397.04C279.547 396.475 280.003 396.015 280.568 396.015C281.094 396.015 281.531 396.404 281.586 396.927C282.568 406.603 283.683 418.79 287.94 429.769C292.323 441.079 295.044 452.962 296.057 465.047L299.5 506.088C403.383 484.962 483.324 397.976 493.846 290.623C486.723 286.147 479.831 284.214 475.546 283.391C475.546 283.391 406.494 270.791 406.494 246.3C406.494 242.319 406.494 243.512 406.494 240.935C399.554 247.138 387.659 255.036 377.858 255.274C368.061 255.036 356.166 247.138 349.227 240.935V246.3C349.227 270.791 280.17 283.391 280.17 283.391C271.757 285.009 253.289 290.884 242.771 311.925C229.102 339.262 230.058 400.478 234.88 445.847C235.071 447.609 235.173 449.371 235.176 451.141L235.379 510.521C240.385 510.825 245.426 511.001 250.51 511.001C257.874 511.001 265.161 510.654 272.362 510.018C272.935 488.841 276.003 467.375 275.293 456.252Z" fill="#FE9D9A"/>
<path d="M377.858 255.278C368.061 255.04 356.162 247.138 349.227 240.935V246.3C349.227 258.362 332.471 267.539 315.469 273.75C319.87 282.085 320.58 288.693 320.58 288.693C326.459 293.044 328.927 299.348 329.547 305.952C345.402 299.605 361.422 292.713 368.139 288.319C377.18 282.401 380.182 266.748 381.125 254.923C380.018 255.118 378.927 255.251 377.858 255.278Z" fill="#F98F8F"/>
<path d="M459.211 393.948C455.971 386.56 453.562 376.713 453.562 363.75C453.562 339.005 451.765 299.645 435.589 271.894C425.004 255.851 411.312 257.224 411.312 257.224C411.312 257.224 440.112 276.417 415.835 329.071C404.435 353.8 388.537 380.073 382.677 392.584C381.96 394.116 380.615 395.305 378.958 395.656C376.482 396.174 374.116 394.888 373.094 392.697C367.277 380.233 351.316 353.874 339.882 329.071C315.605 276.417 344.404 257.224 344.404 257.224C344.404 257.224 330.712 255.851 320.127 271.894C303.952 299.645 302.159 339.005 302.159 363.75C302.159 388.44 293.418 401.843 286.861 408.424C282.58 412.724 284.377 418.518 284.779 424.884L293.122 507.293C363.383 494.946 423.308 452.599 459.211 393.948Z" fill="#D93A59"/>
<path d="M439.086 233.04C434.423 216.717 432.494 203.972 432.073 194.124C428.533 206.9 423.909 218.21 418.271 227.851C415.02 233.414 410.985 238.397 406.299 242.716C399.297 283.562 412.392 314.334 422.693 331.149C424.864 334.693 430.65 333.207 430.595 329.114C430.131 295.25 451.636 276.989 439.086 233.04Z" fill="#483BA8"/>
<path d="M423.815 248.397C432.443 248.397 439.843 253.648 442.993 261.126C443.164 252.884 442.135 243.726 439.086 233.036C434.423 216.713 432.49 203.972 432.073 194.124C428.533 206.896 423.909 218.206 418.271 227.851C415.02 233.414 410.985 238.397 406.299 242.716C405.16 249.356 404.56 255.722 404.388 261.812C407.371 253.976 414.934 248.397 423.815 248.397Z" fill="#3C2B8E"/>
<path d="M322.755 186.05C322.755 186.05 319.313 164.257 323.278 151.275C319.679 148.877 312.724 147.707 309.597 150.764C303.196 157.021 307.886 166.475 310.131 172.444C310.821 174.28 311.266 176.132 311.469 177.992C311.905 182.027 314.092 187.933 323.168 187.797C323.028 187.212 322.888 186.639 322.755 186.05Z" fill="#F98F8F"/>
<path d="M447.024 150.764C443.897 147.707 436.942 148.877 433.344 151.275C437.308 164.257 433.866 186.05 433.866 186.05C433.733 186.639 433.593 187.212 433.457 187.797C442.529 187.933 444.72 182.027 445.156 177.992C445.355 176.132 445.8 174.28 446.49 172.444C448.735 166.475 453.425 157.021 447.024 150.764Z" fill="#F98F8F"/>
<path d="M323.278 151.274C324.065 148.697 325.145 146.467 326.599 144.822C327.913 143.344 328.736 141.516 328.794 139.559C329.137 128.128 333.531 92.8963 375.726 109.072C377.387 109.707 379.235 109.707 380.895 109.072C423.09 92.8963 427.484 128.124 427.827 139.559C427.885 141.516 428.708 143.344 430.022 144.822C431.48 146.467 432.556 148.697 433.344 151.274C435.484 149.851 438.802 148.869 441.804 148.939V122.99C441.804 101.964 430.08 82.4791 411.059 72.6624C402.369 68.1829 391.566 65.0718 378.314 65.0718C365.059 65.0718 354.252 68.1829 345.566 72.6624C326.545 82.4791 314.821 101.964 314.821 122.99V148.939C317.82 148.869 321.141 149.851 323.278 151.274Z" fill="#3C2B8E"/>
<path d="M430.357 144.522C429.051 143.048 428.33 141.325 428.279 139.544C428.076 132.756 426.361 116.148 414.852 108.483C406.685 103.045 395.207 103.099 380.732 108.651C379.168 109.251 377.449 109.251 375.89 108.651C361.414 103.103 349.936 103.045 341.769 108.479C330.26 116.148 328.545 132.756 328.342 139.544C328.291 141.329 327.57 143.048 326.26 144.522C319.051 152.647 320.63 176.378 322.315 186.148C326.038 202.588 331.434 216.923 338.346 228.756C345.367 240.767 355.995 250.109 369.086 255.773C374.95 258.311 381.671 258.311 387.535 255.773C400.626 250.109 411.254 240.767 418.271 228.756C425.188 216.927 430.579 202.592 434.314 186.12C435.928 175.848 437.652 152.74 430.357 144.522Z" fill="#FFBAAE"/>
<path d="M370.233 228.756C365.582 216.923 361.956 202.588 359.449 186.148C358.318 176.378 357.258 152.647 362.104 144.522C362.985 143.048 363.468 141.325 363.504 139.543C363.64 132.756 364.79 116.144 372.537 108.479C372.806 108.214 373.083 107.968 373.363 107.731C360.077 103.119 349.453 103.364 341.769 108.479C330.26 116.144 328.545 132.756 328.342 139.543C328.291 141.325 327.57 143.048 326.26 144.522C319.051 152.647 320.63 176.378 322.315 186.148C326.038 202.588 331.434 216.923 338.346 228.756C345.363 240.767 355.995 250.108 369.086 255.773C374.95 258.311 381.671 258.311 387.535 255.773C388.217 255.477 388.884 255.169 389.55 254.853C381.371 249.126 374.708 240.144 370.233 228.756Z" fill="#FE9D9A"/>
<path d="M378.311 113.072C404.034 113.072 427.854 115.298 447.32 119.083L438.42 69.953C437.086 62.9394 432.802 57.0642 426.899 54.1519C410.841 46.2221 394.505 42.2299 378.311 41.9375C362.12 42.2299 345.78 46.2221 329.726 54.1519C323.823 57.0642 319.539 62.9394 318.202 69.953L309.301 119.083C328.771 115.298 352.587 113.072 378.311 113.072Z" fill="#FBC840"/>
<path d="M341.363 65.6531C342.459 58.0196 345.975 51.6336 350.817 48.464C353.145 46.9397 355.48 45.5595 357.819 44.3003C348.416 46.2964 339.024 49.5595 329.726 54.1521C323.823 57.0644 319.539 62.9396 318.202 69.9532L309.301 119.084C317.079 117.571 325.558 116.312 334.572 115.341L341.363 65.6531Z" fill="#F9B50B"/>
<path d="M378.311 93.1694C354.209 93.1694 331.78 95.1226 313.036 98.4872L309.301 119.084C328.771 115.298 352.587 113.072 378.311 113.072C404.034 113.072 427.854 115.298 447.32 119.084L443.589 98.4872C424.845 95.1265 402.416 93.1694 378.311 93.1694Z" fill="#F97396"/>
<path d="M337.332 95.1499C328.724 96.0115 320.576 97.1343 313.036 98.4871C312.693 100.362 309.695 116.924 309.301 119.084C315.593 117.832 324.72 116.405 334.572 115.341L337.332 95.1499Z" fill="#F7577A"/>
<path d="M404.798 113.883C405.804 113.863 415.811 116.522 427.293 111.329C426.232 109.992 425.691 108.241 425.936 106.425L426.954 98.8964C427.199 97.0797 428.19 95.5397 429.566 94.53C419.913 86.5105 409.574 86.3857 408.56 86.0855C407.402 85.9296 406.334 86.7444 406.178 87.9023C405.16 95.4071 403.999 103.992 402.981 111.497C402.825 112.659 403.64 113.723 404.798 113.883Z" fill="#F7577A"/>
<path d="M426.954 98.8966L425.936 106.425C425.691 108.242 426.232 109.988 427.293 111.329C420.385 114.456 414.01 114.737 409.811 114.468C409.983 114.425 410.158 114.386 410.33 114.339C418.326 112.129 423.016 103.852 420.806 95.8596C419.733 91.9804 417.227 88.881 414.026 86.9707C418.131 87.883 423.963 89.8752 429.57 94.5301C428.19 95.5399 427.199 97.0798 426.954 98.8966Z" fill="#D93A59"/>
<path d="M445.527 101.411L444.509 108.939C444.264 110.756 443.273 112.296 441.893 113.306C451.585 121.364 461.94 121.466 462.903 121.75C464.065 121.906 465.129 121.091 465.285 119.933C466.303 112.429 467.464 103.844 468.482 96.3389C468.638 95.1771 467.827 94.1128 466.665 93.9529C465.612 93.9724 455.609 91.3447 444.17 96.5065C445.23 97.8477 445.772 99.5942 445.527 101.411Z" fill="#F7577A"/>
<path d="M461.858 93.9492C453.944 96.1363 449.305 104.327 451.492 112.242C452.556 116.082 455.032 119.146 458.201 121.041C454.08 120.21 447.862 118.269 441.893 113.306C443.273 112.296 444.264 110.756 444.509 108.939L445.527 101.411C445.772 99.5944 445.23 97.8478 444.17 96.5067C452.326 92.8264 459.749 93.1071 463.722 93.5633C463.102 93.6529 462.478 93.7777 461.858 93.9492Z" fill="#D93A59"/>
<path d="M430.587 113.621L438.112 114.639C441.659 115.118 444.954 112.612 445.437 109.064L446.455 101.54C446.934 97.9879 444.423 94.6936 440.876 94.214L433.351 93.1965C429.804 92.717 426.509 95.2238 426.03 98.7715L425.008 106.296C424.529 109.844 427.039 113.142 430.587 113.621Z" fill="#F97396"/>
<path d="M435.827 100.039L434.79 107.684C434.377 110.729 436.139 113.582 438.864 114.694C438.614 114.69 438.365 114.674 438.112 114.639L430.587 113.621C427.039 113.142 424.529 109.844 425.008 106.296L426.03 98.7715C426.509 95.2238 429.804 92.717 433.351 93.1965L440.88 94.214C441.129 94.2491 441.379 94.2998 441.62 94.3622C438.692 94.7053 436.236 96.9899 435.827 100.039Z" fill="#F7577A"/>
<path d="M378.311 109.072C307.792 109.072 250.627 123.13 250.627 140.475C250.627 151.083 272.022 160.463 304.779 166.148C300.186 163.005 297.629 159.52 297.629 155.847C297.629 142.042 333.753 130.853 378.311 130.853C422.872 130.853 458.993 142.042 458.993 155.847C458.993 159.52 456.435 163.005 451.846 166.148C484.599 160.463 505.994 151.083 505.994 140.475C505.994 123.13 448.829 109.072 378.311 109.072Z" fill="#FCDB75"/>
<path d="M250.51 511.001C284.962 511.001 317.745 503.858 347.476 491.004C347.398 433.944 316.658 427.141 279.098 427.141H231.219C193.609 427.141 162.837 433.96 162.837 491.211V494.794C190.058 505.254 219.609 511.001 250.51 511.001Z" fill="#52B0F5"/>
<path d="M255.157 464.311C271.636 464.311 285.122 450.825 285.122 434.346V427.207C283.137 427.161 281.126 427.141 279.098 427.141H231.219C229.188 427.141 227.176 427.165 225.192 427.207V434.346C225.192 450.825 238.677 464.311 255.157 464.311Z" fill="#82C6F9"/>
<path d="M196.44 489.067C196.44 454.603 205.52 436.634 219.843 427.406C187.598 429.083 162.837 439.855 162.837 491.211V494.794C173.687 498.965 184.912 502.369 196.44 504.977V489.067Z" fill="#2299F2"/>
<path d="M255.157 450.864C243.414 450.864 233.808 441.258 233.808 429.519V412.135C233.808 400.393 243.418 390.787 255.157 390.787C266.9 390.787 276.506 400.393 276.506 412.135V429.519C276.506 441.258 266.9 450.864 255.157 450.864Z" fill="#F98F8F"/>
<path d="M322.576 288.693C322.576 288.693 317.765 243.75 255.157 240.377C192.549 243.75 187.738 288.693 187.738 288.693C169.013 302.549 184.888 336.26 184.888 336.26H325.426C325.426 336.26 341.305 302.549 322.576 288.693Z" fill="#3C2B8E"/>
<path d="M262.697 336.26C264.553 319.095 264.132 296.779 253.009 282.666C232.861 257.106 255.157 240.377 255.157 240.377C192.549 243.75 187.738 288.693 187.738 288.693C169.013 302.549 184.888 336.26 184.888 336.26H262.697Z" fill="#2C217C"/>
<path d="M330.595 330.662C324.116 327.173 318.588 328.74 315.188 330.565C318.319 350.202 317.457 365.231 314.599 376.646C329.925 379.356 330.685 361.988 332.12 356.997C333.64 351.691 341.437 336.494 330.595 330.662Z" fill="#F98F8F"/>
<path d="M195.126 330.565C191.726 328.74 186.202 327.173 179.719 330.662C168.876 336.494 176.678 351.691 178.198 356.997C179.629 361.988 180.389 379.356 195.715 376.646C192.857 365.231 191.999 350.202 195.126 330.565Z" fill="#F98F8F"/>
<path d="M315.43 328.424C306.412 275.746 255.157 282.865 255.157 282.865C255.157 282.865 203.906 275.746 194.888 328.424C185.871 381.098 205.102 401.461 216.042 407.792C222.198 411.352 227.446 415.441 230.475 418.065C244.447 430.159 265.851 430.174 279.839 418.065C282.872 415.441 288.12 411.352 294.276 407.792C305.215 401.465 324.443 381.102 315.43 328.424Z" fill="#FFBAAE"/>
<path d="M254.9 417.847C252.716 415.161 248.935 410.97 244.502 407.321C236.623 400.841 222.771 379.983 229.266 326.03C232.471 299.407 243.083 287.699 253.009 282.666C243.208 282.019 202.794 282.21 194.888 328.424C185.871 381.098 205.102 401.461 216.038 407.792C222.194 411.352 227.445 415.441 230.475 418.065C240.186 426.471 253.484 429.036 265.387 425.757C261.594 424.287 257.991 421.656 254.9 417.847Z" fill="#FE9D9A"/>
<path d="M88.2919 255.523C79.2861 228.233 81.5707 214.572 81.5707 214.572C81.5707 214.572 64.9742 218.486 55.7852 232.023C55.7852 244.342 57.8709 256.33 60.5493 266.662C63.7695 254.646 77.6252 249.044 88.2919 255.523Z" fill="#FCDB75"/>
<path d="M162.982 255.523C171.988 228.233 169.703 214.572 169.703 214.572C169.703 214.572 186.299 218.486 195.488 232.023C195.488 244.342 193.403 256.33 190.728 266.662C187.504 254.646 173.648 249.044 162.982 255.523Z" fill="#FCDB75"/>
<path d="M40.2453 238.397C24.1205 245.859 19.6917 250.939 12.0972 251.559C10.1362 251.719 8.24924 251.956 6.40909 252.249C6.14008 256.958 5.98804 261.699 5.98804 266.479C5.98804 288.26 8.84183 309.375 14.1868 329.473C19.103 257.446 40.2453 238.397 40.2453 238.397Z" fill="#F9B50B"/>
<path d="M364.077 131.247C364.073 131.247 364.065 131.243 364.057 131.243C321.223 127.672 335.172 110.916 335.176 110.912C285.886 115.263 250.627 126.854 250.627 140.475C250.627 151.084 272.022 160.464 304.779 166.148C300.186 163.006 297.629 159.52 297.629 155.848C297.629 143.547 326.311 133.329 364.077 131.247Z" fill="#FBC840"/>
</g>
<defs>
<clipPath id="clip0">
<rect width="511" height="511" fill="white"/>
</clipPath>
</defs>
</svg>
