<svg width="512" height="512" viewBox="0 0 512 512" fill="none" xmlns="http://www.w3.org/2000/svg">
<g clip-path="url(#clip0)">
<path d="M479.355 367.832C493.262 337.078 501 302.945 501 267C501 131.691 391.312 22 256 22C120.691 22 11 131.688 11 267C11 302.945 18.7383 337.078 32.6445 367.832H479.355Z" fill="#D93A59"/>
<path d="M479.793 366.832V62.2617C479.793 28.0195 451.773 0 417.531 0H174.078C151.387 0 131.437 12.3086 120.555 30.5703H132.02C148.484 30.5703 161.836 43.9219 161.836 60.3906V215.176C152.789 234.445 147.727 255.953 147.727 278.648C147.727 301.344 152.789 322.852 161.836 342.121V482.184C161.836 485.801 161.191 489.266 160.012 492.473C189.484 505.035 221.922 511.996 255.98 512H256.02C355.766 511.992 441.574 452.375 479.793 366.832Z" fill="#52B0F5"/>
<path d="M224.504 0H174.078C151.387 0 131.437 12.3086 120.555 30.5703H132.016C148.484 30.5703 161.836 43.9219 161.836 60.3906V215.176C152.789 234.445 147.727 255.953 147.727 278.648C147.727 301.344 152.789 322.852 161.836 342.121V482.184C161.836 485.801 161.188 489.266 160.012 492.473C178.559 500.379 198.281 506.062 218.84 509.191V61.2617C218.84 52.0859 220.863 43.3633 224.469 35.5039C207.297 16.125 224.504 0 224.504 0V0Z" fill="#2299F2"/>
<path d="M217.586 41.0547H203.746C197.348 41.0547 192.113 46.2891 192.113 52.6875V102.469C192.113 108.863 197.348 114.102 203.746 114.102H217.586C223.98 114.102 229.215 108.867 229.215 102.469V52.6875C229.215 46.2891 223.98 41.0547 217.586 41.0547Z" fill="#ABE4FE"/>
<path d="M280.102 53.6953C280.102 60.6797 274.441 66.3398 267.461 66.3398C260.48 66.3398 254.82 60.6797 254.82 53.6953C254.82 46.7148 260.48 41.0547 267.461 41.0547C274.441 41.0547 280.102 46.7148 280.102 53.6953Z" fill="#82C6F9"/>
<path d="M217.582 120.961H203.746C193.547 120.961 185.254 112.664 185.254 102.469V52.6875C185.254 42.4883 193.547 34.1914 203.746 34.1914H217.582C227.781 34.1914 236.074 42.4883 236.074 52.6875V102.469C236.078 112.664 227.781 120.961 217.582 120.961ZM203.746 47.9141C201.16 47.9141 198.977 50.1016 198.977 52.6836V102.469C198.977 105.055 201.16 107.238 203.746 107.238H217.586C220.172 107.238 222.355 105.055 222.355 102.469V52.6875C222.355 50.1016 220.172 47.9141 217.586 47.9141H203.746Z" fill="#D9F5FF"/>
<path d="M132.02 30.5703H95.6953C82.0352 30.5703 70.1211 39.8555 66.7812 53.1016L33.1133 186.699C32.5117 189.082 32.207 191.527 32.207 193.984V366.832C57.375 423.16 103.176 468.246 160.012 492.473C161.191 489.266 161.836 485.801 161.836 482.184V60.3906C161.836 43.9219 148.484 30.5703 132.02 30.5703Z" fill="#82C6F9"/>
<path d="M107.172 30.5703H95.6953C82.0352 30.5703 70.1211 39.8555 66.7812 53.1016L33.1133 186.699C32.5117 189.082 32.207 191.527 32.207 193.984V366.832C48.9766 404.367 74.918 436.898 107.172 461.602V231.836C107.172 228.68 105.676 225.676 103.082 223.879C93.8984 217.516 100.605 206.293 100.605 206.293V181.656C97.375 174.113 99.4414 169.012 102.082 165.895C104.586 162.941 104.988 158.742 103.309 155.254C94.293 136.547 100.684 119.695 104.652 112.145C106.094 109.402 106.125 106.164 104.82 103.355C96.4414 85.2734 100.402 71.7891 103.891 64.9023C105.48 61.7656 105.23 58.0195 103.289 55.0898C94.0859 41.1953 107.172 30.5703 107.172 30.5703Z" fill="#52B0F5"/>
<path d="M408.512 60.5586H365.211C361.422 60.5586 358.348 57.4844 358.348 53.6953C358.348 49.9063 361.422 46.8359 365.211 46.8359H408.512C412.301 46.8359 415.371 49.9063 415.371 53.6953C415.375 57.4844 412.301 60.5586 408.512 60.5586Z" fill="#ABE4FE"/>
<path d="M386.859 53.6953C386.859 49.9063 389.934 46.8359 393.723 46.8359H365.211C361.422 46.8359 358.348 49.9063 358.348 53.6953C358.348 57.4844 361.422 60.5586 365.211 60.5586H393.723C389.934 60.5586 386.859 57.4844 386.859 53.6953Z" fill="#82C6F9"/>
<path d="M267.465 99.7149C262.387 99.7149 258.316 95.5899 258.316 90.5665C258.316 84.6602 263.75 80.4922 269.246 81.6016C273.598 82.4844 276.609 86.2618 276.609 90.5665C276.609 95.5586 272.555 99.7149 267.465 99.7149Z" fill="#ABE4FE"/>
<path d="M132.328 193.945C132.328 212.137 117.582 226.883 99.3906 226.883C81.1992 226.883 66.4531 212.137 66.4531 193.945C66.4531 175.754 81.1992 161.008 99.3906 161.008C117.582 161.008 132.328 175.754 132.328 193.945Z" fill="#52B0F5"/>
<path d="M104.16 161.355C102.602 161.129 101.012 161.008 99.3906 161.008C81.1992 161.008 66.4531 175.754 66.4531 193.945C66.4531 212.137 81.1992 226.887 99.3906 226.887C101.473 226.887 103.508 226.684 105.484 226.312C104.848 225.371 104.039 224.543 103.082 223.879C93.8984 217.516 100.605 206.293 100.605 206.293V181.656C97.375 174.113 99.4453 169.016 102.086 165.895C103.203 164.574 103.879 163 104.16 161.355Z" fill="#2299F2"/>
<path d="M127.258 59.7695H68.1641C63.6758 59.7695 59.7617 62.8203 58.6602 67.1758L50.2148 100.699C49.2852 104.379 52.0703 107.949 55.8672 107.949H127.258C130.047 107.949 132.328 105.668 132.328 102.879V64.8438C132.328 62.0547 130.047 59.7695 127.258 59.7695Z" fill="#52B0F5"/>
<path d="M58.6602 67.1758L50.2148 100.695C49.2852 104.379 52.0703 107.949 55.8672 107.949H105.758C105.809 106.391 105.5 104.816 104.824 103.355C96.4453 85.2734 100.406 71.7891 103.895 64.9062C104.711 63.2891 105.035 61.5117 104.898 59.7695H68.1641C63.6758 59.7695 59.7578 62.8203 58.6602 67.1758Z" fill="#2299F2"/>
<path d="M99.3906 206.293C92.5742 206.293 87.0391 200.758 87.0391 193.945C87.0391 186.762 93.2617 180.906 100.605 181.656C106.781 182.219 111.738 187.57 111.738 193.945C111.738 200.582 106.355 206.293 99.3906 206.293Z" fill="#1588E8"/>
<path d="M446.863 278.648C446.863 361.254 379.898 428.219 297.297 428.219C214.691 428.219 147.727 361.254 147.727 278.648C147.727 196.043 214.691 129.078 297.297 129.078C379.898 129.078 446.863 196.043 446.863 278.648Z" fill="#3C2B8E"/>
<path d="M390.113 395.934C375.578 394.809 373.301 384.434 373.18 378.633C373.137 376.57 371.633 374.789 369.598 374.465C358.898 372.762 357.668 363.816 357.855 358.758C357.93 356.766 356.633 354.984 354.707 354.469C332.207 348.414 329.871 328.281 329.914 319.848C329.926 317.906 328.609 316.156 326.715 315.727C321.863 314.633 320.293 311.191 319.805 308.688C319.48 307.043 318.211 305.789 316.574 305.418C302.586 302.238 306.375 287.434 306.375 287.434L292.375 267C281.59 264.309 280.344 255.137 280.449 250.422C280.488 248.828 279.637 247.348 278.234 246.586C273.867 244.223 272.664 239.645 272.375 236.535C272.203 234.688 270.852 233.156 269.035 232.77C246.844 228.035 245.695 206.695 246.125 198.336C246.223 196.473 245.094 194.742 243.328 194.129C233.801 190.824 232.539 182.438 232.645 177.68C232.688 175.785 231.426 174.078 229.602 173.562C214.766 169.383 216.723 152.621 216.723 152.617C175.227 179.203 147.727 225.715 147.727 278.652C147.727 361.258 214.691 428.219 297.293 428.219C332.363 428.219 364.609 416.145 390.113 395.934Z" fill="#2C217C"/>
<path d="M297.293 401.305C229.664 401.305 174.641 346.281 174.641 278.648C174.641 211.02 229.664 155.996 297.293 155.996C364.926 155.996 419.949 211.02 419.949 278.648C419.949 346.281 364.926 401.305 297.293 401.305Z" fill="#483BA8"/>
<path d="M372.055 375.816C371.426 375.117 370.574 374.621 369.598 374.465C358.898 372.762 357.668 363.816 357.855 358.758C357.93 356.766 356.633 354.984 354.707 354.469C332.207 348.414 329.871 328.281 329.914 319.848C329.926 317.906 328.605 316.156 326.715 315.727C321.863 314.633 320.293 311.191 319.801 308.688C319.48 307.043 318.211 305.789 316.574 305.418C302.586 302.238 306.371 287.434 306.371 287.434L292.375 267C281.59 264.309 280.344 255.137 280.449 250.422C280.488 248.828 279.637 247.348 278.234 246.586C273.867 244.223 272.664 239.645 272.375 236.535C272.203 234.688 270.852 233.156 269.035 232.77C246.844 228.035 245.695 206.695 246.125 198.336C246.223 196.473 245.094 194.742 243.328 194.129C233.801 190.824 232.539 182.437 232.645 177.68C232.668 176.695 232.332 175.766 231.754 175.023C197.453 196.793 174.641 235.105 174.641 278.648C174.641 346.281 229.664 401.305 297.293 401.305C325.41 401.305 351.344 391.785 372.055 375.816Z" fill="#3C2B8E"/>
<path d="M297.293 180.695C243.281 180.695 199.344 224.637 199.344 278.648C199.344 332.66 243.281 376.602 297.293 376.602C351.305 376.602 395.246 332.66 395.246 278.648C395.246 224.637 351.305 180.695 297.293 180.695Z" fill="#554CBF"/>
<path d="M357.098 356.172C356.539 355.359 355.715 354.738 354.707 354.469C332.207 348.414 329.871 328.281 329.914 319.848C329.926 317.906 328.605 316.156 326.715 315.727C321.863 314.633 320.293 311.191 319.801 308.688C319.48 307.043 318.211 305.789 316.574 305.418C302.586 302.238 306.371 287.434 306.371 287.434L292.375 267C281.59 264.309 280.344 255.137 280.449 250.422C280.488 248.828 279.637 247.348 278.234 246.586C273.867 244.223 272.664 239.645 272.375 236.535C272.203 234.688 270.852 233.156 269.035 232.77C246.844 228.035 245.695 206.695 246.125 198.336C246.176 197.352 245.879 196.414 245.336 195.648C217.73 212.992 199.34 243.711 199.34 278.648C199.34 332.66 243.281 376.602 297.293 376.602C319.793 376.602 340.543 368.973 357.098 356.172Z" fill="#483BA8"/>
<path d="M322.23 233.332H272.359C268 233.332 264.469 236.863 264.469 241.223V316.078C264.469 320.434 268 323.969 272.359 323.969H322.23C326.59 323.969 330.121 320.434 330.121 316.078V241.223C330.121 236.863 326.59 233.332 322.23 233.332Z" fill="#3C2B8E"/>
<path d="M272.359 323.969H322.23C325.719 323.969 328.676 321.699 329.715 318.562C329.285 317.176 328.176 316.059 326.715 315.727C321.863 314.633 320.293 311.191 319.805 308.688C319.484 307.043 318.211 305.789 316.578 305.418C302.586 302.238 306.375 287.434 306.375 287.434L292.375 267C281.59 264.309 280.344 255.137 280.449 250.422C280.488 248.828 279.637 247.348 278.234 246.586C273.867 244.223 272.664 239.645 272.375 236.535C272.262 235.305 271.617 234.223 270.664 233.52C267.121 234.293 264.469 237.445 264.469 241.223V316.078C264.469 320.434 268.004 323.969 272.359 323.969Z" fill="#2C217C"/>
<path d="M245.633 278.648C245.633 285.633 239.973 291.289 232.992 291.289C226.012 291.289 220.352 285.633 220.352 278.648C220.352 271.668 226.012 266.008 232.992 266.008C239.973 266.008 245.633 271.668 245.633 278.648Z" fill="#FBC840"/>
<path d="M330.121 265.871C325.004 252.734 312.242 243.422 297.297 243.422C282.348 243.422 269.586 252.734 264.469 265.871V291.43C269.586 304.562 282.348 313.875 297.297 313.875C312.238 313.875 325.004 304.562 330.121 291.43V265.871Z" fill="#ABE4FE"/>
<path d="M297.297 313.875C305.355 313.875 312.766 311.148 318.699 306.594C318.137 306.02 317.402 305.605 316.578 305.418C302.586 302.238 306.375 287.434 306.375 287.434L292.375 267C281.59 264.309 280.344 255.137 280.449 250.422C280.469 249.578 280.234 248.773 279.809 248.082C272.867 252.066 267.406 258.332 264.469 265.871V291.43C269.586 304.562 282.348 313.875 297.297 313.875Z" fill="#82C6F9"/>
<path d="M309.938 278.648C309.938 285.633 304.277 291.289 297.297 291.289C290.312 291.289 284.652 285.633 284.652 278.648C284.652 271.668 290.312 266.008 297.297 266.008C304.277 266.008 309.938 271.668 309.938 278.648Z" fill="#52B0F5"/>
</g>
<defs>
<clipPath id="clip0">
<rect width="512" height="512" fill="white"/>
</clipPath>
</defs>
</svg>
