<svg width="511" height="511" viewBox="0 0 511 511" fill="none" xmlns="http://www.w3.org/2000/svg">
<g clip-path="url(#clip0)">
<path d="M93.3213 449.456H417.679C424.926 443.031 431.788 436.182 438.224 428.946L472.723 378.837C490.162 345.192 500.022 306.989 500.022 266.479C500.022 131.43 390.544 21.957 255.5 21.957C120.456 21.957 10.9785 131.43 10.9785 266.479C10.9785 339.293 42.8186 404.661 93.3213 449.456Z" fill="#83D912"/>
<path d="M292.79 32.0078V188.479H319.531V39.9103C314.701 37.154 305.539 34.1404 292.79 32.0078Z" fill="#D9F5FF"/>
<path d="M191.999 39.9103V188.475H218.744V32.0078C205.995 34.1404 196.83 37.154 191.999 39.9103Z" fill="#D9F5FF"/>
<path d="M310.244 103.649C314.966 105.138 318.096 108.397 319.531 112.234V39.9103C314.701 37.154 305.539 34.1404 292.79 32.0078V112.136C295.332 105.399 302.845 101.317 310.244 103.649Z" fill="#ABE4FE"/>
<path d="M200.795 103.805C208.923 101.189 216.249 105.52 218.744 112.148V32.0078C205.995 34.1404 196.83 37.154 191.999 39.9103V112.257C193.469 108.319 196.635 105.138 200.795 103.805Z" fill="#ABE4FE"/>
<path d="M317.289 23.1695C312.895 21.3683 307.098 19.5711 300.034 17.9843C294.853 16.8186 289.921 20.7718 289.921 26.0856V65.5787C289.921 70.1635 293.64 73.8788 298.221 73.8788H314.1C318.685 73.8788 322.4 70.1635 322.4 65.5787V30.8342C322.4 27.4814 320.393 24.4404 317.289 23.1695Z" fill="#483BA8"/>
<path d="M194.245 23.1695C198.639 21.3683 204.432 19.5711 211.496 17.9843C216.678 16.8186 221.609 20.7718 221.609 26.0856V65.5787C221.609 70.1635 217.894 73.8788 213.309 73.8788H197.434C192.849 73.8788 189.134 70.1635 189.134 65.5787V30.8342C189.134 27.4814 191.142 24.4404 194.245 23.1695Z" fill="#483BA8"/>
<path d="M317.289 23.1695C312.895 21.3683 307.098 19.5711 300.034 17.9843C294.853 16.8186 289.921 20.7718 289.921 26.0856V62.4481V62.1635C289.921 53.1967 297.192 45.9257 306.163 45.9257C315.129 45.9257 322.4 53.1967 322.4 62.1635V30.8342C322.4 27.4814 320.393 24.4404 317.289 23.1695Z" fill="#3C2B8E"/>
<path d="M211.496 17.9806C204.436 19.5713 198.639 21.3646 194.245 23.1697C191.142 24.4407 189.134 27.4777 189.134 30.8344V62.1637C189.134 53.1969 196.405 45.926 205.372 45.926C214.342 45.926 221.609 53.1969 221.609 62.1637V26.0859C221.609 20.7721 216.681 16.8189 211.496 17.9806Z" fill="#3C2B8E"/>
<path d="M170.67 39.6608C165.399 34.846 165.025 26.6706 169.84 21.3997C176.206 14.4251 187.828 8.96699 204.377 5.17364C247.157 -4.6236 321.063 -1.19281 341.691 21.3997C346.506 26.6706 346.135 34.846 340.86 39.6608C335.589 44.4756 327.418 44.1014 322.599 38.8304C317.804 33.579 293.246 25.8051 255.765 25.8051C218.284 25.8051 193.726 33.579 188.931 38.8304C184.12 44.1014 175.945 44.4756 170.67 39.6608Z" fill="#554CBF"/>
<path d="M364.56 182.253H146.974C117.462 182.253 93.3213 206.397 93.3213 235.906V449.457C136.479 487.741 193.27 511 255.5 511C317.987 511 374.989 487.55 418.213 448.985V235.906C418.213 206.397 394.069 182.253 364.56 182.253Z" fill="#2299F2"/>
<path d="M170.6 228.919C170.6 208.978 181.633 191.5 197.89 182.253H146.974C117.462 182.253 93.3213 206.397 93.3213 235.906V449.457C115.773 469.371 141.921 485.211 170.6 495.835V228.919Z" fill="#1588E8"/>
<path d="M442.026 352.65C435.102 342.724 426.154 337.254 416.829 337.254C412.864 337.254 409.648 334.042 409.648 330.073C409.648 326.108 412.864 322.892 416.829 322.892C430.989 322.892 444.119 330.545 453.803 344.435C456.072 347.691 455.273 352.166 452.022 354.435C448.77 356.7 444.291 355.905 442.026 352.65Z" fill="#483BA8"/>
<path d="M472.723 378.837C470.794 365.106 466.061 351.967 458.517 341.149C454.435 335.293 446.376 333.858 440.521 337.94C434.665 342.022 433.23 350.081 437.312 355.936C451.055 375.648 451.347 408.646 438.224 428.946C451.694 413.807 463.316 396.989 472.723 378.837Z" fill="#82C6F9"/>
<path d="M265.785 232.315H245.75C238.611 232.315 232.822 226.53 232.822 219.391C232.822 212.253 238.611 206.463 245.75 206.463H265.785C272.923 206.463 278.708 212.253 278.708 219.391C278.708 226.53 272.923 232.315 265.785 232.315Z" fill="#FBC840"/>
<path d="M251.122 219.391C251.122 212.253 256.907 206.463 264.046 206.463H245.75C238.611 206.463 232.822 212.253 232.822 219.391C232.822 226.53 238.611 232.315 245.75 232.315H264.046C256.907 232.315 251.122 226.53 251.122 219.391Z" fill="#F9B50B"/>
<path d="M319.531 189.434C315.566 189.434 312.354 186.217 312.354 182.253V164.65C312.354 156.997 306.124 150.771 298.471 150.771C294.506 150.771 291.289 147.555 291.289 143.59C291.289 139.625 294.506 136.409 298.471 136.409C314.046 136.409 326.712 149.079 326.712 164.65V182.253C326.712 186.217 323.5 189.434 319.531 189.434Z" fill="#483BA8"/>
<path d="M191.999 189.434C188.034 189.434 184.818 186.217 184.818 182.253V164.65C184.818 149.079 197.489 136.409 213.06 136.409C217.028 136.409 220.241 139.625 220.241 143.59C220.241 147.555 217.028 150.771 213.06 150.771C205.407 150.771 199.181 156.997 199.181 164.65V182.253C199.181 186.217 195.968 189.434 191.999 189.434Z" fill="#483BA8"/>
<path d="M93.3213 256.093V307.796H418.213V256.093H93.3213Z" fill="#52B0F5"/>
<path d="M93.3213 256.093H170.6V307.796H93.3213V256.093Z" fill="#2299F2"/>
<path d="M391.355 289.126H120.179C116.21 289.126 112.998 285.913 112.998 281.944C112.998 277.98 116.21 274.763 120.179 274.763H391.355C395.32 274.763 398.536 277.98 398.536 281.944C398.536 285.913 395.32 289.126 391.355 289.126Z" fill="#82C6F9"/>
<path d="M163.399 281.944C163.399 277.98 166.611 274.763 170.58 274.763H120.179C116.21 274.763 112.998 277.98 112.998 281.944C112.998 285.913 116.21 289.126 120.179 289.126H170.58C166.611 289.126 163.399 285.909 163.399 281.944Z" fill="#52B0F5"/>
<path d="M351.928 296.786C354.798 296.786 357.359 298.057 359.11 300.057V281.944C359.11 277.98 355.897 274.763 351.928 274.763C347.964 274.763 344.747 277.98 344.747 281.944V300.057C346.498 298.057 349.063 296.786 351.928 296.786Z" fill="#D9F5FF"/>
<path d="M351.928 294.872C346.658 294.872 342.389 299.145 342.389 304.416V320.533C342.389 325.804 346.658 330.073 351.928 330.073C357.199 330.073 361.472 325.8 361.472 320.533V304.416C361.472 299.145 357.199 294.872 351.928 294.872Z" fill="#483BA8"/>
<path d="M351.928 314.353C346.658 314.353 342.389 310.081 342.389 304.813V320.533C342.389 325.804 346.658 330.073 351.928 330.073C357.199 330.073 361.472 325.8 361.472 320.533V304.813C361.472 310.081 357.199 314.353 351.928 314.353Z" fill="#3C2B8E"/>
<path d="M298.471 156.518H213.06C205.921 156.518 200.136 150.728 200.136 143.59C200.136 136.452 205.921 130.666 213.06 130.666H298.471C305.613 130.666 311.398 136.452 311.398 143.59C311.398 150.728 305.609 156.518 298.471 156.518Z" fill="#82C6F9"/>
<path d="M250.529 143.59C250.529 136.452 256.315 130.666 263.457 130.666H213.06C205.921 130.666 200.136 136.452 200.136 143.59C200.136 150.728 205.921 156.514 213.06 156.514H263.457C256.315 156.518 250.529 150.728 250.529 143.59Z" fill="#2299F2"/>
<path d="M418.213 294.872H391.355C384.217 294.872 378.431 289.083 378.431 281.944C378.431 274.806 384.217 269.021 391.355 269.021H418.213C425.351 269.021 431.137 274.806 431.137 281.944C431.137 289.083 425.351 294.872 418.213 294.872Z" fill="#2299F2"/>
<path d="M402.388 281.944C402.388 274.806 408.174 269.021 415.312 269.021H391.355C384.217 269.021 378.427 274.806 378.427 281.944C378.427 289.083 384.217 294.872 391.355 294.872H415.312C408.174 294.872 402.388 289.083 402.388 281.944Z" fill="#1588E8"/>
<path d="M120.179 294.872H93.3213C86.179 294.872 80.3934 289.083 80.3934 281.944C80.3934 274.806 86.179 269.021 93.3213 269.021H120.179C127.317 269.021 133.103 274.806 133.103 281.944C133.103 289.083 127.317 294.872 120.179 294.872Z" fill="#2299F2"/>
<path d="M103.349 281.944C103.349 274.806 109.134 269.021 116.276 269.021H93.3213C86.179 269.021 80.3934 274.806 80.3934 281.944C80.3934 289.083 86.179 294.872 93.3213 294.872H116.276C109.134 294.872 103.349 289.083 103.349 281.944Z" fill="#1588E8"/>
<path d="M238.019 12.7561C238.019 6.95885 241.699 2.03099 246.845 0.151855C231.457 0.646981 216.639 2.36627 204.377 5.17328C187.828 8.96664 176.206 14.4247 169.84 21.3993C165.025 26.6703 165.399 34.8457 170.67 39.6605C175.945 44.4753 184.12 44.101 188.931 38.8262C193.418 33.9139 215.208 26.795 248.689 25.8983C242.596 24.6274 238.019 19.2278 238.019 12.7561Z" fill="#483BA8"/>
<path d="M460.833 372.576C465.495 372.576 469.675 374.607 472.567 377.819C470.548 364.459 465.874 351.698 458.517 341.149C454.439 335.293 446.38 333.858 440.525 337.94C434.669 342.022 433.23 350.081 437.312 355.936C442.221 362.977 445.402 371.714 446.883 380.961C449.538 375.971 454.786 372.576 460.833 372.576Z" fill="#2299F2"/>
</g>
<defs>
<clipPath id="clip0">
<rect width="511" height="511" fill="white"/>
</clipPath>
</defs>
</svg>
