<svg width="512" height="512" viewBox="0 0 512 512" fill="none" xmlns="http://www.w3.org/2000/svg">
<g clip-path="url(#clip0)">
<path d="M478.879 367.637C479.055 367.668 479.227 367.699 479.402 367.73C493.277 337.008 501.004 302.906 501.004 267C501.004 131.691 391.312 22 256 22C142.57 22 47.1602 99.0898 19.2656 203.734C33.1523 210.828 273.121 332.391 478.879 367.637Z" fill="#3C2B8E"/>
<path d="M107.785 462.078C148.941 493.395 200.297 512 256 512C311.707 512 363.059 493.395 404.215 462.078H107.785Z" fill="#F7577A"/>
<path d="M313.324 462.078H107.785C148.941 493.395 200.297 512 256 512C270.895 512 285.469 510.656 299.629 508.109C280.898 496.684 286.027 462.078 313.324 462.078Z" fill="#D93A59"/>
<path d="M218.492 247.395C206.664 251.398 192.809 253.699 177.988 253.699C141.379 253.699 110.637 239.652 101.926 220.648C108.043 257.016 141.379 281.719 177.988 281.719C192.652 281.719 206.582 277.918 218.492 270.961V247.395Z" fill="#2299F2"/>
<path d="M161.645 252.742C161.645 252.742 173.539 262.27 166.852 272.574C165.27 275.004 164 277.609 163.109 280.328C167.965 281.234 172.941 281.719 177.984 281.719C192.652 281.719 206.578 277.918 218.488 270.961V247.395C206.664 251.398 192.809 253.699 177.984 253.699C172.383 253.699 166.918 253.367 161.645 252.742Z" fill="#1588E8"/>
<path d="M218.492 447.566V268.32C206.664 275.461 192.812 279.582 177.988 279.582C140.191 279.582 108.648 252.883 101.148 217.32C99.3164 208.648 91.7305 202.406 82.8672 202.406H19.625C14.0117 222.984 11 244.641 11 267C11 348.406 50.7148 420.527 111.816 465.082H236.004C226.332 465.078 218.492 457.238 218.492 447.566Z" fill="#52B0F5"/>
<path d="M218.492 447.566V268.32C206.664 275.461 192.812 279.582 177.988 279.582C173.16 279.582 168.438 279.141 163.852 278.305C162.441 281.766 161.648 285.445 161.648 289.223V465.078H236.004C226.332 465.078 218.492 457.238 218.492 447.566Z" fill="#2299F2"/>
<path d="M55.9219 239.512C51.4961 239.512 47.9062 235.922 47.9062 231.492V132.379C47.9062 60.6523 106.262 2.30078 177.984 2.30078C212.113 2.30078 244.363 15.418 268.793 39.2383C271.961 42.332 272.027 47.4062 268.934 50.5742C265.844 53.7461 260.77 53.8086 257.598 50.7188C236.18 29.8359 207.906 18.332 177.984 18.332C115.102 18.332 63.9375 69.4922 63.9375 132.379V231.492C63.9414 235.922 60.3516 239.512 55.9219 239.512Z" fill="#D9F5FF"/>
<path d="M268.793 39.2383C259.387 30.0664 248.82 22.4922 237.438 16.6289C240.602 22.7422 236.445 30.1758 229.496 30.5859C239.711 35.7656 249.184 42.5117 257.598 50.7188C260.77 53.8086 265.844 53.7422 268.938 50.5742C272.027 47.4062 271.961 42.3281 268.793 39.2383Z" fill="#ABE4FE"/>
<path d="M55.9219 188.535C51.4961 188.535 47.9062 184.945 47.9062 180.52V231.492C47.9062 235.922 51.4961 239.508 55.9219 239.508C60.3516 239.508 63.9375 235.922 63.9375 231.492V180.52C63.9375 184.945 60.3516 188.535 55.9219 188.535Z" fill="#ABE4FE"/>
<path d="M479.879 155.234C479.879 145.562 472.039 137.723 462.363 137.723H233.867C224.195 137.723 216.352 145.562 216.352 155.234V447.566C216.352 457.238 224.195 465.082 233.867 465.082H400.188C434.656 439.945 462.316 406.043 479.879 366.641V155.234Z" fill="#FCDB75"/>
<path d="M286.734 447.566V137.719H233.867C224.195 137.719 216.352 145.562 216.352 155.234V447.566C216.352 457.238 224.195 465.078 233.867 465.078H304.25C294.578 465.078 286.734 457.238 286.734 447.566Z" fill="#FBC840"/>
<path d="M289.859 0V0.5625C291.223 1.28125 292.234 2.66406 292.234 4.48828V33.2773H403.996V4.48828C403.996 2.69531 404.98 1.33594 406.309 0.609375V0L289.859 0Z" fill="#554CBF"/>
<path d="M361.949 0C368.289 2.86328 372.711 9.23047 372.711 16.6406C372.711 24.0469 368.289 30.4141 361.949 33.2773H403.996V4.48828C403.996 2.69531 404.98 1.33594 406.309 0.609375V0L361.949 0Z" fill="#483BA8"/>
<path d="M435.137 139.86V30.1798C435.137 28.1134 434.316 26.1369 432.855 24.6759L409.504 1.32045C406.684 -1.49986 401.859 0.496233 401.859 4.48842V139.86H435.137Z" fill="#6464D8"/>
<path d="M294.371 139.86V4.48842C294.371 0.496233 289.551 -1.49986 286.727 1.32045L263.375 24.6759C261.914 26.1369 261.094 28.1173 261.094 30.1798V139.86H294.371Z" fill="#6464D8"/>
<path d="M423.461 93.9922H413.535C407.086 93.9922 401.859 88.7656 401.859 82.3164V139.859H435.137V82.3125C435.137 88.7656 429.91 93.9922 423.461 93.9922Z" fill="#554CBF"/>
<path d="M282.695 93.9922H272.77C266.32 93.9922 261.094 88.7656 261.094 82.3164V139.859H294.371V82.3125C294.371 88.7656 289.145 93.9922 282.695 93.9922Z" fill="#554CBF"/>
<path d="M479.879 366.637V256.734C423.102 304.328 338.891 306.879 278.934 258.84L216.352 208.695V265.949L264.73 326.352C313.234 386.91 388.547 413.43 460.164 402.457C467.684 391.141 474.293 379.168 479.879 366.637Z" fill="#FBC840"/>
<path d="M278.934 258.84L216.352 208.695V265.949L264.73 326.352C271.559 334.875 278.934 342.699 286.734 349.863V264.699C284.094 262.836 281.492 260.887 278.934 258.84Z" fill="#F9B50B"/>
<path d="M462.363 137.719H400.395C417.66 166.668 429.18 205.66 401.859 242.184C359.082 299.371 278.934 258.84 278.934 258.84L282.594 263.812C342.277 308.887 424.25 305.504 479.879 258.871V155.234C479.879 145.562 472.035 137.719 462.363 137.719Z" fill="#F9B50B"/>
<path d="M295.129 137.719H260.25C256.352 137.719 253.195 140.879 253.195 144.773V165.121C253.195 169.016 256.352 172.176 260.25 172.176H295.129C299.027 172.176 302.188 169.016 302.188 165.121V144.773C302.184 140.879 299.027 137.719 295.129 137.719Z" fill="#FBC840"/>
<path d="M435.938 137.719H401.059C397.16 137.719 394.004 140.879 394.004 144.773V165.121C394.004 169.016 397.16 172.176 401.059 172.176H435.938C439.836 172.176 442.992 169.016 442.992 165.121V144.773C442.992 140.879 439.836 137.719 435.938 137.719Z" fill="#FBC840"/>
<path d="M278.934 165.121V144.777C278.934 140.879 282.094 137.723 285.988 137.723H260.25C256.352 137.723 253.195 140.879 253.195 144.777V165.121C253.195 169.02 256.352 172.176 260.25 172.176H285.988C282.094 172.176 278.934 169.02 278.934 165.121Z" fill="#F9B50B"/>
<path d="M419.742 165.121V144.777C419.742 140.879 422.902 137.723 426.801 137.723H401.059C397.16 137.723 394.004 140.879 394.004 144.777V165.121C394.004 169.02 397.16 172.176 401.059 172.176H426.801C422.902 172.176 419.742 169.02 419.742 165.121Z" fill="#F9B50B"/>
<path d="M83.2344 239.797C74.5274 224.715 55.2383 219.547 40.1524 228.254C25.0664 236.965 19.8985 256.254 28.6094 271.34C37.3203 286.422 56.6094 291.59 71.6914 282.883C86.7774 274.172 91.9453 254.883 83.2344 239.797Z" fill="#2299F2"/>
<path d="M67.9492 263.562L55.0196 241.164C50.8047 241.461 46.5899 239.406 44.336 235.504C42.7305 232.727 42.4375 229.559 43.2461 226.699C42.1992 227.16 41.1641 227.676 40.1524 228.262C25.0664 236.969 19.8985 256.262 28.6094 271.344C37.3164 286.43 56.6094 291.598 71.6914 282.891C72.7071 282.305 73.6719 281.668 74.5938 280.992C71.711 280.266 69.1133 278.422 67.5117 275.645C65.2578 271.742 65.586 267.066 67.9492 263.562Z" fill="#1588E8"/>
<path d="M71.7031 255.574C71.7031 264.289 64.6406 271.355 55.9258 271.355C47.207 271.355 40.1445 264.289 40.1445 255.574C40.1445 246.859 47.207 239.793 55.9258 239.793C64.6406 239.793 71.7031 246.859 71.7031 255.574Z" fill="#82C6F9"/>
</g>
<defs>
<clipPath id="clip0">
<rect width="512" height="512" fill="white"/>
</clipPath>
</defs>
</svg>
