<svg width="512" height="512" viewBox="0 0 512 512" fill="none" xmlns="http://www.w3.org/2000/svg">
<path d="M497.355 309.266C499.746 295.531 501 281.414 501 267C501 131.688 391.309 22 256 22C120.691 22 11 131.688 11 267C11 281.414 12.2578 295.531 14.6445 309.266H497.355Z" fill="#2299F2"/>
<path d="M107.785 462.078C148.941 493.395 200.293 512 256 512C311.707 512 363.059 493.395 404.215 462.078H107.785Z" fill="#483BA8"/>
<path d="M219.785 462.078H107.785C138.828 485.699 175.672 502.082 215.809 508.711C187.559 503.805 190.949 462.078 219.785 462.078Z" fill="#3C2B8E"/>
<path d="M456.121 81.4336H55.8789C33.1094 81.4336 14.4766 100.062 14.4766 122.836V308.262C25.8555 375.34 64.4844 433.141 118.59 469.859H393.41C447.516 433.141 486.145 375.34 497.523 308.262V122.836C497.523 100.062 478.891 81.4336 456.121 81.4336Z" fill="#D93A59"/>
<path d="M347.133 188.105L331.035 175.734C328.691 173.93 325.426 173.93 323.078 175.734L306.984 188.105C305.375 189.344 304.434 191.254 304.434 193.285V251.387C304.434 254.992 307.355 257.914 310.965 257.914H343.152C346.758 257.914 349.684 254.992 349.684 251.387V193.285C349.684 191.254 348.738 189.344 347.133 188.105Z" fill="#82C6F9"/>
<path d="M332.406 250.274V218.774C332.406 217.512 331.793 216.309 330.738 215.613C327.258 213.328 329.074 209.344 329.074 209.344V174.707C327.07 174.055 324.82 174.395 323.078 175.734L306.984 188.106C305.375 189.344 304.434 191.254 304.434 193.285V251.387C304.434 254.992 307.355 257.918 310.961 257.918H336.539C332.301 255.242 332.406 250.274 332.406 250.274Z" fill="#52B0F5"/>
<path d="M162.258 414.77V90.8477C162.258 86.0898 165.797 82.125 170.371 81.4336H55.8789C33.1094 81.4336 14.4766 100.062 14.4766 122.836V308.266C25.8555 375.34 64.4844 433.141 118.59 469.859H202.711C179.328 462.465 162.258 440.516 162.258 414.77Z" fill="#BA1C37"/>
<path d="M346.801 92.8945C341.664 92.8945 337.504 88.7304 337.504 83.5976C337.504 67.5429 329.324 52.3007 314.477 40.6835C310.434 37.5195 309.719 31.6757 312.883 27.6327C316.047 23.5859 321.891 22.8749 325.934 26.039C345.387 41.2577 356.098 61.6992 356.098 83.5976C356.098 88.7304 351.934 92.8945 346.801 92.8945Z" fill="#D9F5FF"/>
<path d="M165.199 92.8945C160.066 92.8945 155.902 88.7304 155.902 83.5976C155.902 61.6992 166.613 41.2577 186.066 26.039C190.109 22.8749 195.953 23.5859 199.117 27.6327C202.281 31.6757 201.57 37.5195 197.523 40.6835C182.676 52.3007 174.496 67.539 174.496 83.5976C174.496 88.7304 170.336 92.8945 165.199 92.8945Z" fill="#D9F5FF"/>
<path d="M191.805 45.9102C188.074 45.9102 184.387 44.2578 181.91 41.0938C177.637 35.6367 178.602 27.7461 184.059 23.4766C203.406 8.33594 228.957 0 256 0C283.043 0 308.59 8.33594 327.937 23.4727C333.398 27.7461 334.359 35.6328 330.09 41.0938C325.816 46.5547 317.926 47.5156 312.473 43.2422C297.52 31.5469 277.465 25.1016 256 25.1016C234.535 25.1016 214.48 31.5469 199.527 43.2461C197.234 45.0391 194.508 45.9102 191.805 45.9102Z" fill="#483BA8"/>
<path d="M267.977 221.133H244.023C237.094 221.133 231.473 215.516 231.473 208.582C231.473 201.652 237.094 196.031 244.023 196.031H267.977C274.906 196.031 280.527 201.652 280.527 208.582C280.527 215.516 274.906 221.133 267.977 221.133Z" fill="#F97396"/>
<path d="M252.805 208.582C252.805 201.648 258.426 196.031 265.355 196.031H244.023C237.09 196.031 231.473 201.652 231.473 208.582C231.473 215.516 237.09 221.133 244.023 221.133H265.355C258.426 221.133 252.805 215.516 252.805 208.582Z" fill="#F7577A"/>
<path d="M122.918 112.34V174.156H389.484V112.34H122.918Z" fill="#F7577A"/>
<path d="M122.918 112.34V174.156H162.258V112.34H122.918Z" fill="#D93A59"/>
<path d="M354.586 150.219H157.816C153.965 150.219 150.844 147.098 150.844 143.246C150.844 139.395 153.965 136.273 157.816 136.273H354.586C358.438 136.273 361.559 139.395 361.559 143.246C361.559 147.098 358.438 150.219 354.586 150.219Z" fill="#F97396"/>
<path d="M157.816 155.801H122.918C115.984 155.801 110.367 150.18 110.367 143.246C110.367 136.316 115.984 130.695 122.918 130.695H157.816C164.75 130.695 170.367 136.316 170.367 143.246C170.367 150.18 164.75 155.801 157.816 155.801Z" fill="#BA1C37"/>
<path d="M121.184 76.6289H85.8672C83.3672 76.6289 81.3438 78.6523 81.3438 81.1523V438.793C94.2383 451.902 108.594 463.574 124.152 473.531C125.098 472.703 125.707 471.5 125.707 470.145V81.1523C125.707 78.6523 123.68 76.6289 121.184 76.6289Z" fill="#F9B50B"/>
<path d="M121.184 76.6289H85.8672C83.3672 76.6289 81.3438 78.6523 81.3438 81.1523V358.848C81.3438 346.598 91.2734 336.668 103.527 336.668C115.777 336.668 125.707 346.598 125.707 358.848V81.1523C125.707 78.6523 123.68 76.6289 121.184 76.6289Z" fill="#F79D0D"/>
<path d="M81.3438 285.73C81.3438 298.25 91.7148 308.348 104.332 307.898C116.352 307.473 125.707 297.227 125.707 285.199V81.1523C125.707 78.6523 123.68 76.6289 121.184 76.6289H85.8672C83.3672 76.6289 81.3438 78.6523 81.3438 81.1523V285.73Z" fill="#FBC840"/>
<path d="M125.707 257.246H81.3438C77.4922 257.246 74.3711 254.121 74.3711 250.273C74.3711 246.422 77.4922 243.301 81.3438 243.301H125.707C129.559 243.301 132.68 246.422 132.68 250.273C132.68 254.121 129.559 257.246 125.707 257.246Z" fill="#FFEBB3"/>
<path d="M116.535 174.156C116.535 181.34 110.711 187.164 103.523 187.164C96.3398 187.164 90.5156 181.34 90.5156 174.156C90.5156 166.969 96.3398 161.145 103.523 161.145C110.711 161.145 116.535 166.969 116.535 174.156Z" fill="#F9B50B"/>
<path d="M111.195 208.477C111.195 212.715 107.762 216.148 103.523 216.148C99.2891 216.148 95.8555 212.715 95.8555 208.477C95.8555 204.242 99.2891 200.809 103.523 200.809C107.762 200.809 111.195 204.242 111.195 208.477Z" fill="#F9B50B"/>
<path d="M121.484 230.094H85.5664C75.8633 230.094 67.9688 222.199 67.9688 212.496V174.52C67.9688 164.816 75.8633 156.926 85.5664 156.926H121.484C131.188 156.926 139.078 164.816 139.078 174.52V212.496C139.078 222.199 131.188 230.094 121.484 230.094ZM85.5664 170.871C83.5898 170.871 81.9141 172.543 81.9141 174.52V212.496C81.9141 214.477 83.5898 216.148 85.5664 216.148H121.484C123.461 216.148 125.133 214.477 125.133 212.496V174.52C125.133 172.539 123.461 170.871 121.484 170.871H85.5664Z" fill="#D9F5FF"/>
<path d="M103.523 181.188C99.6758 181.188 96.5508 178.062 96.5508 174.215V156.746C96.5508 152.895 99.6758 149.773 103.523 149.773C107.375 149.773 110.496 152.895 110.496 156.746V174.215C110.496 178.062 107.379 181.188 103.523 181.188Z" fill="#ABE4FE"/>
<path d="M389.484 155.801H354.586C347.652 155.801 342.035 150.18 342.035 143.246C342.035 136.316 347.652 130.695 354.586 130.695H389.484C396.414 130.695 402.035 136.316 402.035 143.246C402.035 150.18 396.414 155.801 389.484 155.801Z" fill="#D93A59"/>
<path d="M426.133 76.6289H390.816C388.32 76.6289 386.293 78.6523 386.293 81.1523V470.141C386.293 471.496 386.902 472.699 387.848 473.531C403.41 463.574 417.762 451.902 430.656 438.789V81.1523C430.656 78.6523 428.633 76.6289 426.133 76.6289Z" fill="#F9B50B"/>
<path d="M426.133 76.6289H390.816C388.316 76.6289 386.293 78.6523 386.293 81.1523V358.848C386.293 346.598 396.223 336.668 408.477 336.668C420.727 336.668 430.656 346.598 430.656 358.848V81.1523C430.656 78.6523 428.633 76.6289 426.133 76.6289Z" fill="#F79D0D"/>
<path d="M386.293 285.73C386.293 298.25 396.664 308.348 409.285 307.898C421.305 307.473 430.656 297.227 430.656 285.199V81.1523C430.656 78.6523 428.633 76.6289 426.133 76.6289H390.816C388.32 76.6289 386.293 78.6523 386.293 81.1523V285.73Z" fill="#FBC840"/>
<path d="M430.656 257.246H386.293C382.441 257.246 379.32 254.121 379.32 250.273C379.32 246.422 382.441 243.301 386.293 243.301H430.656C434.508 243.301 437.629 246.422 437.629 250.273C437.629 254.121 434.508 257.246 430.656 257.246Z" fill="#FFEBB3"/>
<path d="M101.258 250.273C101.258 246.422 104.379 243.301 108.23 243.301H81.3438C77.4922 243.301 74.3711 246.422 74.3711 250.273C74.3711 254.121 77.4922 257.246 81.3438 257.246H108.23C104.379 257.246 101.258 254.121 101.258 250.273Z" fill="#FCDB75"/>
<path d="M406.207 250.273C406.207 246.422 409.328 243.301 413.18 243.301H386.293C382.441 243.301 379.32 246.422 379.32 250.273C379.32 254.121 382.441 257.246 386.293 257.246H413.18C409.328 257.246 406.207 254.121 406.207 250.273Z" fill="#FCDB75"/>
<path d="M421.484 174.156C421.484 181.34 415.66 187.164 408.477 187.164C401.289 187.164 395.465 181.34 395.465 174.156C395.465 166.969 401.289 161.145 408.477 161.145C415.66 161.145 421.484 166.969 421.484 174.156Z" fill="#F9B50B"/>
<path d="M416.145 208.477C416.145 212.715 412.711 216.148 408.477 216.148C404.238 216.148 400.805 212.715 400.805 208.477C400.805 204.242 404.238 200.809 408.477 200.809C412.711 200.809 416.145 204.242 416.145 208.477Z" fill="#F9B50B"/>
<path d="M426.434 230.094H390.516C380.812 230.094 372.922 222.199 372.922 212.496V174.52C372.922 164.816 380.812 156.926 390.516 156.926H426.434C436.137 156.926 444.031 164.816 444.031 174.52V212.496C444.031 222.199 436.137 230.094 426.434 230.094ZM390.516 170.871C388.539 170.871 386.867 172.543 386.867 174.52V212.496C386.867 214.477 388.539 216.148 390.516 216.148H426.434C428.414 216.148 430.086 214.477 430.086 212.496V174.52C430.086 172.539 428.414 170.871 426.434 170.871H390.516Z" fill="#D9F5FF"/>
<path d="M408.477 181.188C404.625 181.188 401.504 178.062 401.504 174.215V156.746C401.504 152.895 404.625 149.773 408.477 149.773C412.324 149.773 415.449 152.895 415.449 156.746V174.215C415.449 178.062 412.328 181.188 408.477 181.188Z" fill="#ABE4FE"/>
<path d="M341.336 203.18C341.336 211.062 334.941 217.457 327.059 217.457C319.172 217.457 312.777 211.062 312.777 203.18C312.777 195.293 319.172 188.898 327.059 188.898C334.941 188.898 341.336 195.293 341.336 203.18Z" fill="#52B0F5"/>
<path d="M330.738 215.613C327.258 213.328 329.074 209.344 329.074 209.344V189.059C328.414 188.965 327.742 188.898 327.059 188.898C319.172 188.898 312.777 195.289 312.777 203.176C312.777 211.062 319.172 217.457 327.059 217.457C328.711 217.457 330.289 217.16 331.766 216.645C331.496 216.242 331.152 215.891 330.738 215.613Z" fill="#2299F2"/>
<path d="M327.059 209.641C323.207 209.641 320.086 206.52 320.086 202.668V136.273C320.086 132.426 323.203 129.301 327.059 129.301C330.91 129.301 334.031 132.426 334.031 136.273V202.668C334.031 206.52 330.906 209.641 327.059 209.641Z" fill="#D9F5FF"/>
<path d="M243.57 12.0703C243.57 7.20312 245.922 2.89062 249.535 0.179688C224.906 1.39844 201.859 9.55078 184.059 23.4766C178.602 27.7461 177.637 35.6367 181.91 41.0938C184.387 44.2578 188.074 45.9102 191.805 45.9102C194.508 45.9102 197.234 45.0391 199.531 43.2461C213.426 32.3711 231.727 26.0508 251.469 25.207C246.77 22.707 243.57 17.7656 243.57 12.0703Z" fill="#3C2B8E"/>
</svg>
