<svg width="511" height="511" viewBox="0 0 511 511" fill="none" xmlns="http://www.w3.org/2000/svg">
<g clip-path="url(#clip0)">
<path d="M473.48 377.379C490.45 344.092 500.022 306.404 500.022 266.479C500.022 131.43 390.548 21.957 255.5 21.957C120.456 21.957 10.9785 131.43 10.9785 266.479C10.9785 306.404 20.5535 344.092 37.5203 377.379H473.48Z" fill="#3C2B8E"/>
<path d="M453.706 409.679H432.829V434.837C440.33 426.934 447.304 418.529 453.706 409.679Z" fill="#FC6938"/>
<path d="M78.1752 434.837V409.679H57.2942C63.6996 418.529 70.6704 426.934 78.1752 434.837Z" fill="#FC6938"/>
<path d="M425.671 0.264948C409.963 -2.35103 400.31 15.2201 397.609 21.6528L396.716 23.9452L383.671 155.715C387.067 161.75 390.084 168.062 392.677 174.627C406.252 208.985 416.564 244.455 423.542 280.568L444.24 29.7502C445.028 18.7171 441.628 2.91991 425.671 0.264948Z" fill="#FC6938"/>
<path d="M425.671 0.264948C409.963 -2.35103 400.31 15.2201 397.609 21.6528L396.716 23.9452L390.505 86.6662C395.351 78.7676 404.065 73.5005 414.006 73.5005C425.308 73.5005 435.012 80.3036 439.265 90.0346L444.24 29.7502C445.028 18.7171 441.628 2.91991 425.671 0.264948Z" fill="#ED4F24"/>
<path d="M85.3291 0.264948C101.037 -2.35103 110.694 15.2201 113.391 21.6528L114.284 23.9452L127.329 155.715C123.933 161.75 120.916 168.062 118.323 174.627C104.752 208.985 94.4402 244.455 87.4577 280.568L66.7638 29.7502C65.9724 18.7171 69.372 2.91991 85.3291 0.264948Z" fill="#FC6938"/>
<path d="M96.9938 73.5005C106.939 73.5005 115.649 78.7676 120.495 86.6623L114.284 23.9452L113.391 21.6528C110.694 15.2201 101.037 -2.35103 85.3291 0.264948C69.372 2.91991 65.9724 18.7171 66.7638 29.7502L71.7385 90.0385C75.988 80.3036 85.6955 73.5005 96.9938 73.5005Z" fill="#ED4F24"/>
<path d="M371.613 0.265137C352.143 3.05166e-05 343.402 24.0038 343.402 24.0038L315.527 91.0562C331.905 98.3934 346.88 108.557 359.745 121.064L396.993 24.0038C396.993 24.0038 406.809 2.54583 421.819 0.015625L371.613 0.265137Z" fill="#FF855F"/>
<path d="M362.233 70.5259C347.636 70.5259 335.699 59.1731 334.747 44.8184L315.527 91.056C331.905 98.3932 346.88 108.557 359.745 121.064L382.583 61.5512C377.546 67.0639 370.295 70.5259 362.233 70.5259Z" fill="#FC6938"/>
<path d="M139.391 0.265137C158.861 3.05166e-05 167.602 24.0038 167.602 24.0038L195.477 91.0562C179.099 98.3934 164.124 108.557 151.255 121.064L114.011 24.0038C114.011 24.0038 104.191 2.54583 89.1848 0.015625L139.391 0.265137Z" fill="#FF855F"/>
<path d="M176.253 44.8184C175.305 59.1731 163.364 70.5259 148.768 70.5259C140.709 70.5259 133.458 67.0639 128.421 61.5512L151.255 121.064C164.124 108.557 179.099 98.3932 195.477 91.056L176.253 44.8184Z" fill="#FC6938"/>
<path d="M473.975 352.626C473.975 344.038 466.946 337.008 458.357 337.008H431.086C432.24 351.909 432.829 366.891 432.829 381.94V411.519H452.365C460.513 400.478 467.753 388.731 473.979 376.38V352.626H473.975Z" fill="#FF855F"/>
<path d="M37.0251 352.626V376.38C43.2512 388.731 50.491 400.478 58.6391 411.519H78.1751V381.94C78.1751 366.891 78.7638 351.909 79.9178 337.008H52.643C44.0544 337.008 37.0251 344.038 37.0251 352.626Z" fill="#FF855F"/>
<path d="M76.7949 433.351C121.422 481.125 184.966 511 255.5 511C326.034 511 389.577 481.125 434.209 433.351V381.94C434.209 309.172 420.482 237.056 393.749 169.376C371.332 112.627 316.517 75.3408 255.5 75.3408C194.486 75.3408 139.668 112.627 117.255 169.372C90.522 237.056 76.7949 309.172 76.7949 381.94V433.351Z" fill="#FBC840"/>
<path d="M117.255 169.372C90.522 237.056 76.7949 309.173 76.7949 381.94V433.351C113.337 472.47 162.568 499.573 217.929 508.115C211.484 494.365 219.024 482.353 219.024 482.353L209.566 322.424C195.722 291.091 223.504 280.568 223.504 280.568L217.079 166.109C195.375 149.009 197.75 125.641 200.639 114.218C201.598 110.429 200.182 106.448 197.138 103.996C190.6 98.725 191.761 92.3507 192.935 89.1733C159.06 104.904 131.555 133.165 117.255 169.372Z" fill="#F9B50B"/>
<path d="M375.546 367.363H135.454C133.992 367.363 132.6 367.071 131.317 366.548V471.893C131.317 477.647 136.023 482.353 141.777 482.353H369.223C374.977 482.353 379.683 477.647 379.683 471.893V366.548C378.404 367.071 377.008 367.363 375.546 367.363Z" fill="#F79D0D"/>
<path d="M208.568 471.893V367.363H135.454C133.992 367.363 132.6 367.071 131.317 366.548V471.893C131.317 477.643 136.023 482.353 141.777 482.353H219.024C213.274 482.353 208.568 477.647 208.568 471.893Z" fill="#F48E06"/>
<path d="M337.359 211.968H173.641C171.995 211.968 170.436 211.594 169.029 210.939V269.527C169.029 275.601 173.999 280.568 180.069 280.568H330.934C337.005 280.568 341.971 275.601 341.971 269.527V210.939C340.564 211.594 339.008 211.968 337.359 211.968Z" fill="#F79D0D"/>
<path d="M212.467 269.527V211.968H173.641C171.995 211.968 170.436 211.594 169.029 210.943V269.531C169.029 275.602 173.999 280.568 180.069 280.568H223.504C217.434 280.568 212.467 275.602 212.467 269.527Z" fill="#F48E06"/>
<path d="M419.363 244.042C413.145 218.693 405.215 193.746 395.585 169.371C373.172 112.627 316.513 73.5005 255.5 73.5005C194.487 73.5005 137.828 112.627 115.415 169.371C105.789 193.746 97.8555 218.693 91.6372 244.042C90.6898 247.909 93.8672 251.551 97.8243 251.106C106.452 250.135 114.659 244.365 116.935 235.972C122.354 215.976 128.939 196.128 136.506 176.978C155.808 128.108 202.954 96.0384 255.5 96.0384C308.046 96.0384 355.192 128.105 374.498 176.978C382.061 196.128 388.646 215.976 394.065 235.968C396.338 244.358 404.544 250.131 413.176 251.106C417.133 251.551 420.314 247.909 419.363 244.042Z" fill="#FCDB75"/>
<path d="M197.138 103.996C188.097 96.7094 193.773 87.3137 193.855 87.1772C158.768 103.314 129.922 132.651 115.415 169.376C105.785 193.746 97.8555 218.697 91.6372 244.042C90.6898 247.91 93.8672 251.551 97.8243 251.106C106.452 250.136 114.659 244.37 116.935 235.972C122.354 215.976 128.939 196.128 136.502 176.978C148.639 146.253 171.785 122.179 200.354 108.53C199.734 106.783 198.635 105.201 197.138 103.996Z" fill="#FBC840"/>
<path d="M303.278 93.5005C298.198 93.5005 294.081 89.3836 294.081 84.3037V76.6312C294.081 55.3603 276.775 38.0543 255.5 38.0543C234.229 38.0543 216.923 55.3603 216.923 76.6312V84.3037C216.923 89.3836 212.806 93.5005 207.726 93.5005C202.643 93.5005 198.526 89.3836 198.526 84.3037V76.6312C198.526 45.2161 224.085 19.6567 255.5 19.6567C286.919 19.6567 312.478 45.2161 312.478 76.6312V84.3037C312.478 89.3836 308.358 93.5005 303.278 93.5005Z" fill="#FF855F"/>
<path d="M347.383 395.718C343.574 395.718 340.482 392.63 340.482 388.817V369.203C340.482 365.394 343.57 362.307 347.383 362.307C351.196 362.307 354.283 365.394 354.283 369.203V388.817C354.283 392.63 351.196 395.718 347.383 395.718Z" fill="#3C2B8E"/>
<path d="M305.835 237.453C302.022 237.453 298.935 234.365 298.935 230.553V210.939C298.935 207.13 302.022 204.038 305.835 204.038C309.648 204.038 312.736 207.13 312.736 210.939V230.553C312.736 234.365 309.648 237.453 305.835 237.453Z" fill="#3C2B8E"/>
<path d="M283.301 416.907L263.746 397.351C259.211 392.817 251.788 392.817 247.254 397.351L227.699 416.907C223.165 421.441 223.165 428.864 227.699 433.398L247.254 452.957C251.788 457.491 259.211 457.491 263.746 452.957L283.301 433.398C287.839 428.864 287.839 421.441 283.301 416.907Z" fill="#FC6938"/>
<path d="M263.071 437.889L242.794 417.616C239.243 414.061 238.377 408.801 240.194 404.412L227.699 416.907C223.165 421.445 223.165 428.864 227.699 433.402L247.254 452.957C251.788 457.491 259.211 457.491 263.749 452.957L276.163 440.544C271.796 442.295 266.595 441.413 263.071 437.889Z" fill="#ED4F24"/>
<path d="M375.546 322.424H135.454C129.384 322.424 124.417 327.391 124.417 333.461V358.166C124.417 364.237 129.384 369.203 135.454 369.203H375.546C381.62 369.203 386.587 364.237 386.587 358.166V333.461C386.587 327.391 381.62 322.424 375.546 322.424Z" fill="#F9B50B"/>
<path d="M198.526 358.166V333.461C198.526 327.391 203.492 322.424 209.567 322.424H135.454C129.384 322.424 124.417 327.391 124.417 333.461V358.166C124.417 364.237 129.384 369.203 135.454 369.203H209.567C203.492 369.203 198.526 364.237 198.526 358.166Z" fill="#F79D0D"/>
<path d="M348.4 201.847V177.145C348.4 171.071 343.433 166.104 337.363 166.104H173.641C167.571 166.104 162.604 171.071 162.604 177.145V201.847C162.604 207.921 167.571 212.888 173.641 212.888H337.359C343.433 212.888 348.4 207.921 348.4 201.847Z" fill="#F9B50B"/>
<path d="M206.038 201.847V177.145C206.038 171.071 211.005 166.104 217.075 166.104H173.641C167.571 166.104 162.604 171.071 162.604 177.145V201.847C162.604 207.921 167.571 212.888 173.641 212.888H217.075C211.005 212.888 206.038 207.921 206.038 201.847Z" fill="#F79D0D"/>
<path d="M347.383 413.121C342.303 413.121 338.186 409.001 338.186 403.921V387.067C338.186 381.987 342.303 377.866 347.383 377.866C352.463 377.866 356.583 381.987 356.583 387.067V403.921C356.583 409.001 352.463 413.121 347.383 413.121Z" fill="#6464D8"/>
<path d="M305.835 256.802C300.755 256.802 296.634 252.685 296.634 247.605V230.752C296.634 225.668 300.755 221.551 305.835 221.551C310.915 221.551 315.032 225.668 315.032 230.752V247.605C315.032 252.685 310.915 256.802 305.835 256.802Z" fill="#6464D8"/>
<path d="M347.383 397.152C342.303 397.152 338.186 393.032 338.186 387.952V403.92C338.186 409 342.303 413.121 347.383 413.121C352.463 413.121 356.583 409 356.583 403.92V387.952C356.583 393.032 352.463 397.152 347.383 397.152Z" fill="#554CBF"/>
<path d="M305.835 240.834C300.755 240.834 296.638 236.717 296.638 231.637V247.605C296.638 252.685 300.755 256.802 305.835 256.802C310.915 256.802 315.036 252.685 315.036 247.605V231.637C315.032 236.717 310.915 240.834 305.835 240.834Z" fill="#554CBF"/>
<path d="M240.709 28.8069C240.709 25.536 242.221 22.6237 244.584 20.7173C218.374 25.8245 198.526 48.9511 198.526 76.6313V84.3038C198.526 89.3837 202.646 93.5006 207.726 93.5006C212.806 93.5006 216.923 89.3837 216.923 84.3038V76.6313C216.923 57.8789 230.373 42.2182 248.132 38.7679C243.839 37.4892 240.709 33.5165 240.709 28.8069Z" fill="#FC6938"/>
</g>
<defs>
<clipPath id="clip0">
<rect width="511" height="511" fill="white"/>
</clipPath>
</defs>
</svg>
