<svg width="512" height="512" viewBox="0 0 512 512" fill="none" xmlns="http://www.w3.org/2000/svg">
<path d="M427.332 430.629C466.289 387.246 490 329.895 490 267C490 131.688 380.312 22 245 22C109.688 22 0 131.688 0 267C0 329.895 23.7109 387.246 62.668 430.629H427.332Z" fill="#2299F2"/>
<path d="M62.668 430.629C78.5234 448.285 96.918 463.613 117.258 476.07L144.488 490.48C175.156 504.301 209.176 512 245 512C317.414 512 382.48 480.574 427.332 430.629H62.668Z" fill="#554CBF"/>
<path d="M270.062 430.629H62.668C78.5234 448.285 96.918 463.613 117.258 476.07L144.484 490.477C175.156 504.301 209.176 512 245 512C251.156 512 257.258 511.754 263.301 511.309C215.434 504.656 218.973 430.629 270.062 430.629Z" fill="#483BA8"/>
<path d="M136.297 433.93C118.137 433.93 102.773 446.496 98.4648 463.367C104.449 467.84 110.652 472.039 117.043 475.961L144.484 490.477C151.324 493.559 158.328 496.344 165.488 498.797C171.602 491.902 175.332 482.852 175.332 472.965C175.332 451.496 157.766 433.93 136.297 433.93Z" fill="#3C2B8E"/>
<path d="M437.172 512C415.699 512 398.137 494.434 398.137 472.965C398.137 451.496 415.699 433.93 437.172 433.93C458.641 433.93 476.203 451.496 476.203 472.965C476.203 494.434 458.641 512 437.172 512Z" fill="#3C2B8E"/>
<path d="M437.172 492.48C426.434 492.48 417.652 483.699 417.652 472.965C417.652 462.23 426.434 453.445 437.172 453.445C447.906 453.445 456.688 462.23 456.688 472.965C456.688 483.699 447.906 492.48 437.172 492.48Z" fill="#D9F5FF"/>
<path d="M136.297 453.445C125.562 453.445 116.777 462.23 116.777 472.965C116.777 473.984 116.883 474.977 117.035 475.953C125.887 481.387 135.105 486.273 144.652 490.566C151.23 487.422 155.812 480.711 155.812 472.965C155.816 462.23 147.031 453.445 136.297 453.445Z" fill="#D9F5FF"/>
<path d="M100.199 431.695C96.8867 431.695 93.6602 431.32 90.5508 430.629C90.5391 430.848 90.5156 431.059 90.5156 431.277C90.5156 454.203 109.277 472.965 132.203 472.965H140.391C163.18 472.965 181.84 454.434 182.066 431.695H100.199Z" fill="#ABE4FE"/>
<path d="M136.305 431.695H100.199C96.8867 431.695 93.6602 431.32 90.5508 430.629C90.5391 430.848 90.5195 431.059 90.5195 431.277C90.5195 454.203 109.277 472.965 132.203 472.965H140.391C144.258 472.965 147.996 472.418 151.555 471.422C142.848 466.547 136.398 450.574 136.305 431.695Z" fill="#82C6F9"/>
<path d="M391.398 431.695C391.629 454.434 410.289 472.965 433.074 472.965H441.266C464.051 472.965 482.711 454.434 482.941 431.695H391.398Z" fill="#ABE4FE"/>
<path d="M437.188 431.695H401.082C397.77 431.695 394.543 431.32 391.434 430.629C391.426 430.848 391.402 431.059 391.402 431.277C391.402 454.203 410.16 472.965 433.086 472.965H441.277C445.141 472.965 448.883 472.418 452.441 471.422C443.73 466.547 437.281 450.574 437.188 431.695Z" fill="#ABE4FE"/>
<path d="M430.578 137.578H128.289C105.559 137.578 86.9609 156.176 86.9609 178.91V392.539C86.9609 412.664 103.426 429.133 123.551 429.133H435.316C455.441 429.133 471.906 412.664 471.906 392.539V178.91C471.91 156.18 453.312 137.578 430.578 137.578Z" fill="#483BA8"/>
<path d="M225.176 392.539V161.789C225.176 148.473 236.07 137.578 249.387 137.578H128.289C105.559 137.578 86.9609 156.176 86.9609 178.91V392.539C86.9609 412.664 103.426 429.133 123.551 429.133H261.77C241.645 429.133 225.176 412.664 225.176 392.539Z" fill="#3C2B8E"/>
<path d="M430.578 137.578H128.289C105.559 137.578 86.9609 156.18 86.9609 178.91V214.344C86.9609 237.074 105.559 255.676 128.289 255.676H430.578C453.312 255.676 471.91 237.074 471.91 214.344V178.91C471.91 156.18 453.309 137.578 430.578 137.578Z" fill="#554CBF"/>
<path d="M128.289 137.578C105.469 137.578 86.9609 156.301 86.9609 178.91V214.348C86.9609 237.078 105.559 255.672 128.289 255.672H225.176V161.789C225.176 148.477 236.066 137.586 249.379 137.578H128.289Z" fill="#483BA8"/>
<path d="M347.602 148.176C342.238 148.176 337.891 143.828 337.891 138.465C337.891 127.269 332.121 116.59 321.652 108.394C317.43 105.094 316.684 98.9881 319.988 94.7654C323.293 90.5428 329.395 89.7967 333.617 93.1014C348.895 105.054 357.309 121.164 357.309 138.465C357.309 143.828 352.961 148.176 347.602 148.176Z" fill="#D9F5FF"/>
<path d="M211.27 148.176C205.906 148.176 201.559 143.828 201.559 138.465C201.559 121.164 209.973 105.054 225.25 93.1014C229.473 89.7967 235.574 90.5428 238.879 94.7654C242.184 98.9881 241.438 105.094 237.215 108.398C226.746 116.59 220.977 127.269 220.977 138.465C220.977 143.828 216.629 148.176 211.27 148.176Z" fill="#D9F5FF"/>
<path d="M231.242 113.859C227.348 113.859 223.492 112.133 220.906 108.828C216.449 103.125 217.453 94.8867 223.156 90.4258C238.324 78.5586 258.312 72.0195 279.433 72.0195C300.555 72.0195 320.543 78.5586 335.711 90.4258C341.414 94.8867 342.418 103.129 337.957 108.828C333.496 114.531 325.258 115.535 319.555 111.074C308.976 102.797 294.726 98.2383 279.433 98.2383C264.141 98.2383 249.891 102.797 239.308 111.074C236.914 112.949 234.066 113.859 231.242 113.859Z" fill="#554CBF"/>
<path d="M291.59 209.117H267.68C260.441 209.117 254.57 203.246 254.57 196.008C254.57 188.77 260.441 182.898 267.68 182.898H291.59C298.828 182.898 304.699 188.77 304.699 196.008C304.699 203.246 298.828 209.117 291.59 209.117Z" fill="#483BA8"/>
<path d="M278.016 196.008C278.016 188.77 283.883 182.898 291.121 182.898H267.68C260.441 182.898 254.57 188.77 254.57 196.008C254.57 203.246 260.441 209.117 267.68 209.117H291.121C283.883 209.117 278.016 203.246 278.016 196.008Z" fill="#3C2B8E"/>
<path d="M410.125 433.93H374.871C372.379 433.93 370.355 431.906 370.355 429.414V137.301C370.355 134.805 372.379 132.781 374.871 132.781H410.125C412.621 132.781 414.641 134.805 414.641 137.301V429.414C414.641 431.906 412.621 433.93 410.125 433.93Z" fill="#F9B50B"/>
<path d="M410.125 132.781H374.871C372.379 132.781 370.355 134.805 370.355 137.297V383.57C370.355 371.34 380.27 361.426 392.5 361.426C404.727 361.426 414.641 371.34 414.641 383.57V137.301C414.641 134.805 412.621 132.781 410.125 132.781Z" fill="#F79D0D"/>
<path d="M370.355 310.891C370.355 323.387 380.711 333.469 393.309 333.02C405.305 332.594 414.641 322.367 414.641 310.359V137.301C414.641 134.805 412.621 132.781 410.125 132.781H374.871C372.379 132.781 370.355 134.805 370.355 137.301V310.891Z" fill="#FBC840"/>
<path d="M414.641 282.777H370.355C366.336 282.777 363.074 279.516 363.074 275.496C363.074 271.473 366.336 268.215 370.355 268.215H414.641C418.664 268.215 421.926 271.473 421.926 275.496C421.926 279.516 418.664 282.777 414.641 282.777Z" fill="#FFEBB3"/>
<path d="M184.398 433.93H149.145C146.648 433.93 144.629 431.906 144.629 429.414V137.301C144.629 134.805 146.648 132.781 149.145 132.781H184.398C186.891 132.781 188.914 134.805 188.914 137.301V429.414C188.914 431.906 186.891 433.93 184.398 433.93Z" fill="#F9B50B"/>
<path d="M184.395 132.781H149.145C146.648 132.781 144.629 134.805 144.629 137.297V383.57C144.629 371.34 154.539 361.426 166.77 361.426C179 361.426 188.914 371.34 188.914 383.57V137.301C188.914 134.805 186.891 132.781 184.395 132.781Z" fill="#F79D0D"/>
<path d="M144.629 310.891C144.629 323.387 154.98 333.469 167.578 333.02C179.574 332.594 188.91 322.367 188.91 310.359V137.301C188.91 134.805 186.891 132.781 184.395 132.781H149.145C146.648 132.781 144.629 134.805 144.629 137.301V310.891Z" fill="#FBC840"/>
<path d="M188.914 282.777H144.629C140.605 282.777 137.344 279.516 137.344 275.496C137.344 271.473 140.605 268.215 144.629 268.215H188.914C192.934 268.215 196.195 271.473 196.195 275.496C196.195 279.516 192.934 282.777 188.914 282.777Z" fill="#FFEBB3"/>
<path d="M392.301 275.496C392.301 271.473 395.559 268.215 399.582 268.215H370.355C366.336 268.215 363.074 271.473 363.074 275.496C363.074 279.516 366.336 282.777 370.355 282.777H399.582C395.559 282.777 392.301 279.516 392.301 275.496Z" fill="#FCDB75"/>
<path d="M166.57 275.496C166.57 271.473 169.828 268.215 173.852 268.215H144.625C140.605 268.215 137.344 271.473 137.344 275.496C137.344 279.516 140.605 282.777 144.625 282.777H173.852C169.828 282.777 166.57 279.516 166.57 275.496Z" fill="#FCDB75"/>
<path d="M178.906 199.754C178.906 206.566 173.383 212.09 166.57 212.09C159.758 212.09 154.234 206.566 154.234 199.754C154.234 192.938 159.758 187.414 166.57 187.414C173.383 187.414 178.906 192.938 178.906 199.754Z" fill="#F9B50B"/>
<path d="M174.578 232.906C174.578 237.332 170.992 240.918 166.57 240.918C162.145 240.918 158.559 237.332 158.559 232.906C158.559 228.484 162.145 224.898 166.57 224.898C170.992 224.898 174.578 228.484 174.578 232.906Z" fill="#F9B50B"/>
<path d="M404.633 199.754C404.633 206.566 399.109 212.09 392.297 212.09C385.484 212.09 379.961 206.566 379.961 199.754C379.961 192.938 385.484 187.414 392.297 187.414C399.109 187.414 404.633 192.938 404.633 199.754Z" fill="#F9B50B"/>
<path d="M400.309 232.906C400.309 237.332 396.723 240.918 392.297 240.918C387.875 240.918 384.285 237.332 384.285 232.906C384.285 228.484 387.875 224.898 392.297 224.898C396.723 224.898 400.309 228.484 400.309 232.906Z" fill="#F9B50B"/>
<path d="M184.496 255.672H148.641C138.781 255.672 130.758 247.648 130.758 237.785V199.875C130.758 190.012 138.781 181.988 148.641 181.988H184.496C194.359 181.988 202.383 190.012 202.383 199.875V237.785C202.383 247.648 194.359 255.672 184.496 255.672ZM148.641 196.555C146.84 196.555 145.32 198.074 145.32 199.875V237.785C145.32 239.586 146.84 241.105 148.641 241.105H184.496C186.297 241.105 187.82 239.586 187.82 237.785V199.875C187.82 198.074 186.297 196.555 184.496 196.555H148.641Z" fill="#D9F5FF"/>
<path d="M166.57 206.852C162.547 206.852 159.289 203.59 159.289 199.57V182.133C159.289 178.109 162.547 174.852 166.57 174.852C170.594 174.852 173.852 178.109 173.852 182.133V199.57C173.852 203.59 170.594 206.852 166.57 206.852Z" fill="#ABE4FE"/>
<path d="M410.227 255.672H374.371C364.508 255.672 356.484 247.648 356.484 237.785V199.875C356.484 190.012 364.508 181.988 374.371 181.988H410.227C420.09 181.988 428.113 190.012 428.113 199.875V237.785C428.113 247.648 420.09 255.672 410.227 255.672ZM374.371 196.555C372.57 196.555 371.051 198.074 371.051 199.875V237.785C371.051 239.586 372.57 241.105 374.371 241.105H410.227C412.027 241.105 413.547 239.586 413.547 237.785V199.875C413.547 198.074 412.027 196.555 410.227 196.555H374.371Z" fill="#D9F5FF"/>
<path d="M392.297 206.852C388.277 206.852 385.016 203.59 385.016 199.57V182.133C385.016 178.109 388.277 174.852 392.297 174.852C396.32 174.852 399.578 178.109 399.578 182.133V199.57C399.582 203.59 396.32 206.852 392.297 206.852Z" fill="#ABE4FE"/>
<path d="M501.23 423.16H99.1992C80.6562 423.16 65.5664 408.074 65.5664 389.527V33H44.0273V389.527C44.0273 419.949 68.7773 444.699 99.1992 444.699H501.23C507.18 444.699 512 439.879 512 433.93C512 427.98 507.18 423.16 501.23 423.16Z" fill="#D9F5FF"/>
<path d="M230.27 433.93C230.27 427.98 235.09 423.16 241.039 423.16H99.1992C80.6523 423.16 65.5664 408.074 65.5664 389.527V33H44.0273V389.527C44.0273 419.949 68.7773 444.699 99.1992 444.699H241.039C235.09 444.695 230.27 439.875 230.27 433.93Z" fill="#ABE4FE"/>
<path d="M54.7969 87.8945C60.7422 87.8945 65.5664 92.7148 65.5664 98.6641V33H44.0273V98.6641C44.0273 92.7148 48.8516 87.8945 54.7969 87.8945Z" fill="#82C6F9"/>
<path d="M53.75 36.5859H14.5352C6.50781 36.5859 0 30.0781 0 22.0508C0 14.0195 6.50781 7.51172 14.5352 7.51172H53.75C61.7773 7.51172 68.2852 14.0195 68.2852 22.0508C68.2852 30.0781 61.7773 36.5859 53.75 36.5859Z" fill="#3C2B8E"/>
<path d="M54.8164 44.0977C46.7852 44.0977 40.2773 37.5898 40.2773 29.5625V14.5352C40.2773 6.50781 46.7852 0 54.8164 0C62.8438 0 69.3516 6.50781 69.3516 14.5352V29.5625C69.3516 37.5898 62.8438 44.0977 54.8164 44.0977Z" fill="#554CBF"/>
<path d="M54.8164 24.2383C47.6133 24.2383 41.6484 18.9961 40.4961 12.1172C40.3633 12.9062 40.2773 13.7109 40.2773 14.5352V29.5625C40.2773 37.5898 46.7852 44.0977 54.8164 44.0977C62.8438 44.0977 69.3555 37.5898 69.3555 29.5625V14.5352C69.3555 13.7109 69.2695 12.9062 69.1367 12.1172C67.9805 18.9961 62.0195 24.2383 54.8164 24.2383Z" fill="#483BA8"/>
<path d="M265.07 85.3203C265.07 79.7461 268.094 74.8867 272.586 72.2656C254.023 73.5195 236.676 79.8477 223.156 90.4258C217.453 94.8867 216.449 103.125 220.906 108.828C223.492 112.133 227.348 113.859 231.242 113.859C234.066 113.859 236.91 112.949 239.308 111.074C248.351 103.996 260.078 99.6523 272.84 98.5352C268.207 95.9492 265.07 91.0039 265.07 85.3203Z" fill="#483BA8"/>
</svg>
