<svg width="512" height="512" viewBox="0 0 512 512" fill="none" xmlns="http://www.w3.org/2000/svg">
<path d="M27 317.035H485C488.664 317.035 492.094 318.047 495.066 319.77C498.941 302.465 501 284.473 501 266C501 130.691 391.309 21 256 21C120.691 21 11 130.688 11 266C11 284.473 13.0586 302.465 16.9336 319.77C19.9062 318.047 23.3359 317.035 27 317.035Z" fill="#83D912"/>
<path d="M74.4375 431.5C119.266 480.941 184.004 512 256 512C327.996 512 392.734 480.941 437.562 431.5H74.4375Z" fill="#554CBF"/>
<path d="M209.461 506.578C190.605 481.695 196.832 460.73 203.117 449.477C206.199 443.961 205.777 437.207 202.344 431.902C202.039 431.434 201.754 430.969 201.473 430.5H74.4375C109.355 469.016 156.359 496.367 209.461 506.578Z" fill="#483BA8"/>
<path d="M485 316.035H27C23.2578 316.035 19.7539 317.086 16.7383 318.879C27.1016 365.965 51 407.969 84.1562 440.605H427.844C461 407.969 484.898 365.965 495.262 318.879C492.246 317.086 488.742 316.035 485 316.035Z" fill="#3C2B8E"/>
<path d="M209.465 316.035H27C23.2578 316.035 19.7539 317.086 16.7383 318.879C27.1016 365.965 51 407.969 84.1562 440.605H205.176C205.023 437.566 204.062 434.555 202.344 431.902C184.613 404.516 209.465 378.805 209.465 378.805V316.035Z" fill="#2C217C"/>
<path d="M454.707 353.41H57.293C44.7266 353.41 34.4453 343.133 34.4453 330.566V24.8242C34.4453 12.2578 44.7266 1.98047 57.293 1.98047H454.707C467.273 1.98047 477.555 12.2617 477.555 24.8242V330.566C477.555 343.133 467.273 353.41 454.707 353.41Z" fill="#554CBF"/>
<path d="M105.695 330.566V24.8242C105.695 12.2578 115.977 1.98047 128.539 1.98047H57.293C44.7266 1.98047 34.4453 12.2617 34.4453 24.8242V330.566C34.4453 343.133 44.7266 353.41 57.293 353.41H128.539C115.977 353.41 105.695 343.133 105.695 330.566Z" fill="#483BA8"/>
<path d="M307.234 27.3711V148.23L234.832 209.008V235.426H306.305L333.699 268.402H452.16V27.3711H307.234Z" fill="#2299F2"/>
<path d="M59.8398 27.3711V209.008H234.832L307.234 148.23V27.3711H59.8398Z" fill="#83D912"/>
<path d="M59.8398 27.3711H105.695V209.008H59.8398V27.3711Z" fill="#5BBF02"/>
<path d="M333.699 268.402L306.305 235.426H234.832V209.008L59.8398 120.473V268.402H333.699Z" fill="#FBC840"/>
<path d="M59.8398 120.473V268.402H105.695V143.672L59.8398 120.473Z" fill="#F9B50B"/>
<path d="M421.152 353.41H90.8477C83.8359 353.41 78.1484 359.098 78.1484 366.109C78.1484 373.121 83.8359 378.805 90.8477 378.805H421.156C428.168 378.805 433.852 373.121 433.852 366.109C433.852 359.098 428.164 353.41 421.152 353.41Z" fill="#483BA8"/>
<path d="M196.77 366.109C196.77 359.098 202.453 353.41 209.465 353.41H90.8438C83.832 353.41 78.1484 359.098 78.1484 366.109C78.1484 373.121 83.832 378.805 90.8438 378.805H209.465C202.453 378.805 196.77 373.117 196.77 366.109Z" fill="#3C2B8E"/>
<path d="M367.707 309.344C367.707 302.328 362.023 296.645 355.012 296.645H156.988C149.977 296.645 144.293 302.328 144.293 309.344C144.293 316.355 149.977 322.039 156.988 322.039H355.012C362.023 322.039 367.707 316.355 367.707 309.344Z" fill="#483BA8"/>
<path d="M406.309 316.395C402.328 316.395 399.254 313.152 399.254 309.344C399.254 304.859 403.391 301.547 407.68 302.43C410.871 303.027 413.352 305.922 413.352 309.344C413.352 313.273 410.152 316.395 406.309 316.395Z" fill="#2299F2"/>
<path d="M433.852 316.395C429.93 316.395 426.801 313.203 426.801 309.344C426.801 304.86 430.938 301.535 435.227 302.43C438.566 303.055 440.906 306.09 440.906 309.344C440.906 313.129 437.82 316.395 433.852 316.395Z" fill="#2299F2"/>
<path d="M78.1562 316.395C74.2578 316.395 71.1016 313.243 71.1016 309.344C71.1016 305.922 73.5937 303.028 76.7734 302.43C81.0156 301.578 85.207 304.809 85.207 309.344C85.207 313.184 82.0664 316.395 78.1562 316.395Z" fill="#2299F2"/>
<path d="M105.699 316.395C101.754 316.395 98.6484 313.184 98.6484 309.344C98.6484 304.84 102.797 301.551 107.074 302.43C110.246 303.027 112.742 305.891 112.742 309.344C112.742 313.238 109.57 316.395 105.699 316.395Z" fill="#2299F2"/>
<path d="M219.98 296.648H292.02V322.039H219.98V296.648Z" fill="#3C2B8E"/>
<path d="M392.094 237.531C390.285 237.531 388.484 236.844 387.105 235.465C384.801 233.16 381.074 233.16 378.773 235.465C376.016 238.219 371.551 238.219 368.797 235.465C366.043 232.711 366.043 228.246 368.797 225.488C376.613 217.676 389.266 217.672 397.082 225.488C401.535 229.945 398.32 237.531 392.094 237.531Z" fill="#82C6F9"/>
<path d="M423.723 198.848C401.234 176.359 364.641 176.359 342.152 198.848C339.398 201.602 334.934 201.602 332.18 198.848C329.426 196.094 329.426 191.629 332.18 188.871C360.172 160.883 405.711 160.883 433.699 188.871C436.453 191.625 436.453 196.094 433.699 198.848C430.945 201.602 426.477 201.602 423.723 198.848Z" fill="#82C6F9"/>
<path d="M405.414 217.156C392.992 204.734 372.887 204.73 360.465 217.156C357.707 219.91 353.242 219.91 350.488 217.156C347.734 214.402 347.734 209.938 350.488 207.18C368.422 189.246 397.453 189.242 415.391 207.18C418.145 209.938 418.145 214.402 415.387 217.156C412.637 219.91 408.168 219.91 405.414 217.156Z" fill="#82C6F9"/>
<path d="M314.223 154.812C316.355 153.023 317.59 150.387 317.59 147.602V27.3711H298.781V143.211L233.547 197.82L59.8398 109.934V131.012L225.43 214.789V235.426C225.43 240.621 229.641 244.832 234.832 244.832H301.891L321.473 268.402H345.926L313.539 229.418C311.754 227.266 309.102 226.023 306.305 226.023H244.238V213.398L314.223 154.812Z" fill="#D9F5FF"/>
<path d="M197.926 159.871C197.926 181.066 180.742 198.254 159.543 198.254C138.348 198.254 121.16 181.066 121.16 159.871C121.16 138.672 138.348 121.488 159.543 121.488C180.742 121.488 197.926 138.672 197.926 159.871Z" fill="#F9B50B"/>
<path d="M171.109 175.121C156.301 175.121 144.293 163.113 144.293 148.305C144.293 135.301 153.551 124.465 165.836 122.012C163.785 121.676 161.688 121.488 159.543 121.488C138.348 121.488 121.164 138.676 121.164 159.871C121.164 181.066 138.348 198.254 159.543 198.254C180.742 198.254 197.926 181.066 197.926 159.871C197.926 157.727 197.742 155.629 197.402 153.582C194.949 165.863 184.113 175.121 171.109 175.121Z" fill="#EF9F35"/>
<path d="M159.543 0C105.266 0 74.9609 62.6523 108.656 105.203L148.512 155.535C154.144 162.652 164.941 162.652 170.574 155.535L210.43 105.203C244.125 62.6523 213.82 0 159.543 0Z" fill="#F7577A"/>
<path d="M170.574 155.535L210.43 105.203C198.66 110.008 194.535 103.973 193.09 99.4219C192.375 97.1641 190.344 95.6523 187.984 95.4883C180.93 95.0078 178.676 89.8047 177.965 86.1289C177.535 83.9219 175.797 82.207 173.617 81.6484C150.656 75.7461 147.109 55.7148 146.66 47.2031C146.547 45.0312 145.191 43.1055 143.184 42.2695C137.336 39.8281 136.238 35.3398 136.383 31.9141C136.492 29.3594 134.75 27.1328 132.32 26.332C122.23 23.0039 123.859 13.4492 124.867 9.875C94.3398 29.2031 83.1327 72.9688 108.656 105.199L148.512 155.535C154.144 162.648 164.941 162.648 170.574 155.535Z" fill="#D93A59"/>
<path d="M159.543 109.566C135.16 109.566 115.324 89.7305 115.324 65.3477C115.324 40.9648 135.16 21.1289 159.543 21.1289C183.926 21.1289 203.762 40.9648 203.762 65.3477C203.762 89.7305 183.926 109.566 159.543 109.566ZM159.543 39.9375C145.531 39.9375 134.133 51.3359 134.133 65.3477C134.133 79.3594 145.531 90.7617 159.543 90.7617C173.555 90.7617 184.953 79.3594 184.953 65.3477C184.953 51.3359 173.555 39.9375 159.543 39.9375Z" fill="#D93A59"/>
<path d="M190.895 96.5C190.051 95.9258 189.059 95.5625 187.988 95.4922C180.934 95.0078 178.676 89.8047 177.965 86.1328C177.801 85.2812 177.441 84.5117 176.941 83.8477C172.391 88.1289 166.27 90.7578 159.543 90.7578C145.531 90.7578 134.133 79.3594 134.133 65.3477C134.133 56.5 138.68 48.6992 145.559 44.1445C144.961 43.332 144.152 42.6758 143.188 42.2695C137.336 39.832 136.242 35.3398 136.387 31.918C136.441 30.6172 136.012 29.4023 135.262 28.418C123.262 36.332 115.324 49.9297 115.324 65.3477C115.324 89.7305 135.16 109.566 159.543 109.566C171.785 109.566 182.879 104.566 190.895 96.5Z" fill="#BA1C37"/>
<path d="M59.8398 109.934V131.012L105.695 154.215C97.9453 140.68 105.695 133.137 105.695 133.137L59.8398 109.934Z" fill="#ABE4FE"/>
</svg>
