<svg width="512" height="512" viewBox="0 0 512 512" fill="none" xmlns="http://www.w3.org/2000/svg">
<g clip-path="url(#clip0)">
<path d="M384.301 472.582C451.527 428.902 496 353.148 496 267C496 131.691 386.309 22 251 22C115.691 22 6 131.688 6 267C6 328.812 28.8984 385.27 66.6641 428.371L384.301 472.582Z" fill="#FBC840"/>
<path d="M335.516 12.4609H115.73C95.0586 12.4609 78.1445 29.375 78.1445 50.0508V440.602C122.445 484.723 183.531 512 251 512C295.469 512 337.156 500.141 373.105 479.434V50.0508C373.105 29.375 356.191 12.4609 335.516 12.4609Z" fill="#2299F2"/>
<path d="M149.812 50.0508C149.812 35.0859 156.422 21.6406 166.867 12.4609H115.73C95.0586 12.4609 78.1445 29.375 78.1445 50.0508V440.602C98.75 461.121 122.988 477.992 149.812 490.18V50.0508Z" fill="#1588E8"/>
<path d="M335.516 0H115.73C88.1328 0 65.6836 22.4531 65.6836 50.0508V427.234C73.3828 436.137 81.7148 444.473 90.6055 452.18V50.0508C90.6055 36.1719 101.855 24.9219 115.73 24.9219H156.43C157.633 24.9219 158.609 25.8984 158.609 27.1055C158.609 37.1875 166.863 45.4414 176.945 45.4414H272.895C282.98 45.4414 291.23 37.1875 291.23 27.1055C291.23 25.8984 292.207 24.9219 293.414 24.9219H335.516C349.395 24.9219 360.645 36.1719 360.645 50.0508V486.141C369.254 481.824 377.574 477.023 385.566 471.758V50.0508C385.566 22.4531 363.113 0 335.516 0V0Z" fill="#554CBF"/>
<path d="M316.512 106.129H134.734C124.727 106.129 116.539 114.316 116.539 124.324V228.344H334.711V124.324C334.711 114.316 326.52 106.129 316.512 106.129Z" fill="#52B0F5"/>
<path d="M116.539 124.324V228.344H147.262C147.527 226.191 146.984 223.984 145.637 222.207C139.805 214.523 144.461 207.465 147.547 204.102C148.969 202.547 149.719 200.492 149.719 198.387V116.461C149.719 115.004 149.402 113.551 148.691 112.277C147.441 110.051 146.973 107.973 146.945 106.129H134.734C124.727 106.129 116.539 114.316 116.539 124.324Z" fill="#2299F2"/>
<path d="M316.512 294.965H134.734C124.727 294.965 116.539 303.152 116.539 313.16V367.598C120.504 370.23 124.387 372.922 132.309 372.922C147.852 372.922 147.852 362.566 163.398 362.566C178.945 362.566 178.945 372.922 194.492 372.922C210.039 372.922 210.039 362.566 225.586 362.566C241.133 362.566 241.133 372.922 256.684 372.922C272.23 372.922 272.23 362.566 287.777 362.566C303.328 362.566 303.328 372.922 318.875 372.922C326.84 372.922 330.727 370.203 334.711 367.555V313.16C334.711 303.152 326.52 294.965 316.512 294.965Z" fill="#F7CD4B"/>
<path d="M134.734 294.965C124.727 294.965 116.539 303.152 116.539 313.16V367.598C120.504 370.234 124.387 372.922 132.309 372.922C139.887 372.922 143.77 370.461 147.559 367.938C148.16 366.773 148.75 365.863 149.18 365.258C149.613 364.652 149.848 363.934 149.848 363.188V304.125C149.848 303.266 149.531 302.434 148.965 301.785C146.801 299.305 146.012 296.992 145.965 294.961H134.734V294.965Z" fill="#F9B50B"/>
<path d="M194.492 372.922C210.039 372.922 210.039 362.57 225.586 362.57C241.133 362.57 241.133 372.922 256.68 372.922C262.23 372.922 265.793 371.602 268.797 369.906C267.758 346.957 248.828 328.668 225.625 328.668C202.406 328.668 183.469 346.98 182.453 369.945C185.438 371.621 188.988 372.922 194.492 372.922Z" fill="#EF9F35"/>
<path d="M182.453 369.949C185.438 371.621 188.992 372.922 194.492 372.922C210.039 372.922 210.039 362.57 225.586 362.57C226.25 362.57 226.879 362.594 227.488 362.629C214.82 346.879 225.625 328.668 225.625 328.668C202.406 328.668 183.469 346.98 182.453 369.949Z" fill="#F48E06"/>
<path d="M318.875 370.852C303.324 370.852 303.324 360.5 287.777 360.5C272.23 360.5 272.23 370.852 256.68 370.852C241.133 370.852 241.133 360.5 225.586 360.5C210.039 360.5 210.039 370.852 194.492 370.852C178.945 370.852 178.945 360.5 163.398 360.5C147.852 360.5 147.852 370.852 132.309 370.852C124.387 370.852 120.5 368.164 116.539 365.527V395.035C120.5 397.672 124.387 400.359 132.309 400.359C147.852 400.359 147.852 390.008 163.398 390.008C178.945 390.008 178.945 400.359 194.492 400.359C210.039 400.359 210.039 390.008 225.586 390.008C241.133 390.008 241.133 400.359 256.68 400.359C272.227 400.359 272.227 390.008 287.777 390.008C303.324 390.008 303.324 400.359 318.875 400.359C326.84 400.359 330.727 397.645 334.711 394.996V365.484C330.727 368.137 326.84 370.852 318.875 370.852Z" fill="#52B0F5"/>
<path d="M149.559 364.555C145.016 367.457 141.211 370.852 132.309 370.852C124.387 370.852 120.504 368.164 116.539 365.527V395.035C120.504 397.672 124.387 400.359 132.309 400.359C139.996 400.359 143.883 397.828 147.727 395.27C148.023 394.629 148.328 394.062 148.609 393.594C149.281 392.477 149.281 391.07 148.609 389.957C141.379 378 147.117 368.152 149.18 365.262C149.336 365.039 149.457 364.801 149.559 364.555Z" fill="#2299F2"/>
<path d="M318.875 398.289C303.324 398.289 303.324 387.938 287.777 387.938C272.23 387.938 272.23 398.289 256.68 398.289C241.133 398.289 241.133 387.938 225.586 387.938C210.039 387.938 210.039 398.289 194.492 398.289C178.945 398.289 178.945 387.938 163.398 387.938C147.852 387.938 147.852 398.289 132.309 398.289C124.387 398.289 120.5 395.602 116.539 392.965V417.18H334.711V392.926C330.727 395.574 326.84 398.289 318.875 398.289Z" fill="#2299F2"/>
<path d="M148.688 413.133C143.781 403.934 146.711 396.754 148.609 393.594C148.852 393.195 149 392.758 149.07 392.312C144.734 395.137 140.887 398.289 132.309 398.289C124.387 398.289 120.504 395.602 116.539 392.965V417.18H148.332C148.41 417.055 148.488 416.934 148.562 416.82C149.289 415.711 149.312 414.305 148.688 413.133Z" fill="#1588E8"/>
<path d="M298.922 189.855C264.238 174.48 248.387 149.117 241.238 131.109C237.953 122.836 227.887 119.433 220.113 123.988L219.875 124.125C215.191 126.867 209.344 126.828 204.703 124.019L204.625 123.972C196.816 119.254 186.613 122.687 183.285 131.07C166.09 174.445 130.602 187.023 116.539 194.137V228.347H334.711V212.769C329.844 207.39 319.699 199.066 298.922 189.855Z" fill="#AA3D27"/>
<path d="M199.18 147.168C199.18 131.516 205.719 127.141 210.504 126.031C208.48 125.774 206.5 125.109 204.699 124.02L204.625 123.973C196.816 119.25 186.609 122.688 183.285 131.07C166.09 174.445 130.602 187.024 116.539 194.137V228.344H120.016C131.277 224.711 143.004 220.891 153.18 217.5C185.18 206.832 199.18 171.832 199.18 147.168Z" fill="#98341A"/>
<path d="M223.555 415.109V447.891H316.512C326.52 447.891 334.711 439.699 334.711 429.691V415.109H223.555Z" fill="#5BBF02"/>
<path d="M225.625 415.109H116.539V429.691C116.539 439.699 124.727 447.891 134.734 447.891H225.625V415.109Z" fill="#D9F5FF"/>
<path d="M149.121 415.109H116.539V429.691C116.539 439.699 124.727 447.891 134.734 447.891H146.605C146.469 445.219 147.414 443.133 148.32 441.781C149.094 440.633 149.18 439.137 148.457 437.961C142.523 428.309 146.332 420.215 148.562 416.82C148.906 416.297 149.086 415.707 149.121 415.109Z" fill="#82C6F9"/>
<path d="M334.711 197.82C326.453 194.988 316.633 196.754 310.047 204.898C308.547 206.758 305.711 206.766 304.211 204.906C295.211 193.77 278.293 193.766 269.289 204.906C267.793 206.762 264.957 206.762 263.461 204.906C254.461 193.77 237.543 193.766 228.539 204.906C227.043 206.762 224.211 206.762 222.711 204.906C213.715 193.77 196.793 193.766 187.789 204.906C186.293 206.762 183.461 206.762 181.961 204.906C172.965 193.77 156.043 193.766 147.039 204.906C145.539 206.766 142.707 206.758 141.203 204.898C134.617 196.754 124.797 194.988 116.539 197.82V228.344H334.711V197.82Z" fill="#83D912"/>
<path d="M145.637 222.207C140.562 215.528 143.426 209.317 146.285 205.598C144.723 206.711 142.48 206.481 141.203 204.899C134.617 196.754 124.797 194.988 116.539 197.821V228.344H147.262C147.527 226.192 146.984 223.985 145.637 222.207Z" fill="#5BBF02"/>
<path d="M223.555 226.273V259.055H316.512C326.52 259.055 334.711 250.867 334.711 240.859V226.273H223.555Z" fill="#5BBF02"/>
<path d="M225.625 226.273H116.539V240.859C116.539 250.867 124.727 259.055 134.734 259.055H225.625V226.273Z" fill="#D9F5FF"/>
<path d="M116.539 240.859C116.539 250.867 124.727 259.055 134.734 259.055H146.867C146.836 257.309 147.238 255.77 147.754 254.535C148.68 252.305 148.527 249.742 147.414 247.598C143.68 240.418 144.805 234.637 146.539 230.914C147.23 229.445 147.461 227.836 147.273 226.277H116.539V240.859Z" fill="#82C6F9"/>
<path d="M316.512 266.816H134.734C120.422 266.816 108.773 255.172 108.773 240.859V124.324C108.773 110.012 120.422 98.3672 134.734 98.3672H316.512C330.828 98.3672 342.473 110.012 342.473 124.324V240.859C342.473 255.172 330.828 266.816 316.512 266.816ZM134.734 113.895C128.984 113.895 124.301 118.574 124.301 124.324V240.859C124.301 246.609 128.984 251.289 134.734 251.289H316.512C322.266 251.289 326.945 246.609 326.945 240.859V124.324C326.945 118.574 322.266 113.895 316.512 113.895H134.734Z" fill="#82C6F9"/>
<path d="M148.348 251.289H134.734C128.984 251.289 124.301 246.609 124.301 240.859V124.324C124.301 118.574 128.98 113.895 134.734 113.895H149.348C149.184 113.336 148.977 112.789 148.688 112.277C144.578 104.953 148.91 99.2227 149.621 98.3633H134.734C120.422 98.3633 108.773 110.012 108.773 124.324V240.859C108.773 255.172 120.422 266.816 134.734 266.816H149.98C149.93 266.754 149.895 266.688 149.844 266.625C145.98 261.742 146.578 257.352 147.754 254.535C148.184 253.5 148.371 252.395 148.348 251.289Z" fill="#52B0F5"/>
<path d="M316.512 455.652H134.734C120.422 455.652 108.773 444.008 108.773 429.691V313.16C108.773 298.844 120.422 287.199 134.734 287.199H316.512C330.828 287.199 342.473 298.844 342.473 313.16V429.691C342.473 444.008 330.828 455.652 316.512 455.652ZM134.734 302.727C128.984 302.727 124.301 307.406 124.301 313.16V429.691C124.301 435.445 128.984 440.125 134.734 440.125H316.512C322.266 440.125 326.945 435.445 326.945 429.691V313.16C326.945 307.406 322.266 302.727 316.512 302.727H134.734Z" fill="#82C6F9"/>
<path d="M148.926 440.125H134.734C128.984 440.125 124.305 435.445 124.305 429.691V313.16C124.305 307.406 128.984 302.727 134.734 302.727H149.543C149.398 302.391 149.211 302.066 148.965 301.785C143.344 295.352 146.953 290.02 148.871 287.938C149.074 287.715 149.242 287.465 149.387 287.199H134.734C120.422 287.199 108.773 298.848 108.773 313.16V429.695C108.773 444.008 120.422 455.652 134.734 455.652H149.844C144.848 449.172 146.66 444.258 148.32 441.781C148.66 441.277 148.859 440.707 148.926 440.125Z" fill="#52B0F5"/>
<path d="M334.043 63.1367H317.184C312.527 63.1367 308.754 59.3633 308.754 54.707C308.754 50.0508 312.527 46.2773 317.184 46.2773H334.043C338.699 46.2773 342.473 50.0508 342.473 54.707C342.473 59.3633 338.699 63.1367 334.043 63.1367Z" fill="#52B0F5"/>
<path d="M134.066 63.1367H117.203C112.551 63.1367 108.773 59.3633 108.773 54.707C108.773 50.0508 112.551 46.2773 117.203 46.2773H134.066C138.723 46.2773 142.496 50.0508 142.496 54.707C142.496 59.3633 138.723 63.1367 134.066 63.1367Z" fill="#52B0F5"/>
<path d="M476.016 127.684C446.906 77.2696 382.437 59.9962 332.023 89.1016C281.605 118.211 264.332 182.68 293.441 233.094C322.551 283.512 387.019 300.785 437.434 271.676C487.848 242.566 505.121 178.102 476.016 127.684Z" fill="#C2EDFF"/>
<path d="M476.016 127.684C446.906 77.2696 382.437 59.9962 332.023 89.1016C281.605 118.211 264.332 182.68 293.441 233.094C322.551 283.512 387.019 300.785 437.434 271.676C487.848 242.566 505.121 178.102 476.016 127.684Z" fill="#C2EDFF"/>
<path d="M476.016 127.684C446.906 77.2696 382.437 59.9962 332.023 89.1016C281.605 118.211 264.332 182.68 293.441 233.094C322.551 283.512 387.019 300.785 437.434 271.676C487.848 242.566 505.121 178.102 476.016 127.684Z" fill="#C2EDFF"/>
<path d="M478.941 227.699V133.105C478.027 131.285 477.059 129.476 476.027 127.687C446.918 77.2733 382.449 59.9959 332.031 89.1053C281.613 118.215 264.34 182.683 293.449 233.101C298.039 241.051 303.512 248.176 309.668 254.43H459.801C467.648 246.48 474.062 237.437 478.941 227.699Z" fill="#52B0F5"/>
<path d="M415.238 185.918C452.227 202.316 470.277 217.125 478.941 226.699V156.016C456.594 145.984 438.93 133.07 425.18 119.883C417.508 112.523 405.16 112.523 397.488 119.883C386.895 130.043 373.949 140.027 358.363 148.672C373.141 162.523 391.762 175.508 415.238 185.918Z" fill="#98341A"/>
<path d="M397.488 119.883C386.895 130.043 373.949 140.027 358.363 148.672C373.141 162.523 391.762 175.508 415.238 185.918C420.297 188.16 424.988 190.371 429.363 192.547C403.516 158.875 425.18 119.883 425.18 119.883C417.508 112.523 405.16 112.523 397.488 119.883Z" fill="#872815"/>
<path d="M478.941 227.699V226.699C470.281 217.125 452.227 202.316 415.238 185.918C363.227 162.859 335.012 127.184 319.805 97.3516C279 129.176 266.84 187.008 293.449 233.098C298.039 241.051 303.512 248.176 309.668 254.426H459.801C467.648 246.48 474.062 237.438 478.941 227.699Z" fill="#AA3D27"/>
<path d="M391.863 249.438C370.512 239.051 371.406 215.484 372.547 206.781C372.805 204.812 371.785 202.91 370.008 202.027C325.57 180.07 324.641 123.246 325.047 110.086C325.094 108.457 324.269 106.934 322.894 106.062C319.898 104.16 318.058 101.934 316.973 99.6484C278.453 131.898 267.465 188.094 293.449 233.098C298.039 241.051 303.516 248.176 309.672 254.426H394.394C394.398 254.195 394.402 253.973 394.414 253.758C394.512 251.941 393.504 250.234 391.863 249.438Z" fill="#98341A"/>
<path d="M478.941 227.699V200.098C464.246 195.055 446.766 198.199 435.043 212.695C432.367 216 427.324 216.02 424.652 212.711C408.637 192.887 378.52 192.879 362.496 212.711C359.828 216.012 354.785 216.012 352.117 212.711C336.105 192.887 305.988 192.879 289.965 212.711C288.73 214.234 286.992 215.047 285.215 215.164C287.359 221.277 290.094 227.281 293.449 233.098C298.039 241.051 303.512 248.176 309.672 254.426H459.801C467.648 246.48 474.062 237.438 478.941 227.699Z" fill="#83D912"/>
<path d="M391.863 249.438C370.512 239.051 371.406 215.484 372.547 206.781C372.672 205.844 372.496 204.922 372.094 204.113C368.562 206.371 365.309 209.227 362.496 212.711C359.832 216.012 354.785 216.012 352.121 212.711C336.105 192.887 305.988 192.879 289.965 212.711C288.734 214.234 286.992 215.047 285.215 215.164C287.359 221.277 290.094 227.281 293.449 233.098C298.043 241.051 303.516 248.176 309.672 254.426H394.395C394.398 254.195 394.402 253.973 394.414 253.758C394.512 251.941 393.504 250.234 391.863 249.438Z" fill="#5BBF02"/>
<path d="M463.27 250.742H306.215C338.777 287.164 393.457 297.078 437.445 271.684C447.371 265.949 456.012 258.84 463.27 250.742Z" fill="#5BBF02"/>
<path d="M405.695 283.707C404.684 280.527 404.977 277.367 405.477 275.109C405.906 273.16 405.008 271.199 403.309 270.148C395.133 265.094 394.199 257.813 394.414 253.758C394.473 252.652 394.117 251.586 393.461 250.742H306.215C331.266 278.762 369.406 291.07 405.695 283.707Z" fill="#58AA02"/>
<path d="M458.543 319.449C454.656 319.449 450.879 317.434 448.797 313.828L427.711 277.301C424.606 271.926 426.445 265.051 431.824 261.949C437.199 258.844 444.074 260.688 447.176 266.063L468.266 302.586C471.367 307.965 469.527 314.836 464.152 317.942C462.383 318.965 460.449 319.449 458.543 319.449Z" fill="#82C6F9"/>
<path d="M384.934 297.023C344.586 297.023 305.297 276.101 283.715 238.719C251.555 183.016 270.707 111.531 326.41 79.371C382.117 47.2109 453.602 66.3671 485.762 122.07C501.34 149.055 505.477 180.488 497.414 210.586C489.352 240.684 470.047 265.836 443.062 281.414C424.742 291.992 404.711 297.023 384.934 297.023ZM384.578 86.2421C368.613 86.2421 352.449 90.3007 337.652 98.8398C315.867 111.418 300.285 131.726 293.777 156.019C287.266 180.316 290.605 205.695 303.184 227.48C320.605 257.652 352.328 274.543 384.894 274.547C400.863 274.547 417.031 270.488 431.824 261.949C453.609 249.371 469.191 229.062 475.699 204.766C482.211 180.469 478.871 155.094 466.293 133.309C448.871 103.133 417.148 86.2421 384.578 86.2421Z" fill="#D9F5FF"/>
<path d="M405.476 275.109C405.691 274.145 405.574 273.176 405.199 272.316C398.476 273.809 391.668 274.547 384.894 274.547C352.328 274.543 320.605 257.652 303.184 227.48C290.605 205.695 287.266 180.316 293.773 156.02C298.894 136.918 309.641 120.305 324.578 107.949C324.207 107.191 323.633 106.531 322.894 106.062C311.801 99.0195 316.391 87.5547 317.59 85.0156C268.769 119.332 253.316 186.07 283.715 238.719C305.297 276.102 344.586 297.023 384.934 297.023C395.012 297.023 405.152 295.707 415.105 293.027C404.269 288.473 404.434 279.828 405.476 275.109Z" fill="#ABE4FE"/>
<path d="M491.84 381.047C486.594 381.047 481.492 378.328 478.684 373.461L445.391 315.793C441.199 308.535 443.688 299.258 450.945 295.066C458.203 290.875 467.48 293.363 471.672 300.621L504.965 358.285C509.156 365.543 506.668 374.824 499.41 379.011C497.02 380.394 494.41 381.047 491.84 381.047Z" fill="#D93A59"/>
<path d="M491.129 334.324L471.672 300.621C467.48 293.363 458.203 290.875 450.945 295.066C443.688 299.258 441.199 308.535 445.391 315.797L464.848 349.496C462.781 334.918 479.543 325.246 491.129 334.324Z" fill="#BA1C37"/>
<path d="M115.73 0C88.1328 0 65.6836 22.4531 65.6836 50.0508V427.234C73.3828 436.137 81.7148 444.473 90.6055 452.18V50.0508C90.6055 36.1719 101.855 24.9219 115.73 24.9219H156.43C156.43 24.9219 144.098 12.332 156.43 0L115.73 0Z" fill="#483BA8"/>
</g>
<defs>
<clipPath id="clip0">
<rect width="512" height="512" fill="white"/>
</clipPath>
</defs>
</svg>
