<svg width="512" height="512" viewBox="0 0 512 512" fill="none" xmlns="http://www.w3.org/2000/svg">
<path d="M463.41 397.438C487.215 359.668 501 314.945 501 267C501 131.691 391.309 22 256 22C120.691 22 11 131.688 11 267C11 314.949 24.7852 359.672 48.5938 397.441L463.41 397.438Z" fill="#2299F2"/>
<path d="M234.145 159.406C233.375 159.406 232.59 159.289 231.809 159.051C197.617 148.414 174.645 117.191 174.645 81.3555C174.645 36.4961 211.141 0 256 0C300.859 0 337.355 36.4961 337.355 81.3555C337.355 116.879 314.641 148.02 280.836 158.844C276.699 160.168 272.281 157.891 270.957 153.758C269.633 149.625 271.91 145.203 276.043 143.879C303.316 135.145 321.641 110.02 321.641 81.3555C321.641 45.1602 292.191 15.7148 256 15.7148C219.805 15.7148 190.359 45.1602 190.359 81.3555C190.359 110.273 208.891 135.465 236.477 144.047C240.617 145.336 242.934 149.738 241.645 153.883C240.598 157.246 237.496 159.406 234.145 159.406Z" fill="#F9B50B"/>
<path d="M305.324 124.742C297.676 133.437 287.676 140.152 276.043 143.879C271.91 145.203 269.633 149.625 270.957 153.758C272.281 157.891 276.699 160.168 280.836 158.844C295.773 154.059 308.543 145.305 318.144 133.961C311.922 136.117 305.324 131.582 305.324 124.742Z" fill="#F79D0D"/>
<path d="M236.477 144.043C208.895 135.465 190.359 110.27 190.359 81.3555C190.359 57.9805 202.648 37.4375 221.094 25.8047C214.48 25.4258 210.211 18.6523 212.699 12.5312C189.859 26.9531 174.645 52.4023 174.645 81.3555C174.645 117.191 197.617 148.414 231.809 159.051C235.945 160.336 240.355 158.031 241.645 153.879C242.934 149.734 240.621 145.332 236.477 144.043Z" fill="#F79D0D"/>
<path d="M89.3281 446.551H422.672C438.566 431.785 452.5 414.938 464.035 396.438C463.543 293.602 388.441 208.41 290.082 192.199C284.992 191.359 281.27 186.945 281.27 181.785V164.785C279.418 166.594 276.891 167.711 274.102 167.711H237.898C235.105 167.711 232.578 166.594 230.727 164.785V181.785C230.727 186.961 226.98 191.363 221.875 192.203C123.531 208.434 48.4609 293.621 47.9688 396.441C59.5039 414.941 73.4336 431.789 89.3281 446.551Z" fill="#483BA8"/>
<path d="M89.3281 446.551H284.285C282.785 440.234 282.188 434.672 281.969 430.711C281.785 427.379 279.418 424.629 276.176 423.836C269.293 422.152 267.453 417.379 267.094 413.793C266.828 411.148 265.117 408.918 262.715 407.789C252.219 402.875 249.207 393.09 248.352 387.402C247.977 384.883 246.289 382.809 243.977 381.742C238.027 379.008 236.641 373.719 236.5 369.867C236.395 367.008 234.68 364.453 232.059 363.305C182.598 341.617 186.086 293.574 188.73 277.754C189.184 275.051 188.129 272.305 185.945 270.645C183.086 268.469 182.246 265.488 182.125 263.035C182 260.551 180.586 258.258 178.402 257.066C174.32 254.836 173.285 251.328 173.254 248.426C173.219 245.465 171.254 242.918 168.52 241.773C151.781 234.77 157.5 214.223 157.516 214.164C92.5742 249.133 48.3438 317.602 47.9688 396.441C59.5039 414.941 73.4336 431.789 89.3281 446.551Z" fill="#3C2B8E"/>
<path d="M81.5117 397.453C81.5117 414.133 83.8672 430.266 88.2578 445.551C132.094 486.75 191.094 512 256 512C320.906 512 379.906 486.75 423.742 445.551C428.133 430.266 430.488 414.133 430.488 397.453C430.488 301.242 352.215 222.965 256 222.965C159.785 222.965 81.5117 301.242 81.5117 397.453Z" fill="#82C6F9"/>
<path d="M281.969 430.711C281.785 427.379 279.418 424.629 276.176 423.836C269.293 422.152 267.453 417.379 267.094 413.793C266.828 411.148 265.117 408.918 262.715 407.789C252.219 402.875 249.207 393.09 248.352 387.402C247.977 384.883 246.289 382.809 243.977 381.742C238.027 379.008 236.641 373.719 236.5 369.867C236.395 367.008 234.68 364.453 232.059 363.305C182.598 341.617 186.086 293.574 188.73 277.754C189.184 275.051 188.129 272.305 185.945 270.645C183.086 268.469 182.246 265.488 182.125 263.035C182 260.551 180.586 258.258 178.402 257.066C174.32 254.836 173.285 251.328 173.254 248.426C173.238 247.008 172.766 245.688 171.988 244.566C118.102 274.293 81.5117 331.68 81.5117 397.453C81.5117 414.133 83.8672 430.27 88.2578 445.551C132.094 486.75 191.094 512 256 512C282.59 512 308.184 507.758 332.156 499.922C289.246 485.25 282.812 446.031 281.969 430.711Z" fill="#52B0F5"/>
<path d="M256 248.238C173.723 248.238 106.785 315.176 106.785 397.453C106.785 426.699 115.246 454.004 129.844 477.055C166.695 499.234 209.855 512 256 512C302.145 512 345.305 499.234 382.156 477.055C396.754 454.004 405.215 426.699 405.215 397.453C405.215 315.176 338.277 248.238 256 248.238Z" fill="#D9F5FF"/>
<path d="M281.969 430.711C281.785 427.379 279.418 424.629 276.176 423.836C269.293 422.152 267.453 417.379 267.094 413.793C266.828 411.148 265.117 408.918 262.715 407.789C252.219 402.875 249.207 393.09 248.352 387.402C247.977 384.883 246.289 382.809 243.977 381.742C238.027 379.008 236.641 373.719 236.5 369.867C236.395 367.008 234.68 364.453 232.059 363.305C182.598 341.617 186.086 293.574 188.73 277.754C189.184 275.051 188.129 272.305 185.945 270.645C184.633 269.645 183.758 268.473 183.172 267.262C137.629 292.84 106.785 341.609 106.785 397.457C106.785 426.703 115.246 454.004 129.844 477.055C166.695 499.234 209.855 512 256 512C282.59 512 308.184 507.754 332.152 499.918C289.246 485.246 282.812 446.031 281.969 430.711Z" fill="#ABE4FE"/>
<path d="M237.898 129.418H274.102C274.723 129.418 275.332 129.484 275.926 129.59C274.742 119.629 266.281 111.898 256 111.898C245.719 111.898 237.258 119.629 236.074 129.59C236.664 129.484 237.273 129.418 237.898 129.418Z" fill="#554CBF"/>
<path d="M257.074 121.324C257.074 117.645 259.188 114.469 262.258 112.914C260.285 112.266 258.188 111.898 256 111.898C245.719 111.898 237.258 119.629 236.074 129.59C236.668 129.48 237.273 129.418 237.898 129.418H261.691C258.93 127.773 257.074 124.77 257.074 121.324Z" fill="#483BA8"/>
<path d="M267.258 320.668C264.902 320.668 262.617 319.606 261.098 317.688L252.602 306.965V312.809C252.602 317.149 249.082 320.668 244.742 320.668C240.402 320.668 236.887 317.149 236.887 312.809V284.395C236.887 281.051 239.004 278.074 242.16 276.977C245.316 275.875 248.824 276.895 250.902 279.516L259.398 290.238V284.395C259.398 280.055 262.914 276.539 267.258 276.539C271.598 276.539 275.113 280.055 275.113 284.395V312.809C275.113 316.152 272.996 319.133 269.84 320.231C268.992 320.524 268.121 320.668 267.258 320.668Z" fill="#82C6F9"/>
<path d="M256 266.289C251.66 266.289 248.145 262.77 248.145 258.43V248.238C248.145 243.898 251.66 240.383 256 240.383C260.34 240.383 263.855 243.898 263.855 248.238V258.43C263.855 262.77 260.34 266.289 256 266.289Z" fill="#2299F2"/>
<path d="M116.977 405.312H106.785C102.445 405.312 98.9258 401.793 98.9258 397.453C98.9258 393.113 102.445 389.598 106.785 389.598H116.977C121.316 389.598 124.836 393.113 124.836 397.453C124.836 401.793 121.316 405.312 116.977 405.312Z" fill="#2299F2"/>
<path d="M405.215 405.312H395.023C390.684 405.312 387.168 401.793 387.168 397.453C387.168 393.113 390.684 389.598 395.023 389.598H405.215C409.555 389.598 413.074 393.113 413.074 397.453C413.074 401.793 409.555 405.312 405.215 405.312Z" fill="#2299F2"/>
<path d="M256 240.383C169.391 240.383 98.9258 310.844 98.9258 397.453C98.9258 422.719 104.93 446.602 115.574 467.77C125.16 474.488 135.25 480.539 145.777 485.852C126.309 461.625 114.641 430.879 114.641 397.453C114.641 319.512 178.055 256.098 256 256.098C333.945 256.098 397.359 319.508 397.359 397.453C397.359 430.879 385.691 461.625 366.223 485.852C376.75 480.539 386.84 474.488 396.426 467.77C407.066 446.602 413.074 422.719 413.074 397.453C413.074 310.844 342.609 240.383 256 240.383Z" fill="#52B0F5"/>
<path d="M145.777 485.852C126.309 461.625 114.641 430.879 114.641 397.453C114.641 344.074 144.383 297.516 188.168 273.465C187.676 272.375 186.934 271.395 185.945 270.645C183.086 268.469 182.246 265.484 182.125 263.031C182.062 261.758 181.652 260.535 180.98 259.484C132.137 286.148 98.9258 337.996 98.9258 397.453C98.9258 422.719 104.93 446.602 115.57 467.77C125.16 474.488 135.25 480.535 145.777 485.852Z" fill="#2299F2"/>
<path d="M296.461 321.871L248.023 373.348C250.535 372.516 253.215 372.059 256 372.059C268.238 372.059 278.477 380.758 280.867 392.297L301.227 324.625C302.254 321.203 298.906 319.27 296.461 321.871Z" fill="#D93A59"/>
<path d="M275.184 344.48L248.023 373.348C262.586 368.516 277.832 377.641 280.867 392.293L292.664 353.086C285.465 357.48 276.098 352.879 275.184 344.48Z" fill="#BA1C37"/>
<path d="M256 422.852C243.762 422.852 233.519 414.152 231.133 402.613L210.773 470.285C209.746 473.707 213.09 475.641 215.539 473.035L263.976 421.562C261.465 422.395 258.785 422.852 256 422.852Z" fill="#52B0F5"/>
<path d="M236.867 450.371L263.977 421.562C249.414 426.391 234.164 417.266 231.133 402.613L219.957 439.762C227.676 435.688 237.172 441.414 236.867 450.371Z" fill="#2299F2"/>
<path d="M256 434.898C235.352 434.898 218.555 418.102 218.555 397.453C218.555 376.809 235.352 360.008 256 360.008C276.648 360.008 293.445 376.809 293.445 397.453C293.445 418.102 276.645 434.898 256 434.898Z" fill="#ABE4FE"/>
<path d="M256 434.898C265.145 434.898 273.527 431.602 280.035 426.137C279.035 425.031 277.711 424.211 276.18 423.836C269.293 422.148 267.453 417.379 267.094 413.789C266.828 411.148 265.121 408.914 262.715 407.789C252.219 402.871 249.207 393.09 248.355 387.402C247.977 384.883 246.289 382.805 243.977 381.742C238.027 379.004 236.645 373.715 236.5 369.867C236.449 368.547 236.047 367.301 235.383 366.219C225.254 372.93 218.555 384.422 218.555 397.453C218.555 418.102 235.352 434.898 256 434.898Z" fill="#82C6F9"/>
<path d="M256 380.961C246.906 380.961 239.508 388.359 239.508 397.453C239.508 406.547 246.906 413.945 256 413.945C265.094 413.945 272.492 406.547 272.492 397.453C272.492 388.359 265.094 380.961 256 380.961Z" fill="#82C6F9"/>
<path d="M239.508 397.453C239.508 406.547 246.906 413.945 256 413.945C259.734 413.945 263.172 412.684 265.941 410.582C265.16 409.391 264.055 408.414 262.715 407.789C252.219 402.871 249.207 393.09 248.355 387.402C248.152 386.055 247.566 384.84 246.719 383.832C242.371 386.805 239.508 391.801 239.508 397.453Z" fill="#52B0F5"/>
<path d="M281.434 128.48H230.566C224.891 128.48 220.289 133.082 220.289 138.758V158.371C220.289 164.047 224.891 168.648 230.566 168.648H281.434C287.105 168.648 291.707 164.047 291.707 158.371V138.758C291.707 133.082 287.109 128.48 281.434 128.48Z" fill="#6464D8"/>
<path d="M249.957 158.371V138.758C249.957 133.082 254.559 128.48 260.23 128.48H230.566C224.891 128.48 220.289 133.082 220.289 138.758V158.371C220.289 164.047 224.891 168.648 230.566 168.648H260.23C254.559 168.648 249.957 164.047 249.957 158.371Z" fill="#554CBF"/>
</svg>
