<svg width="512" height="512" viewBox="0 0 512 512" fill="none" xmlns="http://www.w3.org/2000/svg">
<g clip-path="url(#clip0)">
<path d="M478.781 369.059C493.039 337.988 501 303.426 501 267C501 131.691 391.309 22 256 22C120.691 22 11 131.688 11 267C11 303.426 18.9609 337.988 33.2188 369.059H478.781Z" fill="#FBC840"/>
<path d="M290.539 0H80.5664C54.1992 0 32.75 21.4492 32.75 47.8164V368.059C71.2383 452.949 156.723 512 256 512C284.895 512 312.613 506.984 338.352 497.797V47.8164C338.352 21.4492 316.902 0 290.539 0V0Z" fill="#D9F5FF"/>
<path d="M86.5547 0H80.5664C54.1992 0 32.75 21.4492 32.75 47.8164V368.059C45.75 396.73 64.1133 422.445 86.5508 443.941V47.8164C86.5508 41.3633 87.8438 35.207 90.1719 29.582C74.8203 14.8477 86.5547 0 86.5547 0V0Z" fill="#ABE4FE"/>
<path d="M467.344 47.8164C467.344 28.0625 451.184 11.9062 431.434 11.9062H221.461C201.711 11.9062 185.551 28.0625 185.551 47.8164V501.699C207.863 508.391 231.508 512 256 512C346.07 512 424.773 463.387 467.344 390.973V47.8164Z" fill="#5BBF02"/>
<path d="M248.23 47.8164C248.23 33.5195 254.547 20.6758 264.523 11.9062H221.461C201.711 11.9062 185.551 28.0664 185.551 47.8164V501.703C205.496 507.68 226.508 511.191 248.23 511.871V47.8164Z" fill="#58AA02"/>
<path d="M185.551 392.176H329.902L439.703 300V74.1172H185.551V392.176Z" fill="#83D912"/>
<path d="M185.551 74.1172H248.23V392.176H185.551V74.1172Z" fill="#5BBF02"/>
<path d="M329.902 432.238V392.176L185.551 319.145V501.703C207.863 508.391 231.508 512 256 512C327.637 512 392.082 481.25 436.883 432.238H329.902Z" fill="#FBC840"/>
<path d="M248.23 350.855L185.551 319.145V501.703C205.496 507.68 226.508 511.191 248.23 511.871V350.855Z" fill="#F9B50B"/>
<path d="M439.703 300L329.902 392.176V432.238H436.883C448.414 419.625 458.633 405.797 467.344 390.973V74.1172H439.703V300Z" fill="#2299F2"/>
<path d="M438.293 417.977H344.164V398.836L450.301 309.984C453.535 307.273 455.406 303.27 455.406 299.047V74.1172H426.883V292.387L327.953 375.207L185.551 303.16V335.125L315.641 400.941V432.238C315.641 440.113 322.027 446.5 329.902 446.5H422.723C431.324 438.508 439.352 429.902 446.73 420.758C444.309 418.977 441.363 417.977 438.293 417.977Z" fill="#D9F5FF"/>
<path d="M248.23 334.871L185.551 303.16V335.129L248.23 366.84C234.449 350.008 248.23 334.871 248.23 334.871Z" fill="#ABE4FE"/>
<path d="M479.25 368.059V47.8164C479.25 21.4492 457.801 0 431.434 0H221.461C195.098 0 173.648 21.4492 173.648 47.8164V497.797C181.41 500.57 189.355 502.957 197.457 504.941V47.8164C197.457 34.5586 208.203 23.8086 221.465 23.8086H260.344C261.496 23.8086 262.426 24.7422 262.426 25.8945C262.426 35.5273 270.309 43.4102 279.945 43.4102H371.609C381.242 43.4102 389.129 35.5273 389.129 25.8945C389.129 24.7422 390.059 23.8086 391.211 23.8086H431.434C444.691 23.8086 455.441 34.5586 455.441 47.8164V409.32C464.648 396.438 472.641 382.633 479.25 368.059Z" fill="#554CBF"/>
<path d="M428.191 60.3203H412.086C407.637 60.3203 404.031 56.7148 404.031 52.2656C404.031 47.8164 407.637 44.2109 412.086 44.2109H428.191C432.641 44.2109 436.246 47.8164 436.246 52.2656C436.246 56.7148 432.641 60.3203 428.191 60.3203Z" fill="#83D912"/>
<path d="M240.812 60.3203H224.703C220.258 60.3203 216.652 56.7148 216.652 52.2656C216.652 47.8164 220.258 44.2109 224.703 44.2109H240.812C245.262 44.2109 248.863 47.8164 248.863 52.2656C248.867 56.7148 245.262 60.3203 240.812 60.3203Z" fill="#83D912"/>
<path d="M97.2891 164.855C77.2461 164.855 60.9414 148.551 60.9414 128.508V63.3789C60.9414 43.3359 77.2461 27.0312 97.2891 27.0312C117.336 27.0312 133.641 43.3359 133.641 63.3789V128.508C133.641 148.547 117.336 164.855 97.2891 164.855ZM97.2891 43.1367C86.1289 43.1367 77.0508 52.2188 77.0508 63.3789V128.508C77.0508 139.668 86.1289 148.746 97.2891 148.746C108.453 148.746 117.531 139.668 117.531 128.508V63.3789C117.531 52.2188 108.453 43.1367 97.2891 43.1367Z" fill="#554CBF"/>
<path d="M96.5 157.75C96.8984 157.172 96.8984 156.395 96.5078 155.812C94.7344 153.184 95.7266 150.938 96.5469 149.766C96.7656 149.453 96.8633 149.09 96.8633 148.727C85.9023 148.496 77.0508 139.523 77.0508 128.508V63.3789C77.0508 52.9961 84.9141 44.4219 95 43.2773C94.9023 42.7773 94.6094 42.3281 94.1328 42.0781C91.4961 40.7031 91.2773 38.3008 91.4219 36.8555C91.4961 36.1328 91.1328 35.457 90.5039 35.0938C86.293 32.6406 88.4297 28.5 88.6641 28.0742C72.7734 31.957 60.9414 46.3086 60.9414 63.3789V128.508C60.9414 148.551 77.2461 164.855 97.2891 164.855C94.3633 161.926 95.5352 159.152 96.5 157.75Z" fill="#483BA8"/>
<path d="M314.723 368.934C314.723 385.445 301.336 398.836 284.82 398.836C268.305 398.836 254.918 385.445 254.918 368.934C254.918 352.418 268.305 339.031 284.82 339.031C301.336 339.031 314.723 352.418 314.723 368.934Z" fill="#F9B50B"/>
<path d="M294.32 379.836C283.055 379.836 273.918 370.699 273.918 359.434C273.918 349.641 280.824 341.465 290.027 339.492C288.336 339.195 286.598 339.031 284.82 339.031C268.305 339.031 254.918 352.418 254.918 368.934C254.918 385.445 268.305 398.836 284.82 398.836C301.336 398.836 314.723 385.445 314.723 368.934C314.723 367.156 314.559 365.418 314.262 363.727C312.289 372.93 304.113 379.836 294.32 379.836Z" fill="#F79D0D"/>
<path d="M284.82 134.297C210.043 134.297 168.293 220.613 214.711 279.238L269.621 348.586C277.383 358.387 292.258 358.387 300.02 348.586L354.93 279.238C401.352 220.617 359.598 134.297 284.82 134.297Z" fill="#F7577A"/>
<path d="M300.02 348.586L348.016 287.969C331.164 287.969 326.578 278.809 325.402 272.598C324.832 269.578 322.555 267.109 319.566 266.406C312.797 264.812 310.102 260.328 309.027 257.023C308.234 254.574 306.242 252.707 303.785 251.945C268.922 241.172 269.027 209.152 270.75 195.633C271.172 192.328 269.449 189.199 266.52 187.617C261.078 184.68 260.039 179.852 260.246 176.016C260.422 172.738 258.711 169.629 255.746 168.215C239.988 160.703 248.23 141.926 248.23 141.926C197.945 164.266 176.586 231.09 214.711 279.238L269.621 348.586C277.387 358.387 292.258 358.387 300.02 348.586Z" fill="#D93A59"/>
<path d="M284.82 283.035C252.449 283.035 226.117 256.699 226.117 224.328C226.117 191.961 252.453 165.625 284.82 165.625C317.191 165.625 343.527 191.961 343.527 224.328C343.527 256.699 317.191 283.035 284.82 283.035ZM284.82 187.102C264.293 187.102 247.594 203.801 247.594 224.328C247.594 244.859 264.293 261.559 284.82 261.559C305.348 261.559 322.051 244.855 322.051 224.328C322.051 203.801 305.348 187.102 284.82 187.102Z" fill="#D93A59"/>
<path d="M319.566 266.406C312.797 264.812 310.102 260.328 309.027 257.023C308.66 255.887 308.023 254.883 307.215 254.051C300.977 258.762 293.223 261.559 284.82 261.559C264.293 261.559 247.594 244.859 247.594 224.332C247.594 209.254 256.605 196.25 269.523 190.402C268.785 189.266 267.773 188.297 266.52 187.617C261.078 184.684 260.039 179.852 260.246 176.016C260.332 174.414 259.961 172.855 259.219 171.512C239.641 181.039 226.117 201.133 226.117 224.328C226.117 256.699 252.449 283.035 284.82 283.035C299.547 283.035 313.016 277.57 323.332 268.578C322.324 267.527 321.031 266.75 319.566 266.406Z" fill="#BA1C37"/>
<path d="M97.2891 156.801C81.7266 156.801 68.9961 144.066 68.9961 128.508V63.3789C68.9961 47.8164 81.7305 35.0859 97.2891 35.0859C112.855 35.0859 125.586 47.8164 125.586 63.3789V128.508C125.586 144.066 112.852 156.801 97.2891 156.801Z" fill="#483BA8"/>
<path d="M96.5898 74.9648C96.9766 74.4297 97.0703 73.7227 96.7734 73.1328C92.3047 64.1367 95.1953 56.6055 96.625 53.8086C96.9805 53.1211 96.8203 52.3047 96.2773 51.75C93.6328 49.0508 94.1562 46.1328 94.8906 44.3633C95.2422 43.5117 94.9492 42.5039 94.1328 42.0781C91.4961 40.6992 91.2773 38.3008 91.4219 36.8555C91.4609 36.4609 91.3633 36.0859 91.1719 35.7617C78.5273 38.582 68.9961 49.918 68.9961 63.3789V128.508C68.9961 143.902 81.4609 156.523 96.8008 156.789C96.8008 156.449 96.7031 156.105 96.5078 155.812C94.7344 153.184 95.7266 150.938 96.5469 149.766C96.9375 149.211 96.9844 148.488 96.6641 147.887C94.8516 144.488 96.043 141.262 96.8008 139.789C97.0859 139.246 97.0586 138.602 96.7539 138.066C91.4766 128.852 95.0977 121.066 96.668 118.441C97.0117 117.859 96.9961 117.145 96.6367 116.574C94.1211 112.602 96.1367 109.117 96.9727 107.957C97.1836 107.664 97.2891 107.312 97.2891 106.949V84.7422C97.2891 84.2969 97.1094 83.8789 96.8203 83.5469C93.707 79.9688 95.4688 76.5156 96.5898 74.9648Z" fill="#3C2B8E"/>
<path d="M117.961 63.3789C117.961 74.7969 108.707 84.0508 97.2891 84.0508C85.875 84.0508 76.6211 74.7969 76.6211 63.3789C76.6211 51.9648 85.875 42.7109 97.2891 42.7109C108.707 42.7109 117.961 51.9648 117.961 63.3789Z" fill="#6464D8"/>
<path d="M97.1328 84.043C97.0547 83.8633 96.9492 83.6953 96.8203 83.5469C93.707 79.9688 95.4688 76.5156 96.5898 74.9648C96.9766 74.4297 97.0703 73.7227 96.7734 73.1328C92.3047 64.1367 95.1953 56.6055 96.625 53.8086C96.9805 53.1211 96.8203 52.3047 96.2773 51.75C93.6328 49.0508 94.1562 46.1328 94.8906 44.3633C95.0977 43.8672 95.0781 43.3203 94.8672 42.8633C84.5937 44.0664 76.6211 52.7852 76.6211 63.3789C76.6211 74.7422 85.7891 83.957 97.1328 84.043Z" fill="#554CBF"/>
<path d="M117.961 128.223C117.961 139.637 108.707 148.895 97.2891 148.895C85.875 148.895 76.6211 139.637 76.6211 128.223C76.6211 116.805 85.875 107.551 97.2891 107.551C108.707 107.551 117.961 116.805 117.961 128.223Z" fill="#6464D8"/>
<path d="M96.8672 148.871C96.8945 148.535 96.8281 148.195 96.6641 147.887C94.8516 144.488 96.043 141.262 96.8008 139.789C97.0859 139.246 97.0586 138.602 96.7539 138.066C91.4766 128.852 95.0977 121.066 96.668 118.441C97.0117 117.859 96.9961 117.145 96.6367 116.574C94.1211 112.602 96.1367 109.117 96.9727 107.957C97.0586 107.836 97.1211 107.695 97.1719 107.559C85.8125 107.621 76.6211 116.848 76.6211 128.223C76.6211 139.496 85.6484 148.645 96.8672 148.871Z" fill="#554CBF"/>
<path d="M97.2891 74.1173C91.2969 74.1173 86.5547 69.2305 86.5547 63.379C86.5547 58.4024 89.9883 53.9258 95.1875 52.8555C101.641 51.543 108.027 56.4649 108.027 63.379C108.027 69.2423 103.277 74.1173 97.2891 74.1173Z" fill="#554CBF"/>
<path d="M96.9297 74.0977C96.9727 73.7734 96.9258 73.4375 96.7734 73.1328C92.3047 64.1367 95.1953 56.6055 96.625 53.8086C96.8125 53.4453 96.8477 53.0469 96.7695 52.6719C96.2422 52.6953 95.7148 52.7461 95.1875 52.8555C89.9922 53.9258 86.5547 58.4023 86.5547 63.3789C86.5547 69.1094 91.1094 73.9062 96.9297 74.0977Z" fill="#3C2B8E"/>
<path d="M97.2891 138.961C91.2969 138.961 86.5547 134.074 86.5547 128.223C86.5547 123.246 89.9883 118.77 95.1875 117.695C101.641 116.387 108.027 121.305 108.027 128.223C108.027 134.082 103.277 138.961 97.2891 138.961Z" fill="#554CBF"/>
<path d="M96.9961 138.945C96.9883 138.641 96.9102 138.34 96.7539 138.066C91.4766 128.852 95.0977 121.066 96.6641 118.441C96.8398 118.152 96.918 117.828 96.9141 117.508C96.3398 117.527 95.7656 117.578 95.1875 117.699C89.9883 118.77 86.5508 123.246 86.5508 128.223C86.5547 133.977 91.1445 138.785 96.9961 138.945Z" fill="#3C2B8E"/>
<path d="M221.461 0C195.098 0 173.645 21.4492 173.645 47.8164V497.797C181.41 500.566 189.355 502.957 197.457 504.941V47.8164C197.457 34.5586 208.203 23.8086 221.461 23.8086H254.715C254.715 23.8086 243.152 11.5625 254.715 0L221.461 0Z" fill="#483BA8"/>
</g>
<defs>
<clipPath id="clip0">
<rect width="512" height="512" fill="white"/>
</clipPath>
</defs>
</svg>
