<svg width="512" height="512" viewBox="0 0 512 512" fill="none" xmlns="http://www.w3.org/2000/svg">
<path d="M87.9453 445.262C105.332 448.977 284.844 485.551 426.777 442.645C472.555 398.133 501 335.895 501 267C501 131.691 391.312 22 256 22C120.688 22 11 131.691 11 267C11 337.25 40.5742 400.586 87.9453 445.262Z" fill="#FBC840"/>
<path d="M167.59 68.832C163.789 68.832 160.707 65.75 160.707 61.9453V40.0742C160.707 36.2695 163.789 33.1875 167.59 33.1875C171.395 33.1875 174.477 36.2734 174.477 40.0742V61.9453C174.477 65.75 171.395 68.832 167.59 68.832Z" fill="#F79D0D"/>
<path d="M312.004 68.832C308.199 68.832 305.117 65.75 305.117 61.9453V40.0742C305.117 36.2695 308.199 33.1875 312.004 33.1875C315.805 33.1875 318.887 36.2734 318.887 40.0742V61.9453C318.887 65.75 315.805 68.832 312.004 68.832Z" fill="#F79D0D"/>
<path d="M352.531 61.9453H127.047C122.211 61.9453 118.293 65.8672 118.293 70.6992V258.297C119.672 258.996 120.996 259.828 122.23 260.828C123.059 261.496 124.211 261.496 125.039 260.828C128.984 257.637 133.754 255.949 138.828 255.949C148.074 255.949 156.387 261.797 159.504 270.504C159.828 271.41 160.715 272.012 161.637 271.984C161.812 271.98 161.988 271.977 162.164 271.977C174.273 271.977 184.121 281.828 184.121 293.938C184.121 295.953 183.848 297.953 183.309 299.883C183.023 300.895 183.469 301.949 184.391 302.449C194.266 307.805 200.406 318.102 200.406 329.32C200.406 340.141 194.59 350.254 185.227 355.719C184.547 356.117 184.121 356.855 184.121 357.656C184.121 365.031 180.625 371.645 174.523 375.793C168.496 379.895 160.863 380.754 154.113 378.09C153.035 377.664 151.801 378.16 151.301 379.223C147.98 386.289 142.156 391.77 134.895 394.652L134.023 394.996V464.492H309.422V102.742C309.422 97.9062 313.34 93.9883 318.172 93.9883H361.285V70.6992C361.285 65.8672 357.367 61.9453 352.531 61.9453Z" fill="#D9F5FF"/>
<path d="M168.699 378.609C163.973 380.09 158.828 379.949 154.113 378.09C153.035 377.664 151.801 378.164 151.301 379.227C147.984 386.289 142.156 391.77 134.895 394.652L134.027 394.996V464.492H168.695V378.609H168.699Z" fill="#ABE4FE"/>
<path d="M159.504 270.504C159.828 271.414 160.715 272.016 161.637 271.984C161.812 271.98 161.988 271.977 162.164 271.977C164.438 271.977 166.633 272.324 168.699 272.969V70.6992C168.699 65.8672 172.617 61.9453 177.449 61.9453H127.047C122.211 61.9453 118.293 65.8672 118.293 70.6992V258.297C119.672 258.996 120.996 259.828 122.23 260.828C123.059 261.496 124.211 261.496 125.039 260.828C128.984 257.637 133.754 255.949 138.828 255.949C148.074 255.949 156.387 261.801 159.504 270.504Z" fill="#ABE4FE"/>
<path d="M273.047 410.066H233.754C231.414 410.066 229.52 408.172 229.52 405.832V361.703C229.52 359.363 231.414 357.469 233.754 357.469H273.047C275.383 357.469 277.281 359.363 277.281 361.703V405.832C277.281 408.172 275.383 410.066 273.047 410.066Z" fill="#82C6F9"/>
<path d="M253.398 405.832V361.703C253.398 359.363 255.297 357.469 257.637 357.469H233.754C231.414 357.469 229.52 359.363 229.52 361.703V405.832C229.52 408.172 231.414 410.066 233.754 410.066H257.637C255.297 410.066 253.398 408.172 253.398 405.832Z" fill="#52B0F5"/>
<path d="M277.281 376.129H229.52V361.703C229.52 359.363 231.418 357.469 233.758 357.469H273.047C275.387 357.469 277.281 359.363 277.281 361.703V376.129Z" fill="#52B0F5"/>
<path d="M253.398 361.703C253.398 359.363 255.297 357.469 257.637 357.469H233.754C231.426 357.469 229.52 359.355 229.52 361.703V376.129H253.398V361.703Z" fill="#2299F2"/>
<path d="M327.121 0H152.457C146.016 0 140.797 5.22266 140.797 11.6602V32.5898C140.797 39.0273 146.016 44.25 152.457 44.25H327.121C333.559 44.25 338.781 39.0273 338.781 32.5898V11.6602C338.781 5.22266 333.562 0 327.121 0Z" fill="#554CBF"/>
<path d="M208.594 32.5898V11.6602C208.594 5.22266 213.812 0 220.254 0H152.457C146.016 0 140.797 5.22266 140.797 11.6602V32.5898C140.797 39.0273 146.016 44.25 152.457 44.25H220.254C213.812 44.25 208.594 39.0273 208.594 32.5898Z" fill="#483BA8"/>
<path d="M123.633 396.352C119.477 396.352 115.508 395.547 111.863 394.098V464.492H135.402V394.098C131.762 395.543 127.793 396.352 123.633 396.352Z" fill="#AA3D27"/>
<path d="M124.004 423.992H123.266C116.969 423.992 111.863 418.891 111.863 412.594V464.492H135.402V412.594C135.402 418.891 130.301 423.992 124.004 423.992Z" fill="#98341A"/>
<path d="M111.855 452.785C108.633 452.785 105.754 450.512 105.109 447.231C101.184 427.301 81.0352 413.504 80.832 413.363C77.6836 411.242 76.8438 406.965 78.9648 403.813C81.082 400.66 85.3477 399.817 88.5 401.926C89.5234 402.609 113.578 418.957 118.621 444.57C119.461 448.832 116.191 452.785 111.855 452.785Z" fill="#AA3D27"/>
<path d="M406.234 92.1523H316.34C311.504 92.1523 307.586 96.0703 307.586 100.906V464.492H400.988C405.789 460.961 410.461 457.262 414.984 453.398V100.906C414.984 96.0703 411.066 92.1523 406.234 92.1523Z" fill="#D93A59"/>
<path d="M406.234 376.16H316.34C311.504 376.16 307.586 380.078 307.586 384.914V464.492H400.988C405.789 460.961 410.461 457.262 414.984 453.398V384.914C414.984 380.078 411.066 376.16 406.234 376.16Z" fill="#BA1C37"/>
<path d="M308.047 471.379C304.242 471.379 301.16 468.297 301.16 464.492V92.1523C301.16 88.3516 304.242 85.2695 308.047 85.2695C311.848 85.2695 314.93 88.3516 314.93 92.1523V464.492C314.93 468.297 311.848 471.379 308.047 471.379Z" fill="#F7577A"/>
<path d="M343.539 471.379C339.734 471.379 336.652 468.297 336.652 464.492V92.1523C336.652 88.3516 339.734 85.2695 343.539 85.2695C347.344 85.2695 350.426 88.3516 350.426 92.1523V464.492C350.426 468.297 347.344 471.379 343.539 471.379Z" fill="#F7577A"/>
<path d="M379.031 471.379C375.23 471.379 372.148 468.297 372.148 464.492V92.1523C372.148 88.3516 375.23 85.2695 379.031 85.2695C382.836 85.2695 385.918 88.3516 385.918 92.1523V464.492C385.918 468.297 382.836 471.379 379.031 471.379Z" fill="#F7577A"/>
<path d="M414.527 85.2695C410.723 85.2695 407.641 88.3516 407.641 92.1523V459.438C412.379 455.699 416.969 451.789 421.41 447.723V92.1523C421.41 88.3516 418.328 85.2695 414.527 85.2695Z" fill="#F7577A"/>
<path d="M308.047 386.16C304.242 386.16 301.16 383.078 301.16 379.277V464.492C301.16 468.297 304.242 471.379 308.047 471.379C311.848 471.379 314.93 468.297 314.93 464.492V379.277C314.93 383.078 311.848 386.16 308.047 386.16Z" fill="#D93A59"/>
<path d="M343.539 386.16C339.734 386.16 336.652 383.078 336.652 379.277V464.492C336.652 468.297 339.734 471.379 343.539 471.379C347.344 471.379 350.426 468.297 350.426 464.492V379.277C350.426 383.078 347.344 386.16 343.539 386.16Z" fill="#D93A59"/>
<path d="M379.031 386.16C375.23 386.16 372.148 383.078 372.148 379.277V464.492C372.148 468.297 375.23 471.379 379.031 471.379C382.836 471.379 385.918 468.297 385.918 464.492V379.277C385.918 383.078 382.836 386.16 379.031 386.16Z" fill="#D93A59"/>
<path d="M414.527 386.16C410.723 386.16 407.641 383.078 407.641 379.277V459.438C412.379 455.699 416.969 451.789 421.41 447.723V379.277C421.41 383.078 418.328 386.16 414.527 386.16Z" fill="#D93A59"/>
<path d="M414.262 438.559C404.297 438.559 395.211 442.328 388.352 448.516C385.555 451.039 381.371 451.039 378.574 448.516C371.715 442.328 362.633 438.559 352.664 438.559C342.719 438.559 333.648 442.313 326.793 448.477C323.973 451.016 319.758 451.016 316.934 448.477C310.078 442.313 301.012 438.559 291.066 438.559C281.117 438.559 272.051 442.313 265.195 448.477C262.41 450.981 258.121 450.981 255.336 448.477C248.48 442.313 239.414 438.559 229.469 438.559C219.43 438.559 210.285 442.383 203.406 448.652C200.707 451.109 196.629 451.109 193.93 448.652C179.254 435.277 156.805 435.164 142 448.477C139.176 451.016 134.965 451.016 132.141 448.477C119.422 437.039 100.926 435.438 86.5664 443.961C130.57 486.106 190.262 512 256 512C323.16 512 384.004 484.969 428.262 441.199C423.918 439.508 419.203 438.559 414.262 438.559Z" fill="#ABF222"/>
<path d="M184.184 489.938C191.734 483.457 201.059 480.402 210.277 480.613C214.02 480.703 217.273 477.906 217.758 474.195C218.945 465.051 223.379 456.297 230.93 449.82C235.285 446.078 240.238 443.484 245.418 441.996C240.555 439.793 235.156 438.559 229.469 438.559C219.43 438.559 210.285 442.383 203.406 448.652C200.707 451.113 196.629 451.113 193.93 448.652C179.258 435.277 156.805 435.164 142 448.481C139.176 451.02 134.965 451.02 132.141 448.481C119.422 437.039 100.926 435.441 86.5664 443.961C111.957 468.277 142.574 487.168 176.559 498.813C178.586 495.566 181.125 492.563 184.184 489.938Z" fill="#83D912"/>
<path d="M201.781 329.32C201.781 317.188 195.012 306.641 185.047 301.238C184.695 301.047 184.523 300.641 184.633 300.258C185.199 298.246 185.5 296.125 185.5 293.938C185.5 281.047 175.055 270.602 162.164 270.602C161.977 270.602 161.789 270.602 161.605 270.605C161.242 270.617 160.922 270.383 160.801 270.039C157.57 261.023 148.957 254.57 138.828 254.57C133.277 254.57 128.18 256.516 124.172 259.758C123.859 260.012 123.414 260.012 123.098 259.758C119.09 256.516 113.996 254.57 108.441 254.57C98.3164 254.57 89.6992 261.023 86.4727 270.039C86.3477 270.383 86.0273 270.617 85.6641 270.605C85.4805 270.602 85.293 270.602 85.1055 270.602C72.2188 270.602 61.7695 281.047 61.7695 293.938C61.7695 296.125 62.0703 298.246 62.6367 300.258C62.7422 300.641 62.5742 301.047 62.2227 301.238C52.2578 306.641 45.4844 317.188 45.4844 329.32C45.4844 341.094 51.8633 351.371 61.3477 356.91C61.8008 357.172 61.7812 357.699 61.7695 357.656C61.7695 370.547 72.2148 380.992 85.1055 380.992C88.125 380.992 91.0117 380.418 93.6602 379.371C94.0703 379.207 94.5352 379.41 94.7227 379.812C99.8203 390.668 110.848 398.188 123.637 398.188C136.422 398.188 147.449 390.668 152.547 379.812C152.738 379.41 153.199 379.211 153.609 379.371C168.816 385.371 185.5 374.184 185.5 357.656V357.652C185.5 357.348 185.656 357.066 185.922 356.91C195.406 351.375 201.781 341.094 201.781 329.32Z" fill="#83D912"/>
<path d="M150.352 358.863C150.164 358.461 149.703 358.258 149.289 358.422C146.641 359.469 143.758 360.047 140.734 360.047C127.848 360.047 117.398 349.598 117.398 336.711C117.41 336.754 117.43 336.223 116.98 335.961C107.492 330.426 101.117 320.145 101.117 308.371C101.117 296.238 107.887 285.691 117.855 280.289C118.207 280.098 118.375 279.691 118.266 279.309C117.699 277.297 117.398 275.18 117.398 272.988C117.398 267.734 119.137 262.891 122.062 258.988C118.227 256.223 113.531 254.574 108.438 254.574C98.3125 254.574 89.6992 261.023 86.4688 270.039C86.3477 270.383 86.0273 270.617 85.6641 270.609C85.4766 270.605 85.2891 270.602 85.1016 270.602C72.2148 270.602 61.7656 281.051 61.7656 293.938C61.7656 296.129 62.0703 298.246 62.6328 300.258C62.7422 300.645 62.5742 301.047 62.2227 301.238C52.2539 306.641 45.4844 317.188 45.4844 329.32C45.4844 341.094 51.8594 351.375 61.3477 356.91C61.7969 357.176 61.7773 357.703 61.7656 357.66C61.7656 370.547 72.2148 380.996 85.1016 380.996C88.1211 380.996 91.0078 380.418 93.6562 379.371C94.0703 379.211 94.5312 379.41 94.7188 379.812C99.8164 390.668 110.844 398.188 123.633 398.188C136.422 398.188 147.445 390.668 152.547 379.812C152.734 379.41 153.195 379.211 153.605 379.371C161.203 382.371 169.172 381.078 175.242 376.973C164.199 375.578 154.906 368.562 150.352 358.863Z" fill="#5BBF02"/>
<path d="M123.633 376.02C123.633 368.656 119.523 362.258 113.477 358.977C113.262 358.859 113.16 358.617 113.227 358.383C113.57 357.16 113.754 355.875 113.754 354.547C113.754 346.727 107.414 340.387 99.5938 340.387C99.4766 340.387 99.3633 340.387 99.2539 340.391C99.0312 340.395 98.8359 340.254 98.7617 340.047C96.8047 334.574 91.5742 330.656 85.4297 330.656C82.0625 330.656 78.9688 331.84 76.5352 333.805C76.3438 333.961 76.0742 333.961 75.8828 333.805C73.4531 331.84 70.3594 330.656 66.9883 330.656C60.8438 330.656 55.6172 334.574 53.6562 340.047C53.582 340.254 53.3867 340.395 53.168 340.391C53.0547 340.387 52.9414 340.387 52.8281 340.387C45.0078 340.387 38.6641 346.727 38.6641 354.547C38.6641 355.875 38.8477 357.164 39.1914 358.383C39.2578 358.617 39.1523 358.859 38.9414 358.977C32.8945 362.258 28.7852 368.656 28.7852 376.02C28.7852 383.164 32.6523 389.402 38.4102 392.762C38.6836 392.922 38.6719 393.242 38.6641 393.219C38.6641 401.039 45.0039 407.379 52.8281 407.379C54.6602 407.379 56.4102 407.027 58.0195 406.395C58.2695 406.293 58.5508 406.414 58.6641 406.66C61.7578 413.25 68.4492 417.812 76.2109 417.812C83.9727 417.812 90.6602 413.246 93.7578 406.66C93.8711 406.418 94.1484 406.293 94.4023 406.395C103.629 410.035 113.754 403.246 113.754 393.215C113.754 393.027 113.848 392.855 114.008 392.762C119.766 389.402 123.633 383.164 123.633 376.02Z" fill="#ABF222"/>
<path d="M86.3906 398.223C86.2773 397.98 85.9961 397.855 85.7461 397.953C84.1367 398.59 82.3867 398.941 80.5547 398.941C72.7344 398.941 66.3945 392.602 66.3945 384.777C66.3984 384.805 66.4102 384.484 66.1367 384.324C60.3828 380.965 56.5117 374.727 56.5117 367.582C56.5117 360.219 60.6211 353.82 66.668 350.539C66.8828 350.422 66.9844 350.18 66.918 349.945C66.5742 348.723 66.3945 347.438 66.3945 346.109C66.3945 340.281 69.9141 335.281 74.9453 333.109C72.6758 331.562 69.9375 330.66 66.9883 330.66C60.8438 330.66 55.6133 334.574 53.6562 340.047C53.582 340.254 53.3867 340.395 53.168 340.391C53.0547 340.387 52.9414 340.387 52.8281 340.387C45.0078 340.387 38.6641 346.727 38.6641 354.547C38.6641 355.875 38.8516 357.164 39.1914 358.383C39.2578 358.617 39.1562 358.859 38.9414 358.977C32.8945 362.258 28.7852 368.656 28.7852 376.02C28.7852 383.164 32.6523 389.402 38.4102 392.762C38.6836 392.922 38.6719 393.242 38.6641 393.219C38.6641 401.039 45.0039 407.379 52.8242 407.379C54.6602 407.379 56.4102 407.027 58.0195 406.395C58.2695 406.293 58.5469 406.414 58.6641 406.66C61.7578 413.25 68.4492 417.812 76.2109 417.812C83.9688 417.812 90.6602 413.246 93.7539 406.66C93.7773 406.609 93.8125 406.57 93.8477 406.531C90.6211 404.555 88.0117 401.672 86.3906 398.223Z" fill="#83D912"/>
<path d="M273.047 331.73H233.754C231.414 331.73 229.52 329.836 229.52 327.496V283.367C229.52 281.027 231.414 279.133 233.754 279.133H273.047C275.383 279.133 277.281 281.027 277.281 283.367V327.496C277.281 329.836 275.383 331.73 273.047 331.73Z" fill="#82C6F9"/>
<path d="M253.398 327.496V283.367C253.398 281.027 255.297 279.133 257.637 279.133H233.754C231.414 279.133 229.52 281.027 229.52 283.367V327.496C229.52 329.836 231.414 331.73 233.754 331.73H257.637C255.297 331.73 253.398 329.836 253.398 327.496Z" fill="#52B0F5"/>
<path d="M277.281 297.793H229.52V283.367C229.52 281.027 231.418 279.133 233.758 279.133H273.047C275.387 279.133 277.281 281.027 277.281 283.367V297.793Z" fill="#52B0F5"/>
<path d="M253.398 283.367C253.398 281.027 255.297 279.133 257.637 279.133H233.754C231.426 279.133 229.52 281.02 229.52 283.367V297.793H253.398V283.367Z" fill="#2299F2"/>
<path d="M273.047 253.395H233.754C231.414 253.395 229.52 251.5 229.52 249.16V205.031C229.52 202.691 231.414 200.797 233.754 200.797H273.047C275.383 200.797 277.281 202.691 277.281 205.031V249.16C277.281 251.5 275.383 253.395 273.047 253.395Z" fill="#82C6F9"/>
<path d="M253.398 249.16V205.031C253.398 202.691 255.297 200.797 257.637 200.797H233.754C231.414 200.797 229.52 202.691 229.52 205.031V249.16C229.52 251.5 231.414 253.395 233.754 253.395H257.637C255.297 253.395 253.398 251.5 253.398 249.16Z" fill="#52B0F5"/>
<path d="M277.281 219.457H229.52V205.031C229.52 202.691 231.418 200.797 233.758 200.797H273.047C275.387 200.797 277.281 202.691 277.281 205.031V219.457Z" fill="#52B0F5"/>
<path d="M253.398 205.031C253.398 202.691 255.297 200.797 257.637 200.797H233.754C231.426 200.797 229.52 202.684 229.52 205.031V219.457H253.398V205.031Z" fill="#2299F2"/>
<path d="M273.047 175.059H233.754C231.414 175.059 229.52 173.164 229.52 170.824V126.695C229.52 124.355 231.414 122.461 233.754 122.461H273.047C275.383 122.461 277.281 124.355 277.281 126.695V170.824C277.281 173.164 275.383 175.059 273.047 175.059Z" fill="#82C6F9"/>
<path d="M253.398 170.824V126.695C253.398 124.355 255.297 122.461 257.637 122.461H233.754C231.414 122.461 229.52 124.355 229.52 126.695V170.824C229.52 173.164 231.414 175.059 233.754 175.059H257.637C255.297 175.059 253.398 173.164 253.398 170.824Z" fill="#52B0F5"/>
<path d="M277.281 141.121H229.52V126.695C229.52 124.355 231.418 122.461 233.758 122.461H273.047C275.387 122.461 277.281 124.355 277.281 126.695V141.121Z" fill="#52B0F5"/>
<path d="M253.398 126.695C253.398 124.355 255.297 122.461 257.637 122.461H233.754C231.426 122.461 229.52 124.352 229.52 126.695V141.121H253.398V126.695Z" fill="#2299F2"/>
</svg>
