<svg width="512" height="512" viewBox="0 0 512 512" fill="none" xmlns="http://www.w3.org/2000/svg">
<g clip-path="url(#clip0)">
<path d="M245 22C196.152 22 150.648 36.3008 112.434 60.9375L101.223 465.379C141.605 494.695 191.277 512 245 512C380.312 512 490 402.309 490 267C490 131.688 380.312 22 245 22Z" fill="#3C2B8E"/>
<path d="M474.852 51.8828C432.695 55.2617 408.715 76.2461 389.445 93.1055C369.961 110.156 355.879 122.477 324.629 122.477C293.379 122.477 279.301 110.156 259.812 93.1055C238.578 74.5273 212.152 51.4062 162.176 51.4062C142.723 51.4062 126.848 54.918 113.449 60.2969C45.2422 103.789 0 180.105 0 267C0 349.023 40.3125 421.617 102.203 466.082C119.352 451.258 133.57 440.93 162.18 440.93C193.43 440.93 207.508 453.25 226.996 470.301C248.227 488.879 274.652 512 324.629 512C374.605 512 401.031 488.879 422.266 470.301C438.688 455.93 451.66 444.578 474.805 441.66C496.012 438.988 512 420.844 512 399.457V86.1758C512 66.1367 494.871 50.2852 474.852 51.8828Z" fill="#D9F5FF"/>
<path d="M284.777 479.855L109.188 90.1055C95.6406 72.0469 113.449 60.2969 113.449 60.2969C45.2422 103.789 0 180.105 0 267C0 349.023 40.3125 421.617 102.203 466.082C119.352 451.258 133.57 440.93 162.18 440.93C193.43 440.93 207.508 453.25 226.996 470.301C242.727 484.066 261.32 500.312 290.219 507.816C272.914 495.395 284.777 479.855 284.777 479.855Z" fill="#ABE4FE"/>
<path d="M476.844 76.7227C405.699 82.4258 402.289 147.395 324.629 147.395C243.402 147.395 243.402 76.3242 162.18 76.3242C94.4102 76.3242 83.1797 125.793 34.1484 142.188C12.4609 178.738 0 221.41 0 267C0 339.922 31.8633 405.391 82.418 450.266C102.246 432.934 122.543 416.012 162.176 416.012C243.402 416.012 243.402 487.082 324.629 487.082C400.371 487.082 405.484 425.285 471.688 416.938C480.488 415.828 487.082 408.328 487.082 399.457V86.1758C487.082 80.6445 482.355 76.2813 476.844 76.7227Z" fill="#2299F2"/>
<path d="M476.844 76.7227C405.699 82.4258 402.289 147.395 324.629 147.395C313.762 147.395 304.355 146.113 296.008 143.91C294.359 158.473 297.496 176.508 317.926 188.102C356.965 210.25 302.086 226.055 323.699 251.777C344.645 276.707 315.883 317.129 295.629 296.871C275.371 276.613 265.203 239.316 232.871 239.316C200.539 239.316 192.676 285.934 222.687 301.531C238.656 309.832 272.523 320.988 283.598 355.598C294.672 390.203 339.254 401.184 357.152 383.281C375.055 365.383 387.043 311.301 420.453 311.301C453.863 311.301 448.379 345.43 440.98 352.828C434.434 359.375 445.223 396.852 487.078 394.758V86.1758C487.082 80.6445 482.355 76.2813 476.844 76.7227Z" fill="#83D912"/>
<path d="M252.996 417.871C240.387 352.789 187.445 369.613 151.281 333.449C129.418 311.586 132.688 293.316 151.281 267.004C163.941 249.086 161.887 223.059 94.5547 203.328C39.4766 187.184 109.188 90.1055 109.188 90.1055C82.5039 106 66.6055 131.332 34.1523 142.184C12.4648 178.738 0 221.41 0 267C0 339.918 31.8672 405.383 82.4219 450.266C102.25 432.934 122.543 416.012 162.176 416.012C227.367 416.012 240.246 461.781 284.777 479.859C275.074 463.957 258.148 444.477 252.996 417.871Z" fill="#1588E8"/>
<path d="M476.844 76.7227C426.145 80.7852 409.836 114.945 376.547 134.242C376.547 134.242 371.41 159.188 400.945 170.266C430.477 181.34 371.922 195.859 400.945 217.332C425.863 235.77 398.406 265.785 441.551 272.242C465.23 275.789 476.766 262.801 487.082 258.723V86.1758C487.082 80.6445 482.355 76.2813 476.844 76.7227Z" fill="#5BBF02"/>
<path d="M380.461 387.344C381.559 384.883 384.223 383.426 386.855 383.984C389.492 384.547 393.023 384.066 396.031 379.426C401.664 370.738 406.496 372.84 409.121 376.637C411.266 379.73 419.715 390.203 413.922 399.137C408.125 408.07 393.289 402.68 390.441 417.402C387.723 431.449 365.133 421.699 380.461 387.344Z" fill="#83D912"/>
<path d="M231.766 171.785C228.945 171.582 226.203 171.75 223.57 172.242C219.367 173.023 214.984 171.539 212.598 167.996C204.734 156.305 191.402 148.605 176.258 148.605C157.691 148.605 141.836 160.152 135.457 176.453C133.469 181.527 128.215 184.395 122.898 183.207C120.82 182.742 118.652 182.52 116.418 182.574C102.434 182.91 90.7734 194.402 90.2578 208.383C89.6914 223.672 101.914 236.238 117.074 236.238H229.422C247.629 236.238 262.312 221.156 261.668 202.805C261.094 186.539 247.996 172.965 231.766 171.785Z" fill="#82C6F9"/>
<path d="M161.812 208.578C163.812 207.59 165.875 206.879 167.953 206.422C173.277 205.262 176.836 200.445 176.496 195.008C175.496 178.844 183.57 162.957 198.113 154.477C191.684 150.75 184.227 148.605 176.254 148.605C157.691 148.605 141.836 160.148 135.453 176.449C133.469 181.523 128.215 184.395 122.898 183.203C120.82 182.742 118.648 182.52 116.418 182.574C102.434 182.91 90.7734 194.402 90.2578 208.383C89.6914 223.668 101.914 236.238 117.074 236.238H147.145C145.707 225.137 151.414 213.719 161.812 208.578Z" fill="#52B0F5"/>
<path d="M191.863 220.645C193.727 220.508 195.543 220.617 197.285 220.941C200.062 221.461 202.965 220.48 204.543 218.137C209.742 210.402 218.562 205.309 228.586 205.309C240.863 205.309 251.355 212.945 255.574 223.73C256.891 227.086 260.363 228.984 263.883 228.195C265.258 227.891 266.691 227.742 268.168 227.777C277.422 228 285.133 235.605 285.477 244.852C285.852 254.965 277.766 263.281 267.734 263.281H193.414C181.371 263.281 171.656 253.305 172.086 241.16C172.461 230.402 181.125 221.422 191.863 220.645Z" fill="#D9F5FF"/>
<path d="M215.711 241.926C217.242 240.844 218.855 240.004 220.512 239.383C223.16 238.395 225.141 236.059 225.281 233.234C225.746 223.926 230.676 215.012 239.258 209.844C240.086 209.344 240.934 208.906 241.789 208.5C237.828 206.469 233.344 205.309 228.586 205.309C218.562 205.309 209.746 210.402 204.543 218.137C202.965 220.48 200.062 221.461 197.285 220.945C195.543 220.621 193.727 220.508 191.863 220.645C181.125 221.422 172.461 230.402 172.082 241.16C171.652 253.305 181.367 263.281 193.414 263.281H207.086C205.641 255.297 208.824 246.781 215.711 241.926Z" fill="#ABE4FE"/>
<path d="M411.191 172.758C411.105 172.758 411.02 172.758 410.934 172.754C407.113 172.613 404.133 169.398 404.273 165.578L405.336 136.773C405.477 132.953 408.688 129.98 412.508 130.113C416.328 130.254 419.313 133.465 419.172 137.285L418.105 166.09C417.969 169.824 414.898 172.758 411.191 172.758Z" fill="#D9F5FF"/>
<path d="M381.57 172.758C377.867 172.758 374.797 169.824 374.656 166.094L373.594 137.285C373.453 133.469 376.438 130.258 380.254 130.113C384.07 129.98 387.285 132.953 387.43 136.777L388.492 165.582C388.633 169.402 385.652 172.613 381.832 172.754C381.742 172.758 381.656 172.758 381.57 172.758Z" fill="#D9F5FF"/>
<path d="M389.637 372.691C389.637 386.93 378.094 398.473 363.855 398.473C349.617 398.473 338.074 386.93 338.074 372.691C338.074 358.453 349.617 346.91 363.855 346.91C378.094 346.91 389.637 358.453 389.637 372.691Z" fill="#FBC840"/>
<path d="M372.227 381.73C362.613 381.73 354.82 373.938 354.82 364.32C354.82 356 360.66 349.051 368.465 347.332C366.969 347.063 365.43 346.91 363.855 346.91C349.617 346.91 338.074 358.453 338.074 372.691C338.074 386.93 349.617 398.473 363.855 398.473C378.094 398.473 389.637 386.93 389.637 372.691C389.637 371.117 389.488 369.578 389.219 368.082C387.496 375.887 380.551 381.73 372.227 381.73Z" fill="#F9B50B"/>
<path d="M363.855 254.047C325.375 254.047 303.891 298.465 327.777 328.633L356.035 364.316C360.027 369.363 367.684 369.363 371.676 364.316L399.934 328.633C423.824 298.465 402.336 254.047 363.855 254.047Z" fill="#F7577A"/>
<path d="M371.676 364.32L399.934 328.633C394.305 329.344 391.687 326.723 390.52 324.656C389.727 323.262 388.262 322.406 386.672 322.184C379.25 321.133 377.059 316.133 376.43 312.773C376.078 310.895 374.613 309.457 372.773 308.922C361.008 305.504 358.871 294.645 358.559 289.191C358.457 287.387 357.469 285.715 355.855 284.891C349.504 281.641 349.145 276.039 349.691 272.473C349.984 270.578 349.156 268.68 347.605 267.555C341.977 263.465 345.48 257.785 345.496 257.762C319.281 269.047 308.035 303.707 327.777 328.637L356.035 364.32C360.027 369.363 367.684 369.363 371.676 364.32Z" fill="#D93A59"/>
<path d="M363.855 334.289C345.156 334.289 329.941 319.074 329.941 300.375C329.941 281.676 345.156 266.465 363.855 266.465C382.555 266.465 397.77 281.676 397.77 300.375C397.77 319.074 382.555 334.289 363.855 334.289ZM363.855 284.922C355.336 284.922 348.402 291.855 348.402 300.375C348.402 308.898 355.336 315.832 363.855 315.832C372.379 315.832 379.312 308.898 379.312 300.375C379.312 291.855 372.379 284.922 363.855 284.922Z" fill="#D93A59"/>
<path d="M389.027 323.074C388.336 322.605 387.523 322.301 386.672 322.184C379.254 321.133 377.059 316.129 376.43 312.773C376.277 311.957 375.906 311.234 375.395 310.621C372.562 313.809 368.445 315.832 363.855 315.832C355.336 315.832 348.402 308.898 348.402 300.375C348.402 294.117 352.148 288.727 357.512 286.301C357.074 285.719 356.523 285.23 355.855 284.887C349.504 281.637 349.148 276.035 349.695 272.473C349.84 271.527 349.707 270.582 349.344 269.73C337.887 275.18 329.941 286.867 329.941 300.375C329.941 319.074 345.156 334.289 363.855 334.289C373.836 334.289 382.816 329.957 389.027 323.074Z" fill="#BA1C37"/>
<path d="M395.371 0.0078892C362.078 0.531327 334.676 27.4024 333.535 60.6798C332.746 83.7813 344.426 104.215 362.363 115.774C368.227 119.555 371.699 126.117 371.699 133.098V135.957C371.699 139.316 374.422 142.039 377.781 142.039H414.98C418.34 142.039 421.062 139.316 421.062 135.957V133.098C421.062 126.109 424.551 119.547 430.422 115.762C447.773 104.566 459.266 85.0665 459.266 62.8829C459.266 27.8165 430.562 -0.542892 395.371 0.0078892Z" fill="#FBC840"/>
<path d="M442.488 84.5742C438.375 84.5742 434.566 83.3125 431.402 81.168C429.363 79.7852 426.637 79.9297 424.926 81.6992C417.715 89.1797 407.594 93.832 396.383 93.832C385.184 93.832 375.074 89.1914 367.863 81.7305C366.16 79.9648 363.441 79.8203 361.406 81.1953C358.254 83.3242 354.453 84.5742 350.359 84.5742C344.289 84.5742 338.855 81.8437 335.219 77.543C339.031 93.5195 348.945 107.129 362.363 115.777C368.227 119.555 371.699 126.121 371.699 133.098V135.961C371.699 139.316 374.422 142.039 377.781 142.039H414.984C418.34 142.039 421.062 139.316 421.062 135.961V133.098C421.062 126.109 424.555 119.551 430.426 115.762C443.789 107.141 453.668 93.5898 457.508 77.6836C453.867 81.8984 448.492 84.5742 442.488 84.5742Z" fill="#F9B50B"/>
<path d="M395.859 0.0078892C378.641 0.531327 364.465 27.4024 363.875 60.6798C363.469 83.7813 369.508 104.215 378.785 115.774C381.82 119.555 383.617 126.117 383.617 133.098V135.957C383.617 139.316 385.023 142.039 386.762 142.039H406.004C407.742 142.039 409.148 139.316 409.148 135.957V133.098C409.148 126.109 410.953 119.547 413.992 115.762C422.965 104.566 428.91 85.0665 428.91 62.8829C428.906 27.8165 414.063 -0.542892 395.859 0.0078892Z" fill="#F9B50B"/>
<path d="M424.926 81.6992C417.715 89.1797 407.594 93.832 396.383 93.832C385.184 93.832 375.078 89.1914 367.867 81.7305C367.109 80.9453 366.148 80.5 365.141 80.3477C367.344 95.1055 372.258 107.641 378.785 115.773C381.82 119.555 383.617 126.117 383.617 133.098V135.957C383.617 139.316 385.023 142.039 386.762 142.039H406.004C407.742 142.039 409.148 139.316 409.148 135.957V133.098C409.148 126.109 410.953 119.547 413.992 115.762C420.516 107.621 425.426 95.0781 427.629 80.3164C426.629 80.4766 425.676 80.9219 424.926 81.6992Z" fill="#F79D0D"/>
<path d="M416.047 162.551H376.719C373.09 162.551 370.117 165.523 370.117 169.152V196.371C370.117 200.004 373.09 202.973 376.719 202.973H416.047C419.676 202.973 422.645 200 422.645 196.371V169.152C422.645 165.523 419.676 162.551 416.047 162.551Z" fill="#D93A59"/>
<path d="M396.383 196.375V169.152C396.383 165.523 399.352 162.555 402.98 162.555H376.719C373.09 162.555 370.117 165.523 370.117 169.152V196.375C370.117 200.004 373.09 202.973 376.719 202.973H402.98C399.352 202.973 396.383 200.004 396.383 196.375Z" fill="#BA1C37"/>
</g>
<defs>
<clipPath id="clip0">
<rect width="512" height="512" fill="white"/>
</clipPath>
</defs>
</svg>
