<svg width="512" height="512" viewBox="0 0 512 512" fill="none" xmlns="http://www.w3.org/2000/svg">
<g clip-path="url(#clip0)">
<path d="M474.02 378.875C491.266 345.336 501 307.305 501 267C501 131.688 391.312 22 256 22C120.688 22 11 131.688 11 267C11 310.805 22.5078 351.918 42.6484 387.5L474.02 378.875Z" fill="#3C2B8E"/>
<path d="M474.531 270.16C456.578 278.535 439.461 285.105 423.031 289.891V446.215C443.945 426.715 461.449 403.602 474.531 377.863V270.16Z" fill="#F9B50B"/>
<path d="M466.395 392.582C456.27 395.504 449.285 386.508 449.285 386.508L445.523 422.238C453.184 412.902 460.164 402.992 466.395 392.582Z" fill="#F79D0D"/>
<path d="M474.531 272.18V42.5156C474.531 31.2305 465.301 22 454.016 22H402.516C413.801 22 423.031 31.2305 423.031 42.5156V291.91C439.461 287.125 456.578 280.555 474.531 272.18Z" fill="#2299F2"/>
<path d="M442.441 47.6445H423.031V446.215C432.516 437.371 441.301 427.793 449.285 417.555V54.4922C449.285 50.7109 446.223 47.6445 442.441 47.6445Z" fill="#ABE4FE"/>
<path d="M423.031 386.809V446.215C432.516 437.371 441.301 427.793 449.285 417.555V386.508C449.285 389.512 448.238 392.418 446.344 394.75C438.152 404.844 423.031 398.789 423.031 386.809Z" fill="#82C6F9"/>
<path d="M423.031 289.875C328.559 317.402 256.664 286.445 176.957 206.223C133.16 162.141 85.4844 144.453 42.0977 140.039V386.512C84.0195 461.383 164.094 512 256 512C321.051 512 380.172 486.637 424.039 445.273C424.039 405.633 424.039 348.465 424.039 289.586C423.703 289.684 423.363 289.797 423.031 289.891V289.875Z" fill="#FBC840"/>
<path d="M389.699 417.934H76.4219C70.4336 417.934 64.7852 416.422 59.832 413.766C104.516 473.402 175.746 512 256 512C321.051 512 380.172 486.637 424.039 445.273C424.039 429.555 424.039 411.074 424.039 390.832C420.309 406.328 406.297 417.934 389.699 417.934Z" fill="#F9B50B"/>
<path d="M424.039 42.5156C424.039 31.2305 414.809 22 403.523 22C390.191 22 72.9453 22 54.2148 22C47.5508 22 42.0977 27.4531 42.0977 34.1172V142.059C85.4844 146.473 133.16 164.16 176.957 208.242C256.949 288.75 329.07 319.648 424.039 291.605C424.039 174.141 424.039 49.1523 424.039 42.5156Z" fill="#52B0F5"/>
<path d="M42.0977 386.512C55.6523 410.719 73.1914 432.387 93.8359 450.633V151.867C76.2656 145.441 58.8594 141.742 42.0977 140.035V386.512Z" fill="#F9B50B"/>
<path d="M76.4219 417.934C70.4414 417.934 64.7969 416.426 59.8477 413.773C69.9023 427.187 81.293 439.547 93.8359 450.633V417.934H76.4219Z" fill="#F79D0D"/>
<path d="M81.7188 22H54.2148C47.5508 22 42.0977 27.4531 42.0977 34.1172V142.059C58.8594 143.762 76.2656 147.457 93.8359 153.883V34.1172C93.8359 27.4531 88.3828 22 81.7188 22Z" fill="#2299F2"/>
<path d="M228.41 339.555C224.227 339.555 220.836 342.945 220.836 347.129V391.688C220.836 397.875 215.805 402.906 209.621 402.906C203.434 402.906 198.402 397.875 198.402 391.688V347.129C198.402 342.945 195.012 339.555 190.828 339.555C186.645 339.555 183.254 342.945 183.254 347.129V391.688C183.254 406.227 195.082 418.055 209.621 418.055C224.156 418.055 235.984 406.227 235.984 391.688V347.129C235.984 342.945 232.594 339.555 228.41 339.555Z" fill="#554CBF"/>
<path d="M295.77 339.555H281.852C277.668 339.555 274.277 342.945 274.277 347.129V410.48C274.277 414.664 277.668 418.055 281.852 418.055H295.77C312.992 418.055 327.008 404.043 327.008 386.816V370.793C327.008 353.566 312.992 339.555 295.77 339.555ZM311.859 386.816C311.859 395.688 304.641 402.906 295.77 402.906H289.426V354.703H295.77C304.641 354.703 311.859 361.922 311.859 370.793V386.816Z" fill="#554CBF"/>
<path d="M254.594 339.555C250.41 339.555 247.02 342.945 247.02 347.129V410.48C247.02 414.664 250.41 418.055 254.594 418.055C258.777 418.055 262.168 414.664 262.168 410.48V347.129C262.168 342.945 258.777 339.555 254.594 339.555Z" fill="#554CBF"/>
<path d="M380.512 387.324C384.695 387.324 388.086 383.934 388.086 379.75C388.086 375.566 384.695 372.176 380.512 372.176H350.508V354.703H380.512C384.695 354.703 388.086 351.312 388.086 347.129C388.086 342.945 384.695 339.555 380.512 339.555H342.934C338.75 339.555 335.359 342.945 335.359 347.129V410.48C335.359 414.66 338.75 418.055 342.934 418.055H380.512C384.695 418.055 388.086 414.66 388.086 410.48C388.086 406.297 384.695 402.906 380.512 402.906H350.508V387.324H380.512Z" fill="#554CBF"/>
<path d="M168.402 373.25H155.664C151.48 373.25 148.09 376.641 148.09 380.824C148.09 385.008 151.48 388.398 155.664 388.398H160.832V391.688C160.832 397.875 155.801 402.906 149.613 402.906C143.43 402.906 138.398 397.875 138.398 391.688V365.918C138.398 359.734 143.43 354.703 149.613 354.703C154.273 354.703 158.5 357.637 160.129 362C161.59 365.918 165.953 367.91 169.871 366.445C173.793 364.984 175.781 360.621 174.32 356.703C170.492 346.445 160.566 339.555 149.613 339.555C135.078 339.555 123.25 351.383 123.25 365.918V391.688C123.25 406.227 135.074 418.055 149.613 418.055C164.152 418.055 175.98 406.227 175.98 391.688V380.824C175.977 376.641 172.59 373.25 168.402 373.25Z" fill="#554CBF"/>
<path d="M277.41 265.125C277.328 265.125 277.246 265.125 277.16 265.121C272.98 264.988 269.699 261.488 269.836 257.308L270.953 222.722C271.09 218.543 274.602 215.265 278.77 215.394C282.949 215.531 286.227 219.027 286.094 223.211L284.977 257.797C284.844 261.894 281.48 265.125 277.41 265.125Z" fill="#D9F5FF"/>
<path d="M240.605 265.125C236.535 265.125 233.172 261.895 233.039 257.797L231.926 223.211C231.789 219.031 235.07 215.531 239.25 215.399C243.469 215.262 246.93 218.543 247.062 222.723L248.18 257.309C248.312 261.488 245.035 264.988 240.855 265.125C240.77 265.125 240.687 265.125 240.605 265.125Z" fill="#D9F5FF"/>
<path d="M279.484 253.484H238.531C234.75 253.484 231.66 256.578 231.66 260.355V288.707C231.66 292.484 234.75 295.578 238.531 295.578H279.484C283.266 295.578 286.359 292.484 286.359 288.707V260.355C286.359 256.578 283.266 253.484 279.484 253.484Z" fill="#F7577A"/>
<path d="M258.746 288.707V260.355C258.746 256.578 261.84 253.484 265.617 253.484H238.531C234.75 253.484 231.66 256.578 231.66 260.355V288.707C231.66 292.484 234.754 295.578 238.531 295.578H265.621C261.84 295.578 258.746 292.484 258.746 288.707Z" fill="#D93A59"/>
<path d="M227.957 240.824C226.227 240.699 224.543 240.805 222.93 241.102C220.352 241.582 217.66 240.676 216.195 238.5C211.371 231.324 203.191 226.602 193.898 226.602C182.508 226.602 172.781 233.684 168.863 243.688C167.645 246.801 164.422 248.559 161.16 247.832C159.887 247.547 158.555 247.41 157.184 247.441C148.605 247.648 141.449 254.699 141.133 263.277C140.785 272.656 148.285 280.367 157.586 280.367H226.516C237.688 280.367 246.699 271.113 246.301 259.855C245.953 249.879 237.918 241.547 227.957 240.824Z" fill="#ABE4FE"/>
<path d="M183.207 275.48C184.293 274.645 185.445 273.969 186.641 273.441C189.703 272.098 191.258 268.773 190.398 265.543C187.633 255.164 191.281 243.695 200.461 236.953C203.566 234.672 207 233.172 210.535 232.391C205.961 228.77 200.188 226.602 193.898 226.602C182.512 226.602 172.781 233.688 168.867 243.688C167.648 246.801 164.426 248.559 161.16 247.832C159.887 247.547 158.555 247.41 157.188 247.441C148.605 247.648 141.453 254.699 141.137 263.277C140.789 272.656 148.289 280.371 157.59 280.371H179.008C180.047 278.516 181.449 276.84 183.207 275.48Z" fill="#82C6F9"/>
<path d="M257.793 70.3828C221.258 70.957 191.18 100.445 189.934 136.965C189.066 162.32 201.883 184.742 221.566 197.43C228.004 201.578 231.816 208.781 231.816 216.441V219.582C231.816 223.266 234.805 226.254 238.488 226.254H279.316C283 226.254 285.988 223.266 285.988 219.582V216.441C285.988 208.773 289.816 201.57 296.262 197.414C315.305 185.133 327.914 163.734 327.914 139.387C327.914 100.902 296.418 69.7734 257.793 70.3828Z" fill="#FBC840"/>
<path d="M309.504 163.188C304.988 163.188 300.809 161.805 297.336 159.449C295.102 157.934 292.105 158.09 290.23 160.035C282.312 168.242 271.207 173.352 258.902 173.352C246.613 173.352 235.52 168.258 227.609 160.066C225.738 158.133 222.75 157.973 220.52 159.48C217.059 161.816 212.891 163.188 208.398 163.188C201.734 163.188 195.773 160.191 191.777 155.473C195.969 173.008 206.848 187.941 221.57 197.43C228.008 201.578 231.816 208.781 231.816 216.441V219.582C231.816 223.266 234.805 226.254 238.488 226.254H279.316C283.004 226.254 285.988 223.266 285.988 219.582V216.441C285.988 208.773 289.82 201.574 296.262 197.418C310.93 187.957 321.773 173.086 325.984 155.629C321.992 160.254 316.094 163.188 309.504 163.188Z" fill="#F9B50B"/>
<path d="M258.328 70.3828C239.43 70.957 223.875 100.445 223.23 136.965C222.781 162.32 229.41 184.742 239.594 197.43C242.922 201.578 244.895 208.781 244.895 216.441V219.582C244.895 223.266 246.438 226.254 248.344 226.254H269.461C271.367 226.254 272.91 223.266 272.91 219.582V216.441C272.91 208.773 274.895 201.57 278.227 197.414C288.074 185.133 294.598 163.734 294.598 139.387C294.598 100.902 278.305 69.7734 258.328 70.3828Z" fill="#F9B50B"/>
<path d="M290.23 160.035C282.312 168.242 271.207 173.352 258.902 173.352C246.613 173.352 235.52 168.254 227.609 160.066C226.777 159.207 225.723 158.719 224.617 158.551C227.035 174.746 232.43 188.504 239.594 197.43C242.922 201.578 244.895 208.781 244.895 216.441V219.582C244.895 223.266 246.438 226.254 248.344 226.254H269.461C271.367 226.254 272.91 223.266 272.91 219.582V216.441C272.91 208.773 274.895 201.57 278.227 197.414C285.387 188.484 290.777 174.719 293.191 158.52C292.094 158.691 291.055 159.18 290.23 160.035Z" fill="#F79D0D"/>
<path d="M475.164 64.785L368.051 2.94127C357.531 -3.13295 343.961 0.507679 337.887 11.0233L269.75 129.043C263.68 139.558 267.316 153.133 277.832 159.203L384.945 221.047C395.465 227.117 409.035 223.48 415.109 212.965L483.246 94.9452C489.32 84.4296 485.684 70.8553 475.164 64.785Z" fill="#ABE4FE"/>
<path d="M410.211 27.2811L368.051 2.94127C357.531 -3.13295 343.961 0.507679 337.887 11.0233L269.75 129.043C263.68 139.558 267.316 153.133 277.832 159.203L318.73 182.816L397.742 46.0467C398.477 44.7733 398.727 43.2577 398.383 41.828C395.059 27.9374 410.207 27.2811 410.211 27.2811Z" fill="#82C6F9"/>
<path d="M465.566 82.3358L357.648 20.0311C356.875 19.5819 355.887 19.8475 355.437 20.621L294.293 126.527C293.848 127.301 294.109 128.293 294.887 128.738L402.801 191.043C403.574 191.492 404.566 191.226 405.012 190.453L466.156 84.5468C466.605 83.7733 466.34 82.7811 465.566 82.3358Z" fill="#52B0F5"/>
<path d="M357.648 20.0311C356.875 19.5819 355.887 19.8475 355.437 20.621L294.293 126.527C293.848 127.301 294.113 128.293 294.887 128.738L336.191 152.586L397.738 46.0468C398.172 45.2968 398.414 44.4608 398.488 43.6093L357.648 20.0311Z" fill="#2299F2"/>
<path d="M383.394 125.492C374.059 127.992 364.465 122.457 361.965 113.121L359.652 104.492C357.152 95.1602 347.559 89.6211 338.223 92.1211L309.754 99.75L294.293 126.527C293.848 127.301 294.113 128.293 294.887 128.738L402.805 191.043C403.578 191.492 404.566 191.227 405.012 190.453L453.336 106.75L383.394 125.492Z" fill="#2299F2"/>
<path d="M359.652 104.492C357.152 95.1602 347.559 89.6211 338.223 92.1211L309.754 99.75L294.293 126.527C293.848 127.301 294.113 128.293 294.887 128.738L336.191 152.586L361.023 109.605L359.652 104.492Z" fill="#1588E8"/>
<path d="M489.977 121.18L382.863 59.336C372.348 53.2657 358.773 56.9024 352.699 67.4181L284.562 185.438C278.492 195.957 282.129 209.527 292.644 215.602L399.762 277.441C410.277 283.516 423.852 279.879 429.922 269.359L498.059 151.344C504.133 140.824 500.496 127.254 489.977 121.18Z" fill="#D9F5FF"/>
<path d="M480.379 138.73L372.461 76.4257C371.687 75.9804 370.699 76.2421 370.254 77.0195L309.105 182.926C308.66 183.699 308.926 184.687 309.699 185.133L417.617 247.441C418.391 247.887 419.379 247.621 419.824 246.848L480.973 140.941C481.418 140.168 481.152 139.18 480.379 138.73Z" fill="#52B0F5"/>
<path d="M144.418 410.133C144.418 406.891 146.367 404.109 149.156 402.883C143.184 402.641 138.398 397.719 138.398 391.688V365.918C138.398 359.887 143.184 354.969 149.156 354.727C146.367 353.5 144.418 350.715 144.418 347.473C144.418 343.434 147.445 340.109 151.352 339.621C150.773 339.582 150.195 339.555 149.613 339.555C135.078 339.555 123.25 351.383 123.25 365.918V391.688C123.25 406.227 135.074 418.055 149.613 418.055C150.203 418.055 150.789 418.027 151.371 417.988C147.453 417.512 144.418 414.18 144.418 410.133Z" fill="#483BA8"/>
<path d="M205.918 410.133C205.918 406.863 207.898 404.059 210.727 402.848C210.363 402.887 209.992 402.906 209.621 402.906C203.438 402.906 198.402 397.875 198.402 391.688V347.129C198.402 342.945 195.012 339.555 190.828 339.555C186.648 339.555 183.258 342.945 183.258 347.129V391.688C183.258 406.227 195.082 418.055 209.621 418.055C210.547 418.055 211.461 418.004 212.363 417.91C208.695 417.219 205.918 414.004 205.918 410.133Z" fill="#483BA8"/>
<path d="M254.594 377.387C251.027 377.387 248.012 375.027 247.02 371.785V410.48C247.02 414.664 250.41 418.055 254.594 418.055C258.777 418.055 262.168 414.664 262.168 410.48V371.785C261.176 375.027 258.16 377.387 254.594 377.387Z" fill="#483BA8"/>
<path d="M356.16 410.367C356.16 406.918 358.367 403.992 361.445 402.906H350.504V387.324H361.715C358.496 386.316 356.16 383.312 356.16 379.762C356.16 376.176 358.543 373.152 361.812 372.176H350.508V354.703H361.402C358.348 353.602 356.16 350.688 356.16 347.258C356.16 343.512 358.762 340.379 362.258 339.555H342.934C338.75 339.555 335.359 342.945 335.359 347.129V410.48C335.359 414.66 338.75 418.055 342.934 418.055H362.199C358.734 417.207 356.16 414.094 356.16 410.367Z" fill="#483BA8"/>
<path d="M292.723 410.133C292.723 406.789 294.797 403.938 297.727 402.773C297.082 402.852 296.434 402.906 295.77 402.906H289.426V354.703H295.77C296.434 354.703 297.082 354.754 297.727 354.832C294.797 353.672 292.723 350.816 292.723 347.473C292.723 343.656 295.422 340.473 299.016 339.723C297.949 339.609 296.863 339.555 295.77 339.555H281.852C277.668 339.555 274.277 342.945 274.277 347.129V410.477C274.277 414.66 277.668 418.051 281.852 418.051H295.77C296.863 418.051 297.949 417.992 299.016 417.883C295.422 417.133 292.723 413.949 292.723 410.133Z" fill="#483BA8"/>
<path d="M425.023 83.6798L382.863 59.336C372.348 53.2657 358.773 56.9024 352.699 67.4181L284.562 185.438C278.492 195.957 282.129 209.527 292.644 215.602L333.543 239.211L412.555 102.445C413.289 101.168 413.539 99.6563 413.195 98.2227C409.871 84.336 425.019 83.6798 425.023 83.6798Z" fill="#ABE4FE"/>
<path d="M372.461 76.4257C371.687 75.9804 370.699 76.2421 370.254 77.0195L309.105 182.926C308.66 183.699 308.926 184.687 309.699 185.133L351.004 208.98L412.555 102.441C412.988 101.691 413.227 100.855 413.301 100.004L372.461 76.4257Z" fill="#2299F2"/>
<path d="M398.207 181.891C388.871 184.391 379.277 178.852 376.777 169.516L374.465 160.891C371.965 151.555 362.371 146.016 353.035 148.516L324.566 156.145L309.105 182.926C308.66 183.699 308.926 184.688 309.699 185.133L417.617 247.441C418.391 247.887 419.379 247.621 419.824 246.848L468.148 163.148L398.207 181.891Z" fill="#83D912"/>
<path d="M406.047 119.773C399.289 115.871 390.645 118.188 386.742 124.945C382.84 131.703 385.156 140.348 391.914 144.25C398.676 148.152 407.316 145.836 411.219 139.078C415.121 132.316 412.805 123.676 406.047 119.773Z" fill="#FBC840"/>
<path d="M401.676 136.09C397.012 133.395 395.414 127.43 398.105 122.766C399.285 120.723 401.094 119.266 403.144 118.504C396.984 116.598 390.105 119.109 386.746 124.934C382.844 131.691 385.156 140.336 391.918 144.238C398.68 148.141 407.32 145.824 411.223 139.066C411.945 137.813 412.453 136.496 412.762 135.156C409.711 137.676 405.305 138.184 401.676 136.09Z" fill="#F9B50B"/>
<path d="M375.836 166.004L374.465 160.891C371.965 151.555 362.371 146.016 353.035 148.52L324.566 156.145L309.105 182.926C308.66 183.699 308.926 184.688 309.699 185.137L351.004 208.985C347.344 173.465 375.836 166.004 375.836 166.004Z" fill="#5BBF02"/>
</g>
<defs>
<clipPath id="clip0">
<rect width="512" height="512" fill="white"/>
</clipPath>
</defs>
</svg>
