<svg width="512" height="512" viewBox="0 0 512 512" fill="none" xmlns="http://www.w3.org/2000/svg">
<g clip-path="url(#clip0)">
<path d="M245 11.0005C177 11.0005 115.476 38.7114 71.0858 83.4497L71.4999 84.0239L337.754 482.817C427.07 446.254 490 358.485 490 256C490 120.692 380.312 11.0005 245 11.0005V11.0005Z" fill="#3C2B8E"/>
<path d="M330.046 118.09C328.164 113.934 330.007 109.039 334.16 107.16C379.687 86.5276 419.105 71.594 448.144 63.9768C483.07 54.8206 502.593 56.1877 509.578 68.2893C511.859 72.2385 510.507 77.2893 506.554 79.5706C502.605 81.8518 497.554 80.4963 495.273 76.5471C495.234 76.4768 489.656 70.1682 452.335 79.9534C424.179 87.3362 385.671 101.946 340.98 122.203C336.816 124.09 331.929 122.239 330.046 118.09Z" fill="#ABE4FE"/>
<path d="M389.097 89.4653C389.097 86.856 390.156 84.4927 391.867 82.7817C374.148 89.6372 354.785 97.8091 334.16 107.157C330.007 109.04 328.164 113.934 330.046 118.09C331.929 122.239 336.816 124.09 340.98 122.204C360.835 113.204 379.468 105.321 396.519 98.688C392.277 97.7622 389.097 93.9888 389.097 89.4653Z" fill="#82C6F9"/>
<path d="M180.609 56.895C141.5 56.895 104.566 66.1802 71.8711 82.6528C27.4688 126.997 0 188.29 0 256C0 391.313 109.691 501.004 245 501.004C278.027 501.004 309.523 494.454 338.277 482.602C389.938 438.211 422.664 372.407 422.664 298.95C422.664 165.266 314.293 56.895 180.609 56.895Z" fill="#2299F2"/>
<path d="M193.859 57.2583C189.473 57.0239 185.059 56.895 180.609 56.895C141.504 56.895 104.566 66.1802 71.8711 82.6528C27.4688 126.997 0 188.29 0 256C0 391.313 109.691 501.004 245 501.004C257.059 501.004 268.906 500.122 280.496 498.434C275.473 493.153 272.246 487.793 270.227 483.524C267.879 478.571 263.781 474.633 258.676 472.641C250.438 469.422 246.312 464.278 244.383 460.907C243.098 458.653 241.484 456.598 239.504 454.926C214.898 434.137 221.617 399.973 225.625 364.653C229.809 327.805 189.43 282.399 189.43 282.399C189.43 282.399 197.438 254.157 170.484 197.79C152.258 159.665 165.117 136.297 175.352 125.165C180.098 120.004 181.316 112.579 178.621 106.106C164.695 72.6528 193.496 57.4497 193.859 57.2583Z" fill="#1588E8"/>
<path d="M150.363 308.535L152.035 306.754C155.801 302.742 160.125 299.316 164.89 296.566L189.426 282.398C174.793 271.254 167.89 258.258 158.156 267.992C150.426 275.723 130.324 283.457 118.121 298.324L150.363 308.535Z" fill="#5BBF02"/>
<path d="M259.89 421.027L236.562 304.617L186.297 333.641C181.531 336.391 176.398 338.422 171.043 339.676L168.664 340.234L159.789 380.52C163.922 380.562 168.019 380.445 171.965 380.445C194.652 380.445 190.711 412.008 190.711 429.766C190.711 447.52 220.797 493.391 231.152 483.031C241.398 472.785 244.894 438.406 260.258 422.391C260.086 421.965 259.961 421.512 259.89 421.027Z" fill="#83D912"/>
<path d="M190.711 429.766C190.711 447.52 220.797 493.391 231.152 483.031C235.785 478.402 239.039 468.84 242.629 458.273C241.707 457.055 240.676 455.918 239.504 454.926C214.898 434.137 221.617 399.973 225.625 364.652C227.379 349.227 221.316 332.297 213.676 317.832L186.297 333.641C181.531 336.391 176.402 338.422 171.043 339.676L168.664 340.234L159.789 380.52C163.926 380.562 168.019 380.445 171.969 380.445C194.656 380.445 190.711 412.008 190.711 429.766Z" fill="#5BBF02"/>
<path d="M293.621 84.8599L307.109 123.973C307.109 123.973 323.386 150.114 307.109 166.387C290.832 182.665 270.609 170.333 270.609 181.184C270.609 188.797 250.722 188.165 238.839 192.211C238.461 193.809 237.461 195.254 235.929 196.141L230.343 199.364C230.238 199.856 230.168 200.368 230.168 200.915C230.168 204.25 228.308 207.586 225.625 210.946L269.769 236.012L324.875 204.2C334.238 198.793 344.867 195.977 355.711 196.071L371.464 196.2C373.558 196.215 375.433 197.309 376.48 199.122C377.527 200.934 377.535 203.102 376.504 204.926L368.738 218.633C363.41 228.04 355.64 235.868 346.281 241.274L291.175 273.086L290.851 318.418C296.855 320.145 303.058 321.715 308.761 322.348L308.785 322.333C310.211 321.512 311.875 321.29 313.468 321.719C314.148 321.899 314.765 322.211 315.328 322.594C319.98 322.368 323.996 321.141 326.836 318.301C341.14 303.997 348.539 357.758 362.347 357.758C376.16 357.758 376.16 321.258 387.996 321.258C398.066 321.258 411.707 312.708 421.019 327.161C422.093 317.907 422.664 308.497 422.664 298.95C422.664 206.086 370.363 125.454 293.621 84.8599Z" fill="#ABF222"/>
<path d="M308.785 322.333C310.211 321.508 311.875 321.29 313.469 321.715C314.148 321.899 314.766 322.211 315.328 322.594C319.98 322.368 323.996 321.137 326.836 318.297C341.141 303.997 348.539 357.754 362.348 357.754C376.16 357.754 376.16 321.258 387.996 321.258C387.996 288.348 342.426 293.5 342.426 270.567C342.426 263.758 337.602 256.864 331.367 249.879L291.176 273.086L290.852 318.415C296.855 320.145 303.059 321.715 308.762 322.348L308.785 322.333Z" fill="#83D912"/>
<path d="M304.621 215.891C302.996 210.258 303.781 204.575 308.586 198.836C329.43 173.938 314.086 143.946 314.086 143.946H314.082C314.973 151.438 313.762 159.735 307.109 166.387C290.832 182.665 270.609 170.333 270.609 181.184C270.609 188.797 250.719 188.165 238.84 192.211C238.461 193.809 237.457 195.254 235.926 196.141L230.344 199.364C230.238 199.856 230.164 200.368 230.164 200.915C230.164 204.25 228.309 207.586 225.625 210.946L269.77 236.012L304.621 215.891Z" fill="#83D912"/>
<path d="M287.012 439.137C287.012 439.137 274.434 445.055 274.434 455.782C274.434 466.508 261.484 476.129 266.664 488.704C271.844 501.282 281.832 478.715 294.406 473.907C306.984 469.098 305.875 429.887 287.012 439.137Z" fill="#83D912"/>
<path d="M233.25 62.6528C216.301 58.8911 198.691 56.895 180.609 56.895C164.664 56.895 149.086 58.4536 134.004 61.395C132.785 69.9067 132.637 78.688 135.715 86.981C145.336 112.875 170.488 117.313 184.543 117.313C198.602 117.313 203.777 143.95 221.535 143.95C239.289 143.95 228.934 114.356 237.812 105.477C246.687 96.5981 248.906 91.4185 237.812 80.3247C233.848 76.3599 232.715 71.1685 232.898 66.1333C232.941 64.9575 233.066 63.7974 233.25 62.6528Z" fill="#83D912"/>
<path d="M179.57 117.129C180.394 113.524 180.105 109.668 178.621 106.106C164.633 72.5044 193.758 57.313 193.867 57.2583C189.476 57.02 185.058 56.895 180.609 56.895C164.664 56.895 149.09 58.4536 134.004 61.395C132.785 69.9067 132.637 78.688 135.719 86.981C144.281 110.047 165.172 116.083 179.57 117.129Z" fill="#5BBF02"/>
<path d="M88.1211 143.946C71.9688 127.793 93.5469 114.598 78.2578 99.3091C73.5664 94.6216 71.7617 88.8169 71.5 83.0239C27.3164 127.34 0 188.481 0 256C0 267.868 0.859375 279.528 2.49219 290.942C6.26172 286.325 10.6875 283.774 10.6875 283.774C23.5117 280.321 21.7812 263.305 39.7852 245.301C57.7891 227.301 82.2031 245.301 97.9844 245.301C113.77 245.301 115.742 228.532 97.9844 210.778C80.2305 193.02 104.273 160.098 88.1211 143.946Z" fill="#5BBF02"/>
<path d="M49.6484 362.195C32.8828 345.426 32.6328 328.902 26.9609 323.23C23.2266 319.496 16.0742 324.308 9.23047 322.832C18.0586 354.043 32.9219 382.723 52.4727 407.531C55.3008 388.461 59.4766 372.023 49.6484 362.195Z" fill="#5BBF02"/>
<path d="M219.316 207.637L236.754 197.57C240.496 195.41 241.777 190.629 239.617 186.887L232.41 174.406C230.25 170.664 225.469 169.383 221.726 171.543L189.008 190.43L219.316 207.637Z" fill="#ABE4FE"/>
<path d="M219.234 199.477C210.023 194.25 208.859 181.973 215.781 174.973L189.008 190.43L219.312 207.637L230.75 201.035C226.906 202.004 222.773 201.492 219.234 199.477Z" fill="#82C6F9"/>
<path d="M307.96 320.902L290.519 330.969L290.269 365.82L322.988 346.93C326.726 344.769 328.011 339.988 325.851 336.246L318.644 323.762C316.484 320.023 311.699 318.742 307.96 320.902Z" fill="#ABE4FE"/>
<path d="M297.46 334.941C297.488 331.188 298.828 327.637 301.148 324.832L290.519 330.969L290.269 365.82L316.113 350.898C306.761 352.469 297.386 345.312 297.46 334.941Z" fill="#82C6F9"/>
<path d="M97.1094 355.183C75.8984 365.726 55.4062 375.398 36.0703 384.004C38.9922 388.765 42.0703 393.426 45.3047 397.968C64.1133 389.554 83.9609 380.164 104.461 369.976C108.547 367.945 110.211 362.988 108.184 358.902C106.148 354.82 101.195 353.156 97.1094 355.183Z" fill="#D9F5FF"/>
<path d="M424.835 163.098C421.984 159.539 422.558 154.34 426.12 151.492C499.691 92.5665 495.351 76.6837 495.273 76.547C492.992 72.5978 494.347 67.547 498.296 65.2657C502.245 62.9884 507.296 64.34 509.577 68.2892C515.937 79.3048 515.277 101.246 436.445 164.383C432.886 167.234 427.687 166.66 424.835 163.098Z" fill="#D9F5FF"/>
<path d="M151.769 307.25L97.3553 290.011C89.5624 287.543 81.0858 288.468 74.0038 292.554C71.3592 294.082 71.0936 297.797 73.4921 299.687L122.562 338.363L151.769 307.25Z" fill="#ABE4FE"/>
<path d="M170.484 339.66L158.199 395.402C156.441 403.387 151.406 410.266 144.324 414.352C141.679 415.879 138.328 414.254 137.886 411.23L128.929 349.398L170.484 339.66Z" fill="#D9F5FF"/>
<path d="M147.371 360.5C154.945 360.5 161.308 365.625 163.226 372.594L170.484 339.66L128.929 349.398L132.054 370.957C134.457 364.84 140.398 360.5 147.371 360.5Z" fill="#ABE4FE"/>
<path d="M235.054 305.496L258.273 421.352C258.988 426.289 264.461 428.945 268.781 426.453C283.113 417.84 290.652 404.125 291.992 389.555L292.836 272.137L235.054 305.496Z" fill="#D9F5FF"/>
<path d="M267.136 334.086C265.218 322.828 270.535 311.57 280.449 305.902L292.644 298.93L292.836 272.137L235.054 305.496L258.273 421.352C258.988 426.289 264.461 428.945 268.781 426.453C273.675 423.512 277.757 419.965 281.089 416.004L267.136 334.086Z" fill="#ABE4FE"/>
<path d="M213.64 268.41L124.914 190.375C120.996 187.285 121.433 181.219 125.758 178.723C140.383 170.617 156.027 170.949 169.316 177.074L271.422 235.051L213.64 268.41Z" fill="#D9F5FF"/>
<path d="M232.953 232.23C226.867 235.746 219.277 235.344 213.598 231.203L135.769 174.52C132.406 175.52 129.055 176.895 125.758 178.723C121.437 181.219 120.996 187.285 124.914 190.375L213.64 268.41L271.422 235.051L249.562 222.637L232.953 232.23Z" fill="#ABE4FE"/>
<path d="M371.476 194.547L355.722 194.418C344.609 194.328 333.676 197.211 324.051 202.77L164.066 295.137C159.164 297.965 154.707 301.5 150.832 305.625L121.621 336.738C119.242 339.277 118.449 343.004 119.851 346.188C121.527 350.008 125.652 352.012 129.625 351.082L171.422 341.285C176.929 339.992 182.222 337.899 187.121 335.07L347.105 242.703C356.73 237.145 364.695 229.117 370.172 219.445L377.941 205.738C380.758 200.766 377.195 194.594 371.476 194.547Z" fill="#F7577A"/>
<path d="M371.476 194.547L355.722 194.418C344.609 194.328 333.676 197.211 324.051 202.77L164.066 295.137C159.164 297.965 154.707 301.5 150.832 305.625L121.621 336.738C119.242 339.277 118.449 343.004 119.851 346.188C121.527 350.008 125.652 352.012 129.625 351.082L171.422 341.285C176.929 339.992 182.222 337.899 187.121 335.07L347.105 242.703C356.73 237.145 364.695 229.117 370.172 219.445L377.941 205.738C380.758 200.766 377.195 194.594 371.476 194.547Z" fill="#F7577A"/>
<path d="M343.933 231.992C339.433 231.254 336.382 227.008 337.117 222.508C337.183 222.113 336.921 221.656 336.546 221.516C332.277 219.902 330.124 215.137 331.738 210.871C333.351 206.602 338.121 204.453 342.382 206.063C350.113 208.984 354.753 217.024 353.417 225.176C352.679 229.691 348.417 232.727 343.933 231.992Z" fill="#D93A59"/>
<path d="M212.304 319.398C198.222 319.398 186.808 307.984 186.808 293.906C186.808 288.504 188.492 283.5 191.359 279.379L164.066 295.137C159.164 297.965 154.707 301.5 150.832 305.625L121.621 336.738C119.242 339.277 118.449 343.004 119.851 346.188C121.531 350.008 125.652 352.012 129.625 351.082L171.422 341.285C176.929 339.992 182.222 337.898 187.121 335.07L214.433 319.301C213.73 319.359 213.019 319.398 212.304 319.398Z" fill="#D93A59"/>
<path d="M39.7852 245.301C44.5898 240.5 49.8516 238.273 55.2812 237.574C46.4492 219.414 55.25 201.293 40.9414 186.984C18.7891 164.832 31.9766 135.148 32.5 133.996C11.8281 169.918 0 211.578 0 256C0 267.867 0.859375 279.527 2.49219 290.941C6.26172 286.324 10.6836 283.773 10.6836 283.773C23.5078 280.32 21.7812 263.305 39.7852 245.301Z" fill="#58AA02"/>
</g>
<defs>
<clipPath id="clip0">
<rect width="512" height="512" fill="white"/>
</clipPath>
</defs>
</svg>
