<svg width="512" height="512" viewBox="0 0 512 512" fill="none" xmlns="http://www.w3.org/2000/svg">
<g clip-path="url(#clip0)">
<path d="M87.1602 444.789C104.965 448.996 291.055 491.012 427.203 441.961C472.566 397.496 500.727 335.539 500.727 267C500.727 131.691 391.035 22 255.727 22C120.414 22 10.7227 131.691 10.7227 267C10.7227 337 40.0859 400.141 87.1602 444.789Z" fill="#2299F2"/>
<path d="M82.9844 260.703V193.648C82.9844 188.203 78.5664 183.785 73.1211 183.785H241.25V270.566H73.1211C78.5664 270.566 82.9844 266.152 82.9844 260.703Z" fill="#F9B50B"/>
<path d="M193.918 252.086V202.266C193.918 192.059 185.645 183.785 175.438 183.785H241.25V270.566H175.438C185.645 270.566 193.918 262.293 193.918 252.086Z" fill="#F79D0D"/>
<path d="M124.945 224.141H205.328C209.77 224.141 213.371 220.539 213.371 216.098C213.371 211.66 209.77 208.059 205.328 208.059H124.945C120.504 208.059 116.906 211.66 116.906 216.098C116.906 220.539 120.504 224.141 124.945 224.141Z" fill="#FBC840"/>
<path d="M200.371 216.098C200.371 211.656 196.77 208.059 192.328 208.059H205.328C209.77 208.059 213.371 211.656 213.371 216.098C213.371 220.539 209.77 224.137 205.328 224.137H192.328C196.77 224.141 200.371 220.539 200.371 216.098Z" fill="#F9B50B"/>
<path d="M82.9844 260.703V247.312H241.254V270.566H73.1211C78.5664 270.566 82.9844 266.152 82.9844 260.703Z" fill="#FCDB75"/>
<path d="M193.918 252.086V247.312H241.25V270.566H175.438C185.645 270.566 193.918 262.293 193.918 252.086Z" fill="#FBC840"/>
<path d="M82.9844 142.16V75.1055C82.9844 69.6562 78.5664 65.2422 73.1211 65.2422H241.25V152.023H73.1211C78.5664 152.023 82.9844 147.605 82.9844 142.16Z" fill="#F9B50B"/>
<path d="M193.918 133.543V83.7227C193.918 73.5156 185.645 65.2422 175.438 65.2422H241.25V152.023H175.438C185.645 152.023 193.918 143.746 193.918 133.543Z" fill="#F79D0D"/>
<path d="M124.945 105.594H205.328C209.77 105.594 213.371 101.996 213.371 97.5547C213.371 93.1133 209.77 89.5156 205.328 89.5156H124.945C120.504 89.5156 116.906 93.1133 116.906 97.5547C116.906 101.996 120.504 105.594 124.945 105.594Z" fill="#FBC840"/>
<path d="M200.371 97.5547C200.371 93.1133 196.77 89.5156 192.328 89.5156H205.328C209.77 89.5156 213.371 93.1133 213.371 97.5547C213.371 101.996 209.77 105.594 205.328 105.594H192.328C196.77 105.594 200.371 101.996 200.371 97.5547Z" fill="#F9B50B"/>
<path d="M82.9844 142.16V128.77H241.254V152.023H73.1211C78.5664 152.023 82.9844 147.605 82.9844 142.16Z" fill="#FCDB75"/>
<path d="M193.918 133.543V128.77H241.25V152.023H175.438C185.645 152.023 193.918 143.746 193.918 133.543Z" fill="#FBC840"/>
<path d="M85.4023 260.703V193.648C85.4023 188.203 80.9883 183.785 75.5391 183.785H9.86328C4.41406 183.785 0 188.203 0 193.648V260.703C0 266.152 4.41406 270.566 9.86328 270.566H75.5391C80.9883 270.566 85.4023 266.152 85.4023 260.703Z" fill="#D9F5FF"/>
<path d="M34.332 260.703V193.648C34.332 188.203 38.75 183.785 44.1953 183.785H9.86328C4.41406 183.785 0 188.203 0 193.648V260.703C0 266.152 4.41406 270.566 9.86328 270.566H44.1953C38.75 270.566 34.332 266.152 34.332 260.703Z" fill="#ABE4FE"/>
<path d="M85.4023 142.16V75.1055C85.4023 69.6562 80.9883 65.2422 75.5391 65.2422H9.86328C4.41406 65.2422 0 69.6562 0 75.1055V142.16C0 147.605 4.41406 152.023 9.86328 152.023H75.5391C80.9883 152.023 85.4023 147.605 85.4023 142.16Z" fill="#D9F5FF"/>
<path d="M34.332 142.16V75.1055C34.332 69.6562 38.75 65.2422 44.1953 65.2422H9.86328C4.41406 65.2422 0 69.6562 0 75.1055V142.16C0 147.605 4.41406 152.023 9.86328 152.023H44.1953C38.75 152.023 34.332 147.605 34.332 142.16Z" fill="#ABE4FE"/>
<path d="M428.465 260.703V193.648C428.465 188.203 432.879 183.785 438.328 183.785H270.195V270.566H438.328C432.879 270.566 428.465 266.152 428.465 260.703Z" fill="#F9B50B"/>
<path d="M317.531 252.086V202.266C317.531 192.059 325.805 183.785 336.012 183.785H270.195V270.566H336.012C325.805 270.566 317.531 262.293 317.531 252.086Z" fill="#F79D0D"/>
<path d="M386.504 224.141H306.117C301.676 224.141 298.078 220.539 298.078 216.098C298.078 211.66 301.676 208.059 306.117 208.059H386.504C390.945 208.059 394.543 211.66 394.543 216.098C394.543 220.539 390.945 224.141 386.504 224.141Z" fill="#FBC840"/>
<path d="M311.078 216.098C311.078 211.656 314.68 208.059 319.117 208.059H306.117C301.676 208.059 298.078 211.656 298.078 216.098C298.078 220.539 301.68 224.137 306.117 224.137H319.117C314.68 224.141 311.078 220.539 311.078 216.098Z" fill="#F9B50B"/>
<path d="M428.465 260.703V247.312H270.195V270.566H438.328C432.879 270.566 428.465 266.152 428.465 260.703Z" fill="#FCDB75"/>
<path d="M317.531 252.086V247.312H270.195V270.566H336.012C325.805 270.566 317.531 262.293 317.531 252.086Z" fill="#FBC840"/>
<path d="M511.723 260.703V193.648C511.723 188.203 507.309 183.785 501.863 183.785H436.184C430.734 183.785 426.32 188.203 426.32 193.648V260.703C426.32 266.152 430.734 270.566 436.184 270.566H501.863C507.309 270.566 511.723 266.152 511.723 260.703Z" fill="#D9F5FF"/>
<path d="M460.652 260.703V193.648C460.652 188.203 465.07 183.785 470.516 183.785H436.184C430.734 183.785 426.32 188.203 426.32 193.648V260.703C426.32 266.152 430.734 270.566 436.184 270.566H470.516C465.07 270.566 460.652 266.152 460.652 260.703Z" fill="#ABE4FE"/>
<path d="M428.465 142.16V75.1055C428.465 69.6562 432.879 65.2422 438.328 65.2422H270.195V152.023H438.328C432.879 152.023 428.465 147.605 428.465 142.16Z" fill="#F9B50B"/>
<path d="M317.531 133.543V83.7227C317.531 73.5156 325.805 65.2422 336.012 65.2422H270.195V152.023H336.012C325.805 152.023 317.531 143.746 317.531 133.543Z" fill="#F79D0D"/>
<path d="M386.504 105.594H306.117C301.676 105.594 298.078 101.996 298.078 97.5547C298.078 93.1133 301.676 89.5156 306.117 89.5156H386.504C390.945 89.5156 394.543 93.1133 394.543 97.5547C394.543 101.996 390.945 105.594 386.504 105.594Z" fill="#FBC840"/>
<path d="M311.078 97.5547C311.078 93.1133 314.68 89.5156 319.117 89.5156H306.117C301.676 89.5156 298.078 93.1133 298.078 97.5547C298.078 101.996 301.68 105.594 306.117 105.594H319.117C314.68 105.594 311.078 101.996 311.078 97.5547Z" fill="#F9B50B"/>
<path d="M428.465 142.16V128.77H270.195V152.023H438.328C432.879 152.023 428.465 147.605 428.465 142.16Z" fill="#FCDB75"/>
<path d="M317.531 133.543V128.77H270.195V152.023H336.012C325.805 152.023 317.531 143.746 317.531 133.543Z" fill="#FBC840"/>
<path d="M511.723 142.16V75.1055C511.723 69.6562 507.309 65.2422 501.863 65.2422H436.184C430.734 65.2422 426.32 69.6562 426.32 75.1055V142.16C426.32 147.605 430.734 152.023 436.184 152.023H501.863C507.309 152.023 511.723 147.605 511.723 142.16Z" fill="#D9F5FF"/>
<path d="M460.652 142.16V75.1055C460.652 69.6562 465.07 65.2422 470.516 65.2422H436.184C430.734 65.2422 426.32 69.6562 426.32 75.1055V142.16C426.32 147.605 430.734 152.023 436.184 152.023H470.516C465.07 152.023 460.652 147.605 460.652 142.16Z" fill="#ABE4FE"/>
<path d="M469.023 252.137C466.891 252.137 464.848 251.289 463.336 249.781L442.129 228.574C438.988 225.434 438.988 220.344 442.129 217.203C445.27 214.062 450.359 214.062 453.5 217.203L469.023 232.727L484.547 217.203C487.688 214.062 492.777 214.062 495.914 217.203C499.055 220.344 499.055 225.434 495.914 228.574L474.707 249.781C473.199 251.289 471.156 252.137 469.023 252.137Z" fill="#82C6F9"/>
<path d="M63.6328 239.504C61.5742 239.504 59.5195 238.719 57.9492 237.148L42.4258 221.625L26.9023 237.148C23.7617 240.289 18.6719 240.289 15.5312 237.148C12.3906 234.008 12.3906 228.918 15.5312 225.777L36.7383 204.57C38.25 203.063 40.293 202.215 42.4258 202.215C44.5586 202.215 46.6016 203.063 48.1133 204.57L69.3203 225.777C72.4609 228.918 72.4609 234.008 69.3203 237.148C67.75 238.719 65.6914 239.504 63.6328 239.504Z" fill="#82C6F9"/>
<path d="M464.734 137.883C462.68 137.883 460.621 137.098 459.051 135.527C455.91 132.387 455.91 127.297 459.051 124.156L474.57 108.633L459.051 93.1094C455.91 89.9688 455.91 84.8789 459.051 81.7383C462.191 78.5977 467.281 78.6016 470.422 81.7383L491.629 102.949C494.77 106.09 494.77 111.18 491.629 114.32L470.422 135.527C468.852 137.098 466.793 137.883 464.734 137.883Z" fill="#82C6F9"/>
<path d="M46.7148 137.883C44.6562 137.883 42.5977 137.098 41.0273 135.527L19.8203 114.316C16.6797 111.176 16.6797 106.086 19.8203 102.945L41.0273 81.7383C44.168 78.5977 49.2578 78.5977 52.3984 81.7383C55.5391 84.8789 55.5391 89.9688 52.3984 93.1094L36.875 108.633L52.3984 124.152C55.5391 127.293 55.5391 132.387 52.3984 135.523C50.8281 137.098 48.7695 137.883 46.7148 137.883Z" fill="#82C6F9"/>
<path d="M240.684 51.0547V511.527C245.66 511.828 250.672 512 255.723 512C260.777 512 265.785 511.828 270.766 511.527V51.0547C266.332 53.5977 261.199 55.0586 255.723 55.0586C250.246 55.0586 245.117 53.5977 240.684 51.0547Z" fill="#554CBF"/>
<path d="M255.723 55.0586C250.246 55.0586 245.117 53.5977 240.684 51.0547V154.941C240.684 146.777 247.395 140.352 255.559 140.395C255.613 140.395 255.668 140.398 255.723 140.398C255.777 140.398 255.832 140.398 255.887 140.395C264.051 140.352 270.762 146.777 270.762 154.941V51.0547C266.332 53.5977 261.199 55.0586 255.723 55.0586Z" fill="#483BA8"/>
<path d="M284.859 29.1367C284.859 45.2266 271.816 58.2695 255.723 58.2695C239.633 58.2695 226.59 45.2266 226.59 29.1367C226.59 13.043 239.633 0 255.723 0C271.816 0 284.859 13.043 284.859 29.1367Z" fill="#6464D8"/>
<path d="M265.5 38.7188C254.809 38.7188 246.141 30.0508 246.141 19.3594C246.141 10.168 252.551 2.49219 261.141 0.511719C259.387 0.179688 257.574 0 255.723 0C239.633 0 226.59 13.0469 226.59 29.1367C226.59 45.2266 239.633 58.2695 255.723 58.2695C271.816 58.2695 284.859 45.2266 284.859 29.1367C284.859 27.2812 284.68 25.4727 284.348 23.7188C282.367 32.3086 274.691 38.7188 265.5 38.7188Z" fill="#554CBF"/>
<path d="M255.723 512C323.309 512 384.5 484.633 428.824 440.379C423.949 439.203 416.645 438.559 412.57 438.559C402.605 438.559 393.52 442.328 386.66 448.516C383.863 451.039 379.68 451.039 376.887 448.516C370.023 442.328 360.941 438.559 350.973 438.559C341.027 438.559 331.961 442.313 325.105 448.481C322.281 451.02 318.066 451.02 315.246 448.481C308.391 442.313 299.32 438.559 289.375 438.559C279.43 438.559 270.359 442.313 263.504 448.481C260.723 450.981 256.43 450.981 253.648 448.481C246.793 442.313 237.723 438.559 227.777 438.559C217.738 438.559 208.594 442.383 201.715 448.652C199.016 451.113 194.938 451.113 192.238 448.652C177.566 435.277 155.113 435.164 140.309 448.481C137.484 451.02 133.273 451.02 130.449 448.481C117.992 437.277 100 435.516 85.7734 443.453C129.824 485.895 189.723 512 255.723 512Z" fill="#83D912"/>
<path d="M233.016 507.766C234.141 498.527 238.582 489.664 246.191 483.121C253.734 476.633 263.055 473.566 272.273 473.773C276.016 473.856 279.27 471.055 279.746 467.344C280.926 458.199 285.352 449.441 292.895 442.953C294.414 441.648 296.008 440.488 297.656 439.457C294.988 438.875 292.219 438.559 289.375 438.559C279.43 438.559 270.363 442.313 263.508 448.481C260.723 450.981 256.43 450.981 253.648 448.481C246.793 442.313 237.727 438.559 227.777 438.559C217.738 438.559 208.594 442.383 201.719 448.652C199.02 451.113 194.941 451.113 192.242 448.652C177.566 435.277 155.113 435.164 140.309 448.481C137.484 451.02 133.273 451.02 130.453 448.481C117.992 437.277 100 435.516 85.7734 443.453C124.453 480.719 175.355 505.387 231.871 510.848C232.473 509.953 232.875 508.906 233.016 507.766Z" fill="#5BBF02"/>
</g>
<defs>
<clipPath id="clip0">
<rect width="512" height="512" fill="white"/>
</clipPath>
</defs>
</svg>
