<svg width="512" height="512" viewBox="0 0 512 512" fill="none" xmlns="http://www.w3.org/2000/svg">
<path d="M490.199 348.211C499.129 322.797 504 295.469 504 267C504 131.688 394.312 22 259 22C123.688 22 14 131.688 14 267C14 295.426 18.8555 322.711 27.7578 348.098L490.199 348.211Z" fill="#3C2B8E"/>
<path d="M259 512C366.203 512 457.309 443.141 490.539 347.246C488.852 220.789 385.836 118.797 258.98 118.797C132.164 118.797 29.1719 220.73 27.418 347.129C60.6172 443.086 151.754 512 259 512Z" fill="#2299F2"/>
<path d="M307.77 409.5C319.598 363.5 291.277 368.168 257.582 326.094C223.887 284.02 250.867 238.031 250.867 238.031L248.945 209.629C245.75 199.684 246.535 192.645 248.883 187.695C253.004 179.02 252.266 168.703 247.098 160.605C233.707 139.637 244.352 119.543 244.504 119.262C124.414 126.672 29.1016 225.578 27.418 347.129C60.6172 443.086 151.754 512 259 512C279.207 512 298.836 509.551 317.617 504.938C317.613 504.934 317.609 504.93 317.605 504.926C282.672 473.273 295.941 455.5 307.77 409.5Z" fill="#1588E8"/>
<path d="M367.109 145.555L380.016 182.977C380.016 182.977 395.586 207.988 380.016 223.562C364.441 239.137 345.094 227.34 345.094 237.723C345.094 248.102 306.395 242.441 306.395 256.598C306.395 270.758 271.473 284.914 287.52 300.957C303.563 317.004 317.723 280.195 328.105 290.574C338.484 300.957 341.316 333.051 328.105 333.051C314.891 333.051 309.289 352.867 283.301 343.43C257.316 333.992 249.766 308.508 237.496 320.777C225.227 333.051 180.391 345.32 191.484 388.734C202.574 432.152 229 428.375 250.707 428.375C272.418 428.375 268.641 458.578 268.641 475.566C268.641 483.969 275.68 498.941 283.996 510.742C295.453 509.578 306.668 507.613 317.605 504.93C322.043 491.922 326.836 476.836 335.652 468.016C350.754 452.914 366.188 448.398 359.578 430.703C356.078 421.324 369.16 403.363 357.363 391.566C345.566 379.77 329.992 370.801 336.598 364.195C343.207 357.59 385.207 382.602 398.891 368.914C412.578 355.23 419.656 406.668 432.871 406.668C446.082 406.668 446.082 371.746 457.41 371.746C464.477 371.746 473.371 367.359 481.129 370.461C484.652 362.91 487.801 355.156 490.555 347.215C489.371 259.707 439.66 183.934 367.109 145.555Z" fill="#83D912"/>
<path d="M367.109 145.555L380.016 182.977C380.016 182.977 388.043 195.871 386.805 208.91C386.512 211.977 385.695 215.047 384.152 217.961C380.699 233.25 378.387 263.988 409.805 279.02C451.52 298.98 420.023 355.125 476.539 369.422C478.098 369.547 479.633 369.863 481.129 370.461C484.648 362.91 487.801 355.156 490.551 347.211C489.371 259.707 439.66 183.934 367.109 145.555Z" fill="#ABF222"/>
<path d="M307.77 409.5C319.598 363.5 291.277 368.168 257.582 326.094C249.691 318.813 244.32 313.953 237.496 320.777C225.227 333.047 180.391 345.317 191.484 388.734C202.574 432.152 229 428.375 250.711 428.375C272.418 428.375 268.645 458.578 268.645 475.567C268.645 483.969 275.68 498.942 283.996 510.738C295.453 509.578 306.672 507.613 317.605 504.926C282.672 473.274 295.941 455.5 307.77 409.5Z" fill="#5BBF02"/>
<path d="M309.344 124.305C293.129 120.711 276.277 118.797 258.98 118.797C243.723 118.797 228.816 120.289 214.383 123.105C213.219 131.246 213.074 139.652 216.023 147.586C225.227 172.359 249.293 176.609 262.742 176.609C276.191 176.609 281.148 202.094 298.137 202.094C315.125 202.094 305.215 173.777 313.711 165.281C322.203 156.789 324.328 151.832 313.711 141.215C309.918 137.422 308.832 132.453 309.008 127.637C309.047 126.512 309.172 125.402 309.344 124.305Z" fill="#83D912"/>
<path d="M251.535 175.637C251.496 170.383 249.996 165.148 247.094 160.609C233.727 139.668 244.32 119.602 244.5 119.262C234.269 119.898 224.215 121.188 214.383 123.102C213.219 131.246 213.074 139.652 216.023 147.586C223.012 166.395 238.562 173.367 251.535 175.637Z" fill="#5BBF02"/>
<path d="M245.594 266.617C243.602 262.735 245.133 257.969 249.019 255.981C262.738 248.942 263.012 249.371 264.527 246.981C266.863 243.297 271.75 242.203 275.43 244.539C279.117 246.879 280.211 251.758 277.875 255.445C273.371 262.547 268.336 263.832 256.23 270.039C252.363 272.024 247.594 270.516 245.594 266.617Z" fill="#83D912"/>
<path d="M245.887 296.535C243.426 292.934 244.348 288.016 247.953 285.555L250.938 283.512C254.539 281.051 259.457 281.973 261.922 285.578C264.383 289.18 263.461 294.098 259.855 296.559L256.871 298.602C253.262 301.07 248.348 300.133 245.887 296.535Z" fill="#83D912"/>
<path d="M170.484 202.09C155.027 186.637 175.676 174.012 161.047 159.383C156.512 154.848 154.789 149.223 154.57 143.621C80.0352 181.336 28.6523 258.148 27.4062 347.098C46.5625 402.48 85.0156 448.852 134.734 478.172C133.41 450.266 147 424.242 133.672 410.914C117.629 394.871 117.395 379.062 111.965 373.633C106.539 368.207 93.5625 381.656 85.5391 364.195C77.5156 346.734 96.3945 335.879 96.3945 335.879C108.664 332.574 107.012 316.297 124.234 299.07C141.461 281.844 164.82 299.07 179.922 299.07C195.023 299.07 196.91 283.023 179.922 266.035C162.934 249.047 185.938 217.547 170.484 202.09Z" fill="#5BBF02"/>
<path d="M151.812 335.375L142.375 331.352C138.359 329.637 136.492 324.996 138.203 320.98C139.914 316.969 144.555 315.102 148.57 316.812L158.008 320.836C162.023 322.547 163.891 327.191 162.18 331.203C160.476 335.199 155.848 337.094 151.812 335.375Z" fill="#83D912"/>
<path d="M439.582 308.801C439.582 325.246 426.25 338.578 409.805 338.578C393.359 338.578 380.027 325.246 380.027 308.801C380.027 292.352 393.359 279.02 409.805 279.02C426.25 279.02 439.582 292.352 439.582 308.801Z" fill="#F9B50B"/>
<path d="M420.34 317.504C409.715 317.504 401.102 308.891 401.102 298.262C401.102 289.238 407.32 281.687 415.703 279.605C413.797 279.223 411.824 279.02 409.805 279.02C393.359 279.02 380.027 292.352 380.027 308.797C380.027 325.242 393.359 338.574 409.805 338.574C426.25 338.574 439.582 325.242 439.582 308.797C439.582 306.777 439.379 304.809 438.996 302.898C436.918 311.281 429.367 317.504 420.34 317.504Z" fill="#F79D0D"/>
<path d="M142.309 263.008C142.309 279.453 128.977 292.785 112.531 292.785C96.0859 292.785 82.7539 279.453 82.7539 263.008C82.7539 246.559 96.0859 233.227 112.531 233.227C128.977 233.227 142.309 246.559 142.309 263.008Z" fill="#F97396"/>
<path d="M122.418 273.008C111.434 273.008 102.527 264.105 102.527 253.117C102.527 243.652 109.145 235.75 118 233.738C116.227 233.406 114.398 233.227 112.531 233.227C96.0859 233.227 82.7539 246.559 82.7539 263.004C82.7539 279.449 96.0859 292.781 112.531 292.781C128.977 292.781 142.309 279.449 142.309 263.004C142.309 261.137 142.129 259.309 141.797 257.535C139.785 266.395 131.883 273.008 122.418 273.008Z" fill="#F7577A"/>
<path d="M367.066 273.832C315.418 229.828 229.461 227.27 173.516 259.828C166.727 263.781 158.02 261.481 154.066 254.692C150.117 247.899 152.418 239.192 159.207 235.242C225.711 196.539 324.727 200.383 385.516 252.18C391.492 257.274 392.211 266.25 387.117 272.231C382.023 278.211 373.047 278.93 367.066 273.832Z" fill="#D9F5FF"/>
<path d="M112.531 0C25.2852 0 -23.4258 100.707 30.7344 169.105L94.7969 250.012C103.855 261.449 121.207 261.449 130.262 250.012L194.328 169.105C248.488 100.707 199.777 0 112.531 0Z" fill="#F7577A"/>
<path d="M151.492 163.328C151.637 160.707 150.105 158.246 147.656 157.289C141.195 154.762 139.84 149.43 139.781 145.59C139.742 142.914 137.965 140.586 135.414 139.785C88.7851 125.191 88.9218 83.7852 90.4569 69.4531C90.7343 66.8516 89.3241 64.3672 86.9647 63.2266C81.5155 60.5859 80.5585 55.0898 80.664 51.1133C80.7343 48.4258 79.0233 46.043 76.496 45.125C54.0585 36.9688 62.8671 12.7109 63.0468 12.2266C9.31631 41.0938 -11.9923 115.148 30.7343 169.105L94.7968 250.012C103.855 261.449 121.207 261.449 130.262 250.012L177.625 190.199C153.195 188.855 151.012 171.906 151.492 163.328Z" fill="#D93A59"/>
<path d="M112.531 171.539C75.8633 171.539 46.0312 141.711 46.0312 105.039C46.0312 68.3711 75.8633 38.5391 112.531 38.5391C149.199 38.5391 179.031 68.3711 179.031 105.039C179.031 141.711 149.199 171.539 112.531 171.539ZM112.531 59.6133C87.4844 59.6133 67.1055 79.9922 67.1055 105.039C67.1055 130.09 87.4844 150.469 112.531 150.469C137.578 150.469 157.957 130.09 157.957 105.039C157.957 79.9922 137.582 59.6133 112.531 59.6133Z" fill="#D93A59"/>
<path d="M147.656 157.289C141.195 154.762 139.84 149.43 139.781 145.59C139.762 144.328 139.348 143.152 138.66 142.168C131.262 147.391 122.254 150.469 112.531 150.469C87.4844 150.469 67.1055 130.09 67.1055 105.039C67.1055 88.3125 76.1992 73.6758 89.6992 65.7891C89.0859 64.7031 88.1445 63.7969 86.9688 63.2266C81.5156 60.5859 80.5586 55.0859 80.6641 51.1133C80.7031 49.7305 80.2578 48.4336 79.4844 47.3711C59.5156 58.8594 46.0312 80.3984 46.0312 105.039C46.0312 141.707 75.8633 171.539 112.531 171.539C126.633 171.539 139.715 167.113 150.488 159.598C149.816 158.578 148.848 157.754 147.656 157.289Z" fill="#BA1C37"/>
<path d="M239.442 223.527C239.442 217.199 243.387 211.805 248.945 209.629C216.863 211.301 185.496 219.941 159.207 235.242C152.418 239.191 150.117 247.898 154.07 254.691C158.02 261.48 166.727 263.781 173.516 259.828C195.875 246.816 223.027 239.422 250.867 238.031C244.317 236.449 239.442 230.566 239.442 223.527Z" fill="#ABE4FE"/>
<path d="M133.672 410.914C117.629 394.867 117.395 379.059 111.965 373.633C106.539 368.203 93.5625 381.656 85.5391 364.195C82.6836 357.98 83.2422 352.609 85.1367 348.258C82.5508 341.977 76.7422 334.301 64.6094 326.094C39.3086 308.98 43.1094 273.152 45.2148 261.141C34.1289 287.652 27.832 316.664 27.4062 347.098C46.5586 402.48 85.0156 448.852 134.734 478.172C133.41 450.266 147 424.242 133.672 410.914Z" fill="#58AA02"/>
</svg>
