<svg width="512" height="512" viewBox="0 0 512 512" fill="none" xmlns="http://www.w3.org/2000/svg">
<path d="M472.938 380.922C490.848 346.887 501 308.133 501 267C501 131.688 391.309 22 256 22C120.691 22 11 131.688 11 267C11 308.133 21.1523 346.887 39.0625 380.922H472.938Z" fill="#FBC840"/>
<path d="M252.531 38.4023V14.1133C252.531 6.35156 246.18 0 238.418 0H108.219C100.453 0 94.1055 6.35156 94.1055 14.1133V38.4023H252.531Z" fill="#F7577A"/>
<path d="M157.406 19.2031C157.406 8.59766 166.004 0 176.605 0H108.219C100.453 0 94.1055 6.35156 94.1055 14.1133V38.4023H176.605C166.004 38.4023 157.406 29.8086 157.406 19.2031Z" fill="#D93A59"/>
<path d="M473.469 94.25C473.469 60.5508 445.895 32.9805 412.199 32.9805H356.879C390.578 32.9805 418.148 60.5508 418.148 94.25V450.648C440.656 430.758 459.48 406.805 473.469 379.922V94.25Z" fill="#1588E8"/>
<path d="M445.266 398.676L440.832 426.332L441.711 426.777C447.633 419.906 453.168 412.695 458.309 405.188C449.848 405.273 445.266 398.676 445.266 398.676Z" fill="#0678CE"/>
<path d="M445.266 422.582V87.1094C445.266 74.2266 434.82 63.7812 421.938 63.7812H409.961C415.156 72.7734 418.148 83.1758 418.148 94.25V450.648C427.91 442.023 436.984 432.641 445.266 422.582Z" fill="#D9F5FF"/>
<path d="M418.148 398.973V450.645C427.906 442.023 436.984 432.641 445.266 422.578V398.676C445.266 401.902 444.102 405.016 442 407.465C433.387 417.496 418.148 411.18 418.148 398.973Z" fill="#ABE4FE"/>
<path d="M357.965 32.9805H51.5508C44.3906 32.9805 38.5312 38.8398 38.5312 45.9961V379.922C79.3672 458.398 161.418 512 256 512C318.707 512 375.898 488.43 419.234 449.684V94.25C419.234 60.5508 391.66 32.9805 357.965 32.9805Z" fill="#2299F2"/>
<path d="M419.234 449.684V404.062C414.902 412.195 406.332 417.766 396.52 417.766H62.8867C107.727 475.125 177.551 512 256 512C318.707 512 375.898 488.43 419.234 449.684Z" fill="#1588E8"/>
<path d="M81.0898 32.9805H51.5508C44.3906 32.9805 38.5312 38.8359 38.5312 45.9961V379.922C52.5742 406.902 71.4844 430.938 94.1055 450.871V45.9961C94.1055 38.8398 88.2461 32.9805 81.0898 32.9805Z" fill="#1588E8"/>
<path d="M94.1055 417.766H62.8906C72.1328 429.566 82.5234 440.641 94.1055 450.852V417.766Z" fill="#0678CE"/>
<path d="M339.426 140.496C337.598 140.496 335.758 139.887 334.242 138.629C311.32 119.66 282.285 109.211 252.484 109.211C222.684 109.211 193.648 119.66 170.727 138.629C167.266 141.492 162.141 141.012 159.273 137.551C156.406 134.09 156.891 128.961 160.352 126.094C186.184 104.715 218.902 92.9414 252.484 92.9414C286.062 92.9414 318.781 104.715 344.613 126.094C348.074 128.961 348.559 134.09 345.691 137.551C344.086 139.492 341.766 140.496 339.426 140.496Z" fill="#82C6F9"/>
<path d="M252.484 395.117C219.035 395.117 186.418 383.426 160.641 362.199C157.172 359.344 156.676 354.219 159.531 350.75C162.391 347.281 167.52 346.785 170.984 349.641C193.855 368.473 222.801 378.848 252.484 378.848C282.168 378.848 311.113 368.473 333.988 349.641C337.453 346.785 342.582 347.281 345.438 350.75C348.297 354.219 347.797 359.344 344.328 362.199C318.551 383.426 285.934 395.117 252.484 395.117Z" fill="#82C6F9"/>
<path d="M278.652 453.934H226.312C221.82 453.934 218.18 450.293 218.18 445.801C218.18 441.305 221.82 437.664 226.312 437.664H278.652C283.148 437.664 286.789 441.305 286.789 445.801C286.789 450.293 283.148 453.934 278.652 453.934Z" fill="#82C6F9"/>
<path d="M278.652 487.559H226.312C221.82 487.559 218.18 483.918 218.18 479.426C218.18 474.93 221.82 471.289 226.312 471.289H278.652C283.148 471.289 286.789 474.93 286.789 479.426C286.789 483.918 283.148 487.559 278.652 487.559Z" fill="#82C6F9"/>
<path d="M247.711 445.801C247.711 441.305 251.352 437.664 255.848 437.664H226.312C221.82 437.664 218.18 441.305 218.18 445.801C218.18 450.293 221.82 453.934 226.312 453.934H255.848C251.352 453.934 247.711 450.293 247.711 445.801Z" fill="#52B0F5"/>
<path d="M247.711 479.426C247.711 474.93 251.352 471.289 255.848 471.289H226.312C221.82 471.289 218.18 474.93 218.18 479.426C218.18 483.918 221.82 487.559 226.312 487.559H255.848C251.352 487.559 247.711 483.918 247.711 479.426Z" fill="#52B0F5"/>
<path d="M252.488 138.645C280.012 138.648 303.961 160.848 316.289 193.574C330.102 197.504 342.172 202.664 351.801 208.75C337.293 167.902 298.312 138.648 252.488 138.645Z" fill="#82C6F9"/>
<path d="M351.812 208.758L351.801 208.75C351.805 208.762 351.809 208.773 351.812 208.781V208.758Z" fill="#82C6F9"/>
<path d="M252.484 138.645C206.598 138.648 167.566 167.977 153.102 208.91C162.734 202.801 174.816 197.613 188.648 193.66C200.969 160.887 224.934 138.645 252.484 138.645Z" fill="#82C6F9"/>
<path d="M316.289 193.574C321.934 208.559 325.145 225.75 325.145 244.027H357.863C357.863 231.824 355.77 219.902 351.812 208.758C342.18 202.672 330.105 197.504 316.289 193.574Z" fill="#ABE4FE"/>
<path d="M179.824 244.027C179.824 225.785 183.023 208.625 188.648 193.66C174.816 197.613 162.734 202.801 153.102 208.91C152.332 211.773 147.102 224.73 147.102 244.027H179.824Z" fill="#52B0F5"/>
<path d="M188.648 193.66C200.051 190.402 212.641 187.984 226.047 186.598C231.672 157.73 241.41 138.645 252.484 138.645C224.934 138.645 200.969 160.887 188.648 193.66Z" fill="#52B0F5"/>
<path d="M278.914 186.566C292.309 187.938 304.891 190.336 316.289 193.574C303.961 160.848 280.012 138.645 252.484 138.645C263.555 138.645 273.289 157.719 278.914 186.566Z" fill="#ABE4FE"/>
<path d="M278.914 186.566C282.137 203.094 284.012 222.828 284.012 244.027H325.145C325.145 225.75 321.934 208.559 316.289 193.574C304.891 190.336 292.309 187.938 278.914 186.566Z" fill="#82C6F9"/>
<path d="M226.047 186.598C212.645 187.984 200.051 190.402 188.648 193.66C183.023 208.625 179.824 225.785 179.824 244.027H220.957C220.957 222.844 222.828 203.117 226.047 186.598Z" fill="#82C6F9"/>
<path d="M278.914 186.566C273.289 157.719 263.555 138.645 252.484 138.645C241.41 138.645 231.672 157.734 226.047 186.598C243.418 184.801 261.516 184.785 278.914 186.566Z" fill="#82C6F9"/>
<path d="M284.012 244.027C284.012 222.828 282.137 203.094 278.914 186.566C261.543 184.789 243.445 184.797 226.047 186.598C222.828 203.117 220.957 222.844 220.957 244.027H284.012Z" fill="#ABE4FE"/>
<path d="M316.32 294.398C304 327.172 280.035 349.41 252.484 349.41C302.57 349.41 345.031 314.336 355.445 266.57C354.508 270.863 353.309 275.066 351.867 279.148C342.234 285.258 330.152 290.445 316.32 294.398Z" fill="#ABE4FE"/>
<path d="M252.484 349.41C224.957 349.41 201.008 327.211 188.68 294.484C174.867 290.555 162.797 285.391 153.168 279.309C167.715 320.293 206.805 349.41 252.484 349.41Z" fill="#52B0F5"/>
<path d="M357.867 244.027H325.145C325.145 262.273 321.945 279.434 316.32 294.398C330.152 290.445 342.234 285.258 351.867 279.148C355.98 267.508 357.867 255.613 357.867 244.027Z" fill="#82C6F9"/>
<path d="M147.102 244.027C147.102 256.094 149.148 268.016 153.156 279.301C162.785 285.391 174.859 290.555 188.68 294.484C183.035 279.5 179.824 262.309 179.824 244.027H147.102Z" fill="#82C6F9"/>
<path d="M252.484 349.41C280.035 349.41 304.004 327.172 316.32 294.398C304.918 297.656 292.324 300.07 278.922 301.461C273.297 330.324 263.559 349.41 252.484 349.41Z" fill="#82C6F9"/>
<path d="M226.055 301.492C212.66 300.121 200.078 297.723 188.68 294.484C210.223 351.664 252.371 349.363 252.484 349.41C241.414 349.41 231.68 330.34 226.055 301.492Z" fill="#82C6F9"/>
<path d="M220.957 244.027H179.824C179.824 262.309 183.035 279.5 188.68 294.484C200.074 297.727 212.66 300.121 226.055 301.492C222.832 284.965 220.957 265.23 220.957 244.027Z" fill="#52B0F5"/>
<path d="M278.922 301.461C292.324 300.07 304.918 297.656 316.32 294.398C321.945 279.434 325.145 262.273 325.145 244.027H284.012C284.012 265.215 282.141 284.938 278.922 301.461Z" fill="#ABE4FE"/>
<path d="M278.922 301.461C261.551 303.258 243.453 303.273 226.055 301.492C238.508 365.363 266.461 365.414 278.922 301.461Z" fill="#ABE4FE"/>
<path d="M226.055 301.492C243.426 303.27 261.523 303.262 278.922 301.461C282.141 284.938 284.012 265.215 284.012 244.027H220.957C220.957 265.23 222.832 284.965 226.055 301.492Z" fill="#82C6F9"/>
<path d="M228.883 102.219C228.883 98.793 230.746 95.8047 233.512 94.1992C206.738 97.7539 181.285 108.77 160.352 126.094C156.891 128.961 156.406 134.09 159.273 137.551C162.137 141.012 167.266 141.492 170.727 138.629C188.894 123.594 210.902 113.918 234.09 110.551C231.008 109.039 228.883 105.883 228.883 102.219Z" fill="#52B0F5"/>
<path d="M228.883 385.836C228.883 382.176 231.008 379.02 234.09 377.508C211.012 374.152 189.094 364.555 170.98 349.641C167.52 346.785 162.391 347.277 159.531 350.746C156.676 354.215 157.172 359.344 160.641 362.199C181.512 379.383 206.863 390.317 233.512 393.856C230.746 392.25 228.883 389.266 228.883 385.836Z" fill="#52B0F5"/>
</svg>
