<svg width="512" height="512" viewBox="0 0 512 512" fill="none" xmlns="http://www.w3.org/2000/svg">
<path d="M256 22C120.691 22 11 131.688 11 267C11 359.977 62.7891 440.852 139.094 482.363H372.906C449.211 440.852 501 359.977 501 267C501 131.688 391.309 22 256 22Z" fill="#2299F2"/>
<path d="M137.305 425.523V481.359C161.824 494.965 188.914 504.488 217.676 509.008H294.324C323.082 504.488 350.176 494.965 374.691 481.359V425.523C343.805 454.922 302.008 472.969 256 472.969C209.988 472.969 168.195 454.922 137.305 425.523Z" fill="#82C6F9"/>
<path d="M137.305 130.633V189.367C168.195 159.969 209.988 141.926 256 141.926C302.012 141.926 343.805 159.969 374.695 189.367V130.633C374.695 117.02 363.555 105.883 349.941 105.883H162.059C148.445 105.883 137.305 117.02 137.305 130.633Z" fill="#82C6F9"/>
<path d="M329.812 0H181.605C175.375 0 170.277 5.09766 170.277 11.3281V111.148C170.277 124.109 180.883 134.715 193.844 134.715H317.574C330.535 134.715 341.141 124.109 341.141 111.148V11.3281C341.141 5.09766 336.043 0 329.812 0Z" fill="#F7577A"/>
<path d="M317.574 38.7148H193.844C180.883 38.7148 170.277 28.1094 170.277 15.1484V111.148C170.277 124.109 180.883 134.715 193.844 134.715H317.574C330.535 134.715 341.141 124.109 341.141 111.148V15.1484C341.141 28.1094 330.535 38.7148 317.574 38.7148Z" fill="#D93A59"/>
<path d="M256 512C285.633 512 314.035 506.738 340.324 497.102C337.617 487.074 328.422 479.641 317.574 479.641H193.844C183.066 479.641 173.926 486.977 171.148 496.898C197.586 506.66 226.168 512 256 512Z" fill="#D93A59"/>
<path d="M224 509.922C234.473 511.285 245.152 512 256 512C266.645 512 277.129 511.32 287.418 510.004V479.641H224V509.922Z" fill="#BA1C37"/>
<path d="M224 0H287.418V134.715H224V0Z" fill="#D93A59"/>
<path d="M224 38.7148H287.418V134.715H224V38.7148Z" fill="#BA1C37"/>
<path d="M339.812 59.1641H172.188C165.238 59.1641 159.559 64.8477 159.559 71.793V93.2539C159.559 100.199 165.242 105.883 172.188 105.883H339.812C346.762 105.883 352.441 100.199 352.441 93.2539V71.793C352.441 64.8477 346.758 59.1641 339.812 59.1641Z" fill="#F97396"/>
<path d="M212.223 93.2539V71.793C212.223 64.8477 217.906 59.1641 224.852 59.1641H172.188C165.238 59.1641 159.555 64.8477 159.555 71.793V93.2539C159.555 100.199 165.238 105.883 172.188 105.883H224.852C217.906 105.883 212.223 100.199 212.223 93.2539Z" fill="#F7577A"/>
<path d="M428.195 307.445C428.195 402.547 351.102 479.641 256 479.641C160.898 479.641 83.8047 402.547 83.8047 307.445C83.8047 212.344 160.898 135.25 256 135.25C351.102 135.25 428.195 212.344 428.195 307.445Z" fill="#D9F5FF"/>
<path d="M374.691 432.199C358.875 430.215 355.793 419.441 355.398 412.98C355.23 410.262 353.094 408.094 350.391 407.754C334.133 405.695 330.234 393.965 329.332 387.535C328.984 385.07 327.078 383.105 324.621 382.723C281.793 376.086 276.238 346.457 275.75 334.672C275.645 332.137 273.879 329.922 271.406 329.355C263.09 327.457 262.098 320.148 262.125 316.609C262.137 315.254 261.633 313.941 260.746 312.914L251.641 302.367C250.527 301.078 248.895 300.387 247.195 300.402C238.77 300.488 236.238 294.348 235.508 289.965C235.09 287.469 233.105 285.535 230.594 285.223C192.98 280.496 185.453 247.117 183.953 234.656C183.641 232.078 181.633 230.035 179.059 229.695C163.758 227.684 160.227 215.41 159.465 208.449C159.176 205.84 157.219 203.688 154.621 203.328C135.914 200.75 137.305 182.695 137.305 182.695C104.348 214.062 83.8047 258.355 83.8047 307.445C83.8047 402.547 160.898 479.641 256 479.641C302.008 479.641 343.805 461.598 374.691 432.199Z" fill="#ABE4FE"/>
<path d="M379.926 307.445C379.926 375.887 324.441 431.371 256 431.371C187.559 431.371 132.074 375.887 132.074 307.445C132.074 239.004 187.559 183.52 256 183.52C324.441 183.52 379.926 239.004 379.926 307.445Z" fill="#3C2B8E"/>
<path d="M256 431.371C286.68 431.371 314.746 420.219 336.387 401.754C331.535 397.293 329.879 391.438 329.332 387.535C328.984 385.07 327.078 383.105 324.621 382.723C281.793 376.086 276.238 346.457 275.75 334.672C275.645 332.137 273.879 329.922 271.406 329.355C263.09 327.457 262.098 320.148 262.125 316.609C262.137 315.254 261.633 313.941 260.746 312.914L251.641 302.367C250.527 301.078 248.895 300.387 247.195 300.402C238.77 300.488 236.238 294.348 235.508 289.965C235.09 287.469 233.105 285.535 230.594 285.223C192.98 280.496 185.453 247.117 183.953 234.656C183.641 232.078 181.633 230.035 179.059 229.695C172.66 228.855 168.324 226.215 165.383 222.922C144.723 245.062 132.074 274.773 132.074 307.445C132.074 375.887 187.559 431.371 256 431.371Z" fill="#2C217C"/>
<path d="M256 449.391C177.73 449.391 114.055 385.715 114.055 307.445C114.055 229.176 177.73 165.5 256 165.5C334.27 165.5 397.945 229.176 397.945 307.445C397.945 385.715 334.27 449.391 256 449.391ZM256 201.539C197.605 201.539 150.094 249.051 150.094 307.445C150.094 365.844 197.602 413.352 256 413.352C314.395 413.352 361.906 365.844 361.906 307.445C361.906 249.051 314.395 201.539 256 201.539Z" fill="#554CBF"/>
<path d="M350.391 407.754C334.133 405.695 330.234 393.965 329.332 387.535C329.191 386.531 328.781 385.621 328.191 384.855C309.262 402.52 283.871 413.352 256 413.352C197.605 413.352 150.098 365.844 150.098 307.445C150.098 277.625 162.488 250.648 182.391 231.383C181.523 230.484 180.367 229.871 179.062 229.699C163.762 227.684 160.227 215.41 159.465 208.449C159.316 207.117 158.734 205.91 157.855 204.996C130.879 230.852 114.055 267.219 114.055 307.445C114.055 385.715 177.73 449.391 256 449.391C294.055 449.391 328.656 434.336 354.172 409.871C353.258 408.738 351.922 407.945 350.391 407.754Z" fill="#483BA8"/>
<path d="M256 210.512C250.469 210.512 245.988 206.027 245.988 200.5V183.52C245.988 177.992 250.473 173.508 256 173.508C261.531 173.508 266.012 177.992 266.012 183.52V200.496C266.012 206.027 261.531 210.512 256 210.512Z" fill="#6464D8"/>
<path d="M256 440.902C250.469 440.902 245.988 436.422 245.988 430.891V413.914C245.988 408.383 250.473 403.902 256 403.902C261.531 403.902 266.012 408.383 266.012 413.914V430.891C266.012 436.422 261.531 440.902 256 440.902Z" fill="#6464D8"/>
<path d="M149.293 317.219H132.316C126.785 317.219 122.305 312.734 122.305 307.207C122.305 301.676 126.785 297.195 132.316 297.195H149.293C154.824 297.195 159.305 301.676 159.305 307.207C159.305 312.734 154.824 317.219 149.293 317.219Z" fill="#6464D8"/>
<path d="M379.684 317.219H362.707C357.176 317.219 352.695 312.734 352.695 307.207C352.695 301.676 357.176 297.195 362.707 297.195H379.684C385.215 297.195 389.695 301.676 389.695 307.207C389.695 312.734 385.215 317.219 379.684 317.219Z" fill="#6464D8"/>
<path d="M256 297.879C250.469 297.879 245.988 293.398 245.988 287.867V227.195C245.988 221.664 250.473 217.184 256 217.184C261.531 217.184 266.012 221.664 266.012 227.195V287.867C266.012 293.398 261.531 297.879 256 297.879Z" fill="#6464D8"/>
<path d="M236.422 320.793H202.219C194.848 320.793 188.871 314.816 188.871 307.445C188.871 300.074 194.848 294.098 202.219 294.098H236.422C243.793 294.098 249.77 300.07 249.77 307.445C249.77 314.816 243.793 320.793 236.422 320.793Z" fill="#F7577A"/>
<path d="M256 337.035C239.684 337.035 226.41 323.762 226.41 307.445C226.41 291.129 239.684 277.855 256 277.855C272.316 277.855 285.59 291.129 285.59 307.445C285.59 323.762 272.316 337.035 256 337.035Z" fill="#554CBF"/>
<path d="M274.066 330.855C273.348 330.133 272.445 329.594 271.406 329.355C263.086 327.457 262.098 320.148 262.125 316.609C262.137 315.254 261.633 313.941 260.742 312.914L251.641 302.367C250.527 301.078 248.895 300.387 247.195 300.402C238.766 300.488 236.238 294.348 235.508 289.965C235.34 288.973 234.922 288.078 234.324 287.328C229.418 292.613 226.41 299.684 226.41 307.445C226.41 323.762 239.684 337.035 256 337.035C262.801 337.035 269.066 334.727 274.066 330.855Z" fill="#483BA8"/>
<path d="M256 297.879C250.723 297.879 246.434 302.172 246.434 307.445C246.434 312.719 250.723 317.012 256 317.012C261.273 317.012 265.566 312.719 265.566 307.445C265.566 302.172 261.273 297.879 256 297.879Z" fill="#6464D8"/>
</svg>
