<svg width="512" height="512" viewBox="0 0 512 512" fill="none" xmlns="http://www.w3.org/2000/svg">
<path d="M383.383 57.6797C346.266 35.043 302.656 22 256 22C120.691 22 11 131.688 11 267C11 337.707 40.9648 401.406 88.875 446.129L283.996 510.398C406.117 496.504 501.004 392.844 501.004 267C501.004 262.633 500.883 258.293 500.656 253.98L383.383 57.6797Z" fill="#FC6938"/>
<path d="M309.941 156.266C309.941 224.316 254.777 279.477 186.73 279.477C118.684 279.477 63.5195 224.316 63.5195 156.266C63.5195 88.2188 118.684 33.0547 186.73 33.0547C254.777 33.0547 309.941 88.2188 309.941 156.266Z" fill="#554CBF"/>
<path d="M272.625 244.594C270.629 242.895 269.332 240.82 268.512 238.957C267.281 236.156 264.59 234.336 261.531 234.242C245.305 233.742 240.312 221.461 238.781 214.387C238.215 211.762 236.281 209.719 233.754 208.816C230.738 207.742 229.453 205.535 228.945 203.438C228.285 200.703 226.043 198.613 223.309 197.949C215.461 196.035 212.871 190.062 212.039 185.723C211.473 182.762 209.117 180.492 206.184 179.801C171.422 171.629 167.301 144.902 167.27 132.848C167.266 129.68 165.355 126.766 162.375 125.695C154.68 122.93 153.09 116.508 153.066 111.738C153.055 108.91 151.457 106.25 148.895 105.051C146.285 103.832 145.254 101.605 144.91 99.5156C144.43 96.5977 142.395 94.1836 139.57 93.3203C124.555 88.7383 122.848 76.8828 123.348 69.5977C123.57 66.3359 121.57 63.4023 118.555 62.1484C115.871 61.0352 114.07 59.4336 112.867 57.6484C82.9062 80.125 63.5234 115.934 63.5234 156.27C63.5234 224.316 118.684 279.48 186.734 279.48C220.137 279.477 250.43 266.18 272.625 244.594Z" fill="#483BA8"/>
<path d="M87.2148 228.91V444.578C131.152 486.355 190.582 512 256 512C266.242 512 276.336 511.363 286.246 510.141V228.91C236.918 296.375 136.469 296.273 87.2148 228.91Z" fill="#554CBF"/>
<path d="M87.2148 228.91V343.359C87.2148 321.672 110.25 308.035 129.461 318.098C165.145 336.785 208.309 336.805 244.008 318.102C263.215 308.039 286.246 321.684 286.246 343.367V228.91C236.918 296.375 136.469 296.273 87.2148 228.91Z" fill="#483BA8"/>
<path d="M87.2148 228.91V444.578C111.023 467.215 139.383 485.109 170.773 496.758V431.66C166.527 427.512 163.883 421.73 163.883 415.336C163.883 402.738 174.133 392.484 186.73 392.484V279.469C149.285 279.465 111.848 262.602 87.2148 228.91Z" fill="#6464D8"/>
<path d="M129.461 318.098C147.305 327.445 167.016 332.121 186.73 332.121V279.469C185.879 279.273 126.344 282.414 87.2148 228.91V343.359C87.2148 321.676 110.25 308.039 129.461 318.098Z" fill="#554CBF"/>
<path d="M170.773 431.66V496.758C181.102 500.59 191.758 503.738 202.688 506.164V431.66C198.566 435.691 192.938 438.184 186.73 438.184C180.523 438.184 174.898 435.691 170.773 431.66Z" fill="#3C2B8E"/>
<path d="M186.73 438.184C180.523 438.184 174.898 435.691 170.773 431.66V478.062C170.773 469.414 177.898 462.613 186.547 462.684C186.605 462.688 186.668 462.688 186.73 462.688C186.793 462.688 186.855 462.688 186.918 462.684C195.566 462.617 202.688 469.414 202.688 478.062V431.66C198.566 435.691 192.938 438.184 186.73 438.184Z" fill="#2C217C"/>
<path d="M286.281 83.668C301.156 104.031 309.941 129.121 309.941 156.266C309.941 183.414 301.156 208.504 286.281 228.863C286.977 243.848 299.344 255.785 314.5 255.785H500.734C496.922 171.184 450.211 97.7617 381.824 56.75H314.5C299.344 56.75 286.977 68.6836 286.281 83.668Z" fill="#D9F5FF"/>
<path d="M286.281 83.668C301.156 104.031 309.941 129.121 309.941 156.266C309.941 183.414 301.156 208.504 286.281 228.863C286.977 243.848 299.344 255.785 314.5 255.785H500.734C496.922 171.184 450.211 97.7617 381.824 56.75H314.5C299.344 56.75 286.977 68.6836 286.281 83.668Z" fill="#D9F5FF"/>
<path d="M348.246 216.34V96.1914C348.246 77.9453 360.145 62.3477 376.559 56.75H314.5C299.344 56.75 286.98 68.6836 286.281 83.668C301.156 104.031 309.941 129.121 309.941 156.266C309.941 183.414 301.156 208.504 286.281 228.863C286.98 243.848 299.344 255.785 314.5 255.785H376.559C360.141 250.188 348.246 234.59 348.246 216.34Z" fill="#ABE4FE"/>
<path d="M435.48 165.133H412.238C407.34 165.133 403.371 161.164 403.371 156.27C403.371 151.375 407.34 147.406 412.238 147.406H435.48C440.379 147.406 444.344 151.375 444.344 156.27C444.344 161.164 440.379 165.133 435.48 165.133Z" fill="#ABE4FE"/>
<path d="M380.926 164.953C376.758 164.172 373.785 160.391 373.785 156.266C373.785 150.566 379.094 146.484 384.391 147.578C388.742 148.481 391.516 152.203 391.516 156.266C391.516 161.922 386.309 166.074 380.926 164.953Z" fill="#2299F2"/>
<path d="M351.594 168.086C345.125 168.086 339.773 162.867 339.773 156.266C339.773 148.668 346.762 143.242 353.898 144.684C359.637 145.848 363.41 150.828 363.41 156.266C363.41 162.66 358.215 168.086 351.594 168.086Z" fill="#FCDB75"/>
<path d="M489.176 191.648C487.547 191.461 485.895 191.352 484.219 191.352H304.855C300.809 204.992 294.477 217.648 286.281 228.867C286.977 243.852 299.344 255.785 314.5 255.785H500.734C499.73 233.5 495.746 211.996 489.176 191.648Z" fill="#ABE4FE"/>
<path d="M348.246 216.34V191.352H304.855C300.809 204.992 294.477 217.648 286.281 228.863C286.98 243.848 299.344 255.785 314.5 255.785H376.559C360.141 250.188 348.246 234.59 348.246 216.34Z" fill="#82C6F9"/>
<path d="M228.059 0H145.402C126.633 0 111.422 15.2148 111.422 33.9805V58.7539C155.293 24.8203 217.305 24.1523 262.039 58.7539V33.9805C262.039 15.2148 246.828 0 228.059 0Z" fill="#6464D8"/>
<path d="M174.023 17.7773C174.023 9.73828 178.969 2.86328 185.98 0H145.402C126.637 0 111.422 15.2148 111.422 33.9805V58.7539C132.082 42.7773 156.762 34.1797 181.77 33.1602C177.074 29.6602 174.023 24.082 174.023 17.7773Z" fill="#554CBF"/>
<path d="M186.73 291.297C112.277 291.297 51.7031 230.723 51.7031 156.266C51.7031 81.8125 112.277 21.2383 186.73 21.2383C261.188 21.2383 321.762 81.8125 321.762 156.266C321.762 230.723 261.188 291.297 186.73 291.297ZM186.73 44.875C125.309 44.875 75.3398 94.8477 75.3398 156.27C75.3398 217.688 125.309 267.66 186.73 267.66C248.152 267.66 298.121 217.691 298.121 156.27C298.121 94.8477 248.152 44.875 186.73 44.875Z" fill="#3C2B8E"/>
<path d="M268.512 238.957C267.809 237.359 266.621 236.098 265.176 235.277C245.027 255.281 217.301 267.656 186.73 267.656C125.309 267.656 75.3398 217.688 75.3398 156.266C75.3398 118.82 93.9141 85.6289 122.332 65.4258C121.488 63.9883 120.176 62.8203 118.551 62.1445C107.32 57.4766 111.355 44.3125 111.355 44.3125H111.312C75.375 68.6016 51.7031 109.723 51.7031 156.266C51.7031 230.723 112.277 291.297 186.73 291.297C225.871 291.297 261.172 274.551 285.855 247.855C275.117 249.105 270.477 243.43 268.512 238.957Z" fill="#2C217C"/>
<path d="M186.73 223.266C149.789 223.266 119.734 193.211 119.734 156.27C119.734 119.324 149.789 89.2695 186.73 89.2695C223.672 89.2695 253.727 119.324 253.727 156.27C253.727 193.211 223.672 223.266 186.73 223.266Z" fill="#52B0F5"/>
<path d="M119.734 156.27C119.734 193.211 149.789 223.266 186.73 223.266C203.527 223.266 218.891 217.035 230.66 206.785C229.754 205.773 229.223 204.59 228.945 203.438C228.285 200.703 226.043 198.613 223.309 197.949C215.461 196.035 212.867 190.062 212.039 185.723C211.473 182.762 209.117 180.492 206.18 179.801C171.422 171.629 167.297 144.902 167.27 132.848C167.262 129.68 165.355 126.766 162.371 125.695C154.68 122.93 153.086 116.508 153.066 111.738C153.055 108.91 151.457 106.25 148.895 105.051C147.73 104.508 146.891 103.754 146.277 102.91C130.164 115.156 119.734 134.516 119.734 156.27Z" fill="#2299F2"/>
<path d="M186.73 230.355C145.879 230.355 112.645 197.117 112.645 156.266C112.645 115.414 145.879 82.1797 186.73 82.1797C227.582 82.1797 260.82 115.414 260.82 156.266C260.82 197.121 227.582 230.355 186.73 230.355ZM186.73 96.3633C153.699 96.3633 126.824 123.234 126.824 156.27C126.824 189.301 153.699 216.172 186.73 216.172C219.762 216.172 246.637 189.301 246.637 156.27C246.637 123.234 219.762 96.3633 186.73 96.3633Z" fill="#2299F2"/>
<path d="M112.645 156.266C112.645 197.121 145.879 230.355 186.73 230.355C206.035 230.355 223.629 222.93 236.828 210.789C235.984 209.922 234.938 209.238 233.754 208.816C230.738 207.742 229.453 205.531 228.945 203.438C228.66 202.254 228.062 201.199 227.273 200.32C216.598 210.152 202.355 216.172 186.73 216.172C153.699 216.172 126.828 189.297 126.828 156.266C126.828 136.254 136.703 118.512 151.824 107.629C151.109 106.531 150.117 105.621 148.895 105.051C146.285 103.832 145.254 101.602 144.91 99.5117C144.707 98.2734 144.207 97.1328 143.5 96.1562C124.828 109.621 112.645 131.543 112.645 156.266Z" fill="#1588E8"/>
<path d="M186.73 121.184C167.387 121.184 151.645 136.922 151.645 156.266C151.645 175.613 167.387 191.352 186.73 191.352C206.078 191.352 221.816 175.613 221.816 156.266C221.816 136.922 206.078 121.184 186.73 121.184Z" fill="#82C6F9"/>
<path d="M151.645 156.27C151.645 175.613 167.387 191.352 186.73 191.352C195.789 191.352 204.059 187.902 210.289 182.246C209.227 181.055 207.797 180.184 206.18 179.805C171.422 171.633 167.297 144.902 167.27 132.852C167.266 131.137 166.691 129.512 165.711 128.199C157.176 134.602 151.645 144.801 151.645 156.27Z" fill="#52B0F5"/>
<path d="M98.7576 205.488C96.8397 202.07 98.0584 197.75 101.472 195.836C104.894 193.918 109.215 195.137 111.129 198.555C144.219 257.574 229.23 257.598 262.336 198.555C264.25 195.137 268.57 193.918 271.988 195.836C275.402 197.75 276.621 202.07 274.707 205.488C236.207 274.156 137.269 274.184 98.7576 205.488Z" fill="#6464D8"/>
<path d="M252.805 232.551C247.574 230.5 244.203 226.855 242.031 223.058C202.437 255.953 138.726 247.777 111.129 198.551C109.215 195.137 104.894 193.918 101.472 195.836C98.0584 197.75 96.8397 202.07 98.7576 205.488C131.277 263.496 206.887 272.5 252.805 232.551Z" fill="#554CBF"/>
<path d="M228.848 80.5664C202.742 66.0117 170.758 65.9883 144.613 80.5664C141.192 82.4766 136.875 81.2461 134.969 77.8281C133.059 74.4063 134.285 70.0859 137.707 68.1797C168.098 51.2305 205.317 51.2031 235.754 68.1797C239.176 70.0859 240.402 74.4063 238.492 77.8281C236.598 81.2305 232.281 82.4844 228.848 80.5664Z" fill="#6464D8"/>
<path d="M186.73 390.441C173.152 390.441 162.105 401.488 162.105 415.066C162.105 428.645 173.152 439.691 186.73 439.691C200.309 439.691 211.355 428.645 211.355 415.066C211.355 401.488 200.309 390.441 186.73 390.441Z" fill="#483BA8"/>
</svg>
