<svg width="512" height="512" viewBox="0 0 512 512" fill="none" xmlns="http://www.w3.org/2000/svg">
<path d="M256 22C120.691 22 11 131.688 11 267C11 303.543 19.0117 338.211 33.3594 369.359L84.5352 441.977C128.727 485.285 189.238 512 256 512C391.309 512 501 402.309 501 267C501 131.688 391.309 22 256 22Z" fill="#FBC840"/>
<path d="M348.004 341.219C343.688 341.219 340.191 344.715 340.191 349.031V488.605C340.191 491.539 340.043 494.438 339.766 497.301C345.199 495.324 350.539 493.156 355.785 490.812C355.801 490.078 355.816 489.344 355.816 488.605V349.031C355.816 344.715 352.316 341.219 348.004 341.219Z" fill="#D9F5FF"/>
<path d="M348.004 341.219C343.688 341.219 340.191 344.715 340.191 349.031V399.016C340.191 394.699 343.688 391.203 348.004 391.203C352.316 391.203 355.816 394.699 355.816 399.016V349.031C355.816 344.715 352.316 341.219 348.004 341.219Z" fill="#C2EDFF"/>
<path d="M348.004 362.051C340.813 362.051 334.984 356.223 334.984 349.031V322.469C334.984 315.281 340.813 309.449 348.004 309.449C355.191 309.449 361.023 315.281 361.023 322.469V349.031C361.023 356.223 355.191 362.051 348.004 362.051Z" fill="#ABE4FE"/>
<path d="M348.004 309.449C340.813 309.449 334.984 315.277 334.984 322.469V349.031C334.984 349.246 335.004 349.453 335.016 349.664C335.348 342.773 341.027 337.281 348.004 337.281C354.98 337.281 360.656 342.773 360.992 349.664C361 349.453 361.023 349.246 361.023 349.031V322.469C361.023 315.277 355.191 309.449 348.004 309.449Z" fill="#82C6F9"/>
<path d="M329.73 294.973V314.684C329.73 321.645 335.43 327.344 342.391 327.344H353.613C360.578 327.344 366.273 321.645 366.273 314.684V294.973H329.73Z" fill="#C2EDFF"/>
<path d="M135.898 480.574C146.344 486.461 157.266 491.602 168.594 495.93C170.961 493.625 172.441 490.414 172.441 486.867V467.16H135.898V480.574Z" fill="#ABE4FE"/>
<path d="M157.852 486.867V467.16H135.898V480.574C143.348 484.773 151.047 488.586 158.953 492C158.25 490.43 157.852 488.695 157.852 486.867Z" fill="#82C6F9"/>
<path d="M113.945 440.934V451.562C113.945 461.285 121.902 469.242 131.629 469.242H176.711C186.438 469.242 194.395 461.285 194.395 451.562V440.934H113.945Z" fill="#C2EDFF"/>
<path d="M154.172 451.562V440.934H113.945V451.562C113.945 461.285 121.902 469.242 131.629 469.242H171.852C162.129 469.242 154.172 461.285 154.172 451.562Z" fill="#ABE4FE"/>
<path d="M455.219 297.059H322.711C309.828 297.059 299.289 286.516 299.289 273.633V23.4258C299.289 10.5391 309.828 0 322.711 0H455.219C468.102 0 478.645 10.5391 478.645 23.4258V273.633C478.645 286.516 468.102 297.059 455.219 297.059Z" fill="#554CBF"/>
<path d="M350.84 273.633V23.4258C350.84 10.5391 361.379 0 374.266 0H322.711C309.828 0 299.289 10.5391 299.289 23.4258V273.633C299.289 286.516 309.828 297.059 322.711 297.059H374.266C361.379 297.059 350.84 286.516 350.84 273.633Z" fill="#483BA8"/>
<path d="M274.984 416.625V25.3516C274.984 11.3516 263.633 0 249.633 0H58.7109C44.707 0 33.3555 11.3516 33.3555 25.3516V369.355C45.9219 396.641 63.3516 421.215 84.5352 441.977H249.633C263.633 441.977 274.984 430.625 274.984 416.625ZM256.156 381.289C256.156 386.035 252.309 389.883 247.562 389.883H60.7773C56.0312 389.883 52.1836 386.035 52.1836 381.289V52.4375C52.1836 47.6875 56.0312 43.8398 60.7773 43.8398H247.562C252.309 43.8398 256.156 47.6914 256.156 52.4375V381.289Z" fill="#554CBF"/>
<path d="M274.984 416.625V25.3516C274.984 11.3516 263.633 0 249.633 0H58.7109C44.707 0 33.3555 11.3516 33.3555 25.3516V369.355C45.9219 396.641 63.3516 421.215 84.5352 441.977H249.633C263.633 441.977 274.984 430.625 274.984 416.625ZM256.156 381.289C256.156 386.035 252.309 389.883 247.562 389.883H60.7773C56.0312 389.883 52.1836 386.035 52.1836 381.289V52.4375C52.1836 47.6875 56.0312 43.8398 60.7773 43.8398H247.562C252.309 43.8398 256.156 47.6914 256.156 52.4375V381.289Z" fill="#554CBF"/>
<path d="M154.691 428.105H153.648C146.773 428.105 141.148 422.48 141.148 415.605V414.562C141.148 407.688 146.773 402.066 153.648 402.066H154.691C161.566 402.066 167.191 407.691 167.191 414.562V415.605C167.191 422.48 161.566 428.105 154.691 428.105Z" fill="#6464D8"/>
<path d="M52.1836 52.4375V381.285C52.1836 386.035 56.0312 389.883 60.7773 389.883H247.562C252.309 389.883 256.156 386.035 256.156 381.289V52.4375C256.156 47.6914 252.309 43.8438 247.562 43.8438C190.141 43.8438 116.117 43.8438 60.7812 43.8438C56.0312 43.8398 52.1836 47.6914 52.1836 52.4375Z" fill="#2299F2"/>
<path d="M168.754 28.3477H139.59C136.152 28.3477 133.34 25.5352 133.34 22.0977C133.34 18.6602 136.148 15.8477 139.59 15.8477H168.754C172.191 15.8477 175.004 18.6602 175.004 22.0977C175.004 25.5352 172.191 28.3477 168.754 28.3477Z" fill="#6464D8"/>
<path d="M377.27 265.008C372.098 265.008 367.898 260.805 367.898 255.637C367.898 250.434 372.129 246.262 377.27 246.262C382.492 246.262 386.645 250.523 386.645 255.637C386.645 260.789 382.449 265.008 377.27 265.008Z" fill="#2299F2"/>
<path d="M440.516 265.008C435.348 265.008 431.145 260.809 431.145 255.637C431.145 249.649 436.684 245.274 442.352 246.449C446.707 247.289 449.891 251.152 449.891 255.637C449.891 260.801 445.68 265.008 440.516 265.008Z" fill="#483BA8"/>
<path d="M408.895 265.008C404.586 265.008 400.66 262.043 399.695 257.469C398.715 252.297 401.973 247.508 407.062 246.438C412.863 245.285 418.27 249.754 418.27 255.633C418.27 260.797 414.066 265.008 408.895 265.008Z" fill="#2299F2"/>
<path d="M329.832 0V15.8477C329.832 22.7227 335.457 28.3477 342.332 28.3477H435.598C442.473 28.3477 448.098 22.7227 448.098 15.8477V0H329.832Z" fill="#483BA8"/>
<path d="M329.832 15.8477C329.832 22.7227 335.457 28.3477 342.332 28.3477H350.84V23.4258C350.84 10.5391 361.379 0 374.266 0H329.832V15.8477Z" fill="#3C2B8E"/>
<path d="M426.574 131.336H397.238C395.898 131.336 394.812 130.25 394.812 128.91V76.3828C394.812 73.9648 391.66 73.0352 390.352 75.0664L349.316 138.707C348.277 140.32 349.434 142.445 351.355 142.445H380.691C382.031 142.445 383.117 143.531 383.117 144.871V197.402C383.117 199.82 386.27 200.746 387.578 198.715L428.613 135.074C429.652 133.461 428.492 131.336 426.574 131.336Z" fill="#F9B50B"/>
<path d="M94.8008 297.059V335.711C94.8008 342.586 100.422 348.211 107.297 348.211H201.043C207.914 348.211 213.539 342.586 213.539 335.711V297.059H94.8008Z" fill="#F9B50B"/>
<path d="M94.8008 244.113H213.543V297.059H94.8008V244.113Z" fill="#FBC840"/>
<path d="M201.043 140.016H189.602C186.023 140.016 183.125 137.117 183.125 133.539V131.473C183.125 121.746 175.168 113.789 165.441 113.789H142.898C133.172 113.789 125.215 121.746 125.215 131.473V133.539C125.215 137.117 122.316 140.016 118.738 140.016H107.297C100.422 140.016 94.8008 145.641 94.8008 152.516V191.168H213.543V152.516C213.543 145.641 207.918 140.016 201.043 140.016Z" fill="#82C6F9"/>
<path d="M94.8008 191.168H213.543V244.113H94.8008V191.168Z" fill="#FCDB75"/>
<path d="M140.348 335.711V297.059H94.8008V335.711C94.8008 342.586 100.426 348.211 107.297 348.211H147.641C143.629 348.211 140.348 342.586 140.348 335.711Z" fill="#F79D0D"/>
<path d="M94.8008 244.113H140.348V297.059H94.8008V244.113Z" fill="#F9B50B"/>
<path d="M147.641 140.016H154.32C156.41 140.016 158.102 137.117 158.102 133.539V131.473C158.102 122.383 162.16 114.844 167.324 113.895C166.703 113.828 166.078 113.789 165.441 113.789H142.898C133.172 113.789 125.215 121.746 125.215 131.473V133.539C125.215 137.117 122.316 140.016 118.738 140.016H107.297C100.422 140.016 94.8008 145.641 94.8008 152.516V191.168H140.348V152.516C140.348 145.641 143.629 140.016 147.641 140.016Z" fill="#52B0F5"/>
<path d="M94.8008 191.168H140.348V244.113H94.8008V191.168Z" fill="#FBC840"/>
<path d="M394.812 128.223V76.3828C394.812 73.9648 391.66 73.0352 390.352 75.0664L349.316 138.707C348.277 140.32 349.437 142.445 351.355 142.445H380.426C375.246 133.227 385.586 122.898 394.812 128.223Z" fill="#F79D0D"/>
<path d="M94.8008 43.8398C82.9297 43.8398 71.5 43.8398 60.7773 43.8398C56.0312 43.8398 52.1836 47.6914 52.1836 52.4375V381.285C52.1836 386.031 56.0312 389.883 60.7773 389.883H94.8008V43.8398Z" fill="#1588E8"/>
<path d="M94.8008 416.625V389.883H60.7773C56.0312 389.883 52.1836 386.035 52.1836 381.285V52.4375C52.1836 47.6875 56.0312 43.8398 60.7812 43.8398H94.8008V25.3516C94.8008 11.3516 106.148 0 120.152 0H58.7109C44.707 0 33.3555 11.3516 33.3555 25.3516V369.355C45.9219 396.641 63.3516 421.215 84.5352 441.977H120.152C106.148 441.977 94.8008 430.625 94.8008 416.625Z" fill="#483BA8"/>
</svg>
