<svg width="512" height="512" viewBox="0 0 512 512" fill="none" xmlns="http://www.w3.org/2000/svg">
<path d="M256 22C120.691 22 11 131.688 11 267C11 377.898 84.6914 471.574 185.773 501.766L219.398 509.277C226.035 510.27 232.762 510.988 239.562 511.438H272.438C279.238 510.988 285.965 510.27 292.602 509.277L326.227 501.766C427.309 471.574 501 377.898 501 267C501 131.688 391.309 22 256 22Z" fill="#83D912"/>
<path d="M286.809 433.488H271.379V472.52L292.602 509.277C304.094 507.555 315.316 505.027 326.227 501.766L286.809 433.488Z" fill="#483BA8"/>
<path d="M274.082 473.781C274.082 464.164 281.879 456.367 291.5 456.367C295.496 456.367 299.168 457.727 302.109 459.992L286.809 433.488H271.379V472.52L274.68 478.234C274.305 476.812 274.082 475.324 274.082 473.781Z" fill="#3C2B8E"/>
<path d="M185.773 501.766C196.684 505.027 207.906 507.555 219.398 509.277L240.621 472.52V433.488H225.191L185.773 501.766Z" fill="#483BA8"/>
<path d="M225.191 433.488L209.891 459.992C212.828 457.727 216.504 456.367 220.5 456.367C230.117 456.367 237.914 464.164 237.914 473.781C237.914 475.324 237.695 476.812 237.32 478.234L240.617 472.52V433.488H225.191Z" fill="#3C2B8E"/>
<path d="M239.562 511.438C244.996 511.801 250.473 512 256 512C261.527 512 267.004 511.801 272.438 511.438V433.488H239.562V511.438Z" fill="#554CBF"/>
<path d="M239.562 433.488V479.242C239.562 470.172 246.914 462.82 255.98 462.82H256.02C265.086 462.82 272.438 470.172 272.438 479.242V433.488H239.562Z" fill="#483BA8"/>
<path d="M272.438 322.945C267.695 326.035 262.051 327.84 256 327.84C249.949 327.84 244.305 326.035 239.562 322.945V402.73H272.438V322.945Z" fill="#D9F5FF"/>
<path d="M256.52 377.492H255.48C246.688 377.492 239.562 370.363 239.562 361.57V402.73H272.438V361.57C272.438 370.363 265.312 377.492 256.52 377.492Z" fill="#ABE4FE"/>
<path d="M225.734 277.359V297.574C225.734 314.223 239.355 327.84 256 327.84C272.645 327.84 286.266 314.223 286.266 297.574V277.359H225.734Z" fill="#554CBF"/>
<path d="M256 297.574V277.359H225.734V297.574C225.734 314.223 239.355 327.84 256 327.84C261.504 327.84 266.672 326.344 271.133 323.746C262.105 318.496 256 308.715 256 297.574Z" fill="#483BA8"/>
<path d="M394.27 345.363L376.285 316.461C374.602 313.754 371.691 312.137 368.504 312.137H282.348C277.961 312.137 274.41 308.582 274.41 304.199C274.41 299.816 277.961 296.262 282.348 296.262H368.504C377.215 296.262 385.164 300.68 389.766 308.078L407.75 336.98C410.066 340.699 408.926 345.594 405.203 347.91C401.504 350.215 396.598 349.109 394.27 345.363Z" fill="#D9F5FF"/>
<path d="M407.75 336.98L389.766 308.078C386.391 302.648 381.211 298.836 375.254 297.188C377.312 298.77 378.648 301.254 378.648 304.055C378.648 308.375 375.484 311.945 371.348 312.605C373.367 313.262 375.125 314.594 376.285 316.465L394.27 345.363C396.598 349.109 401.504 350.215 405.203 347.91C408.926 345.594 410.066 340.699 407.75 336.98Z" fill="#ABE4FE"/>
<path d="M429.953 414.734L388.879 348.719C384.711 342.02 386.762 333.211 393.461 329.039C400.16 324.871 408.973 326.926 413.141 333.625L454.215 399.637C458.383 406.336 456.328 415.148 449.629 419.316C442.957 423.469 434.137 421.457 429.953 414.734Z" fill="#554CBF"/>
<path d="M436.789 371.633L413.141 333.625C408.973 326.926 400.164 324.871 393.465 329.039C386.766 333.211 384.711 342.02 388.883 348.719L412.398 386.516C411.984 373.656 425.699 365.461 436.789 371.633Z" fill="#483BA8"/>
<path d="M295.301 434.547H216.699C207.66 434.547 200.262 427.152 200.262 418.109C200.262 409.07 207.66 401.672 216.699 401.672H295.301C304.34 401.672 311.738 409.07 311.738 418.109C311.738 427.152 304.34 434.547 295.301 434.547Z" fill="#6464D8"/>
<path d="M252.762 418.109C252.762 409.07 260.16 401.672 269.199 401.672H216.699C207.66 401.672 200.262 409.07 200.262 418.109C200.262 427.152 207.66 434.547 216.699 434.547H269.199C260.16 434.547 252.762 427.152 252.762 418.109Z" fill="#554CBF"/>
<path d="M295.301 280.535H216.699C207.66 280.535 200.262 273.137 200.262 264.098C200.262 255.055 207.66 247.66 216.699 247.66H295.301C304.34 247.66 311.738 255.055 311.738 264.098C311.738 273.137 304.34 280.535 295.301 280.535Z" fill="#483BA8"/>
<path d="M243.066 264.098C243.066 255.055 250.465 247.66 259.504 247.66H216.699C207.66 247.66 200.262 255.055 200.262 264.098C200.262 273.137 207.66 280.535 216.699 280.535H259.504C250.465 280.535 243.066 273.137 243.066 264.098Z" fill="#3C2B8E"/>
<path d="M376.098 0H420.84C424.926 0 428.238 3.3125 428.238 7.39453V17.7266C428.238 21.8086 424.926 25.1211 420.84 25.1211H376.098C372.012 25.1211 368.699 21.8086 368.699 17.7266V7.39453C368.699 3.3125 372.012 0 376.098 0V0Z" fill="#6464D8"/>
<path d="M398.469 17.7266V7.39453C398.469 3.3125 401.781 0 405.863 0H376.098C372.012 0 368.703 3.3125 368.703 7.39453V17.7266C368.703 21.8086 372.012 25.1211 376.098 25.1211H405.863C401.781 25.1211 398.469 21.8086 398.469 17.7266Z" fill="#554CBF"/>
<path d="M332.629 24.4258C332.379 24.4258 332.133 24.4141 331.887 24.4062V15.4883C331.887 9.30078 336.902 4.28125 343.094 4.28125C349.281 4.28125 354.297 9.30078 354.297 15.4883V24.4258H332.629Z" fill="#554CBF"/>
<path d="M354.625 41.3086H60.6953C56.9531 41.3086 53.9219 44.3398 53.9219 48.082V224.41C53.9219 238.363 65.3359 249.777 79.2852 249.777H354.625V41.3086Z" fill="#D9F5FF"/>
<path d="M127.922 224.41V48.082C127.922 44.3398 130.953 41.3086 134.695 41.3086H60.6953C56.9531 41.3086 53.9219 44.3398 53.9219 48.082V224.41C53.9219 238.363 65.3359 249.777 79.2852 249.777H153.285C139.336 249.773 127.922 238.363 127.922 224.41Z" fill="#ABE4FE"/>
<path d="M451.305 41.3086C455.047 41.3086 458.078 44.3398 458.078 48.082V224.41C458.078 238.363 446.664 249.777 432.715 249.777H352.508V41.3086H451.305Z" fill="#554CBF"/>
<path d="M405.293 223.617V67.4648C405.293 53.0195 417.004 41.3047 431.449 41.3047H352.508V249.773H431.449C417.004 249.773 405.293 238.062 405.293 223.617Z" fill="#483BA8"/>
<path d="M78.1172 8.42969H300.438C306.602 8.42969 312.465 11.0859 316.531 15.7187C320.602 20.3477 326.465 23.0039 332.629 23.0039H433.883C444.531 23.0039 453.16 31.6328 453.16 42.2812C452.57 42.1133 451.949 42.0156 451.305 42.0156H60.6953C60.0508 42.0156 59.4297 42.1133 58.8398 42.2812V27.7109C58.8398 17.0625 67.4687 8.42969 78.1172 8.42969Z" fill="#483BA8"/>
<path d="M405.293 207.926C383.625 207.926 365.996 190.301 365.996 168.633C365.996 146.965 383.625 129.336 405.293 129.336C426.961 129.336 444.59 146.965 444.59 168.633C444.586 190.301 426.961 207.926 405.293 207.926Z" fill="#6464D8"/>
<path d="M317.137 70.8555H89.293C85.5391 70.8555 82.4961 73.8984 82.4961 77.6523V214.402C82.4961 218.156 85.5391 221.199 89.293 221.199H317.137C320.891 221.199 323.934 218.156 323.934 214.402V77.6562C323.934 73.8984 320.891 70.8555 317.137 70.8555Z" fill="#FBC840"/>
<path d="M89.293 70.8555C85.5391 70.8555 82.4961 73.8984 82.4961 77.6523V214.402C82.4961 218.156 85.5391 221.199 89.293 221.199H127.922V70.8555H89.293Z" fill="#F9B50B"/>
<path d="M289.141 120.238C285.125 116.391 278.664 116.391 274.652 120.238C269.105 125.559 262.332 130.781 254.18 135.305C261.91 142.555 271.652 149.348 283.941 154.797C303.297 163.379 312.742 171.129 317.277 176.137V139.148C305.582 133.898 296.336 127.145 289.141 120.238Z" fill="#98341A"/>
<path d="M274.652 120.238C269.109 125.559 262.332 130.781 254.18 135.305C261.91 142.555 271.652 149.348 283.941 154.797C286.02 155.719 287.973 156.629 289.828 157.527C292.621 149.336 300.648 143.641 293.105 139.25C280.105 131.684 289.141 120.238 289.141 120.238C285.125 116.387 278.664 116.387 274.652 120.238Z" fill="#872815"/>
<path d="M203.215 190.246C258.621 150.52 303.938 177.254 317.277 187.059V176.137C312.742 171.129 303.297 163.379 283.941 154.797C251.637 140.477 236.871 116.852 230.211 100.078C227.152 92.3711 217.777 89.1992 210.535 93.4414L210.312 93.5742C205.949 96.1289 200.504 96.0898 196.18 93.4766L196.109 93.4336C188.836 89.0312 179.328 92.2344 176.234 100.043C169.582 116.816 154.82 140.465 122.488 154.801C103.137 163.379 93.6875 171.133 89.1523 176.141V187.059C102.488 177.254 147.809 150.52 203.215 190.246Z" fill="#AA3D27"/>
<path d="M208.777 94.34C204.723 96.0782 200.012 95.7892 196.18 93.4728L196.105 93.4298C188.836 89.0314 179.328 92.2306 176.23 100.043C169.578 116.817 154.816 140.465 122.488 154.797C103.133 163.379 93.6836 171.129 89.1523 176.141V187.059C99.5703 179.402 129.5 161.414 168.512 172.84C183.121 157.336 191.43 136.567 193.77 122.317C196.91 103.215 205.312 96.3907 208.777 94.34Z" fill="#98341A"/>
<path d="M392.094 86.1484H379.742C375.359 86.1484 371.805 82.5938 371.805 78.2109C371.805 73.8281 375.359 70.2734 379.742 70.2734H392.094C396.477 70.2734 400.027 73.8281 400.027 78.2109C400.031 82.5938 396.477 86.1484 392.094 86.1484Z" fill="#6464D8"/>
<path d="M392.094 112.73H379.742C375.359 112.73 371.805 109.18 371.805 104.797C371.805 100.41 375.359 96.8594 379.742 96.8594H392.094C396.477 96.8594 400.027 100.41 400.027 104.797C400.031 109.18 396.477 112.73 392.094 112.73Z" fill="#6464D8"/>
<path d="M203.215 179.66C144.574 137.617 96.6094 165.914 82.4961 176.289V209.113C82.4961 212.867 85.5391 215.91 89.293 215.91H317.137C320.891 215.91 323.934 212.867 323.934 209.113V183.035C309.816 193.41 261.855 221.703 203.215 179.66Z" fill="#52B0F5"/>
<path d="M82.4961 209.117C82.5 212.867 85.5391 215.91 89.293 215.91H127.922V158.078C105.941 160.898 89.75 170.961 82.4961 176.289V209.117Z" fill="#2299F2"/>
<path d="M203.215 179.66C242.613 207.91 277.191 204.406 299.922 195.918C300.98 195.523 302.012 195.117 303.016 194.703C305.027 193.879 306.934 193.02 308.727 192.148C315.457 188.883 320.621 185.469 323.934 183.035V176.289C309.816 165.914 261.855 137.617 203.215 179.66Z" fill="#2299F2"/>
<path d="M203.215 179.66C242.613 207.91 277.191 204.406 299.922 195.918C300.98 195.523 302.012 195.117 303.016 194.703C305.027 193.879 306.934 193.02 308.727 192.148C315.457 188.883 320.621 185.469 323.934 183.035V176.289C309.816 165.914 261.855 137.617 203.215 179.66Z" fill="#2299F2"/>
<path d="M317.137 229.141H89.293C81.168 229.141 74.5586 222.527 74.5586 214.402V77.6562C74.5586 69.5312 81.168 62.918 89.293 62.918H317.137C325.262 62.918 331.871 69.5273 331.871 77.6562V214.402C331.871 222.527 325.262 229.141 317.137 229.141ZM90.4336 213.266H315.996V78.793H90.4336V213.266ZM317.137 78.793H317.145H317.137Z" fill="#ABE4FE"/>
<path d="M414.289 184.348C411.633 185.875 408.566 186.762 405.293 186.762C395.297 186.762 387.164 178.629 387.164 168.633C387.164 163.094 389.664 158.137 393.59 154.809C383.426 156.402 376.633 145.168 382.105 136.934C372.348 144.09 365.996 155.633 365.996 168.633C365.996 190.301 383.625 207.926 405.293 207.926C413.137 207.926 420.449 205.605 426.59 201.629C416.672 203.629 409.219 192.922 414.289 184.348Z" fill="#554CBF"/>
<path d="M405.293 150.504C395.297 150.504 387.164 158.637 387.164 168.633C387.164 178.629 395.297 186.762 405.293 186.762C415.289 186.762 423.422 178.629 423.422 168.633C423.422 158.637 415.289 150.504 405.293 150.504Z" fill="#483BA8"/>
<path d="M127.801 62.918H89.293C81.168 62.918 74.5586 69.5273 74.5586 77.6562V214.402C74.5586 222.527 81.168 229.141 89.293 229.141H128.414C128.395 229.113 128.379 229.09 128.355 229.066C120.129 220.84 127.699 213.52 127.969 213.266H90.4336V78.793H127.918C120.316 70.1836 126.828 63.7891 127.801 62.918Z" fill="#82C6F9"/>
<path d="M259.504 180.785C259.504 170.91 264.785 162.266 272.676 157.52C252.934 156.246 229.117 161.09 203.215 179.66C227.816 197.301 250.535 202.559 269.668 201.953C263.473 196.981 259.504 189.348 259.504 180.785Z" fill="#1588E8"/>
</svg>
