<svg width="511" height="511" viewBox="0 0 511 511" fill="none" xmlns="http://www.w3.org/2000/svg">
<g clip-path="url(#clip0)">
<path d="M472.505 379.25C490.076 345.504 500.021 307.157 500.021 266.479C500.021 131.43 390.544 21.957 255.5 21.957C120.456 21.957 10.9785 131.43 10.9785 266.479C10.9785 307.157 20.9239 345.507 38.495 379.25H472.505Z" fill="#FBC840"/>
<path d="M237.11 1.1463C181.878 8.67064 176.631 39.9883 176.604 51.4736C176.6 53.8829 175.262 56.1169 173.099 57.1734C144.37 71.146 159.859 140.502 159.859 140.502C162.744 140.694 165.762 141.863 168.015 142.955C168.565 139.52 171.465 134.144 172.736 130.881C173.703 128.389 174.916 125.875 176.428 123.501C179.056 119.38 180.253 114.514 179.894 109.653C178.865 95.6021 177.364 69.9102 195.913 61.5632C211.625 54.495 230.904 58.5886 243.196 62.6743C251.18 65.3293 259.827 65.3293 267.808 62.6743C280.1 58.5886 299.379 54.495 315.09 61.5632C333.585 69.8868 332.135 95.4461 331.118 109.536C330.763 114.432 331.925 119.345 334.576 123.501C336.139 125.953 337.379 128.553 338.361 131.119C339.585 134.311 342.451 139.606 342.989 142.955C345.827 141.579 349.886 140.081 353.355 140.573C353.78 125.844 355.141 107.969 355.141 107.969C371.507 27.8051 296.576 -6.95503 237.11 1.1463Z" fill="#3C2B8E"/>
<path d="M252.194 0.0234375C247.098 0.101409 242.05 0.471779 237.106 1.14624C181.878 8.67058 176.627 39.9882 176.604 51.4735C176.6 53.8829 175.262 56.1168 173.099 57.1733C144.366 71.146 159.859 140.502 159.859 140.502C162.744 140.693 165.762 141.863 168.015 142.955C168.565 139.52 171.461 134.144 172.732 130.881C173.703 128.389 174.915 125.875 176.428 123.501C179.056 119.38 180.253 114.514 179.894 109.653C178.865 95.602 177.364 69.9101 195.913 61.5632C209.13 55.6178 224.865 57.5671 236.845 60.7717C236.674 60.3702 236.514 59.9686 236.33 59.5671C214.619 12.2963 250.408 0.573143 252.194 0.0234375Z" fill="#2C217C"/>
<path d="M359.445 140.487C355.04 136.545 346.264 138.541 342.467 140.959C343.301 146.011 343.348 151.181 342.63 156.288L338.151 188.132C338.151 190.697 338.069 193.216 337.913 195.691C348.837 198.908 354.26 189.337 355.172 182.767C355.566 179.937 356.209 177.153 357.102 174.432C360.006 165.574 370.486 150.362 359.445 140.487Z" fill="#FE9D9A"/>
<path d="M351.153 170.884C347.258 170.884 343.73 169.325 341.149 166.802L338.151 188.132C338.151 190.697 338.069 193.216 337.913 195.691C348.833 198.908 354.26 189.337 355.172 182.767C355.566 179.937 356.209 177.153 357.102 174.432C357.722 172.549 358.681 170.378 359.702 168.031C357.316 169.816 354.365 170.884 351.153 170.884Z" fill="#F98F8F"/>
<path d="M151.555 140.487C155.964 136.545 164.74 138.541 168.537 140.959C167.707 146.011 167.656 151.181 168.378 156.288L172.857 188.132C172.857 190.697 172.939 193.216 173.091 195.691C162.171 198.908 156.744 189.337 155.832 182.767C155.438 179.937 154.795 177.153 153.902 174.432C150.994 165.574 140.514 150.362 151.555 140.487Z" fill="#FE9D9A"/>
<path d="M169.871 166.916C167.301 169.368 163.828 170.884 159.995 170.884C156.689 170.884 153.652 169.754 151.227 167.867C152.28 170.276 153.27 172.506 153.902 174.432C154.795 177.153 155.438 179.941 155.832 182.767C156.744 189.336 162.171 198.908 173.091 195.691C172.939 193.216 172.857 190.697 172.857 188.132L169.871 166.916Z" fill="#F98F8F"/>
<path d="M318.092 297.352C312.56 286.447 310.864 272.135 310.494 261.34C295.582 278.712 278.592 290.552 255.5 290.552C232.412 290.552 215.426 278.716 200.506 261.34C200.136 272.139 198.44 286.451 192.908 297.356C191.8 310.447 192.51 340.116 214.366 374.681L215.917 377.667C223.773 392.774 227.87 409.55 227.87 426.575V507.452C236.943 508.474 246.159 509.004 255.5 509.004C264.841 509.004 274.057 508.474 283.13 507.452V426.579C283.13 409.55 287.227 392.774 295.083 377.667L296.634 374.681C318.494 340.112 319.2 310.439 318.092 297.352Z" fill="#FE9D9A"/>
<path d="M215.917 377.667C219.516 384.587 222.319 391.862 224.307 399.347C233.843 403.577 244.393 405.932 255.5 405.932C266.607 405.932 277.157 403.577 286.693 399.351C288.681 391.862 291.484 384.587 295.083 377.667L296.634 374.681C304.95 361.531 310.202 349.086 313.461 337.995C308.86 340.868 303.929 342.864 298.728 343.48C283.477 345.281 269.309 352.26 258.603 363.273C257.34 364.576 255.247 364.576 253.983 363.273C248.884 358.03 242.997 353.702 236.58 350.412C231.426 347.769 228.982 341.753 230.74 336.233C234.689 323.843 238.405 303.164 239.06 288.369C223.941 284.194 211.648 274.315 200.514 261.344L200.51 261.34C200.424 263.835 200.264 266.521 200.007 269.309C199.149 278.591 197.169 289.009 192.904 297.398C191.804 310.509 192.533 340.151 214.366 374.677L215.917 377.667Z" fill="#F98F8F"/>
<path d="M255.5 403.936C230.642 403.936 208.545 392.162 194.44 373.901H188.701V501.76C209.933 507.78 232.338 511 255.5 511C278.662 511 301.071 507.78 322.303 501.76V373.901H316.564C302.459 392.162 280.362 403.936 255.5 403.936Z" fill="#D9F5FF"/>
<path d="M255.5 403.936C230.642 403.936 208.545 392.162 194.44 373.901H188.701V407.901C207.196 422.147 230.35 430.634 255.504 430.634C280.654 430.634 303.808 422.147 322.303 407.901V373.901H316.564C302.459 392.162 280.362 403.936 255.5 403.936Z" fill="#ABE4FE"/>
<path d="M340.357 131.118C339.371 128.553 338.131 125.949 336.568 123.497C333.921 119.345 332.755 114.432 333.114 109.532C334.131 95.4461 333.585 67.8906 315.09 59.5671C299.379 52.495 280.104 56.5885 267.812 60.6782C259.827 63.3331 251.176 63.3331 243.192 60.6782C230.9 56.5885 211.625 52.495 195.913 59.5671C177.364 67.914 176.869 95.602 177.898 109.653C178.257 114.514 177.06 119.376 174.432 123.501C172.919 125.875 171.707 128.389 170.74 130.877C167.598 138.951 166.682 147.707 167.859 156.28L172.229 188.128C172.229 233.917 196.674 265.04 217.465 281.188C228.319 289.613 241.711 294.194 255.504 294.194C269.293 294.194 282.689 289.613 293.539 281.188C314.33 265.04 338.775 233.921 338.775 188.128L343.145 156.288C344.311 147.801 343.426 139.13 340.357 131.118Z" fill="#FFBAAE"/>
<path d="M251.983 281.188C236.884 265.044 219.126 233.921 219.126 188.132L215.949 156.28C215.095 147.707 215.761 138.951 218.042 130.881C218.748 128.389 219.629 125.875 220.728 123.5C222.635 119.38 223.504 114.514 223.247 109.653C222.494 95.602 222.857 67.914 236.331 59.567C236.689 59.3448 237.056 59.1304 237.418 58.9315C225.368 55.6372 209.344 53.5241 195.914 59.567C177.364 67.914 176.869 95.602 177.898 109.653C178.257 114.514 177.06 119.38 174.432 123.5C172.919 125.875 171.707 128.389 170.736 130.881C167.594 138.951 166.678 147.707 167.855 156.28L172.229 188.132C172.229 233.921 196.674 265.044 217.465 281.188C228.315 289.617 241.707 294.194 255.5 294.194C260.233 294.194 264.919 293.64 269.469 292.591C263.137 290.584 257.161 286.724 251.983 281.188Z" fill="#FE9D9A"/>
<path d="M216.362 374.681C186.834 327.983 195.902 290.19 195.902 290.19C193.991 295.882 191.317 301.129 187.648 305.196C187.325 305.558 187.013 305.936 186.67 306.283C175.278 308.911 163.855 312.513 153.719 316.556C120.253 329.784 114.097 339.223 101.949 340.217C70.0933 342.817 50.2571 358.463 37.9687 378.252C74.8457 449.881 146.066 500.934 229.867 509.667V426.579C229.867 409.55 225.769 392.774 217.913 377.667L216.362 374.681Z" fill="#52B0F5"/>
<path d="M109.625 338.311C107.119 339.336 104.686 339.991 101.949 340.217C70.0933 342.817 50.2571 358.463 37.9687 378.252C50.4287 402.455 66.8146 424.306 86.2804 442.973C71.6567 405.152 82.8613 359.441 109.625 338.311Z" fill="#2299F2"/>
<path d="M216.362 374.681C216.198 374.42 216.05 374.162 215.886 373.905L201.368 386.926C201.368 386.926 219.566 402.708 229.867 426.579C229.867 409.55 225.769 392.774 217.913 377.667L216.362 374.681Z" fill="#2299F2"/>
<path d="M473.031 378.252C460.743 358.463 440.907 342.817 409.051 340.217C396.903 339.223 390.747 329.784 357.281 316.556C347.145 312.513 335.718 308.907 324.33 306.283C323.987 305.94 323.675 305.558 323.348 305.196C319.683 301.129 317.009 295.882 315.098 290.19C315.098 290.19 324.166 327.983 294.638 374.681L293.083 377.667C285.231 392.774 281.13 409.55 281.13 426.579V509.667C364.934 500.934 436.15 449.881 473.031 378.252Z" fill="#52B0F5"/>
<path d="M294.638 374.681C294.802 374.42 294.95 374.162 295.114 373.905L309.632 386.926C309.632 386.926 291.434 402.708 281.133 426.579C281.133 409.55 285.231 392.774 293.087 377.667L294.638 374.681Z" fill="#2299F2"/>
<path d="M276.381 136.522C266.194 139.816 260.985 152.027 267.36 162.062C275.091 174.229 289.722 190.183 308.143 190.183C326.56 190.183 332.81 172.257 332.81 161.403C332.81 150.549 326.065 132.627 302.385 132.627C291.379 132.627 282.611 134.506 276.381 136.522Z" fill="#3C2B8E"/>
<path d="M234.623 136.522C244.81 139.816 250.015 152.027 243.64 162.062C235.913 174.229 221.278 190.183 202.861 190.183C184.444 190.183 178.194 172.257 178.194 161.403C178.194 150.549 184.935 132.627 208.615 132.627C219.621 132.627 228.389 134.506 234.623 136.522Z" fill="#3C2B8E"/>
<path d="M287.831 158.46C281.457 148.428 286.662 136.218 296.853 132.924C297.009 132.873 297.184 132.826 297.34 132.775C288.685 133.239 281.625 134.83 276.381 136.522C266.19 139.82 260.985 152.027 267.36 162.062C275.087 174.229 289.722 190.183 308.139 190.183C313.78 190.183 318.276 188.494 321.804 185.851C306.599 182.6 294.58 169.091 287.831 158.46Z" fill="#2C217C"/>
<path d="M198.666 157.804C198.666 150.003 202.147 138.553 212.896 132.725C211.508 132.662 210.085 132.627 208.615 132.627C184.935 132.627 178.194 150.549 178.194 161.403C178.194 172.257 184.444 190.183 202.861 190.183C208.561 190.183 213.898 188.65 218.779 186.179C203.874 183.493 198.666 167.707 198.666 157.804Z" fill="#2C217C"/>
<path d="M260.845 155.169C257.597 153.056 253.403 153.056 250.155 155.169C250.05 155.235 249.944 155.302 249.835 155.36C246.728 157.138 242.767 156.058 240.989 152.951C239.262 149.929 240.233 146.105 243.141 144.265C250.677 139.391 260.397 139.407 267.917 144.304C270.919 146.257 271.765 150.272 269.812 153.27C267.863 156.272 263.847 157.122 260.845 155.169Z" fill="#554CBF"/>
<path d="M195.902 290.19C195.902 290.19 173.461 295.488 161.033 313.796C161.033 345.714 171.368 376.01 177.917 392.002C180.331 397.901 187.824 399.679 192.619 395.476L216.362 374.681C191.184 318.369 195.902 290.19 195.902 290.19Z" fill="#ABE4FE"/>
<path d="M315.098 290.19C315.098 290.19 337.539 295.488 349.967 313.796C349.967 345.714 339.632 376.01 333.083 392.002C330.669 397.901 323.176 399.679 318.381 395.476L294.638 374.681C319.816 318.369 315.098 290.19 315.098 290.19Z" fill="#ABE4FE"/>
<path d="M204.997 345.574C192.814 308.666 195.902 290.19 195.902 290.19C195.902 290.19 173.461 295.484 161.033 313.792C161.033 330.451 163.851 346.665 167.473 360.638C171.828 344.392 190.568 336.81 204.997 345.574Z" fill="#82C6F9"/>
<path d="M306.003 345.574C318.186 308.666 315.098 290.19 315.098 290.19C315.098 290.19 337.539 295.484 349.967 313.792C349.967 330.451 347.149 346.665 343.527 360.638C339.172 344.392 320.432 336.81 306.003 345.574Z" fill="#82C6F9"/>
</g>
<defs>
<clipPath id="clip0">
<rect width="511" height="511" fill="white"/>
</clipPath>
</defs>
</svg>
