<svg width="512" height="512" viewBox="0 0 512 512" fill="none" xmlns="http://www.w3.org/2000/svg">
<path d="M245 11.0005C215.621 11.0005 187.453 16.1763 161.347 25.6606V486.344C187.453 495.825 215.621 501.004 245 501.004C380.312 501.004 490.004 391.313 490.004 256C490.004 120.692 380.312 11.0005 245 11.0005V11.0005Z" fill="#2299F2"/>
<path d="M472.406 25.3091H162.347C142.211 32.5239 123.297 42.3091 105.988 54.2583V457.743C123.297 469.692 142.211 479.477 162.351 486.696H472.406C494.183 486.696 512 468.875 512 447.098V64.9028C512 43.1255 494.183 25.3091 472.406 25.3091Z" fill="#554CBF"/>
<path d="M472.406 53.5552H106.988C42.3984 97.6724 0 171.883 0 256C0 340.122 42.3984 414.329 106.988 458.446H472.406C478.555 458.446 483.75 453.25 483.75 447.098V64.9028C483.75 58.7544 478.555 53.5552 472.406 53.5552Z" fill="#D9F5FF"/>
<path d="M93.7383 63.2817C36.6641 108.137 0 177.782 0 256C0 334.219 36.6641 403.864 93.7383 448.719V63.2817Z" fill="#ABE4FE"/>
<path d="M371.972 201.348H406.054V165.785C406.054 159.485 400.898 154.332 394.601 154.332H212.808C206.507 154.332 201.355 159.485 201.355 165.785V420.438C201.355 424.906 204.98 428.531 209.449 428.531H360.519V212.801C360.519 206.5 365.675 201.348 371.972 201.348Z" fill="#ABE4FE"/>
<path d="M269.656 420.438V165.785C269.656 159.485 274.808 154.332 281.109 154.332H212.808C206.507 154.332 201.355 159.485 201.355 165.785V420.438C201.355 424.906 204.98 428.531 209.449 428.531H277.75C273.281 428.531 269.656 424.906 269.656 420.438Z" fill="#82C6F9"/>
<path d="M265.039 246.199H237.554C235.121 246.199 233.152 244.227 233.152 241.797V205.461C233.152 203.031 235.121 201.059 237.554 201.059H265.039C267.468 201.059 269.441 203.031 269.441 205.461V241.797C269.441 244.227 267.468 246.199 265.039 246.199Z" fill="#52B0F5"/>
<path d="M269.441 220.461H233.152V205.465C233.152 203.031 235.121 201.059 237.554 201.059H265.039C267.468 201.059 269.441 203.031 269.441 205.465V220.461Z" fill="#2299F2"/>
<path d="M265.039 318.562H237.554C235.121 318.562 233.152 316.59 233.152 314.16V277.824C233.152 275.395 235.121 273.422 237.554 273.422H265.039C267.468 273.422 269.441 275.395 269.441 277.824V314.16C269.441 316.59 267.468 318.562 265.039 318.562Z" fill="#52B0F5"/>
<path d="M269.441 292.824H233.152V277.828C233.152 275.395 235.121 273.422 237.554 273.422H265.039C267.468 273.422 269.441 275.395 269.441 277.828V292.824Z" fill="#2299F2"/>
<path d="M265.039 390.926H237.554C235.121 390.926 233.152 388.953 233.152 386.523V350.191C233.152 347.758 235.121 345.785 237.554 345.785H265.039C267.468 345.785 269.441 347.758 269.441 350.191V386.523C269.441 388.953 267.468 390.926 265.039 390.926Z" fill="#52B0F5"/>
<path d="M269.441 365.187H233.152V350.191C233.152 347.758 235.121 345.785 237.554 345.785H265.039C267.468 345.785 269.441 347.758 269.441 350.191V365.187Z" fill="#2299F2"/>
<path d="M326.117 246.199H298.632C296.199 246.199 294.23 244.227 294.23 241.797V205.461C294.23 203.031 296.199 201.059 298.632 201.059H326.117C328.55 201.059 330.519 203.031 330.519 205.461V241.797C330.519 244.227 328.55 246.199 326.117 246.199Z" fill="#82C6F9"/>
<path d="M330.519 220.461H294.23V205.465C294.23 203.031 296.199 201.059 298.632 201.059H326.117C328.55 201.059 330.519 203.031 330.519 205.465V220.461Z" fill="#52B0F5"/>
<path d="M326.117 318.562H298.632C296.199 318.562 294.23 316.59 294.23 314.16V277.824C294.23 275.395 296.199 273.422 298.632 273.422H326.117C328.55 273.422 330.519 275.395 330.519 277.824V314.16C330.519 316.59 328.55 318.562 326.117 318.562Z" fill="#82C6F9"/>
<path d="M330.519 292.824H294.23V277.828C294.23 275.395 296.199 273.422 298.632 273.422H326.117C328.55 273.422 330.519 275.395 330.519 277.828V292.824Z" fill="#52B0F5"/>
<path d="M326.117 390.926H298.632C296.199 390.926 294.23 388.953 294.23 386.523V350.191C294.23 347.758 296.199 345.785 298.632 345.785H326.117C328.55 345.785 330.519 347.758 330.519 350.191V386.523C330.519 388.953 328.55 390.926 326.117 390.926Z" fill="#82C6F9"/>
<path d="M330.519 365.187H294.23V350.191C294.23 347.758 296.199 345.785 298.632 345.785H326.117C328.55 345.785 330.519 347.758 330.519 350.191V365.187Z" fill="#52B0F5"/>
<path d="M385.925 83.469H221.48C215.418 83.469 210.504 88.3831 210.504 94.4495V114.153C210.504 120.215 215.418 125.133 221.48 125.133H385.925C391.988 125.133 396.906 120.215 396.906 114.153V94.4495C396.906 88.387 391.988 83.469 385.925 83.469Z" fill="#554CBF"/>
<path d="M270.957 114.153V94.4495C270.957 88.387 275.871 83.469 281.937 83.469H221.484C215.418 83.469 210.504 88.3831 210.504 94.4495V114.153C210.504 120.215 215.418 125.133 221.484 125.133H281.937C275.871 125.129 270.957 120.215 270.957 114.153Z" fill="#483BA8"/>
<path d="M451.585 420.438V212.801C451.585 206.5 446.433 201.348 440.132 201.348H371.972C365.671 201.348 360.519 206.504 360.519 212.801V428.531H443.491C447.96 428.531 451.585 424.906 451.585 420.438Z" fill="#D93A59"/>
<path d="M451.585 420.438V212.801C451.585 206.5 446.433 201.348 440.132 201.348H371.972C365.671 201.348 360.519 206.504 360.519 212.801V428.531H443.491C447.96 428.531 451.585 424.906 451.585 420.438Z" fill="#F7577A"/>
<path d="M406.054 420.438V212.801C406.054 206.5 411.206 201.348 417.503 201.348H371.972C365.671 201.348 360.519 206.504 360.519 212.801V428.531H414.148C409.679 428.531 406.054 424.906 406.054 420.438Z" fill="#D93A59"/>
<path d="M393.573 383.164C390.804 383.164 388.163 382.625 385.738 381.66V428.531H401.409V381.66C398.984 382.625 396.343 383.164 393.573 383.164Z" fill="#98341A"/>
<path d="M385.73 424C382.054 424 378.773 421.41 378.038 417.668C375.695 405.769 363.37 397.277 363.245 397.191C359.671 394.761 358.722 389.89 361.136 386.308C363.55 382.722 368.402 381.758 371.995 384.164C372.722 384.648 389.82 396.269 393.437 414.636C394.273 418.886 391.503 423.015 387.253 423.851C386.742 423.953 386.23 424 385.73 424Z" fill="#AA3D27"/>
<path d="M243.25 162.18C238.917 162.18 235.402 158.664 235.402 154.332V125.129C235.402 120.797 238.917 117.285 243.25 117.285C247.585 117.285 251.097 120.797 251.097 125.129V154.332C251.097 158.664 247.585 162.18 243.25 162.18Z" fill="#52B0F5"/>
<path d="M364.159 162.18C359.823 162.18 356.312 158.664 356.312 154.332V125.129C356.312 120.797 359.823 117.285 364.159 117.285C368.491 117.285 372.007 120.797 372.007 125.129V154.332C372.007 158.664 368.491 162.18 364.159 162.18Z" fill="#82C6F9"/>
<path d="M85.8906 121.899H39.9492C36.6055 127 33.4453 132.235 30.4805 137.59H85.8906C90.2227 137.59 93.7383 134.078 93.7383 129.742C93.7383 125.41 90.2227 121.899 85.8906 121.899Z" fill="#FBC840"/>
<path d="M143.109 175.977H13.3828C11.6016 181.133 9.99219 186.368 8.55078 191.672H143.109C147.441 191.672 150.953 188.157 150.953 183.825C150.957 179.489 147.441 175.977 143.109 175.977Z" fill="#ABE4FE"/>
<path d="M143.109 208.125H4.69141C3.66406 213.301 2.80078 218.532 2.10547 223.821H143.109C147.441 223.821 150.953 220.305 150.953 215.973C150.957 211.637 147.441 208.125 143.109 208.125Z" fill="#ABE4FE"/>
<path d="M143.109 240.274H0.515625C0.1875 245.465 0.00390625 250.692 0 255.965H143.109C147.441 255.965 150.957 252.454 150.957 248.122C150.957 243.786 147.441 240.274 143.109 240.274Z" fill="#ABE4FE"/>
<path d="M143.109 272.422H0.5625C0.910156 277.7 1.41797 282.934 2.09766 288.118H143.109C147.441 288.118 150.957 284.602 150.957 280.27C150.957 275.934 147.441 272.422 143.109 272.422Z" fill="#ABE4FE"/>
<path d="M83.7539 183.824C83.7539 179.489 87.2656 175.977 91.6016 175.977H13.3828C11.6016 181.133 9.99219 186.367 8.55078 191.672H91.6016C87.2656 191.672 83.7539 188.156 83.7539 183.824Z" fill="#82C6F9"/>
<path d="M83.7539 215.973C83.7539 211.637 87.2656 208.125 91.6016 208.125H4.69141C3.66406 213.301 2.80078 218.531 2.10547 223.82H91.6016C87.2656 223.82 83.7539 220.305 83.7539 215.973Z" fill="#82C6F9"/>
<path d="M83.7539 248.121C83.7539 243.785 87.2656 240.273 91.6016 240.273H0.515625C0.1875 245.465 0 250.691 0 255.965H91.6016C87.2656 255.965 83.7539 252.453 83.7539 248.121Z" fill="#82C6F9"/>
<path d="M83.7539 280.27C83.7539 275.934 87.2656 272.422 91.6016 272.422H0.5625C0.910156 277.699 1.41797 282.934 2.09766 288.117H91.6016C87.2656 288.117 83.7539 284.602 83.7539 280.27Z" fill="#82C6F9"/>
<path d="M146.902 358.016C99.3906 328.965 51.2891 319.039 8.13672 318.797C23.375 376.418 59.0703 425.715 106.988 458.445H472.406C478.555 458.445 483.75 453.25 483.75 447.098V386.492C384.871 444.973 251.082 421.723 146.902 358.016Z" fill="#83D912"/>
<path d="M445.605 338.531C445.605 330.453 441.097 323.434 434.46 319.836C434.226 319.707 434.113 319.441 434.187 319.184C434.562 317.844 434.765 316.434 434.765 314.973C434.765 306.395 427.808 299.438 419.226 299.438C419.101 299.438 418.976 299.441 418.855 299.441C418.613 299.449 418.398 299.293 418.316 299.066C416.167 293.063 410.433 288.766 403.691 288.766C399.991 288.766 396.597 290.062 393.929 292.219C393.722 292.387 393.425 292.387 393.214 292.219C390.546 290.062 387.156 288.766 383.456 288.766C376.714 288.766 370.98 293.063 368.827 299.066C368.745 299.293 368.534 299.449 368.292 299.441C368.167 299.441 368.046 299.438 367.921 299.438C359.339 299.438 352.382 306.395 352.382 314.973C352.382 316.434 352.585 317.844 352.96 319.184C353.031 319.441 352.921 319.707 352.683 319.836C346.05 323.434 341.538 330.453 341.538 338.531C341.538 346.371 345.784 353.215 352.101 356.902C352.402 357.078 352.39 357.43 352.382 357.402C352.382 365.98 359.339 372.938 367.917 372.938C369.929 372.938 371.851 372.555 373.613 371.859C373.89 371.75 374.195 371.883 374.32 372.152C377.718 379.379 385.058 384.387 393.57 384.387C402.085 384.387 409.425 379.379 412.82 372.152C412.945 371.883 413.253 371.75 413.527 371.859C423.652 375.852 434.761 368.406 434.761 357.402V357.398C434.761 357.191 434.866 357.004 435.042 356.902C441.359 353.215 445.605 346.371 445.605 338.531Z" fill="#83D912"/>
<path d="M402.988 362.816C402.863 362.551 402.558 362.414 402.281 362.523C400.519 363.219 398.597 363.602 396.585 363.602C388.003 363.602 381.05 356.648 381.05 348.066C381.054 348.094 381.07 347.742 380.769 347.57C374.452 343.883 370.206 337.039 370.206 329.199C370.206 321.121 374.718 314.098 381.351 310.5C381.585 310.375 381.698 310.105 381.624 309.848C381.249 308.512 381.05 307.098 381.05 305.641C381.05 298.863 385.394 293.117 391.445 290.992C389.109 289.586 386.382 288.766 383.456 288.766C376.714 288.766 370.976 293.062 368.827 299.062C368.745 299.293 368.531 299.449 368.288 299.441C368.167 299.438 368.042 299.438 367.917 299.438C359.335 299.438 352.382 306.391 352.382 314.973C352.382 316.43 352.581 317.844 352.956 319.18C353.031 319.438 352.917 319.707 352.683 319.836C346.05 323.434 341.538 330.453 341.538 338.531C341.538 346.371 345.784 353.215 352.101 356.902C352.402 357.078 352.39 357.43 352.382 357.398C352.382 365.98 359.339 372.938 367.917 372.938C369.929 372.938 371.851 372.551 373.613 371.855C373.89 371.746 374.195 371.883 374.32 372.148C377.718 379.375 385.058 384.383 393.57 384.383C401.866 384.383 409.034 379.625 412.538 372.699C408.366 370.551 404.991 367.074 402.988 362.816Z" fill="#5BBF02"/>
<path d="M393.574 369.625C393.574 364.722 390.839 360.461 386.812 358.281C386.667 358.203 386.601 358.039 386.644 357.883C386.87 357.07 386.992 356.215 386.992 355.328C386.992 350.121 382.773 345.902 377.566 345.902C377.488 345.902 377.413 345.902 377.339 345.902C377.191 345.906 377.062 345.812 377.011 345.676C375.706 342.031 372.226 339.426 368.136 339.426C365.89 339.426 363.831 340.211 362.214 341.519C362.085 341.621 361.906 341.621 361.781 341.519C360.16 340.211 358.101 339.426 355.859 339.426C351.765 339.426 348.285 342.031 346.98 345.676C346.933 345.812 346.8 345.906 346.656 345.902C346.578 345.902 346.503 345.902 346.429 345.902C341.222 345.902 336.999 350.121 336.999 355.328C336.999 356.215 337.12 357.07 337.351 357.883C337.394 358.039 337.324 358.203 337.183 358.281C333.156 360.461 330.421 364.722 330.421 369.625C330.421 374.383 332.995 378.535 336.828 380.773C337.011 380.879 337.003 381.094 336.999 381.074C336.999 386.281 341.218 390.504 346.429 390.504C347.648 390.504 348.812 390.273 349.886 389.847C350.05 389.781 350.238 389.863 350.312 390.027C352.374 394.414 356.828 397.453 361.995 397.453C367.163 397.453 371.617 394.414 373.679 390.027C373.753 389.863 373.941 389.785 374.105 389.847C380.249 392.273 386.992 387.754 386.992 381.074C386.992 380.949 387.054 380.836 387.16 380.773C390.995 378.535 393.574 374.383 393.574 369.625Z" fill="#ABF222"/>
<path d="M367.011 384.5C366.933 384.34 366.745 384.258 366.581 384.324C365.511 384.746 364.347 384.976 363.124 384.976C357.917 384.976 353.695 380.758 353.695 375.551C353.699 375.566 353.71 375.351 353.527 375.246C349.695 373.011 347.117 368.855 347.117 364.097C347.117 359.199 349.855 354.937 353.882 352.754C354.023 352.676 354.093 352.511 354.046 352.359C353.82 351.547 353.699 350.687 353.699 349.804C353.699 345.465 356.632 341.82 360.62 340.722C359.222 339.902 357.597 339.426 355.859 339.426C351.769 339.426 348.288 342.031 346.984 345.676C346.933 345.812 346.804 345.906 346.656 345.902C346.581 345.902 346.507 345.902 346.429 345.902C341.222 345.902 337.003 350.121 337.003 355.328C337.003 356.215 337.124 357.07 337.351 357.883C337.394 358.039 337.328 358.203 337.183 358.281C333.16 360.461 330.421 364.722 330.421 369.625C330.421 374.383 332.999 378.535 336.831 380.773C337.015 380.879 337.007 381.094 337.003 381.074C337.003 386.281 341.222 390.504 346.429 390.504C347.652 390.504 348.816 390.273 349.886 389.847C350.054 389.781 350.242 389.863 350.316 390.027C352.378 394.414 356.831 397.453 361.999 397.453C366.874 397.453 371.117 394.742 373.308 390.75C370.542 389.476 368.304 387.254 367.011 384.5Z" fill="#83D912"/>
<path d="M227.578 458.445C234.641 450.117 235.887 439.238 219.664 426.316C180.332 394.984 269.441 409.535 269.441 409.535V409.531C226.742 399.059 184.855 381.227 146.902 358.016C99.3906 328.965 51.2891 319.039 8.13672 318.797C23.375 376.418 59.0703 425.715 106.988 458.445H227.578Z" fill="#5BBF02"/>
</svg>
