<svg width="511" height="511" viewBox="0 0 511 511" fill="none" xmlns="http://www.w3.org/2000/svg">
<g clip-path="url(#clip0)">
<path d="M255.5 21.957C120.456 21.957 10.9784 131.434 10.9784 266.479C10.9784 309.835 22.2766 350.545 42.0699 385.855L368.069 483.589C446.466 442.86 500.022 360.927 500.022 266.479C500.022 131.434 390.548 21.957 255.5 21.957Z" fill="#FBC840"/>
<path d="M122.53 471.702C160.806 496.556 206.463 511 255.5 511C304.537 511 350.198 496.556 388.474 471.702H122.53Z" fill="#3C2B8E"/>
<path d="M263.321 23.7815L263.25 23.4345C261.379 14.0544 266.018 3.18509 278.514 0.549618C303.582 -4.73302 310.693 29.263 291.777 46.2844C289.89 47.9803 287.243 48.5378 284.833 47.7464C273.979 44.183 265.695 35.0368 263.321 23.7815ZM281.434 14.4014C280.182 14.6665 276.182 15.8946 277.13 20.6626L277.165 20.8381C278.186 25.6646 281.141 29.8127 285.227 32.3975C287.917 28.3936 288.95 23.4111 287.94 18.608C287.886 18.5262 287.231 13.1773 281.434 14.4014Z" fill="#BA4D3C"/>
<path d="M382.248 80.6431L308.311 26.4249C302.911 22.4639 295.434 23.037 290.697 27.77L228.974 89.493C228.974 89.493 240.292 162.117 189.064 213.344L220.541 244.822C220.541 244.822 271.461 215.504 301.087 264.264C312.56 283.149 320.147 295.555 325.137 303.664C330.42 312.256 341.2 315.672 350.471 311.699L358.178 308.397C279.176 182.483 382.248 80.6431 382.248 80.6431Z" fill="#98341A"/>
<path d="M308.311 26.4249C302.911 22.4639 295.434 23.037 290.697 27.77L228.974 89.493C228.974 89.493 240.292 162.117 189.064 213.344L220.541 244.822C220.541 244.822 251.375 227.075 279.017 242.179C278.155 237.157 260.779 129.002 352.276 58.6626L308.311 26.4249Z" fill="#872815"/>
<path d="M382.248 80.6431L307.079 25.1891C301.679 21.2281 294.198 21.8012 289.461 26.5341L281.211 34.7875C278.786 37.2124 279.087 41.228 281.847 43.2631L363.753 103.633C373.889 88.9082 382.248 80.6431 382.248 80.6431Z" fill="#AA3D27"/>
<path d="M307.079 25.1891C301.679 21.232 294.198 21.8012 289.461 26.538L281.211 34.7875C278.786 37.2125 279.087 41.228 281.847 43.2631L329.929 78.7055C336.568 71.7582 344.003 65.0174 352.365 58.5964L307.079 25.1891Z" fill="#98341A"/>
<path d="M374.755 272.635C340.088 189.536 382.56 129.711 407.426 101.095C410.197 97.9023 409.905 93.0758 406.915 90.0856L397.075 80.2455C392.93 76.1012 386.162 76.2845 382.252 80.647C382.252 80.647 279.176 182.487 358.178 308.397C373.164 303.691 380.802 287.134 374.755 272.635Z" fill="#BA4D3C"/>
<path d="M479.936 413.34C480.883 407.422 476.887 401.831 471 400.693C388.595 384.72 358.178 308.397 358.178 308.397L350.47 311.703C341.2 315.675 330.42 312.256 325.137 303.668C320.147 295.555 312.56 283.153 301.087 264.264C271.461 215.504 220.541 244.822 220.541 244.822C390.271 449.121 458.579 452.412 458.579 452.412C473.464 437.527 478.4 422.927 479.936 413.34Z" fill="#BA4D3C"/>
<path d="M279.055 242.381C279.055 242.381 279.04 242.299 279.02 242.179C251.379 227.075 220.541 244.822 220.541 244.822C232.307 258.986 243.586 272.178 254.389 284.479L257.605 283.921C257.605 283.921 247.364 259.391 279.055 242.381Z" fill="#98341A"/>
<path d="M228.978 89.4929C228.978 89.4929 182.892 100.191 142.155 140.927C142.155 140.927 143.8 168.081 189.064 213.344C240.291 162.116 228.978 89.4929 228.978 89.4929Z" fill="#7C2112"/>
<path d="M358.178 308.397C358.178 308.397 388.595 384.72 471 400.693C417.64 356.432 391.308 314.42 384.088 296.946C382.572 293.282 379.718 290.393 376.178 288.798C374.174 297.718 367.644 305.426 358.178 308.397Z" fill="#AA3D27"/>
<path d="M403.071 329.157C393.188 315.336 387.039 304.093 384.088 296.946C382.572 293.282 379.718 290.393 376.178 288.798C374.17 297.722 367.644 305.426 358.178 308.397C358.178 308.397 365.429 326.584 382.435 347.055C380.743 335.231 391.808 325.859 403.071 329.157Z" fill="#98341A"/>
<path d="M458.579 452.412C458.579 452.412 392.275 447.118 222.541 242.822L191.064 211.344C145.801 166.081 142.155 140.927 142.155 140.927C127.645 140.927 118.093 149.485 112.12 158.218C105.629 167.711 105.5 180.222 111.902 189.773C140.226 232.05 176.615 263.96 194.592 278.385C202.241 284.525 209.114 291.551 215.161 299.274C293.866 399.831 372.658 448.003 414.65 468.42C431.188 476.459 451.09 469.203 458.579 452.412Z" fill="#ABE4FE"/>
<path d="M257.605 283.921C246.444 271.204 234.763 257.531 222.545 242.822L191.067 211.344C145.804 166.081 142.155 140.927 142.155 140.927C127.645 140.927 118.093 149.485 112.12 158.218C105.629 167.711 105.5 180.222 111.902 189.773C140.229 232.05 176.615 263.96 194.592 278.385C208.206 289.313 214.463 298.596 223.461 309.679C225.063 292.904 240.716 280.837 257.605 283.921Z" fill="#82C6F9"/>
<path d="M392.045 100.475C387.593 96.0232 380.373 96.0232 375.917 100.475C371.465 104.928 371.465 112.148 375.917 116.604C380.373 121.056 387.593 121.056 392.045 116.604C396.498 112.148 396.498 104.928 392.045 100.475Z" fill="#98341A"/>
<path d="M375.757 126.744C371.305 122.288 364.084 122.288 359.628 126.744C355.176 131.197 355.176 138.417 359.628 142.869C364.084 147.325 371.305 147.325 375.757 142.869C380.209 138.417 380.209 131.197 375.757 126.744Z" fill="#98341A"/>
<path d="M362.95 157.009C358.498 152.553 351.277 152.553 346.825 157.009C342.369 161.462 342.369 168.682 346.825 173.134C351.277 177.586 358.498 177.586 362.95 173.134C367.406 168.682 367.406 161.462 362.95 157.009Z" fill="#98341A"/>
<path d="M355.445 187.871C350.989 183.415 343.769 183.415 339.316 187.871C334.864 192.323 334.864 199.543 339.316 203.996C343.769 208.452 350.989 208.452 355.445 203.996C359.897 199.543 359.897 192.323 355.445 187.871Z" fill="#98341A"/>
<path d="M355.445 222.35C350.989 217.898 343.769 217.898 339.316 222.35C334.864 226.802 334.864 234.023 339.316 238.475C343.769 242.931 350.989 242.931 355.445 238.475C359.897 234.023 359.897 226.802 355.445 222.35Z" fill="#98341A"/>
<path d="M362.56 253.711C358.108 249.259 350.888 249.259 346.431 253.711C341.979 258.163 341.979 265.383 346.431 269.839C350.888 274.292 358.108 274.292 362.56 269.839C367.012 265.383 367.012 258.163 362.56 253.711Z" fill="#98341A"/>
<path d="M381.784 106.545C384.123 103.415 388.56 102.772 391.691 105.115L399.024 110.588C402.151 112.924 402.802 117.364 400.459 120.499C398.119 123.629 393.687 124.272 390.552 121.933L383.219 116.456C380.077 114.105 379.457 109.668 381.784 106.545Z" fill="#D9F5FF"/>
<path d="M366.295 133.976C368.045 130.483 372.299 129.072 375.796 130.826L382.899 134.393C386.392 136.148 387.804 140.397 386.049 143.89C384.295 147.387 380.045 148.799 376.548 147.044L369.445 143.477C365.936 141.715 364.548 137.458 366.295 133.976Z" fill="#D9F5FF"/>
<path d="M353.78 164.588C355.001 160.873 359.001 158.853 362.712 160.077L370.1 162.506C373.811 163.727 375.831 167.73 374.611 171.442C373.387 175.157 369.387 177.177 365.675 175.953L358.287 173.524C354.599 172.311 352.548 168.323 353.78 164.588Z" fill="#D9F5FF"/>
<path d="M346.63 195.563C347.359 191.723 351.063 189.2 354.907 189.929L363.531 191.571C367.367 192.3 369.889 196.003 369.16 199.843C368.431 203.684 364.728 206.206 360.888 205.477L352.26 203.839C348.416 203.107 345.901 199.395 346.63 195.563Z" fill="#D9F5FF"/>
<path d="M345.816 230.377C345.465 226.483 348.338 223.044 352.233 222.697L362.186 221.804C366.081 221.457 369.519 224.331 369.866 228.221C370.217 232.116 367.344 235.555 363.449 235.902L353.496 236.794C349.609 237.141 346.162 234.276 345.816 230.377Z" fill="#D9F5FF"/>
<path d="M352.884 262.026C352.252 258.167 354.868 254.529 358.728 253.898L368.622 252.28C372.478 251.648 376.12 254.264 376.747 258.124C377.379 261.98 374.763 265.621 370.907 266.253L361.012 267.87C357.161 268.502 353.515 265.89 352.884 262.026Z" fill="#D9F5FF"/>
<path d="M40.1986 256.37L39.9062 256.175C31.9491 250.865 27.5437 239.898 34.5144 229.2C48.5065 207.738 77.5747 226.748 76.2336 252.159C76.101 254.689 74.6234 256.958 72.3583 258.101C62.1634 263.259 49.8399 262.65 40.1986 256.37ZM46.3779 236.931C45.68 237.999 43.719 241.699 47.7619 244.397L47.9101 244.494C52.0426 247.188 57.0679 248.034 61.7853 246.974C60.8574 242.237 58.0621 237.984 53.9529 235.302C53.8555 235.282 49.6099 231.964 46.3779 236.931Z" fill="#BA4D3C"/>
<path d="M164.506 212.483L73.8827 226.424C67.2667 227.442 62.3817 233.134 62.3817 239.832V327.118C62.3817 327.118 121.734 370.47 121.734 442.919H166.253C166.253 442.919 181.528 386.182 236.954 399.71C258.424 404.95 272.557 408.357 281.82 410.564C291.632 412.903 301.668 407.698 305.414 398.334L308.529 390.544C163.633 357.379 164.506 212.483 164.506 212.483Z" fill="#98341A"/>
<path d="M126.233 243.294C126.288 234.619 123.754 226.385 119.267 219.442L73.8826 226.424C67.2628 227.442 62.3778 233.134 62.3778 239.832V327.118C62.3778 327.118 121.734 370.471 121.734 442.919H166.253C166.253 442.919 171.531 423.332 187.126 409.917C134.327 350.186 125.984 281.882 126.233 243.294Z" fill="#872815"/>
<path d="M185.676 293.652C185.126 293.902 184.588 294.194 184.077 294.545L172.533 302.518C167.793 305.792 166.592 312.35 169.867 317.087L189.859 346.038C193.134 350.779 199.687 351.979 204.428 348.705L215.972 340.736C216.475 340.385 216.931 339.995 217.352 339.582C203.364 325.063 193.141 309.165 185.676 293.652Z" fill="#FBC840"/>
<path d="M203.083 322.666C196.046 313.13 190.327 303.313 185.676 293.652C185.126 293.902 184.588 294.194 184.077 294.545L172.533 302.518C167.793 305.792 166.592 312.35 169.867 317.087L182.444 335.301C181.582 324.124 193.734 316.923 203.083 322.666Z" fill="#F9B50B"/>
<path d="M164.506 212.483L72.1361 226.424C65.5201 227.442 60.6351 233.134 60.6351 239.832V251.5C60.6351 254.931 63.6878 257.555 67.0796 257.044L167.684 241.816C164.436 224.237 164.506 212.483 164.506 212.483Z" fill="#AA3D27"/>
<path d="M126.233 243.294C126.292 234.569 123.73 226.292 119.189 219.321L72.1361 226.424C65.5201 227.442 60.6351 233.134 60.6351 239.832V251.5C60.6351 254.931 63.6878 257.555 67.0796 257.04L126.249 248.089C126.229 246.444 126.226 244.845 126.233 243.294Z" fill="#98341A"/>
<path d="M294.962 353.539C211.691 319.293 199.422 246.958 196.767 209.138C196.471 204.923 192.849 201.715 188.623 201.715H174.701C168.845 201.715 164.19 206.631 164.506 212.483C164.506 212.483 163.633 357.379 308.529 390.545C315.796 376.623 309.488 359.516 294.962 353.539Z" fill="#BA4D3C"/>
<path d="M468.829 378.658C465.316 373.804 458.536 372.677 453.57 376.03C384.002 423.008 308.529 390.548 308.529 390.548L305.414 398.334C301.667 407.699 291.629 412.903 281.82 410.568C272.556 408.357 258.424 404.95 236.954 399.71C181.527 386.182 166.253 442.919 166.253 442.919C430.731 467.359 481.355 421.387 481.355 421.387C481.355 400.338 474.525 386.521 468.829 378.658Z" fill="#BA4D3C"/>
<path d="M62.3778 327.118C62.3778 327.118 48.4753 349.434 41.3993 384.654C52.7872 405.239 67.0522 424.007 83.6565 440.416C94.1555 441.928 106.748 442.919 121.734 442.919C121.734 370.471 62.3778 327.118 62.3778 327.118Z" fill="#7C2112"/>
<path d="M308.529 390.548C308.529 390.548 384.002 423.008 453.57 376.03C384.54 382.467 336.213 371.379 318.755 364.131C315.09 362.611 311.032 362.584 307.398 363.96C312.287 371.687 313.122 381.753 308.529 390.548Z" fill="#AA3D27"/>
<path d="M357.005 401.055C347.597 394.166 348.225 380.057 358.12 373.995C339.738 371.145 326.334 367.278 318.755 364.131C315.09 362.611 311.032 362.584 307.398 363.96C312.291 371.687 313.122 381.753 308.529 390.548C308.529 390.548 328.338 399.059 357.005 401.055Z" fill="#98341A"/>
<path d="M461.616 463.769C478.992 457.761 487.936 438.556 481.355 421.387C481.355 421.387 430.731 464.529 166.253 440.088H121.734C105.403 440.088 91.9176 439.094 80.8767 437.621C100.588 457.726 123.73 474.455 149.372 486.829C158.194 486.33 165.754 485.644 171.633 485.001C181.383 483.932 191.212 484.038 200.947 485.227C327.706 500.677 417.48 479.024 461.616 463.769Z" fill="#D9F5FF"/>
<path d="M196.857 230.978C196.857 237.274 191.754 242.381 185.453 242.381C179.157 242.381 174.05 237.274 174.05 230.978C174.05 224.682 179.157 219.574 185.453 219.574C191.754 219.574 196.857 224.682 196.857 230.978Z" fill="#98341A"/>
<path d="M203.913 261.068C203.913 267.368 198.806 272.471 192.51 272.471C186.21 272.471 181.103 267.368 181.103 261.068C181.103 254.771 186.21 249.664 192.51 249.664C198.806 249.664 203.913 254.771 203.913 261.068Z" fill="#98341A"/>
<path d="M216.26 291.524C216.26 297.824 211.153 302.927 204.857 302.927C198.557 302.927 193.453 297.824 193.453 291.524C193.453 285.227 198.557 280.12 204.857 280.12C211.153 280.12 216.26 285.227 216.26 291.524Z" fill="#98341A"/>
<path d="M232.775 318.658C232.775 324.954 227.668 330.061 221.371 330.061C215.071 330.061 209.968 324.954 209.968 318.658C209.968 312.358 215.071 307.254 221.371 307.254C227.668 307.254 232.775 312.358 232.775 318.658Z" fill="#98341A"/>
<path d="M257.153 343.036C257.153 349.332 252.05 354.44 245.75 354.44C239.453 354.44 234.346 349.332 234.346 343.036C234.346 336.736 239.453 331.633 245.75 331.633C252.05 331.633 257.153 336.736 257.153 343.036Z" fill="#98341A"/>
<path d="M284.365 360.178C284.365 366.478 279.258 371.586 272.962 371.586C266.662 371.586 261.558 366.478 261.558 360.178C261.558 353.882 266.662 348.775 272.962 348.775C279.258 348.775 284.365 353.882 284.365 360.178Z" fill="#98341A"/>
<path d="M182.494 231.126C181.933 227.259 184.615 223.668 188.483 223.106L197.543 221.793C201.399 221.235 205.001 223.913 205.559 227.785C206.12 231.652 203.438 235.243 199.57 235.804L190.514 237.114C186.627 237.68 183.052 234.978 182.494 231.126Z" fill="#D9F5FF"/>
<path d="M190.935 261.477C189.703 257.765 191.711 253.758 195.422 252.53L202.97 250.027C206.682 248.795 210.685 250.806 211.913 254.514C213.145 258.225 211.138 262.229 207.426 263.461L199.882 265.964C196.155 267.2 192.159 265.169 190.935 261.477Z" fill="#D9F5FF"/>
<path d="M203.73 291.968C201.968 288.479 203.368 284.221 206.861 282.463L213.8 278.958C217.286 277.196 221.547 278.599 223.309 282.089C225.071 285.578 223.668 289.835 220.178 291.594L213.235 295.098C209.769 296.849 205.5 295.48 203.73 291.968Z" fill="#D9F5FF"/>
<path d="M220.58 318.927C218.381 315.695 219.216 311.293 222.447 309.094L229.703 304.155C232.935 301.956 237.336 302.79 239.539 306.022C241.738 309.254 240.9 313.656 237.668 315.859L230.412 320.794C227.173 323.001 222.771 322.151 220.58 318.927Z" fill="#D9F5FF"/>
<path d="M244.619 344.12C241.617 341.613 241.219 337.149 243.726 334.151L250.132 326.483C252.638 323.484 257.102 323.083 260.104 325.59C263.102 328.097 263.504 332.56 260.993 335.559L254.588 343.227C252.085 346.225 247.621 346.631 244.619 344.12Z" fill="#D9F5FF"/>
<path d="M271.995 361.504C268.822 359.223 268.096 354.798 270.381 351.625L276.233 343.484C278.514 340.311 282.939 339.586 286.112 341.87C289.285 344.151 290.007 348.572 287.726 351.749L281.874 359.89C279.597 363.055 275.172 363.788 271.995 361.504Z" fill="#D9F5FF"/>
<path d="M121.734 440.088C105.403 440.088 91.9176 439.094 80.8767 437.621C100.588 457.726 123.73 474.455 149.372 486.829C158.194 486.33 165.754 485.644 171.637 485.001C173.333 484.813 175.032 484.677 176.732 484.56H176.728C150.463 463.776 166.253 440.088 166.253 440.088H121.734Z" fill="#ABE4FE"/>
</g>
<defs>
<clipPath id="clip0">
<rect width="511" height="511" fill="white"/>
</clipPath>
</defs>
</svg>
