<svg width="512" height="512" viewBox="0 0 512 512" fill="none" xmlns="http://www.w3.org/2000/svg">
<g clip-path="url(#clip0)">
<path d="M245 11.0002C152.813 11.0002 72.5313 61.926 30.7149 137.172C27.836 142.379 -36.207 262.188 70.1368 427.578C114.594 472.883 176.508 501 245 501C380.313 501 490.004 391.313 490.004 256C490.004 120.688 380.313 11.0002 245 11.0002Z" fill="#3C2B8E"/>
<path d="M501.406 228.414H492.277C492.937 237.188 492.73 246.414 491.8 256.004H501.402C507.23 256.004 512 251.234 512 245.406V239.008C512 233.18 507.23 228.414 501.406 228.414Z" fill="#ABE4FE"/>
<path d="M252.754 244.758C249.191 244.758 245.926 242.387 244.945 238.777C242.992 231.574 236.414 226.547 228.949 226.547H219.265C214.793 226.547 211.168 222.922 211.168 218.449C211.168 213.977 214.793 210.352 219.265 210.352H228.949C243.707 210.352 256.711 220.301 260.574 234.539C261.742 238.855 259.195 243.301 254.879 244.473C254.168 244.668 253.457 244.758 252.754 244.758Z" fill="#D9F5FF"/>
<path d="M303.558 197.867H219.265C214.793 197.867 211.168 194.242 211.168 189.77C211.168 185.301 214.793 181.676 219.265 181.676H303.558C308.031 181.676 311.652 185.301 311.652 189.77C311.652 194.242 308.031 197.867 303.558 197.867Z" fill="#D9F5FF"/>
<path d="M256.199 334.418C253.562 334.418 250.98 333.133 249.426 330.766C246.969 327.027 248.012 322.008 251.75 319.555L264.586 311.129C268.32 308.676 273.344 309.715 275.797 313.453C278.25 317.191 277.211 322.211 273.469 324.664L260.633 333.09C259.266 333.988 257.723 334.418 256.199 334.418Z" fill="#ABE4FE"/>
<path d="M264.851 343.738C259.758 335.594 254.594 326.48 250.035 316.844C247.804 312.129 242.008 309.562 236.554 312.465C231.957 314.91 230.219 320.644 232.461 325.344C236.57 333.953 241.722 343.984 247.695 354.125C250.574 359.019 256.965 360.523 261.742 357.457C266.355 354.5 267.758 348.383 264.851 343.738Z" fill="#FCDB75"/>
<path d="M449.594 211.434C447.195 211.434 444.824 210.375 443.226 208.344L390.957 141.879C388.191 138.363 388.801 133.273 392.316 130.512C395.832 127.746 400.918 128.355 403.683 131.871L455.953 198.332C458.719 201.848 458.109 206.938 454.594 209.703C453.109 210.867 451.344 211.434 449.594 211.434Z" fill="#D9F5FF"/>
<path d="M455.953 198.332L425.723 159.891C427.48 167.051 420.512 173.266 413.586 170.653L443.227 208.344C445.98 211.848 451.066 212.473 454.594 209.703C458.109 206.938 458.719 201.848 455.953 198.332Z" fill="#ABE4FE"/>
<path d="M185.773 244.758C185.07 244.758 184.355 244.668 183.648 244.473C179.332 243.301 176.781 238.856 177.953 234.539C181.82 220.297 194.824 210.352 209.578 210.352H219.266C223.738 210.352 227.359 213.977 227.359 218.449C227.359 222.922 223.738 226.547 219.266 226.547H209.578C202.113 226.547 195.535 231.578 193.582 238.781C192.601 242.387 189.336 244.758 185.773 244.758Z" fill="#ABE4FE"/>
<path d="M219.266 197.867H134.969C130.496 197.867 126.871 194.242 126.871 189.77C126.871 185.301 130.496 181.676 134.969 181.676H219.266C223.734 181.676 227.359 185.301 227.359 189.77C227.359 194.242 223.734 197.867 219.266 197.867Z" fill="#ABE4FE"/>
<path d="M182.328 334.418C180.805 334.418 179.262 333.988 177.891 333.09L165.055 324.664C161.32 322.211 160.277 317.192 162.73 313.453C165.187 309.715 170.203 308.676 173.941 311.129L186.777 319.555C190.516 322.008 191.558 327.027 189.101 330.766C187.547 333.133 184.965 334.418 182.328 334.418Z" fill="#ABE4FE"/>
<path d="M173.676 343.738C178.769 335.594 183.933 326.48 188.492 316.844C190.723 312.129 196.519 309.562 201.973 312.465C206.57 314.91 208.308 320.644 206.066 325.344C201.953 333.953 196.805 343.984 190.832 354.125C187.949 359.019 181.562 360.523 176.781 357.457C172.172 354.5 170.773 348.383 173.676 343.738Z" fill="#FCDB75"/>
<path d="M47.5703 141.879C50.3359 138.363 49.7266 133.274 46.2148 130.512C42.6992 127.75 37.6094 128.356 34.8438 131.871L30.8164 136.992C21.3516 153.988 13.8555 172.227 8.625 191.402L47.5703 141.879Z" fill="#ABE4FE"/>
<path d="M258.734 221.039C258.734 221.039 278.719 172.563 391.957 184.773C499.086 196.328 514.82 259.527 498.535 337.981C482.254 416.434 406.762 446.777 349.031 409.031C291.301 371.285 228.391 275.625 258.734 221.039Z" fill="#52B0F5"/>
<path d="M441.019 416.285C439.094 414.262 437.094 412.211 435.012 410.129C300.488 275.602 341.117 191.676 341.117 191.676L340.32 183.387C272.301 188.172 258.734 221.039 258.734 221.039C228.391 275.625 291.301 371.285 349.031 409.031C378.48 428.285 412.547 429.812 441.019 416.285Z" fill="#2299F2"/>
<path d="M46.5703 184.773C32.2734 186.316 19.6211 188.785 8.44141 192.078C2.94922 212.461 0 233.887 0 256C0 319.594 24.2305 377.523 63.9609 421.07C72.6836 418.398 81.2695 414.41 89.4961 409.031C147.227 371.285 210.137 275.625 179.793 221.039C179.793 221.039 159.809 172.563 46.5703 184.773Z" fill="#52B0F5"/>
<path d="M89.4961 409.031C96.7812 404.27 104.145 398.582 111.398 392.176C109.934 390.457 109.363 388.457 109.184 386.758C108.883 383.918 107.727 381.23 105.801 379.121C18.7422 283.656 27.7539 218.734 33.0781 199.941C33.9844 196.746 33.6094 193.32 32.0898 190.367C31.4844 189.187 31.1094 188.039 30.8984 186.941C22.8281 188.324 15.3516 190.043 8.44141 192.078C2.94922 212.461 0 233.887 0 256C0 319.594 24.2305 377.523 63.9609 421.07C72.6836 418.398 81.2695 414.41 89.4961 409.031Z" fill="#2299F2"/>
<path d="M45.7031 176.727C33.1289 178.082 21.6016 180.145 11.0938 182.906C9.21094 188.93 7.5625 195.051 6.14453 201.266C30.0586 193.274 57.3281 190.914 80.9531 190.914C112.441 190.914 157.465 197.582 172.719 224.977C201.516 276.777 136.238 368.797 85.0664 402.258C76.3906 407.93 67.2773 411.918 58.043 414.32C61.9102 418.887 65.9453 423.309 70.1367 427.578C78.2539 424.742 86.2344 420.84 93.9297 415.809C152.422 377.559 220.328 278.043 187.031 217.406C184.238 211.426 158.559 164.555 45.7031 176.727Z" fill="#D9F5FF"/>
<path d="M109.184 386.758C109.07 385.719 108.844 384.703 108.512 383.727C100.621 390.98 92.6875 397.273 85.0664 402.254C76.3906 407.93 67.2773 411.918 58.0391 414.32C61.9102 418.887 65.9453 423.309 70.1328 427.578C78.25 424.742 86.2344 420.836 93.9258 415.809C102.297 410.336 110.855 403.605 119.285 395.922C111.512 394.902 109.547 390.203 109.184 386.758Z" fill="#ABE4FE"/>
<path d="M32.0898 190.367C28.8438 184.062 32.2305 178.527 32.2383 178.512C24.7773 179.695 17.7305 181.164 11.0938 182.906C9.21094 188.93 7.5625 195.051 6.14453 201.266C14.9023 198.34 24.1094 196.172 33.4258 194.598C33.2188 193.133 32.7773 191.703 32.0898 190.367Z" fill="#ABE4FE"/>
<path d="M397.328 147.668C394.133 147.668 390.965 146.254 388.836 143.547C380.25 132.629 368.82 124.332 355.785 119.547L301.539 99.6328C295.945 97.5782 293.07 91.375 295.125 85.7774C297.179 80.1836 303.383 77.3125 308.98 79.3672L363.222 99.2774C380.019 105.445 394.742 116.137 405.804 130.203C409.488 134.887 408.679 141.672 403.992 145.359C402.015 146.914 399.664 147.668 397.328 147.668Z" fill="#6464D8"/>
<path d="M41.1992 147.668C38.8672 147.668 36.5117 146.914 34.5352 145.36C29.8516 141.672 29.0391 134.887 32.7227 130.199C43.7852 116.137 58.5078 105.442 75.3047 99.2775L129.547 79.3634C135.145 77.3126 141.348 80.1798 143.402 85.7775C145.457 91.3751 142.586 97.5783 136.988 99.6329L82.7461 119.543C69.707 124.328 58.2773 132.629 49.6953 143.547C47.5625 146.254 44.3984 147.668 41.1992 147.668Z" fill="#6464D8"/>
<path d="M344.601 415.809C286.238 377.648 218.164 278.109 251.496 217.406C254.293 211.422 279.98 164.551 392.824 176.727C492.379 187.461 526.629 242.473 506.465 339.625C488.933 424.09 406.851 456.512 344.601 415.809ZM265.812 224.973C258.648 237.856 250.707 267.012 277.98 317.504C296.211 351.258 325.133 383.734 353.461 402.258C406.441 436.902 475.496 409.16 490.609 336.336C508.945 248 480.449 202.461 391.09 192.824C350.773 188.477 285.324 189.918 265.812 224.973Z" fill="#D9F5FF"/>
<path d="M443.715 424C436.312 421.094 435.176 415.879 435.32 412.508C435.355 411.695 435.242 410.895 435.012 410.129C409.5 421.234 379.535 419.305 353.461 402.254C325.133 383.734 296.211 351.258 277.98 317.504C250.707 267.008 258.648 237.855 265.812 224.973C278.305 202.531 309.617 193.863 341.117 191.676C340.789 190.633 340.258 189.648 339.523 188.793C334.332 182.715 338.234 177.133 339.805 175.328C271.453 180.168 253.785 212.5 251.496 217.402C218.164 278.109 286.238 377.648 344.601 415.809C376.211 436.477 412.93 438.277 443.715 424Z" fill="#ABE4FE"/>
<path d="M180.902 331.531C178.523 335.785 176.094 339.875 173.676 343.738C170.773 348.383 172.176 354.5 176.781 357.457C181.562 360.523 187.949 359.02 190.832 354.125C193.566 349.484 196.117 344.879 198.484 340.41C191.367 346.172 180.492 340.949 180.902 331.531Z" fill="#FBC840"/>
<path d="M264.851 343.738C262.398 339.812 259.926 335.66 257.515 331.336C258.082 340.723 247.359 346.172 240.109 340.535C242.461 344.965 244.988 349.531 247.695 354.125C250.574 359.02 256.965 360.523 261.742 357.457C266.355 354.5 267.758 348.383 264.851 343.738Z" fill="#FBC840"/>
<path d="M68.8945 101.898C54.7617 108.27 42.3516 117.957 32.7227 130.203C29.0391 134.887 29.8516 141.672 34.5352 145.359C39.2305 149.051 46.0156 148.223 49.6953 143.547C57.2031 133.996 66.8906 126.449 77.9297 121.508C68.3906 120.598 63.4219 109.695 68.8945 101.898Z" fill="#554CBF"/>
<path d="M356.347 96.7541L308.98 79.3635C303.383 77.3127 297.179 80.1838 295.125 85.7775C293.07 91.3752 295.941 97.5783 301.539 99.633L348.738 116.961C342.699 109.555 346.926 98.34 356.347 96.7541Z" fill="#554CBF"/>
</g>
<defs>
<clipPath id="clip0">
<rect width="512" height="512" fill="white"/>
</clipPath>
</defs>
</svg>
