<svg width="512" height="512" viewBox="0 0 512 512" fill="none" xmlns="http://www.w3.org/2000/svg">
<g clip-path="url(#clip0)">
<path d="M237.543 511.309C243.637 511.766 249.789 512 256 512C262.211 512 268.363 511.766 274.461 511.309L434.867 434.402C475.879 390.602 501 331.738 501 267C501 131.688 391.309 22 256 22C120.691 22 11 131.688 11 267C11 331.738 36.1211 390.602 77.1328 434.402L237.543 511.309Z" fill="#D93A59"/>
<path d="M394.914 0C330.25 0 277.828 69.5664 277.828 168.152C277.828 180.582 278.664 192.715 280.25 204.43C287.734 259.691 283.84 315.766 268.465 369.422C265.832 378.598 264.731 388.395 262.438 398.203C250.262 450.309 256.41 487.656 272.02 511.48C337.031 507.285 395.125 477.727 436.535 432.605C437.156 428.945 437.727 425.223 438.242 421.43C438.285 421.125 438.324 420.82 438.363 420.516C444.625 372.941 459.609 326.871 483.41 285.023C501.223 253.711 512 212.852 512 168.152C512 69.5664 459.578 0 394.914 0V0Z" fill="#FBC840"/>
<path d="M335.055 398.203C337.348 388.395 338.449 378.598 341.078 369.422C356.453 315.766 360.352 259.691 352.863 204.43C351.277 192.715 350.445 180.582 350.445 168.152C350.445 88.8906 384.332 28.3984 431.223 7.72656C419.789 2.68359 407.59 0 394.914 0C330.25 0 277.828 69.5664 277.828 168.152C277.828 180.582 278.664 192.715 280.25 204.43C287.734 259.691 283.84 315.766 268.465 369.422C265.836 378.598 264.731 388.395 262.438 398.203C250.262 450.305 256.41 487.652 272.02 511.48C294.852 510.004 316.82 505.391 337.524 498.09C327.469 474.473 324.953 441.418 335.055 398.203Z" fill="#F9B50B"/>
<path d="M497.695 85.0235C496.965 85.0079 496.215 84.9688 495.418 84.8868C478.996 83.1642 480.387 69.8907 463.965 68.172C447.539 66.4493 446.148 79.7228 429.727 78.004C413.305 76.2813 414.695 63.0079 398.273 61.2892C381.852 59.5665 380.461 72.8438 364.039 71.1212C347.617 69.4024 349.008 56.129 332.59 54.4063C317.273 52.8009 315.027 64.2423 301.469 64.3907C293.359 79.6212 287.051 97.1368 283.004 116.488C285.445 118.02 288.449 119.188 292.586 119.621C309.008 121.34 310.398 108.067 326.816 109.785C343.238 111.508 341.848 124.781 358.266 126.504C374.688 128.223 376.078 114.949 392.5 116.668C408.922 118.391 407.531 131.664 423.953 133.383C440.379 135.106 441.77 121.828 458.191 123.551C474.613 125.274 473.223 138.547 489.645 140.266C499.656 141.316 504.086 136.797 509.734 133.492C507.387 115.981 503.281 99.7267 497.695 85.0235Z" fill="#52B0F5"/>
<path d="M364.035 71.121C347.617 69.4023 349.008 56.1288 332.59 54.4062C317.273 52.8046 315.027 64.2421 301.469 64.3905C299.203 69.4843 289.309 86.3437 283 116.492C285.445 118.019 288.449 119.187 292.586 119.621C309.004 121.344 310.395 108.066 326.816 109.789C341.609 111.34 341.953 122.266 353.887 125.672C357.273 105.449 363.062 87.0468 370.777 70.9413C368.82 71.289 366.613 71.3905 364.035 71.121Z" fill="#2299F2"/>
<path d="M410.562 91.2031C410.562 103.5 400.594 113.469 388.301 113.469C376.004 113.469 366.035 103.5 366.035 91.2031C366.035 78.9062 376.004 68.9375 388.301 68.9375C400.594 68.9375 410.562 78.9062 410.562 91.2031Z" fill="#2299F2"/>
<path d="M510.227 199.215C510.027 199.187 509.84 199.156 509.637 199.137C493.215 197.414 491.824 210.691 475.398 208.969C458.977 207.25 460.367 193.976 443.945 192.254C427.52 190.535 426.133 203.808 409.707 202.09C393.285 200.367 394.676 187.094 378.254 185.371C361.832 183.652 360.441 196.926 344.02 195.207C327.602 193.484 328.992 180.211 312.57 178.492C296.234 176.781 294.77 189.906 278.582 188.344C278.984 193.781 279.535 199.148 280.254 204.43C281.953 217.004 283.062 229.617 283.586 242.238C290.98 239.109 295.031 232.641 306.797 233.871C323.219 235.594 321.828 248.867 338.246 250.586C354.668 252.305 356.059 239.031 372.48 240.754C388.902 242.473 387.516 255.746 403.938 257.469C420.359 259.187 421.75 245.914 438.172 247.637C454.594 249.355 453.203 262.629 469.629 264.351C483.566 265.808 486.684 256.473 497.348 254.664C503.527 237.687 507.945 219.016 510.227 199.215Z" fill="#52B0F5"/>
<path d="M344.02 195.207C327.598 193.488 328.988 180.215 312.57 178.492C296.23 176.781 294.77 189.906 278.578 188.344C280.488 209.527 282.594 218.336 283.582 242.234V242.238C290.977 239.105 295.027 232.637 306.797 233.871C323.215 235.59 321.824 248.863 338.242 250.586C347.035 251.508 351.52 248.133 356.309 245.058C355.84 231.496 354.695 217.937 352.863 204.426C352.434 201.254 352.066 198.047 351.746 194.816C349.555 195.328 347.043 195.523 344.02 195.207Z" fill="#2299F2"/>
<path d="M460.613 333.082C459.043 333.246 457.32 333.258 455.379 333.055C438.957 331.336 440.348 318.059 423.926 316.34C407.504 314.617 406.109 327.895 389.688 326.172C373.266 324.453 374.656 311.18 358.234 309.457C341.812 307.738 340.422 321.012 324 319.289C307.578 317.57 308.969 304.297 292.551 302.578C287.828 302.082 284.352 302.828 281.402 304.102C279.188 323.727 275.52 343.207 270.398 362.398C274.617 359.68 279.02 357.145 286.777 357.957C303.195 359.676 301.805 372.949 318.227 374.672C334.648 376.391 336.039 363.117 352.461 364.836C368.883 366.559 367.492 379.832 383.914 381.551C400.336 383.273 401.727 369.996 418.152 371.719C432.531 373.227 433.254 383.59 444.238 387.301C448.332 368.84 453.781 350.707 460.613 333.082Z" fill="#52B0F5"/>
<path d="M353.387 309.399C341.34 310.453 338.637 320.824 324 319.293C307.578 317.57 308.973 304.297 292.551 302.578C287.828 302.082 284.355 302.832 281.402 304.102C277.789 336.152 271.367 358.09 270.398 362.399C274.617 359.68 279.02 357.145 286.777 357.957C303.195 359.68 301.809 372.953 318.227 374.672C330.297 375.938 334.25 369.11 342.016 366.078C347.184 347.422 350.973 328.485 353.387 309.399Z" fill="#2299F2"/>
<path d="M403.906 440.426C387.484 438.707 386.094 451.98 369.668 450.258C353.246 448.539 354.637 435.266 338.215 433.543C321.793 431.824 320.402 445.098 303.98 443.379C287.559 441.656 288.949 428.383 272.531 426.664C265.269 425.902 260.945 428.074 256.965 430.586C254.988 450.559 256.137 467.766 259.687 482.297C261.723 481.891 264.031 481.758 266.758 482.043C283.18 483.762 281.789 497.035 298.207 498.758C314.629 500.477 316.019 487.203 332.441 488.926C338.976 489.609 342.687 492.121 345.824 495.012C373.305 484.176 398.348 468.508 419.926 449.07C416.066 445.227 412.328 441.309 403.906 440.426Z" fill="#52B0F5"/>
<path d="M329.25 434.266C320.457 436.934 316.797 444.719 303.981 443.379C287.563 441.656 288.953 428.383 272.531 426.66C265.27 425.902 260.949 428.074 256.965 430.586C255.285 447.543 255.594 465.539 259.695 482.293C261.731 481.891 264.035 481.754 266.758 482.039C283.18 483.762 281.789 497.035 298.207 498.754C314.629 500.477 316.02 487.199 332.441 488.922C333.07 488.988 333.664 489.074 334.242 489.176C329.496 474.133 327.504 455.875 329.25 434.266Z" fill="#2299F2"/>
<path d="M383.934 135.039C383.469 135.039 383.004 135.008 382.531 134.949C376.434 134.184 372.117 128.621 372.883 122.527L376.984 89.9493C377.75 83.8556 383.332 79.5391 389.406 80.3048C395.504 81.0704 399.82 86.6329 399.055 92.7266L394.953 125.305C394.246 130.926 389.457 135.039 383.934 135.039Z" fill="#483BA8"/>
<path d="M462.684 289.688C459.047 305.191 444.984 349.613 397.762 387.52C391.598 392.469 388.188 400.012 390.836 407.461C394.566 417.938 407.199 421.973 416.359 415.664C430.496 405.93 450.27 388.727 467.266 360.75C470.762 335.613 468.289 310.867 462.684 289.688Z" fill="#554CBF"/>
<path d="M462.684 289.688C460.086 300.754 452.168 326.555 430.68 354.203C431.016 354.191 431.348 354.18 431.684 354.18C443.652 354.18 453.352 363.879 453.352 375.848C453.352 377.91 453.059 379.902 452.52 381.793C457.527 375.574 462.508 368.586 467.266 360.75C470.762 335.613 468.289 310.867 462.684 289.688Z" fill="#483BA8"/>
<path d="M294.488 273.422C294.82 289.234 299.066 335.535 332.48 380.105C336.84 385.922 338.398 393.871 334.816 400.793C329.781 410.527 318.316 412.551 311.648 404.938C301.359 393.184 287.605 373.211 278.133 343.062C279.973 315.332 286.688 290.57 294.488 273.422Z" fill="#6464D8"/>
<path d="M311.059 354.18C312.938 354.18 314.758 354.418 316.492 354.867C297.605 319.121 294.758 286.246 294.488 273.422C286.688 290.57 279.973 315.332 278.133 343.062C281.566 353.992 285.563 363.578 289.754 371.926C291.602 361.832 300.434 354.18 311.059 354.18Z" fill="#554CBF"/>
<path d="M385.109 114.445L378.285 162.773C378.285 162.773 479.5 229.508 467.266 360.75C467.266 360.75 559.652 240.664 396.176 118.133C392.984 115.742 389.098 114.445 385.109 114.445Z" fill="#554CBF"/>
<path d="M374.059 117.242C228.027 207.969 278.133 343.062 278.133 343.062C288.441 238.895 352.469 180.129 378.285 162.773L385.109 114.445H383.824C380.375 114.445 376.992 115.422 374.059 117.242Z" fill="#6464D8"/>
<path d="M249.562 398.203C247.27 388.395 246.164 378.598 243.535 369.422C228.16 315.766 224.266 259.691 231.75 204.43C233.336 192.715 234.168 180.582 234.168 168.152C234.172 69.5664 181.75 0 117.086 0C52.4219 0 0 69.5664 0 168.152C0 212.852 10.7773 253.711 28.5859 285.023C52.3867 326.871 67.375 372.941 73.6328 420.516C73.6719 420.82 73.7148 421.125 73.7539 421.43C74.2695 425.223 74.8438 428.945 75.4648 432.605C116.871 477.727 174.969 507.285 239.98 511.48C255.59 487.656 261.738 450.305 249.562 398.203Z" fill="#FBC840"/>
<path d="M141.336 422.676C135.074 375.102 120.09 329.031 96.2852 287.184C78.4766 255.871 67.6992 215.012 67.6992 170.312C67.6992 88.1992 104.066 26.2305 153.586 7.80859C142.098 2.71484 129.832 0 117.086 0C52.4219 0 0 69.5664 0 168.152C0 212.852 10.7773 253.711 28.5859 285.023C67.0703 352.688 71.793 410.984 75.4648 432.605C98.5703 457.781 126.879 478.105 158.676 491.891C151.008 473.312 145.449 454.023 141.336 422.676Z" fill="#F9B50B"/>
<path d="M14.3047 85.0235C15.0352 85.0079 15.7852 84.9688 16.582 84.8868C33.0039 83.1642 31.6133 69.8907 48.0352 68.172C64.4609 66.4493 65.8516 79.7228 82.2734 78.004C98.6953 76.2813 97.3047 63.0079 113.727 61.2892C130.148 59.5665 131.539 72.8438 147.961 71.1212C164.383 69.4024 162.992 56.129 179.41 54.4063C194.727 52.8009 196.973 64.2423 210.531 64.3907C218.641 79.6212 224.949 97.1368 228.996 116.488C226.555 118.02 223.551 119.188 219.414 119.621C202.992 121.34 201.602 108.067 185.184 109.785C168.762 111.508 170.152 124.781 153.734 126.504C137.312 128.223 135.922 114.949 119.5 116.668C103.078 118.391 104.469 131.664 88.0469 133.383C71.6211 135.106 70.2344 121.828 53.8086 123.551C37.3867 125.274 38.7773 138.547 22.3555 140.266C12.3438 141.316 7.91406 136.797 2.26562 133.492C4.61328 115.981 8.71875 99.7267 14.3047 85.0235Z" fill="#52B0F5"/>
<path d="M71.0273 128.531C74.1133 109.785 79.2539 92.5897 86.0781 77.3241C66.9805 82.2343 65.6016 66.328 48.0352 68.1718C30.8828 69.9686 32.8906 84.6015 14.3047 85.0233C8.32031 100.777 4.43359 117.312 2.26562 133.492C7.91797 136.793 12.3438 141.312 22.3555 140.266C38.7773 138.547 37.3867 125.269 53.8086 123.551C62.0859 122.683 66.543 125.621 71.0273 128.531Z" fill="#2299F2"/>
<path d="M145.965 91.2031C145.965 103.5 136 113.469 123.703 113.469C111.406 113.469 101.438 103.5 101.438 91.2031C101.438 78.9062 111.406 68.9375 123.703 68.9375C136 68.9375 145.965 78.9062 145.965 91.2031Z" fill="#2299F2"/>
<path d="M1.77344 199.215C1.97266 199.187 2.16016 199.156 2.36328 199.137C18.7852 197.414 20.1797 210.691 36.6016 208.969C53.0234 207.25 51.6328 193.976 68.0586 192.254C84.4805 190.535 85.8711 203.808 102.293 202.09C118.715 200.367 117.324 187.094 133.746 185.371C150.168 183.652 151.559 196.926 167.98 195.207C184.402 193.484 183.012 180.211 199.43 178.492C215.766 176.781 217.23 189.906 233.418 188.344C233.016 193.781 232.465 199.148 231.75 204.43C230.047 217.004 228.938 229.617 228.414 242.238C221.02 239.109 216.973 232.641 205.203 233.871C188.781 235.594 190.172 248.867 173.754 250.586C157.332 252.305 155.941 239.031 139.52 240.754C123.098 242.473 124.488 255.746 108.066 257.469C91.6406 259.187 90.25 245.914 73.8281 247.637C57.4062 249.355 58.7969 262.629 42.375 264.351C28.4336 265.808 25.3203 256.473 14.6562 254.664C8.47266 237.687 4.05469 219.016 1.77344 199.215Z" fill="#52B0F5"/>
<path d="M79.2266 247.625C73.8203 230.496 70.1562 211.848 68.5781 192.215C51.5586 193.703 53.2266 207.23 36.6016 208.969C19.9297 210.719 18.7852 197.086 1.77344 199.215C3.91406 217.816 8.09375 236.645 14.6562 254.664C25.3203 256.473 28.4336 265.812 42.375 264.352C58.7969 262.629 57.4062 249.355 73.8281 247.637C75.8359 247.426 77.6133 247.441 79.2266 247.625Z" fill="#2299F2"/>
<path d="M51.3867 333.082C52.957 333.246 54.6797 333.258 56.6211 333.055C73.043 331.336 71.6523 318.059 88.0742 316.34C104.496 314.617 105.891 327.895 122.312 326.172C138.734 324.453 137.344 311.18 153.766 309.457C170.188 307.738 171.578 321.012 188 319.289C204.422 317.57 203.027 304.297 219.449 302.578C224.172 302.082 227.645 302.828 230.598 304.102C232.809 323.727 236.477 343.207 241.602 362.398C237.383 359.68 232.98 357.145 225.223 357.957C208.801 359.676 210.191 372.949 193.773 374.672C177.352 376.391 175.961 363.117 159.539 364.836C143.117 366.559 144.508 379.832 128.086 381.551C111.66 383.273 110.27 369.996 93.8477 371.719C79.4688 373.227 78.7422 383.59 67.7617 387.301C63.668 368.84 58.2187 350.707 51.3867 333.082Z" fill="#52B0F5"/>
<path d="M88.0742 316.34C71.6523 318.063 73.043 331.336 56.6211 333.055C54.6992 333.258 52.9883 333.246 51.4336 333.086C58.2539 350.684 63.707 369.004 67.7656 387.301C78.7461 383.59 79.4688 373.227 93.8516 371.719C110.273 370 111.664 383.274 128.086 381.555C130.086 381.344 131.816 380.961 133.352 380.449C128.75 361.848 122.742 343.621 115.324 325.938C105.035 323.941 101.809 314.902 88.0742 316.34Z" fill="#2299F2"/>
<path d="M239.469 426.664C223.047 428.383 224.438 441.656 208.02 443.379C191.598 445.098 190.207 431.824 173.785 433.543C157.363 435.266 158.754 448.539 142.328 450.258C125.906 451.98 124.516 438.707 108.094 440.426C99.6719 441.309 95.9336 445.227 92.0742 449.07C113.648 468.508 138.691 484.176 166.172 495.012C169.312 492.121 173.023 489.609 179.555 488.926C195.977 487.203 197.367 500.477 213.789 498.758C230.211 497.035 228.82 483.762 245.238 482.043C247.969 481.758 250.273 481.891 252.312 482.297C255.859 467.766 257.008 450.559 255.035 430.586C251.055 428.074 246.73 425.902 239.469 426.664Z" fill="#52B0F5"/>
<path d="M108.094 440.426C99.6836 441.309 95.9453 445.215 92.0898 449.051C112.023 467.008 134.449 481.391 158.676 491.891C153.484 479.316 149.262 466.41 145.801 449.664C144.734 449.922 143.59 450.129 142.328 450.258C125.906 451.981 124.516 438.703 108.094 440.426Z" fill="#2299F2"/>
<path d="M128.066 135.039C128.531 135.039 128.996 135.008 129.469 134.949C135.566 134.184 139.883 128.621 139.117 122.527L135.016 89.9493C134.25 83.8556 128.668 79.5391 122.594 80.3048C116.496 81.0704 112.18 86.6329 112.945 92.7266L117.047 125.305C117.754 130.926 122.543 135.039 128.066 135.039Z" fill="#483BA8"/>
<path d="M49.3164 289.688C52.9531 305.191 67.0156 349.613 114.238 387.52C120.402 392.469 123.813 400.012 121.164 407.461C117.434 417.938 104.801 421.973 95.6406 415.664C81.5039 405.93 61.7305 388.727 44.7344 360.75C41.2383 335.613 43.711 310.867 49.3164 289.688Z" fill="#6464D8"/>
<path d="M57.0586 375.848C57.0586 363.879 66.7617 354.18 78.7266 354.18C79.6446 354.18 80.5469 354.242 81.4336 354.352C59.8555 326.648 51.918 300.773 49.3164 289.688C43.711 310.867 41.2383 335.613 44.7344 360.746C48.8008 367.441 53.0235 373.512 57.293 379.016C57.1406 377.98 57.0586 376.922 57.0586 375.848Z" fill="#554CBF"/>
<path d="M217.512 273.422C217.18 289.234 212.934 335.535 179.519 380.105C175.16 385.922 173.601 393.871 177.184 400.793C182.219 410.527 193.684 412.551 200.351 404.938C210.641 393.184 224.394 373.211 233.867 343.062C232.027 315.332 225.312 290.57 217.512 273.422Z" fill="#554CBF"/>
<path d="M199.352 354.18C210.84 354.18 220.234 363.121 220.965 374.426C225.621 365.512 230.086 355.102 233.867 343.062C232.023 315.328 225.312 290.57 217.512 273.418C217.242 286.199 214.41 318.891 195.699 354.488C196.891 354.289 198.105 354.18 199.352 354.18Z" fill="#483BA8"/>
<path d="M126.891 114.445L133.715 162.773C133.715 162.773 32.4999 229.508 44.7343 360.75C44.7343 360.75 -47.6524 240.664 115.824 118.133C119.016 115.742 122.902 114.445 126.891 114.445Z" fill="#6464D8"/>
<path d="M137.941 117.242C283.973 207.969 233.867 343.062 233.867 343.062C223.559 238.895 159.531 180.129 133.715 162.773L126.891 114.445H128.176C131.625 114.445 135.012 115.422 137.941 117.242Z" fill="#554CBF"/>
</g>
<defs>
<clipPath id="clip0">
<rect width="512" height="512" fill="white"/>
</clipPath>
</defs>
</svg>
