<svg width="512" height="512" viewBox="0 0 512 512" fill="none" xmlns="http://www.w3.org/2000/svg">
<path d="M245 11C182.773 11 125.973 34.2148 82.7617 72.4375L102.145 455.051C142.363 483.965 191.688 501.004 245 501.004C380.309 501.004 490 391.312 490 256C490 120.691 380.312 11 245 11V11Z" fill="#FC6938"/>
<path d="M300.875 85.5157C228.711 53.4141 154.316 49.7696 83.7188 71.586C32.4102 116.496 0 182.461 0 256C0 260.109 0.105469 264.191 0.304688 268.25C77.6758 337.352 293.871 333.836 357.32 257.902L329.855 121.324C326.496 105.43 315.723 92.1173 300.875 85.5157Z" fill="#FBC840"/>
<path d="M0.304688 268.25C21.8359 287.477 54.1172 301.074 90.8633 309.062L90.8672 309.059L112.715 132C115.039 113.152 125.461 96.2578 141.258 85.7188L173.777 64.0312V57.8125C143.391 57.8164 113.223 62.4687 83.7188 71.5859C32.4102 116.496 0 182.461 0 256C0 260.109 0.105469 264.191 0.304688 268.25Z" fill="#F9B50B"/>
<path d="M149.77 62.0234V62.0195C150.289 59.5742 151.945 57.5274 154.231 56.5117C166.731 50.9492 180.266 50.7031 193.328 56.5117C195.613 57.5274 197.27 59.5742 197.785 62.0195C198.758 66.8438 195.977 71.625 191.313 73.1953C180.934 76.6875 166.625 76.6914 156.246 73.1953C151.582 71.625 148.801 66.8477 149.77 62.0234Z" fill="#F79D0D"/>
<path d="M491.441 302.715C465.328 285.625 423.332 267.277 357.32 257.902C293.812 333.91 77.625 337.289 0.304688 268.246C4.11719 345.656 43.8477 413.617 103.184 455.809C145.023 459.887 173.781 459.754 173.781 459.754C173.781 459.754 382.848 460.734 493.777 377.414C519.016 358.457 517.852 320 491.441 302.715Z" fill="#FBC840"/>
<path d="M30.4531 374.367C40.1484 334.992 90.8633 309.062 90.8633 309.062L90.8594 309.051C54.1094 301.059 21.8242 287.461 0.304688 268.246C2.19141 306.605 12.9102 342.637 30.4531 374.367Z" fill="#F9B50B"/>
<path d="M1.33594 230.324C0.457031 238.766 0 247.328 0 256C0 260.109 0.105469 264.191 0.304688 268.25C77.6758 337.352 293.871 333.836 357.32 257.902L350.91 226.02C280.773 294.879 77.0977 296.367 1.33594 230.324Z" fill="#AA3D27"/>
<path d="M90.8633 309.062L90.8672 309.059L95.5352 271.238C57.4414 263.523 23.7773 249.887 1.33984 230.324C0.457031 238.766 0 247.328 0 256C0 260.109 0.105469 264.191 0.304688 268.25C21.8359 287.477 54.1172 301.074 90.8633 309.062Z" fill="#98341A"/>
<path d="M225.57 261.113C228.168 260.445 252.043 246.476 285.297 251.668C283.519 255.875 283.367 260.762 285.297 265.266L293.277 283.914C295.203 288.414 298.844 291.68 303.113 293.297C283.973 320.812 257.437 328.496 255.043 329.984C252.168 331.215 248.844 329.883 247.613 327.012C239.656 308.414 230.551 287.141 222.594 268.543C221.363 265.672 222.695 262.344 225.57 261.113Z" fill="#F7577A"/>
<path d="M293.277 283.914L285.297 265.266C283.367 260.762 283.52 255.875 285.297 251.668C265.285 248.547 248.68 252.359 238.055 256.039C238.531 256.019 239.012 256.004 239.492 256.004C261.645 256.004 279.605 273.961 279.605 296.117C279.605 306.867 275.367 316.625 268.48 323.828C278.406 318.555 292 309.273 303.113 293.301C298.844 291.68 295.203 288.418 293.277 283.914Z" fill="#D93A59"/>
<path d="M339.301 264.219L331.32 245.57C329.39 241.067 325.75 237.801 321.48 236.184C340.683 208.543 367.273 200.914 369.551 199.496C372.426 198.266 375.754 199.598 376.98 202.473C384.937 221.067 394.043 242.344 402.004 260.938C403.23 263.813 401.898 267.137 399.027 268.367C396.297 269.07 372.418 282.961 339.297 277.813C341.074 273.606 341.226 268.719 339.301 264.219Z" fill="#F7577A"/>
<path d="M386.652 271.805C364.722 271.805 346.945 254.027 346.945 232.098C346.945 221.457 351.136 211.797 357.953 204.668C347.929 209.734 333.308 219.16 321.48 236.184C325.75 237.801 329.39 241.066 331.316 245.57L339.297 264.219C341.226 268.719 341.074 273.605 339.297 277.812C362.91 281.484 381.82 275.477 391.722 271.473C390.062 271.684 388.371 271.805 386.652 271.805Z" fill="#D93A59"/>
<path d="M292.144 243.426L310.789 235.445C319.582 231.684 329.852 235.797 333.613 244.586L341.594 263.234C345.355 272.023 341.242 282.297 332.453 286.059L313.805 294.039C305.016 297.801 294.742 293.688 290.98 284.895L283 266.25C279.238 257.457 283.352 247.188 292.144 243.426Z" fill="#F7577A"/>
<path d="M315.301 274.668L307.191 255.719C303.965 248.172 306.461 239.57 312.691 234.77C312.055 234.961 311.418 235.176 310.793 235.445L292.144 243.426C283.352 247.188 279.238 257.457 283 266.25L290.98 284.895C294.742 293.688 305.016 297.801 313.805 294.039L332.453 286.059C333.078 285.789 333.676 285.48 334.254 285.148C326.477 286.344 318.531 282.211 315.301 274.668Z" fill="#D93A59"/>
<path d="M154.23 56.5119C151.945 57.5276 150.289 59.5744 149.773 62.0197C148.801 66.8479 151.582 71.6252 156.246 73.1955C157.094 73.4807 157.973 73.7346 158.867 73.9729C158.871 55.7619 173.156 52.5471 174.586 52.2697C167.66 52.1486 160.801 53.5901 154.23 56.5119Z" fill="#F48E06"/>
</svg>
