<svg width="512" height="512" viewBox="0 0 512 512" fill="none" xmlns="http://www.w3.org/2000/svg">
<g clip-path="url(#clip0)">
<path d="M254.414 511.971C255.152 511.979 255.883 511.999 256.621 511.999C257.34 511.999 258.051 511.979 258.766 511.971L444.421 424.323C480.116 381.761 501.62 326.894 501.62 266.999C501.62 131.691 391.929 22 256.621 22C121.309 22 11.6218 131.691 11.6218 266.999C11.6218 326.894 33.1257 381.761 68.8209 424.323L254.414 511.971Z" fill="#2299F2"/>
<path d="M392.582 0.140664C316.699 -3.7812 273.66 74.9412 268.508 174.527C267.531 193.488 268.449 211.863 271.016 229.206C277.496 272.999 278.695 317.413 273.476 361.374L257.168 498.698C256.637 503.182 256.48 507.623 256.648 511.998C332.82 511.991 400.855 477.213 445.777 422.686L463.398 341.104C469.761 311.628 477.136 282.362 486.159 253.589C492.62 232.984 496.769 210.312 498.007 186.394C503.155 86.8045 455.956 3.418 392.582 0.140664Z" fill="#AA3D27"/>
<path d="M348 423.335C352.75 413.698 353.101 402.468 349.062 392.511C323.508 329.538 356.761 286.339 356.761 286.339L381.336 150.89C336.949 57.4647 392.582 0.140694 392.582 0.140694C316.699 -3.78508 273.66 74.9373 268.512 174.527C267.531 193.488 268.449 211.863 271.016 229.206C277.496 272.999 278.695 317.409 273.477 361.37L257.168 498.698C256.633 503.178 256.481 507.62 256.648 511.999C286.625 511.995 315.336 506.584 341.879 496.729C334.035 461.866 341.097 437.35 348 423.335Z" fill="#98341A"/>
<path d="M357.105 409.338C330.414 405.131 303.871 432.858 297.816 471.272C295.742 484.428 296.34 497.131 299.098 508.323C334.484 502.135 367.25 488.354 395.672 468.721C394.988 437.952 379.582 412.881 357.105 409.338Z" fill="#98341A"/>
<path d="M348 423.335C350.242 418.788 351.492 413.882 351.773 408.925C326.969 408.886 303.469 435.421 297.816 471.272C295.742 484.429 296.34 497.132 299.098 508.319C313.859 505.741 328.156 501.819 341.879 496.721C334.035 461.866 341.098 437.35 348 423.335Z" fill="#872815"/>
<path d="M347.477 244.284C330.453 234.464 314.387 227.542 300.555 222.671C291.82 230.753 283.152 239.656 274.645 249.464C268.172 256.921 264.988 266.722 265.996 276.546C268.262 298.624 269.215 320.8 268.723 342.956C268.582 349.366 276.48 352.452 280.801 347.714C315.742 309.445 352.926 285.874 386.707 271.413C374.402 261.323 361.32 252.265 347.477 244.284Z" fill="#F9B50B"/>
<path d="M356.762 286.339C343.801 265.366 355.297 251.148 355.297 251.148L355.359 249.011C352.754 247.402 350.133 245.816 347.477 244.284C330.453 234.464 314.387 227.542 300.555 222.671C291.82 230.753 283.152 239.656 274.645 249.464C268.172 256.921 264.988 266.722 265.996 276.546C268.262 298.624 269.215 320.8 268.723 342.956C268.582 349.366 276.48 352.452 280.801 347.714C305.664 320.484 331.66 300.702 356.762 286.339Z" fill="#F79D0D"/>
<path d="M492.355 144.031C474.785 143.898 437.832 146.124 394.261 163.285C420.367 182.867 448.234 210.64 472.246 249.781C476.089 249.453 479.636 249.246 482.855 249.117C491.046 248.792 497.8 242.691 499.003 234.578C500.378 225.332 501.335 215.843 501.835 206.16C502.835 186.796 501.957 168.015 499.437 150.238C498.937 146.703 495.925 144.058 492.355 144.031Z" fill="#F9B50B"/>
<path d="M287.277 110.222C280.687 108.847 274.113 112.621 271.926 118.984C263.918 143.925 261.75 163.566 260.195 193.668C260.121 195.113 260.055 196.558 260.004 197.996C259.676 206.945 265.793 214.839 274.504 216.902C312.973 226.007 398.031 256.875 456.996 357.621C459.82 362.445 467.09 361.308 468.285 355.847C474.324 327.875 478.34 313.293 486.598 285.898C488.391 279.961 487.734 273.558 484.836 268.074C421.191 147.777 321.152 117.293 287.277 110.222Z" fill="#FBC840"/>
<path d="M446.441 295.941C438.339 285.659 429.992 276.366 421.531 267.968C417.617 264.081 411.285 264.136 407.453 268.113L401.984 273.788C398.207 277.71 398.304 283.956 402.238 287.722C410.359 295.499 418.402 304.081 426.242 313.546C430.062 318.159 437.066 318.363 441.117 313.952L445.937 308.702C449.203 305.148 449.429 299.73 446.441 295.941Z" fill="#FCDB75"/>
<path d="M256.074 498.698L239.766 361.37C234.543 317.409 235.742 272.999 242.227 229.206C244.793 211.863 245.711 193.488 244.73 174.527C239.582 74.9412 196.543 -3.7812 120.66 0.140664C57.2857 3.418 10.0866 86.8045 15.235 186.394C16.4733 210.312 20.6178 232.984 27.0826 253.589C36.106 282.362 43.4771 311.628 49.8443 341.104L67.4614 422.686C112.387 477.213 180.422 511.991 256.59 511.998C256.762 507.623 256.605 503.182 256.074 498.698Z" fill="#AA3D27"/>
<path d="M154.485 423.292C155.141 414.135 152.324 405.401 149.133 396.792C114.024 301.98 184.387 291.116 118.977 163.285C68.6958 65.0232 120.66 0.140625 120.66 0.140625C57.2857 3.41796 10.0866 86.8044 15.235 186.394C16.4733 210.312 20.6178 232.984 27.0826 253.589C36.106 282.362 43.481 311.628 49.8443 341.104L67.4653 422.682C93.2973 454.038 126.782 478.842 165.047 494.28C153.629 467.643 153.321 439.565 154.485 423.292Z" fill="#98341A"/>
<path d="M156.137 409.339C133.661 412.882 118.254 437.952 117.567 468.721C145.993 488.354 178.758 502.136 214.145 508.323C216.899 497.136 217.5 484.429 215.426 471.272C209.372 432.858 182.825 405.128 156.137 409.339Z" fill="#98341A"/>
<path d="M154.485 423.292C154.809 418.764 154.497 414.249 153.606 409.843C132.512 414.807 118.227 439.12 117.571 468.721C132.305 478.897 148.215 487.487 165.047 494.276C153.629 467.639 153.321 439.565 154.485 423.292Z" fill="#872815"/>
<path d="M165.762 244.284C182.79 234.464 198.852 227.542 212.684 222.671C221.422 230.753 230.086 239.656 238.598 249.464C245.071 256.921 248.254 266.722 247.247 276.546C244.981 298.624 244.028 320.8 244.516 342.956C244.661 349.366 236.762 352.452 232.438 347.714C197.5 309.445 160.313 285.874 126.532 271.413C138.836 261.323 151.922 252.265 165.762 244.284Z" fill="#F9B50B"/>
<path d="M147.489 281.406C143.282 274.355 143.555 268.179 144.727 263.948C145.305 261.87 145.239 259.718 144.637 257.718C138.43 262.05 132.391 266.609 126.532 271.413C133.395 274.351 140.395 277.671 147.489 281.406Z" fill="#F79D0D"/>
<path d="M20.8835 144.031C38.4577 143.898 75.4108 146.124 118.981 163.285C92.8757 182.867 65.0085 210.64 40.9929 249.781C37.153 249.453 33.6061 249.246 30.3874 249.117C22.196 248.792 15.4421 242.691 14.2351 234.578C12.864 225.332 11.9069 215.843 11.4069 206.16C10.403 186.796 11.2858 168.015 13.8054 150.238C14.3054 146.703 17.3132 144.058 20.8835 144.031Z" fill="#F79D0D"/>
<path d="M225.966 110.222C232.555 108.847 239.13 112.621 241.317 118.984C249.325 143.925 251.489 163.566 253.048 193.668C253.122 195.113 253.184 196.558 253.239 197.996C253.567 206.945 247.45 214.839 238.739 216.902C200.27 226.007 115.212 256.875 56.2429 357.621C53.4186 362.445 46.1491 361.308 44.9577 355.847C38.9186 327.875 34.903 313.293 26.6413 285.898C24.8522 279.961 25.5085 273.558 28.4069 268.074C92.0514 147.777 192.087 117.293 225.966 110.222Z" fill="#FBC840"/>
<path d="M117.786 160.972C86.5827 184.671 54.4499 218.851 28.407 268.074C25.5046 273.554 24.8484 279.96 26.6413 285.898C34.9031 313.292 38.9148 327.875 44.9577 355.847C46.1492 361.308 53.4187 362.449 56.2429 357.625C82.7702 312.304 114.575 281.128 145.044 259.71C144.743 257.082 143.54 254.582 141.567 252.707C94.6921 208.121 117.571 161.414 117.786 160.972Z" fill="#F9B50B"/>
<path d="M66.8015 295.941C74.903 285.659 83.2507 276.366 91.7077 267.968C95.6257 264.081 101.958 264.136 105.786 268.113L111.258 273.788C115.036 277.71 114.938 283.956 111.005 287.722C102.883 295.499 94.8405 304.081 86.9968 313.546C83.1765 318.159 76.1725 318.363 72.1218 313.952L67.3054 308.702C64.0397 305.148 63.8132 299.73 66.8015 295.941Z" fill="#FBC840"/>
<path d="M381.336 150.89C341.594 124.25 305.187 113.96 287.277 110.222C280.687 108.847 274.113 112.617 271.926 118.984C263.918 143.925 261.75 163.562 260.195 193.668C260.121 195.113 260.058 196.554 260.004 197.996C259.676 206.945 265.793 214.839 274.508 216.902C293.207 221.328 322.926 230.902 355.301 251.144C325.027 171.843 381.336 150.89 381.336 150.89Z" fill="#F9B50B"/>
</g>
<defs>
<clipPath id="clip0">
<rect width="512" height="512" fill="white"/>
</clipPath>
</defs>
</svg>
