<svg width="511" height="511" viewBox="0 0 511 511" fill="none" xmlns="http://www.w3.org/2000/svg">
<g clip-path="url(#clip0)">
<path d="M244.522 10.9783C177.769 10.9783 117.278 37.7345 73.1538 81.095L35.1734 129.091C12.8538 165.98 0 209.239 0 255.5C0 279.211 3.3879 302.131 9.68418 323.812L72.7483 429.507C116.908 473.102 177.567 500.022 244.522 500.022C246.303 500.022 248.077 499.994 249.847 499.955L311.048 490.86C413.761 461.885 489.043 367.488 489.043 255.5C489.043 120.456 379.566 10.9783 244.522 10.9783Z" fill="#2299F2"/>
<path d="M140.865 87.1029C138.569 83.1224 139.933 78.0308 143.914 75.7306L150.927 71.68C154.908 69.3837 159.999 70.7443 162.3 74.7287C164.6 78.7092 163.235 83.8008 159.255 86.101L152.241 90.1516C148.272 92.4401 143.173 91.099 140.865 87.1029Z" fill="#82C6F9"/>
<path d="M224.303 136.268C222.003 132.284 223.367 127.192 227.348 124.896L234.362 120.845C238.346 118.549 243.438 119.91 245.738 123.894C248.038 127.875 246.67 132.97 242.689 135.266L235.675 139.317C231.699 141.61 226.607 140.261 224.303 136.268Z" fill="#82C6F9"/>
<path d="M338.034 428.603C335.734 424.622 337.098 419.531 341.079 417.231L348.093 413.18C352.073 410.884 357.165 412.248 359.469 416.229C361.765 420.209 360.401 425.305 356.42 427.601L349.406 431.652C345.438 433.944 340.342 432.599 338.034 428.603Z" fill="#82C6F9"/>
<path d="M337.172 331.761C334.872 327.781 336.237 322.689 340.217 320.389L347.231 316.338C351.215 314.042 356.307 315.406 358.607 319.391C360.907 323.371 359.539 328.463 355.558 330.763L348.545 334.814C344.568 337.106 339.472 335.753 337.172 331.761Z" fill="#82C6F9"/>
<path d="M140.456 122.015C148.241 116.272 154.44 109.676 158.565 103.056C159.992 100.764 160.023 97.863 158.67 95.5239L144.144 70.3582C142.791 68.0191 140.265 66.5922 137.563 66.6857C127.169 67.0327 114.966 70.5961 103.239 77.368C96.5299 81.2393 90.6741 85.7812 85.8398 90.6077L140.456 122.015Z" fill="#D9F5FF"/>
<path d="M154.736 88.709L144.144 70.3581C142.791 68.0151 140.265 66.5921 137.563 66.6817C127.169 67.0287 114.966 70.596 103.239 77.364C96.5299 81.2392 90.6741 85.7811 85.8398 90.6076L107.403 103.005C140.885 75.7226 154.736 88.7051 154.736 88.709Z" fill="#ABE4FE"/>
<path d="M221.001 115.847C210.608 116.194 198.405 119.762 186.678 126.53C180.315 130.206 174.721 134.479 170.035 139.025L224.779 170.506C232.148 164.923 238.038 158.588 241.999 152.222C243.43 149.925 243.457 147.029 242.105 144.69L227.578 119.524C226.229 117.185 223.703 115.758 221.001 115.847Z" fill="#D9F5FF"/>
<path d="M238.175 137.875L227.578 119.524C226.229 117.185 223.703 115.758 221.001 115.851C210.608 116.198 198.405 119.762 186.678 126.533C180.315 130.206 174.721 134.479 170.035 139.025L194.319 152.99C224.253 125.964 238.171 137.871 238.175 137.875Z" fill="#ABE4FE"/>
<path d="M309.258 414.388C318.124 410.513 326.934 408.443 334.732 408.186C337.433 408.092 339.956 409.519 341.309 411.858L355.839 437.024C357.188 439.363 357.16 442.264 355.73 444.556C350.233 453.386 341.047 462.17 329.32 468.942C322.607 472.813 315.745 475.616 309.149 477.39L309.258 414.388Z" fill="#D9F5FF"/>
<path d="M309.208 443.032C344.884 420.673 351.901 430.205 351.905 430.209L341.309 411.858C339.956 409.519 337.434 408.096 334.732 408.186C326.935 408.447 318.124 410.513 309.258 414.388L309.208 443.032Z" fill="#ABE4FE"/>
<path d="M354.868 347.718C349.371 356.544 340.182 365.328 328.455 372.1C322.093 375.772 315.594 378.482 309.317 380.268L309.426 317.118C317.941 313.527 326.377 311.593 333.87 311.344C336.572 311.254 339.095 312.677 340.447 315.02L354.978 340.182C356.326 342.525 356.299 345.422 354.868 347.718Z" fill="#D9F5FF"/>
<path d="M351.044 333.371L340.448 315.02C339.099 312.677 336.572 311.254 333.871 311.344C326.377 311.593 317.941 313.527 309.426 317.118L309.375 345.02C340.151 323.2 351.044 333.371 351.044 333.371Z" fill="#ABE4FE"/>
<path d="M48.4678 401.656C55.8557 411.546 63.9804 420.852 72.7484 429.507L80.1402 392.065C75.9336 393.461 71.7114 394.813 67.458 396.065L48.4678 401.656Z" fill="#D93A59"/>
<path d="M20.8614 354.447L34.3546 341.601C36.7873 339.285 39.2512 337.001 41.7425 334.747L9.68408 323.812C12.7406 334.334 16.4833 344.56 20.8614 354.447Z" fill="#BA1C37"/>
<path d="M154.651 258.042L261.964 189.672L73.1576 81.095C58.5924 95.4107 45.8049 111.524 35.1733 129.091L154.651 258.042Z" fill="#F7577A"/>
<path d="M223.738 167.691L224.779 170.506L187.68 190.167C170.795 199.118 150.14 196.763 135.703 184.245L48.8263 108.912C43.9569 115.399 39.3878 122.124 35.1733 129.091L154.651 258.042L261.964 189.672L223.738 167.691Z" fill="#D93A59"/>
<path d="M35.1733 129.091L154.651 258.042L192.791 233.746L48.8068 108.9C43.9413 115.387 39.3878 122.124 35.1733 129.091Z" fill="#BA1C37"/>
<path d="M249.847 499.955C271.021 499.503 291.528 496.365 311.048 490.86L311.418 275.332L198.553 334.081L249.847 499.955Z" fill="#F7577A"/>
<path d="M252.276 383.698C248.842 365.921 257.497 347.999 273.555 339.628L311.34 319.936L311.418 275.332L198.553 334.081L249.847 499.955C258.136 499.78 266.319 499.183 274.385 498.205L252.276 383.698Z" fill="#D93A59"/>
<path d="M274.385 498.205L238.662 313.2L198.553 334.081L249.847 499.955C258.136 499.776 266.319 499.187 274.385 498.205Z" fill="#BA1C37"/>
<path d="M485.402 91.4848L469.956 90.44C437.453 88.2412 405.098 96.4985 377.625 114.003L107.684 285.995L107.976 286.209C120.674 293.601 131.684 304.283 139.555 317.921C147.333 331.391 151.076 346.073 151.22 360.595L434.779 212.997C463.679 197.956 487.008 174.062 501.355 144.81L508.17 130.916C516.755 113.418 504.849 92.7987 485.402 91.4848Z" fill="#D9F5FF"/>
<path d="M485.402 91.4848L469.956 90.44C437.453 88.2412 405.098 96.4985 377.625 114.003L107.684 285.995L107.976 286.209C120.674 293.601 131.684 304.283 139.555 317.921C147.333 331.391 151.076 346.073 151.22 360.595L434.779 212.997C463.679 197.956 487.008 174.062 501.355 144.81L508.17 130.916C516.755 113.418 504.849 92.7987 485.402 91.4848Z" fill="#D9F5FF"/>
<path d="M485.402 91.4848L469.952 90.44C437.453 88.2412 405.098 96.4985 377.625 114.003L107.684 285.995L107.976 286.209H107.98C120.674 293.601 131.684 304.283 139.555 317.921C139.657 318.092 139.746 318.264 139.844 318.435L441.979 143.208C444.779 141.586 447.118 139.282 448.849 136.549C453.161 129.734 458.435 128.066 462.685 128.124C468.014 128.198 473.059 125.878 476.962 122.249C492.018 108.233 508.927 114.947 510.821 115.765C509.379 103.263 499.324 92.4283 485.402 91.4848Z" fill="#ABE4FE"/>
<path d="M109.087 285.098L95.3952 293.824C73.5512 307.742 53.1107 323.742 34.3545 341.601L20.8613 354.447C28.3116 371.262 37.5903 387.09 48.4675 401.656L67.4577 396.065C91.3601 389.028 114.522 379.695 136.627 368.19L152.339 360.01C152.284 345.32 148.537 330.447 140.666 316.81C132.795 303.176 121.785 292.49 109.087 285.098Z" fill="#F7577A"/>
<path d="M109.087 285.098L95.3952 293.824C73.5512 307.742 53.1107 323.742 34.3545 341.601L20.8613 354.447C28.3116 371.262 37.5903 387.09 48.4675 401.656L67.4577 396.065C91.3601 389.028 114.522 379.695 136.627 368.19L152.339 360.01C152.284 345.32 148.537 330.447 140.666 316.81C132.795 303.176 121.785 292.49 109.087 285.098Z" fill="#F7577A"/>
<path d="M140.666 316.81C132.795 303.176 121.781 292.494 109.087 285.098L95.3952 293.824C73.5512 307.742 53.1107 323.742 34.3545 341.601L20.8613 354.447C24.7405 363.2 29.1225 371.671 33.9568 379.851L141.149 317.683C140.986 317.391 140.83 317.098 140.666 316.81Z" fill="#D93A59"/>
<path d="M441.808 110.401L436.057 110.011C435.983 110.007 435.909 110.003 435.831 109.996C429.644 109.586 426.486 117.341 431.168 121.407C443.519 132.144 452.014 146.857 455.141 162.927C456.322 169.017 464.615 170.159 467.355 164.592C467.391 164.522 467.426 164.452 467.457 164.381L469.995 159.212C480.619 137.547 465.882 112.027 441.808 110.401Z" fill="#554CBF"/>
<path d="M468.821 127.142C463.437 117.929 453.78 111.212 441.808 110.401L436.057 110.011C435.983 110.007 435.909 110.003 435.831 109.996C429.644 109.586 426.486 117.341 431.168 121.407C437.215 126.666 442.33 132.88 446.354 139.734C447.281 138.76 448.12 137.691 448.845 136.545C453.157 129.734 458.435 128.066 462.681 128.124C464.79 128.151 466.853 127.797 468.821 127.142Z" fill="#3C2B8E"/>
<path d="M69.9763 340.318L26.1519 365.617C30.6782 374.572 35.7308 383.211 41.2824 391.492L84.9626 366.275C92.1322 362.135 94.5883 352.969 90.448 345.804C86.3115 338.634 77.1459 336.178 69.9763 340.318Z" fill="#D9F5FF"/>
</g>
<defs>
<clipPath id="clip0">
<rect width="511" height="511" fill="white"/>
</clipPath>
</defs>
</svg>
