<svg width="512" height="512" viewBox="0 0 512 512" fill="none" xmlns="http://www.w3.org/2000/svg">
<g clip-path="url(#clip0)">
<path d="M245 11C183.844 11 127.926 33.4102 84.9961 70.4648V441.535C127.926 478.59 183.844 501 245 501C380.312 501 490.004 391.309 490.004 256C490.004 120.688 380.312 11 245 11Z" fill="#3C2B8E"/>
<path d="M387.98 166.785C394.582 166.785 399.98 172.184 399.98 178.785C399.98 172.184 405.383 166.785 411.98 166.785H453.312V81.6172C453.312 75.0195 447.914 69.6172 441.312 69.6172H353.297C346.695 69.6172 341.297 75.0195 341.297 81.6172V166.785H387.98Z" fill="#D93A59"/>
<path d="M397.305 81.6172C397.305 75.0195 402.703 69.6172 409.305 69.6172H353.297C346.695 69.6172 341.297 75.0195 341.297 81.6172V166.785H387.98C391.738 166.785 395.102 168.535 397.305 171.262V81.6172Z" fill="#BA1C37"/>
<path d="M329.297 69.6172H85.9961C55.5703 95.5977 31.582 128.891 16.7578 166.785H341.297V81.6172C341.297 75.0195 335.895 69.6172 329.297 69.6172Z" fill="#C2EDFF"/>
<path d="M16.7578 166.785H54.2109V102.316C38.6445 121.613 25.9414 143.312 16.7578 166.785Z" fill="#ABE4FE"/>
<path d="M329.297 69.6172H85.9961C68.0391 84.9492 52.3281 102.828 39.418 122.699H341.297V81.6172C341.297 75.0195 335.895 69.6172 329.297 69.6172Z" fill="#ABE4FE"/>
<path d="M411.914 103.66H382.695C378.551 103.66 375.195 100.301 375.195 96.1602C375.195 92.0195 378.551 88.6602 382.695 88.6602H411.914C416.059 88.6602 419.414 92.0195 419.414 96.1602C419.414 100.301 416.059 103.66 411.914 103.66Z" fill="#F7577A"/>
<path d="M306.555 88.6602H66.0742C61.5625 93.4844 57.2383 98.4844 53.125 103.66H306.555C310.695 103.66 314.055 100.301 314.055 96.1602C314.055 92.0195 310.695 88.6602 306.555 88.6602Z" fill="#D9F5FF"/>
<path d="M387.98 163.785H17.9648C6.39062 192.25 0 223.379 0 256C0 330.625 33.3711 397.445 85.9961 442.383H387.98C394.582 442.383 399.98 436.98 399.98 430.383V175.785C399.98 169.184 394.582 163.785 387.98 163.785Z" fill="#D9F5FF"/>
<path d="M82.0586 430.383V175.785C82.0586 169.184 87.4609 163.785 94.0586 163.785H17.9648C6.39062 192.25 0 223.379 0 256C0 330.625 33.3711 397.445 85.9961 442.383H94.0586C87.4609 442.383 82.0586 436.98 82.0586 430.383Z" fill="#C2EDFF"/>
<path d="M512 430.383V175.785C512 169.184 506.602 163.785 500 163.785H411.98C405.383 163.785 399.98 169.184 399.98 175.785V430.383C399.98 436.98 405.383 442.383 411.98 442.383H500C506.602 442.383 512 436.98 512 430.383Z" fill="#F7577A"/>
<path d="M455.992 430.383V175.785C455.992 169.184 461.391 163.785 467.992 163.785H411.98C405.383 163.785 399.98 169.184 399.98 175.785V430.383C399.98 436.98 405.383 442.383 411.98 442.383H467.992C461.391 442.383 455.992 436.98 455.992 430.383Z" fill="#D93A59"/>
<path d="M486.156 191.418H425.824C420.301 191.418 415.824 195.895 415.824 201.418V404.75C415.824 410.273 420.301 414.75 425.824 414.75H486.156C491.68 414.75 496.156 410.273 496.156 404.75V201.418C496.156 195.895 491.68 191.418 486.156 191.418Z" fill="#D9F5FF"/>
<path d="M425.824 191.418C420.301 191.418 415.824 195.895 415.824 201.418V404.75C415.824 410.273 420.301 414.75 425.824 414.75H455.992V191.418H425.824Z" fill="#ABE4FE"/>
<path d="M208.551 305.699L179.047 296.352C174.816 295.012 170.223 295.512 166.383 297.73C164.949 298.559 164.805 300.574 166.105 301.598L192.711 322.57L208.551 305.699Z" fill="#1588E8"/>
<path d="M218.699 323.273L212.039 353.5C211.086 357.828 208.355 361.559 204.516 363.773C203.078 364.602 201.262 363.723 201.023 362.082L196.168 328.555L218.699 323.273Z" fill="#2299F2"/>
<path d="M207.434 341.93C207.434 339.445 209.082 337.262 211.473 336.586L216.051 335.289L218.699 323.273L196.168 328.555L201.023 362.086C201.262 363.723 203.078 364.605 204.516 363.777C205.582 363.16 206.551 362.418 207.434 361.59V341.93Z" fill="#1588E8"/>
<path d="M253.711 304.746L266.301 367.57C266.691 370.246 269.656 371.688 272 370.336C279.773 365.664 283.859 358.23 284.586 350.328L285.043 286.66L253.711 304.746Z" fill="#2299F2"/>
<path d="M270.945 322.973C270 316.348 273.219 309.816 279.055 306.535L284.926 303.23L285.043 286.66L253.711 304.746L266.301 367.57C266.688 370.246 269.656 371.688 272 370.336C273.938 369.172 275.648 367.836 277.133 366.359L270.945 322.973Z" fill="#1588E8"/>
<path d="M242.102 284.641L193.988 242.324C191.863 240.648 192.102 237.359 194.445 236.008C202.375 231.609 210.859 231.789 218.066 235.109L273.434 266.551L242.102 284.641Z" fill="#2299F2"/>
<path d="M254.008 263.5C248.492 266.246 241.895 265.629 236.98 261.906L199.805 233.746C198.004 234.289 196.211 235.027 194.445 236.004C192.102 237.359 191.867 240.648 193.988 242.324L242.102 284.637L273.434 266.551L261.504 259.773L254.008 263.5Z" fill="#1588E8"/>
<path d="M166.219 263.152C163.434 263.152 160.758 261.594 159.461 258.922C157.656 255.191 159.211 250.707 162.941 248.902L170.398 245.285C174.125 243.48 178.609 245.039 180.418 248.766C182.223 252.492 180.668 256.977 176.941 258.785L169.484 262.398C168.43 262.906 167.312 263.152 166.219 263.152Z" fill="#ABE4FE"/>
<path d="M241.262 394.117C238.477 394.117 235.801 392.559 234.504 389.887C232.699 386.16 234.254 381.676 237.984 379.867L245.441 376.254C249.168 374.445 253.656 376.004 255.461 379.73C257.266 383.457 255.711 387.941 251.984 389.75L244.527 393.367C243.473 393.875 242.355 394.117 241.262 394.117Z" fill="#ABE4FE"/>
<path d="M233.988 363.23C231.203 363.23 228.531 361.676 227.234 359C225.426 355.273 226.984 350.785 230.711 348.98L238.168 345.367C241.898 343.559 246.383 345.117 248.187 348.844C249.996 352.57 248.437 357.055 244.711 358.863L237.254 362.477C236.199 362.988 235.086 363.23 233.988 363.23Z" fill="#ABE4FE"/>
<path d="M190.445 284.23C187.66 284.23 184.984 282.676 183.691 280C181.883 276.273 183.441 271.785 187.168 269.98L194.621 266.367C198.352 264.559 202.836 266.117 204.645 269.844C206.449 273.57 204.895 278.055 201.164 279.863L193.711 283.477C192.656 283.988 191.543 284.23 190.445 284.23Z" fill="#ABE4FE"/>
<path d="M483.098 201.418H428.887C427.195 201.418 425.824 202.785 425.824 204.477V213.355C425.824 215.047 427.195 216.418 428.887 216.418H483.098C484.785 216.418 486.156 215.047 486.156 213.355V204.477C486.156 202.785 484.785 201.418 483.098 201.418Z" fill="#554CBF"/>
<path d="M483.098 286.133H428.887C427.195 286.133 425.824 284.762 425.824 283.07V247.285C425.824 245.598 427.195 244.227 428.887 244.227H483.098C484.785 244.227 486.156 245.598 486.156 247.285V283.07C486.156 284.762 484.785 286.133 483.098 286.133Z" fill="#554CBF"/>
<path d="M483.098 324.035H428.887C427.195 324.035 425.824 322.664 425.824 320.977V319.598C425.824 317.906 427.195 316.535 428.887 316.535H483.098C484.785 316.535 486.156 317.906 486.156 319.598V320.977C486.156 322.664 484.785 324.035 483.098 324.035Z" fill="#554CBF"/>
<path d="M483.098 235.82H428.887C427.195 235.82 425.824 234.453 425.824 232.762V231.383C425.824 229.691 427.195 228.32 428.887 228.32H483.098C484.785 228.32 486.156 229.691 486.156 231.383V232.762C486.156 234.449 484.785 235.82 483.098 235.82Z" fill="#554CBF"/>
<path d="M483.098 397.25H428.887C427.195 397.25 425.824 398.621 425.824 400.312V401.688C425.824 403.379 427.195 404.75 428.887 404.75H483.098C484.785 404.75 486.156 403.379 486.156 401.688V400.312C486.156 398.621 484.785 397.25 483.098 397.25Z" fill="#554CBF"/>
<path d="M483.098 308.633H428.887C427.195 308.633 425.824 307.262 425.824 305.57V296.691C425.824 295.004 427.195 293.633 428.887 293.633H483.098C484.785 293.633 486.156 295.004 486.156 296.691V305.57C486.156 307.262 484.785 308.633 483.098 308.633Z" fill="#554CBF"/>
<path d="M483.098 335.941H428.887C427.195 335.941 425.824 337.313 425.824 339.004V347.879C425.824 349.57 427.195 350.941 428.887 350.941H483.098C484.785 350.941 486.156 349.57 486.156 347.879V339.004C486.156 337.313 484.785 335.941 483.098 335.941Z" fill="#554CBF"/>
<path d="M483.098 362.844H428.887C427.195 362.844 425.824 364.215 425.824 365.906V385.555C425.824 387.242 427.195 388.613 428.887 388.613H483.098C484.785 388.613 486.156 387.242 486.156 385.555V365.906C486.156 364.215 484.785 362.844 483.098 362.844Z" fill="#554CBF"/>
<path d="M453.324 213.355V204.477C453.324 202.785 454.695 201.418 456.387 201.418H428.887C427.195 201.418 425.824 202.789 425.824 204.477V213.355C425.824 215.047 427.195 216.418 428.887 216.418H456.387C454.695 216.418 453.324 215.047 453.324 213.355Z" fill="#483BA8"/>
<path d="M453.324 283.07V247.285C453.324 245.598 454.695 244.227 456.387 244.227H428.887C427.195 244.227 425.824 245.598 425.824 247.285V283.07C425.824 284.762 427.195 286.133 428.887 286.133H456.387C454.695 286.133 453.324 284.762 453.324 283.07Z" fill="#483BA8"/>
<path d="M453.324 320.977V319.598C453.324 317.906 454.695 316.535 456.387 316.535H428.887C427.195 316.535 425.824 317.906 425.824 319.598V320.977C425.824 322.664 427.195 324.035 428.887 324.035H456.387C454.695 324.035 453.324 322.664 453.324 320.977Z" fill="#483BA8"/>
<path d="M453.324 232.762V231.383C453.324 229.691 454.695 228.32 456.387 228.32H428.887C427.195 228.32 425.824 229.691 425.824 231.383V232.762C425.824 234.449 427.195 235.82 428.887 235.82H456.387C454.695 235.82 453.324 234.449 453.324 232.762Z" fill="#483BA8"/>
<path d="M453.324 401.688V400.312C453.324 398.621 454.695 397.25 456.387 397.25H428.887C427.195 397.25 425.824 398.621 425.824 400.312V401.688C425.824 403.379 427.195 404.75 428.887 404.75H456.387C454.695 404.75 453.324 403.379 453.324 401.688Z" fill="#483BA8"/>
<path d="M453.324 305.57V296.691C453.324 295 454.695 293.633 456.387 293.633H428.887C427.195 293.633 425.824 295 425.824 296.691V305.57C425.824 307.262 427.195 308.633 428.887 308.633H456.387C454.695 308.633 453.324 307.262 453.324 305.57Z" fill="#483BA8"/>
<path d="M453.324 347.879V339.004C453.324 337.313 454.695 335.941 456.387 335.941H428.887C427.195 335.941 425.824 337.313 425.824 339.004V347.879C425.824 349.57 427.195 350.941 428.887 350.941H456.387C454.695 350.941 453.324 349.57 453.324 347.879Z" fill="#483BA8"/>
<path d="M453.324 385.555V365.906C453.324 364.215 454.695 362.848 456.387 362.848H428.887C427.195 362.848 425.824 364.219 425.824 365.906V385.555C425.824 387.246 427.195 388.613 428.887 388.613H456.387C454.695 388.613 453.324 387.242 453.324 385.555Z" fill="#483BA8"/>
<path d="M357.777 208.918H328.559C324.414 208.918 321.059 205.559 321.059 201.418C321.059 197.273 324.414 193.918 328.559 193.918H357.777C361.922 193.918 365.277 197.273 365.277 201.418C365.277 205.559 361.922 208.918 357.777 208.918Z" fill="#ABE4FE"/>
<path d="M327.687 244.586L319.145 244.516C313.117 244.469 307.187 246.031 301.969 249.043L215.219 299.129C212.562 300.664 210.145 302.582 208.043 304.816L192.203 321.691C190.914 323.066 190.484 325.09 191.242 326.813C192.152 328.883 194.391 329.973 196.543 329.469L219.207 324.156C222.195 323.453 225.062 322.32 227.719 320.785L314.473 270.699C319.691 267.688 324.008 263.332 326.98 258.09L331.191 250.656C332.719 247.957 330.789 244.609 327.687 244.586Z" fill="#52B0F5"/>
<path d="M1.30469 230.609L38.0352 264.539L147.113 163.785H17.9648C9.43359 184.77 3.71484 207.195 1.30469 230.609Z" fill="#83D912"/>
<path d="M94.0586 163.785H17.9648C9.40234 184.848 3.71484 207.352 1.3125 230.617L38.0352 264.539L82.0586 223.875V175.785C82.0586 169.184 87.4609 163.785 94.0586 163.785Z" fill="#5BBF02"/>
<path d="M3.36328 296.566C13.0391 354.625 43.1172 405.77 85.9961 442.383H230.566L38.0352 264.539L3.36328 296.566Z" fill="#52B0F5"/>
<path d="M82.0586 430.383V305.203L38.0352 264.539L3.36328 296.566C12.5898 351.934 41.0625 404.012 85.9961 442.383H94.0586C87.4609 442.383 82.0586 436.98 82.0586 430.383Z" fill="#2299F2"/>
<path d="M3.36328 296.566L38.0352 264.539L1.30469 230.609C0.445312 238.957 0 247.426 0 256C0 269.82 1.16406 283.371 3.36328 296.566Z" fill="#FBC840"/>
<path d="M230.16 290.504L215.219 299.129C212.562 300.664 210.145 302.578 208.043 304.816L192.203 321.688C190.914 323.062 190.484 325.086 191.242 326.812C192.152 328.883 194.391 329.973 196.543 329.465L219.207 324.152C222.195 323.453 225.062 322.316 227.723 320.785L243.238 311.824C231.535 313.09 223.828 300.172 230.16 290.504Z" fill="#2299F2"/>
<path d="M54.2109 122.699V102.316C48.6914 109.156 43.8477 115.906 39.4336 122.699H54.2109Z" fill="#82C6F9"/>
</g>
<defs>
<clipPath id="clip0">
<rect width="512" height="512" fill="white"/>
</clipPath>
</defs>
</svg>
