<svg width="512" height="512" viewBox="0 0 512 512" fill="none" xmlns="http://www.w3.org/2000/svg">
<g clip-path="url(#clip0)">
<path d="M245 11C193.355 11 145.453 26.9922 105.949 54.2773V457.727C145.457 485.008 193.355 501 245 501C380.312 501 490.004 391.312 490.004 256C490.004 120.691 380.312 11 245 11Z" fill="#FBC840"/>
<path d="M472.41 25.3359H162.262C142.141 32.5547 123.242 42.3398 105.949 54.2812V457.719C123.242 469.66 142.141 479.445 162.262 486.664H472.41C494.184 486.664 512 468.848 512 447.074V64.9258C512 43.1523 494.184 25.3359 472.41 25.3359Z" fill="#554CBF"/>
<path d="M472.41 53.582H106.949C42.3828 97.7031 0 171.898 0 256C0 340.102 42.3828 414.297 106.949 458.418H472.41C478.559 458.418 483.754 453.223 483.754 447.074V64.9258C483.754 58.7773 478.559 53.582 472.41 53.582Z" fill="#52B0F5"/>
<path d="M100.418 60.3477C100.418 59.6172 100.438 58.8867 100.477 58.1641C47.8633 96.6641 11.1797 155.637 2.16016 223.359L2.16797 223.363L3.34766 296.48H3.33203C14.0469 360.906 49.9062 416.828 100.48 453.836C100.441 453.113 100.418 452.383 100.418 451.652V60.3477Z" fill="#2299F2"/>
<path d="M3.34766 296.48C7.27734 293.48 10.0625 289.188 11.1367 284.305L20.0039 244.055L0.117188 248.719C0.046875 251.137 0 253.562 0 256C0 269.789 1.15625 283.309 3.34766 296.48Z" fill="#82C6F9"/>
<path d="M66.6289 219.387L83.3945 303.043C83.9102 306.609 87.8633 308.527 90.9844 306.723C101.332 300.504 106.773 290.602 107.742 280.082L108.352 195.297L66.6289 219.387Z" fill="#ABE4FE"/>
<path d="M89.3828 239.457C88.2461 232.77 91.4102 226.086 97.3008 222.723L108.199 216.504L108.352 195.297L66.6289 219.387L83.3945 303.043C83.9102 306.609 87.8633 308.527 90.9844 306.723C94.3789 304.684 97.2344 302.242 99.5898 299.516L89.3828 239.457Z" fill="#82C6F9"/>
<path d="M18.0781 163.508L51.168 192.609L92.8906 168.52L32.3945 134.168C26.9922 143.57 22.2148 153.371 18.0781 163.508Z" fill="#ABE4FE"/>
<path d="M73.5508 157.539L65.1602 163.289C59.9336 166.867 53.043 166.863 47.8203 163.273L25.1875 147.715C22.6406 152.879 20.2695 158.145 18.082 163.504L51.1719 192.605L92.8906 168.52L73.5508 157.539Z" fill="#82C6F9"/>
<path d="M432.723 387.77H215.305C212.605 387.77 210.414 385.582 210.414 382.883V359.18C210.414 356.48 212.605 354.293 215.305 354.293H432.723C435.422 354.293 437.609 356.48 437.609 359.18V382.883C437.609 385.582 435.422 387.77 432.723 387.77Z" fill="white"/>
<path d="M275.066 382.883V359.18C275.066 356.48 277.258 354.293 279.957 354.293H215.305C212.605 354.293 210.414 356.48 210.414 359.18V382.883C210.414 385.578 212.605 387.77 215.305 387.77H279.957C277.258 387.77 275.066 385.582 275.066 382.883Z" fill="#D9F5FF"/>
<path d="M437.609 382.883V359.18C437.609 356.48 435.422 354.293 432.723 354.293H398.773C396.074 354.293 393.883 356.48 393.883 359.18V382.883C393.883 385.582 396.07 387.77 398.773 387.77H432.723C435.422 387.77 437.609 385.582 437.609 382.883Z" fill="#FBC840"/>
<path d="M427.457 323.359H220.57C213.668 323.359 208.02 317.711 208.02 310.805V103.922C208.02 97.0156 213.668 91.3672 220.57 91.3672H427.457C434.359 91.3672 440.012 97.0156 440.012 103.922V310.805C440.012 317.711 434.359 323.359 427.457 323.359Z" fill="#D9F5FF"/>
<path d="M274.676 310.805V103.918C274.676 97.0156 280.324 91.3633 287.23 91.3633H220.57C213.668 91.3633 208.02 97.0156 208.02 103.918V310.805C208.02 317.707 213.668 323.355 220.57 323.355H287.23C280.324 323.355 274.676 317.711 274.676 310.805Z" fill="#ABE4FE"/>
<path d="M427.457 91.3672H220.57C213.668 91.3672 208.02 97.0156 208.02 103.922V127.668H440.012V103.922C440.012 97.0156 434.359 91.3672 427.457 91.3672Z" fill="#F7577A"/>
<path d="M287.23 91.3672H220.57C213.668 91.3672 208.02 97.0156 208.02 103.922V127.668H274.676V103.922C274.676 97.0156 280.324 91.3672 287.23 91.3672Z" fill="#D93A59"/>
<path d="M146.949 358.004C99.418 328.938 51.3008 319.023 8.13672 318.789C23.3672 376.398 59.0469 425.684 106.949 458.418H472.41C478.559 458.418 483.754 453.223 483.754 447.074V386.473C384.891 444.945 251.117 421.699 146.949 358.004Z" fill="#83D912"/>
<path d="M249.508 170.871H244.379C240.047 170.871 236.531 167.359 236.531 163.023C236.531 158.691 240.047 155.18 244.379 155.18H249.508C253.844 155.18 257.355 158.691 257.355 163.023C257.355 167.359 253.844 170.871 249.508 170.871Z" fill="#82C6F9"/>
<path d="M249.508 203.016H244.379C240.047 203.016 236.531 199.504 236.531 195.168C236.531 190.836 240.047 187.324 244.379 187.324H249.508C253.844 187.324 257.355 190.836 257.355 195.168C257.355 199.504 253.844 203.016 249.508 203.016Z" fill="#52B0F5"/>
<path d="M249.508 235.16H244.379C240.047 235.16 236.531 231.645 236.531 227.312C236.531 222.98 240.047 219.469 244.379 219.469H249.508C253.844 219.469 257.355 222.98 257.355 227.312C257.355 231.645 253.844 235.16 249.508 235.16Z" fill="#52B0F5"/>
<path d="M249.508 267.305H244.379C240.047 267.305 236.531 263.789 236.531 259.457C236.531 255.125 240.047 251.609 244.379 251.609H249.508C253.844 251.609 257.355 255.125 257.355 259.457C257.355 263.789 253.844 267.305 249.508 267.305Z" fill="#52B0F5"/>
<path d="M249.508 299.445H244.379C240.047 299.445 236.531 295.934 236.531 291.602C236.531 287.27 240.047 283.754 244.379 283.754H249.508C253.844 283.754 257.355 287.27 257.355 291.602C257.355 295.934 253.844 299.445 249.508 299.445Z" fill="#52B0F5"/>
<path d="M288.043 170.871H282.914C278.578 170.871 275.066 167.359 275.066 163.023C275.066 158.691 278.578 155.18 282.914 155.18H288.043C292.379 155.18 295.891 158.691 295.891 163.023C295.891 167.359 292.379 170.871 288.043 170.871Z" fill="#ABE4FE"/>
<path d="M288.043 203.016H282.914C278.578 203.016 275.066 199.504 275.066 195.168C275.066 190.836 278.578 187.324 282.914 187.324H288.043C292.379 187.324 295.891 190.836 295.891 195.168C295.891 199.504 292.379 203.016 288.043 203.016Z" fill="#82C6F9"/>
<path d="M288.043 235.16H282.914C278.578 235.16 275.066 231.645 275.066 227.312C275.066 222.98 278.578 219.469 282.914 219.469H288.043C292.379 219.469 295.891 222.98 295.891 227.312C295.891 231.645 292.379 235.16 288.043 235.16Z" fill="#82C6F9"/>
<path d="M288.043 267.305H282.914C278.578 267.305 275.066 263.789 275.066 259.457C275.066 255.125 278.578 251.609 282.914 251.609H288.043C292.379 251.609 295.891 255.125 295.891 259.457C295.891 263.789 292.379 267.305 288.043 267.305Z" fill="#82C6F9"/>
<path d="M288.043 299.445H282.914C278.578 299.445 275.066 295.934 275.066 291.602C275.066 287.27 278.578 283.754 282.914 283.754H288.043C292.379 283.754 295.891 287.27 295.891 291.602C295.891 295.934 292.379 299.445 288.043 299.445Z" fill="#82C6F9"/>
<path d="M326.578 170.871H321.449C317.113 170.871 313.602 167.359 313.602 163.023C313.602 158.691 317.113 155.18 321.449 155.18H326.578C330.91 155.18 334.426 158.691 334.426 163.023C334.426 167.359 330.91 170.871 326.578 170.871Z" fill="#82C6F9"/>
<path d="M326.578 203.016H321.449C317.113 203.016 313.602 199.504 313.602 195.168C313.602 190.836 317.113 187.324 321.449 187.324H326.578C330.91 187.324 334.426 190.836 334.426 195.168C334.426 199.504 330.91 203.016 326.578 203.016Z" fill="#82C6F9"/>
<path d="M326.578 235.16H321.449C317.113 235.16 313.602 231.645 313.602 227.312C313.602 222.98 317.113 219.469 321.449 219.469H326.578C330.91 219.469 334.426 222.98 334.426 227.312C334.426 231.645 330.91 235.16 326.578 235.16Z" fill="#82C6F9"/>
<path d="M326.578 267.305H321.449C317.113 267.305 313.602 263.789 313.602 259.457C313.602 255.125 317.113 251.609 321.449 251.609H326.578C330.91 251.609 334.426 255.125 334.426 259.457C334.426 263.789 330.91 267.305 326.578 267.305Z" fill="#82C6F9"/>
<path d="M326.578 299.445H321.449C317.113 299.445 313.602 295.934 313.602 291.602C313.602 287.27 317.113 283.754 321.449 283.754H326.578C330.91 283.754 334.426 287.27 334.426 291.602C334.426 295.934 330.91 299.445 326.578 299.445Z" fill="#ABE4FE"/>
<path d="M365.113 170.871H359.984C355.648 170.871 352.137 167.359 352.137 163.023C352.137 158.691 355.648 155.18 359.984 155.18H365.113C369.449 155.18 372.961 158.691 372.961 163.023C372.961 167.359 369.449 170.871 365.113 170.871Z" fill="#82C6F9"/>
<path d="M365.113 203.016H359.984C355.648 203.016 352.137 199.504 352.137 195.168C352.137 190.836 355.648 187.324 359.984 187.324H365.113C369.449 187.324 372.961 190.836 372.961 195.168C372.961 199.504 369.449 203.016 365.113 203.016Z" fill="#82C6F9"/>
<path d="M365.113 235.16H359.984C355.648 235.16 352.137 231.645 352.137 227.312C352.137 222.98 355.648 219.469 359.984 219.469H365.113C369.449 219.469 372.961 222.98 372.961 227.312C372.961 231.645 369.449 235.16 365.113 235.16Z" fill="#82C6F9"/>
<path d="M365.113 267.305H359.984C355.648 267.305 352.137 263.789 352.137 259.457C352.137 255.125 355.648 251.609 359.984 251.609H365.113C369.449 251.609 372.961 255.125 372.961 259.457C372.961 263.789 369.449 267.305 365.113 267.305Z" fill="#82C6F9"/>
<path d="M365.113 299.445H359.984C355.648 299.445 352.137 295.934 352.137 291.602C352.137 287.27 355.648 283.754 359.984 283.754H365.113C369.449 283.754 372.961 287.27 372.961 291.602C372.961 295.934 369.449 299.445 365.113 299.445Z" fill="#ABE4FE"/>
<path d="M403.648 170.871H398.52C394.184 170.871 390.672 167.359 390.672 163.023C390.672 158.691 394.184 155.18 398.52 155.18H403.648C407.984 155.18 411.496 158.691 411.496 163.023C411.496 167.359 407.98 170.871 403.648 170.871Z" fill="#82C6F9"/>
<path d="M403.648 203.016H398.52C394.184 203.016 390.672 199.504 390.672 195.168C390.672 190.836 394.184 187.324 398.52 187.324H403.648C407.984 187.324 411.496 190.836 411.496 195.168C411.496 199.504 407.98 203.016 403.648 203.016Z" fill="#82C6F9"/>
<path d="M403.648 235.16H398.52C394.184 235.16 390.672 231.645 390.672 227.312C390.672 222.98 394.184 219.469 398.52 219.469H403.648C407.984 219.469 411.496 222.98 411.496 227.312C411.496 231.645 407.98 235.16 403.648 235.16Z" fill="#82C6F9"/>
<path d="M403.648 267.305H398.52C394.184 267.305 390.672 263.789 390.672 259.457C390.672 255.125 394.184 251.609 398.52 251.609H403.648C407.984 251.609 411.496 255.125 411.496 259.457C411.496 263.789 407.98 267.305 403.648 267.305Z" fill="#82C6F9"/>
<path d="M403.648 299.445H398.52C394.184 299.445 390.672 295.934 390.672 291.602C390.672 287.27 394.184 283.754 398.52 283.754H403.648C407.984 283.754 411.496 287.27 411.496 291.602C411.496 295.934 407.98 299.445 403.648 299.445Z" fill="#ABE4FE"/>
<path d="M432.723 420.199H215.305C212.605 420.199 210.414 418.012 210.414 415.312V391.609C210.414 388.91 212.605 386.723 215.305 386.723H432.723C435.422 386.723 437.609 388.91 437.609 391.609V415.312C437.609 418.012 435.422 420.199 432.723 420.199Z" fill="#D9F5FF"/>
<path d="M275.066 415.312V391.609C275.066 388.91 277.258 386.723 279.957 386.723H215.305C212.605 386.723 210.414 388.91 210.414 391.609V415.312C210.414 418.012 212.605 420.199 215.305 420.199H279.957C277.258 420.199 275.066 418.012 275.066 415.312Z" fill="#ABE4FE"/>
<path d="M437.609 415.312V391.609C437.609 388.91 435.422 386.723 432.723 386.723H398.773C396.074 386.723 393.883 388.91 393.883 391.609V415.312C393.883 418.012 396.07 420.199 398.773 420.199H432.723C435.422 420.199 437.609 418.012 437.609 415.312Z" fill="#F9B50B"/>
<path d="M114.48 380.23C144.258 361.039 101.074 335.727 100.434 335.352C68.5469 323.512 37.2188 318.945 8.13672 318.789C23.3672 376.398 59.0469 425.684 106.949 458.418H147.27C100.039 428.652 92.1641 394.613 114.48 380.23Z" fill="#5BBF02"/>
<path d="M165.137 139.273L153.762 139.18C145.734 139.117 137.84 141.195 130.891 145.211L15.3711 211.902C11.832 213.945 8.61328 216.5 5.81641 219.476L2.16797 223.363C1.00391 232.125 0.289062 241.027 0.0742188 250.058L20.6836 245.226C24.6602 244.297 28.4805 242.785 32.0195 240.742L147.539 174.047C154.488 170.031 160.238 164.234 164.195 157.254L169.805 147.355C171.84 143.762 169.266 139.305 165.137 139.273Z" fill="#D9F5FF"/>
<path d="M36.0859 199.945L15.3711 211.902C11.832 213.945 8.61328 216.5 5.81641 219.477L2.16797 223.363C1.00391 232.125 0.289062 241.027 0.0742188 250.059L20.6836 245.227C24.6602 244.297 28.4805 242.785 32.0195 240.742L51.8789 229.273C36.1016 230.078 27.0156 212.254 36.0859 199.945Z" fill="#ABE4FE"/>
</g>
<defs>
<clipPath id="clip0">
<rect width="512" height="512" fill="white"/>
</clipPath>
</defs>
</svg>
