<svg width="511" height="511" viewBox="0 0 511 511" fill="none" xmlns="http://www.w3.org/2000/svg">
<g clip-path="url(#clip0)">
<path d="M244.527 11.9473C199.609 11.9473 157.529 24.0727 121.355 45.2083V467.745C157.529 488.881 199.609 501.006 244.527 501.006C379.579 501.006 489.059 391.527 489.059 256.475C489.059 121.427 379.579 11.9473 244.527 11.9473Z" fill="#2299F2"/>
<path d="M477.444 44.6157H122.353C81.205 68.3986 47.6399 103.824 26.1417 146.383H387.28C395.405 146.383 402.017 152.996 402.017 161.125V278.511C406.177 277.95 410.415 277.63 414.727 277.63C447.961 277.63 477.222 294.91 494.053 320.934V61.2248C494.049 52.0898 486.579 44.6157 477.444 44.6157Z" fill="#5BBF02"/>
<path d="M122.353 44.6157C81.205 68.3986 47.6399 103.824 26.1417 146.383H145.247V71.8686C145.247 59.7003 152.671 49.1969 163.202 44.6157H122.353Z" fill="#58AA02"/>
<path d="M477.444 44.6157H122.353C108.614 52.5577 95.7205 61.8018 83.8368 72.1727H393.077C397.432 72.1727 401.16 75.1748 402.24 79.3973C409.269 106.919 431.259 128.445 459.034 134.843C463.369 135.841 466.496 139.611 466.496 144.063V293.155C477.491 300.399 486.899 309.873 494.053 320.938V61.2248C494.049 52.0898 486.579 44.6157 477.444 44.6157Z" fill="#83D912"/>
<path d="M122.353 44.6157C108.614 52.5577 95.7166 61.8018 83.8329 72.1727H145.247V71.8686C145.247 59.7003 152.671 49.1969 163.202 44.6157H122.353Z" fill="#5BBF02"/>
<path d="M156.846 146.383H303.665C285.684 122.69 259.46 107.753 230.258 107.753C201.051 107.753 174.828 122.69 156.846 146.383Z" fill="#83D912"/>
<path d="M387.28 144.52H27.0891C9.77829 178.065 0 216.13 0 256.479C0 347.021 49.2151 426.07 122.353 468.338H387.28C391.085 468.338 394.594 467.024 397.401 464.848C353.59 456.688 320.305 418.195 320.305 372.052C320.305 323.656 356.912 283.669 403.885 278.273V161.125C403.885 151.99 396.411 144.52 387.28 144.52Z" fill="#D9F5FF"/>
<path d="M89.9813 440.102V172.771C89.9813 159.624 98.6368 148.407 110.528 144.52H27.0891C9.77829 178.065 0 216.13 0 256.479C0 333.235 35.3742 401.726 90.7026 446.555C90.2348 444.477 89.9813 442.317 89.9813 440.102Z" fill="#ABE4FE"/>
<path d="M0 256.479C0 259.871 0.0896734 263.247 0.226132 266.608H403.885V203.018H5.87945C2.03909 220.227 0 238.111 0 256.479Z" fill="#554CBF"/>
<path d="M89.9813 203.018H5.87945C2.03909 220.227 0 238.111 0 256.479C0 259.871 0.0896734 263.247 0.226132 266.608H89.9813V203.018Z" fill="#3C2B8E"/>
<path d="M109.826 298.407H3.59473C5.47397 309.269 8.0628 319.882 11.3222 330.202H109.826C118.572 330.202 125.726 323.047 125.726 314.306C125.726 305.561 118.572 298.407 109.826 298.407Z" fill="#ABE4FE"/>
<path d="M89.9813 298.407H3.59473C5.47007 309.269 8.0628 319.882 11.3222 330.202H89.9813V298.407Z" fill="#82C6F9"/>
<path d="M177.237 323.289H159.244C154.281 323.289 150.257 319.265 150.257 314.306C150.257 309.343 154.281 305.319 159.244 305.319H177.237C182.201 305.319 186.22 309.343 186.22 314.306C186.22 319.265 182.201 323.289 177.237 323.289Z" fill="#554CBF"/>
<path d="M368.277 243.8H350.28C345.32 243.8 341.297 239.776 341.297 234.813C341.297 229.853 345.32 225.83 350.28 225.83H368.277C373.24 225.83 377.26 229.853 377.26 234.813C377.26 239.776 373.24 243.8 368.277 243.8Z" fill="#6464D8"/>
<path d="M498.1 323.897C471.51 277.848 412.626 262.07 366.573 288.66C320.52 315.246 304.745 374.134 331.331 420.183C357.921 466.236 416.809 482.015 462.859 455.425C508.912 428.835 524.69 369.95 498.1 323.897Z" fill="#FCDB75"/>
<path d="M366.585 288.664C320.531 315.254 304.753 374.142 331.339 420.195C357.929 466.248 416.817 482.027 462.87 455.436C451.33 452.345 448.636 444.695 448.374 438.921C448.168 434.336 445.404 430.223 441.259 428.246C378.971 398.498 377.154 342.838 379.037 321.234C379.459 316.412 377.037 311.858 372.944 309.273C361.36 301.963 366.585 288.664 366.585 288.664Z" fill="#FBC840"/>
<path d="M474.423 337.57C455.385 304.594 413.219 293.299 380.246 312.337C347.27 331.375 335.975 373.537 355.013 406.514C374.051 439.486 416.213 450.785 449.189 431.747C482.162 412.709 493.461 370.543 474.423 337.57Z" fill="#FBC840"/>
<path d="M441.259 428.246C378.971 398.498 377.154 342.838 379.037 321.234C379.26 318.677 378.679 316.197 377.474 314.045C346.662 333.8 336.528 374.493 355.021 406.522C373.567 438.648 414.065 450.189 446.632 433.154C445.384 431.061 443.532 429.33 441.259 428.246Z" fill="#F9B50B"/>
<path d="M414.727 420.651C409.764 420.651 405.741 416.627 405.741 411.664V331.8C405.741 326.837 409.764 322.817 414.727 322.817C419.691 322.817 423.71 326.837 423.71 331.8V411.664C423.714 416.627 419.691 420.651 414.727 420.651Z" fill="#F79D0D"/>
<path d="M461.178 381.035H458.874C453.911 381.035 449.887 377.015 449.887 372.052C449.887 367.089 453.911 363.069 458.874 363.069H461.178C466.141 363.069 470.161 367.089 470.161 372.052C470.161 377.015 466.141 381.035 461.178 381.035Z" fill="#F79D0D"/>
<path d="M370.581 381.035H368.277C363.313 381.035 359.294 377.015 359.294 372.052C359.294 367.089 363.313 363.069 368.277 363.069H370.581C375.544 363.069 379.564 367.089 379.564 372.052C379.564 377.015 375.544 381.035 370.581 381.035Z" fill="#F79D0D"/>
<path d="M423.714 412.783H397.058C392.095 412.783 388.075 408.76 388.075 403.796C388.075 398.837 392.095 394.813 397.058 394.813H423.714C427.512 394.813 430.6 391.722 430.6 387.924C430.6 384.127 427.512 381.035 423.714 381.035H405.745C392.036 381.035 380.885 369.884 380.885 356.176C380.885 342.471 392.036 331.321 405.745 331.321H432.397C437.36 331.321 441.384 335.341 441.384 340.304C441.384 345.267 437.36 349.291 432.397 349.291H405.745C401.943 349.291 398.855 352.378 398.855 356.176C398.855 359.973 401.943 363.065 405.745 363.065H423.714C437.419 363.065 448.569 374.216 448.569 387.924C448.569 401.632 437.419 412.783 423.714 412.783Z" fill="#F79D0D"/>
<path d="M247.233 403.278C247.233 390.911 253.237 379.951 262.482 373.136C256.275 368.559 248.61 365.853 240.305 365.853C219.633 365.853 202.876 382.61 202.876 403.278C202.876 423.949 219.633 440.707 240.305 440.707C248.61 440.707 256.275 437.997 262.482 433.424C253.237 426.608 247.233 415.645 247.233 403.278Z" fill="#FBC840"/>
<path d="M284.662 365.853C276.358 365.853 268.689 368.562 262.482 373.136C271.73 379.951 277.73 390.911 277.73 403.282C277.73 415.649 271.73 426.612 262.482 433.424C268.692 438.001 276.358 440.707 284.662 440.707C305.33 440.707 322.087 423.949 322.087 403.282C322.087 382.61 305.334 365.853 284.662 365.853Z" fill="#F7577A"/>
<path d="M277.73 403.278C277.73 390.911 271.73 379.951 262.482 373.136C253.237 379.951 247.233 390.911 247.233 403.278C247.233 415.645 253.237 426.608 262.482 433.424C271.73 426.608 277.73 415.645 277.73 403.278Z" fill="#F79D0D"/>
</g>
<defs>
<clipPath id="clip0">
<rect width="511" height="511" fill="white"/>
</clipPath>
</defs>
</svg>
