<svg width="512" height="512" viewBox="0 0 512 512" fill="none" xmlns="http://www.w3.org/2000/svg">
<path d="M466.309 392.727C488.333 355.969 501 312.969 501 267C501 131.691 391.313 22 256 22C120.692 22 11.0005 131.691 11.0005 267C11.0005 312.969 23.6724 355.973 45.6919 392.727H466.309Z" fill="#FC6938"/>
<path d="M105.774 219.148H242.625V351.769H105.774V219.148Z" fill="#98341A"/>
<path d="M269.375 219.148H406.23V351.769H269.375V219.148Z" fill="#98341A"/>
<path d="M143.426 334.988V235.929C143.426 226.66 150.938 219.148 160.207 219.148H105.774V351.769H160.207C150.938 351.769 143.426 344.257 143.426 334.988Z" fill="#872815"/>
<path d="M307.031 334.988V235.929C307.031 226.66 314.543 219.148 323.812 219.148H269.375V351.769H323.812C314.543 351.769 307.031 344.257 307.031 334.988Z" fill="#872815"/>
<path d="M82.5941 345.511C87.3285 339.324 93.6996 334.597 101.02 331.843L102.434 331.308L102.059 329.839C101.77 328.699 101.621 327.57 101.621 326.48V288.66C101.621 284.031 103.934 279.937 107.465 277.453V219.144C107.465 214.917 104.039 211.492 99.809 211.492H84.9847C80.7582 211.492 77.3324 214.917 77.3324 219.144V352.386L82.5941 345.511Z" fill="#AA3D27"/>
<path d="M271.066 329.156V219.144C271.066 214.917 267.641 211.492 263.414 211.492H248.59C244.363 211.492 240.934 214.917 240.934 219.144V329.156H271.066Z" fill="#AA3D27"/>
<path d="M410.383 288.66V326.48C410.383 327.566 410.234 328.699 409.945 329.839L409.57 331.308L410.984 331.843C418.304 334.597 424.676 339.324 429.41 345.511L434.672 352.39V219.144C434.672 214.917 431.246 211.492 427.019 211.492H412.195C407.965 211.492 404.539 214.917 404.539 219.144V277.457C408.066 279.937 410.383 284.031 410.383 288.66Z" fill="#AA3D27"/>
<path d="M101.622 326.48V295.613C101.04 295.754 100.434 295.836 99.8091 295.836H84.9849C80.7583 295.836 77.3325 292.41 77.3325 288.184V352.391L82.5942 345.512C87.3286 339.324 93.6997 334.598 101.016 331.844L102.434 331.309L102.059 329.84C101.77 328.699 101.622 327.57 101.622 326.48Z" fill="#98341A"/>
<path d="M263.415 295.836H248.59C244.364 295.836 240.934 292.41 240.934 288.184V329.156H271.067V288.184C271.067 292.41 267.641 295.836 263.415 295.836Z" fill="#98341A"/>
<path d="M427.02 295.836H412.192C411.567 295.836 410.965 295.754 410.383 295.613V326.48C410.383 327.57 410.235 328.699 409.942 329.844L409.567 331.309L410.985 331.844C418.305 334.602 424.676 339.324 429.407 345.512L434.672 352.391V288.184C434.672 292.41 431.247 295.836 427.02 295.836Z" fill="#98341A"/>
<path d="M74.1957 377.421H439.028C445.805 377.421 452.426 378.64 458.621 380.906L430.75 344.484C422.543 333.757 409.809 327.468 396.305 327.468H115.696C102.192 327.468 89.4574 333.757 81.2543 344.484L52.8715 381.573C59.559 378.874 66.7855 377.421 74.1957 377.421Z" fill="#D9F5FF"/>
<path d="M163.2 327.468H115.696C102.192 327.468 89.4613 333.757 81.2543 344.484L52.8715 381.573C59.559 378.874 66.7855 377.421 74.1957 377.421H144.512L163.2 327.468Z" fill="#ABE4FE"/>
<path d="M70.0277 426.484H441.977C451.254 415.675 459.598 404.046 466.903 391.726L457.543 379.495C450.817 376.679 443.524 375.167 436.043 375.167H75.9613C68.4769 375.167 61.184 376.679 54.4613 379.495L45.1019 391.726C52.4066 404.046 60.7504 415.675 70.0277 426.484Z" fill="#554CBF"/>
<path d="M145.356 375.167H75.9613C68.4808 375.167 61.184 376.679 54.4613 379.495L45.1019 391.726C52.4066 404.046 60.7504 415.675 70.0277 426.484H126.157L145.356 375.167Z" fill="#483BA8"/>
<path d="M225.141 273.269H115.321C106.856 273.269 99.9299 280.195 99.9299 288.66V326.48C99.9299 334.945 106.856 341.871 115.321 341.871H225.141C233.61 341.871 240.535 334.945 240.535 326.48V288.66C240.535 280.195 233.61 273.269 225.141 273.269Z" fill="#ABE4FE"/>
<path d="M396.68 273.269H286.859C278.395 273.269 271.469 280.195 271.469 288.66V326.48C271.469 334.945 278.395 341.871 286.859 341.871H396.68C405.148 341.871 412.074 334.945 412.074 326.48V288.66C412.074 280.195 405.148 273.269 396.68 273.269Z" fill="#ABE4FE"/>
<path d="M140.524 326.48V288.66C140.524 280.195 147.449 273.269 155.914 273.269H115.321C106.856 273.269 99.9299 280.195 99.9299 288.66V326.48C99.9299 334.945 106.856 341.871 115.321 341.871H155.914C147.449 341.871 140.524 334.945 140.524 326.48Z" fill="#82C6F9"/>
<path d="M312.062 326.48V288.66C312.062 280.195 318.988 273.269 327.453 273.269H286.863C278.395 273.269 271.469 280.195 271.469 288.66V326.48C271.469 334.945 278.395 341.871 286.863 341.871H327.453C318.988 341.871 312.062 334.945 312.062 326.48Z" fill="#82C6F9"/>
<path d="M419.254 0H92.7504C84.2699 0 77.3324 6.9375 77.3324 15.4219V153.465C77.3324 161.945 84.2699 168.883 92.7504 168.883H419.254C427.735 168.883 434.672 161.945 434.672 153.465V15.4219C434.672 6.9375 427.735 0 419.254 0Z" fill="#98341A"/>
<path d="M153.332 138.461C153.332 138.461 153.496 137.562 153.77 135.957V30.9062C153.625 30.7461 153.485 30.5742 153.332 30.4258C136.664 13.7578 153.332 0 153.332 0H92.7504C84.2699 0 77.3324 6.9375 77.3324 15.4219V153.465C77.3324 161.945 84.2699 168.883 92.7504 168.883H153.332C136.645 152.195 153.332 138.461 153.332 138.461Z" fill="#872815"/>
<path d="M443.883 424.23H68.1215C113.063 477.878 180.543 511.999 256 511.999C331.461 511.999 398.942 477.878 443.883 424.23Z" fill="#483BA8"/>
<path d="M127 424.23H68.1215C80.9379 439.531 95.5941 453.234 111.743 465.019L127 424.23Z" fill="#3C2B8E"/>
<path d="M223.285 30.4258L180.778 86.0977C177.465 90.4336 170.934 90.4336 167.621 86.0977L125.114 30.4258H110.239C108.867 30.4258 107.754 31.5352 107.754 32.9062V135.977C107.754 137.348 108.867 138.461 110.239 138.461H231.481C227.942 130.578 225.953 121.844 225.953 112.645C225.953 79.5977 250.364 53.5039 282.703 50.7852V30.4258H223.285Z" fill="#FBC840"/>
<path d="M153.332 67.3828L125.114 30.4258H110.239C108.867 30.4258 107.754 31.5352 107.754 32.9062V135.977C107.754 137.348 108.867 138.461 110.239 138.461H153.332V67.3828Z" fill="#F9B50B"/>
<path d="M343.629 138.461H401.765C403.136 138.461 404.246 137.347 404.246 135.976V112.64H349.156C349.156 121.844 347.168 130.574 343.629 138.461Z" fill="#D93A59"/>
<path d="M401.766 30.4258H282.707V50.7852C284.469 50.6367 286.25 50.543 288.055 50.543C322.906 50.543 350.156 77.793 350.156 112.641H404.25V32.9062C404.246 31.5352 403.137 30.4258 401.766 30.4258Z" fill="#83D912"/>
<path d="M167.621 87.0977C170.934 91.4336 177.465 91.4336 180.778 87.0977L224.051 30.4258H124.348L167.621 87.0977Z" fill="#FC6938"/>
<path d="M153.332 30.4258H124.348L153.332 68.3828V30.4258Z" fill="#ED4F24"/>
<path d="M296.227 112.641H351.156C351.156 77.793 322.906 49.543 288.055 49.543C286.25 49.543 284.469 49.6367 282.707 49.7852V99.1211C282.703 106.559 288.789 112.641 296.227 112.641Z" fill="#2299F2"/>
<path d="M296.227 112.641C288.789 112.641 282.703 106.559 282.703 99.1211V49.7812C250.363 52.5 224.953 79.5977 224.953 112.641C224.953 121.844 226.941 130.574 230.48 138.457H345.629C349.172 130.574 351.156 121.844 351.156 112.641H296.227Z" fill="#52B0F5"/>
</svg>
