<svg width="512" height="512" viewBox="0 0 512 512" fill="none" xmlns="http://www.w3.org/2000/svg">
<path d="M454.891 410.074C483.898 369.82 501 320.41 501 267C501 131.688 391.309 21.9961 256 21.9961C120.691 21.9961 11 131.688 11 267C11 320.41 28.1016 369.82 57.1133 410.074H454.891Z" fill="#3C2B8E"/>
<path d="M463.082 207.082C463.082 93.0586 370.031 0 256 0C141.977 0 48.918 93.0508 48.918 207.082V354.039C48.918 373.086 51.5273 391.539 56.3828 409.074C100.805 471.375 173.656 512 256 512C338.344 512 411.195 471.375 455.617 409.074C460.473 391.539 463.082 373.086 463.082 354.043V207.082Z" fill="#D9F5FF"/>
<path d="M48.918 207.082V354.039C48.918 373.086 51.5273 391.539 56.3828 409.074C99.9102 470.121 170.738 510.352 251.047 511.945L250.695 30.1484C250.695 30.1484 236.215 17.8359 247.957 0.171875C137.633 4.42578 48.918 95.7461 48.918 207.082Z" fill="#ABE4FE"/>
<path d="M256 512C303.027 512 346.953 498.738 384.262 475.77C414.441 443.988 433.02 401.094 433.02 354.039V302.883C417.637 303.98 416.676 313.91 399.496 313.91C381.312 313.91 381.312 302.777 363.129 302.777C344.945 302.777 344.945 313.91 326.762 313.91C308.578 313.91 308.578 302.777 290.395 302.777C272.215 302.777 272.215 313.91 254.031 313.91C235.848 313.91 235.848 302.777 217.668 302.777C199.488 302.777 199.488 313.91 181.309 313.91C163.129 313.91 163.129 302.777 144.949 302.777C126.766 302.777 126.766 313.91 108.586 313.91C92.9922 313.91 90.7617 305.73 78.9805 303.398V354.039C78.9805 401.094 97.5547 443.988 127.738 475.77C165.047 498.738 208.973 512 256 512Z" fill="#2299F2"/>
<path d="M150.609 365.695C150.633 355.414 150.691 330.512 150.754 303.223C149.035 302.941 147.125 302.777 144.949 302.777C126.77 302.777 126.77 313.91 108.586 313.91C92.9922 313.91 90.7656 305.73 78.9805 303.398V354.039C78.9805 401.094 97.5586 443.988 127.738 475.77C151.461 490.375 177.859 501.047 206.027 506.887C171.566 469.781 150.484 420.105 150.609 365.695Z" fill="#1588E8"/>
<path d="M256 30.0625C158.582 30.0625 78.9805 109.676 78.9805 207.082V239.887C90.7656 242.219 92.9961 250.398 108.586 250.398C126.77 250.398 126.77 239.266 144.949 239.266C163.129 239.266 163.129 250.398 181.309 250.398C199.488 250.398 199.488 239.266 217.668 239.266C235.852 239.266 235.852 250.398 254.031 250.398C272.215 250.398 272.215 239.266 290.398 239.266C308.578 239.266 308.578 250.398 326.762 250.398C344.945 250.398 344.945 239.266 363.129 239.266C381.312 239.266 381.312 250.398 399.496 250.398C416.676 250.398 417.637 240.469 433.02 239.371V207.082C433.02 109.664 353.406 30.0625 256 30.0625Z" fill="#F9B50B"/>
<path d="M150.977 206.605C151.148 132 191.137 66.4727 250.699 30.1484C155.711 32.9766 78.9805 111.449 78.9805 207.082V239.883C90.7656 242.219 92.9961 250.398 108.586 250.398C126.77 250.398 126.77 239.266 144.949 239.266C147.188 239.266 149.145 239.434 150.898 239.73C150.934 224.297 150.965 212.07 150.977 206.605Z" fill="#F79D0D"/>
<path d="M104.449 115.852H222.035C231.969 115.852 239.996 107.676 239.754 97.6836C239.535 88.7969 232.527 81.3125 223.68 80.4805C222.621 80.3828 221.578 80.3789 220.566 80.4648C219.203 80.5781 217.887 79.8633 217.34 78.6133C213.234 69.2266 203.871 62.6641 192.973 62.6641C189.348 62.6641 185.895 63.3945 182.75 64.7109C181.094 65.4023 179.199 64.5508 178.516 62.8906C176.801 58.7461 174.367 54.9766 171.395 51.7109C143.84 66.8125 120.691 89.0273 104.449 115.852Z" fill="#FCDB75"/>
<path d="M172.238 115.852C181.211 97.6914 192.766 81.0234 206.422 66.3281C202.477 64.0078 197.883 62.668 192.973 62.668C189.348 62.668 185.895 63.3945 182.746 64.7109C181.09 65.4023 179.199 64.5547 178.516 62.8945C176.805 58.75 174.371 54.9844 171.402 51.7227C143.91 66.7812 120.715 88.9883 104.461 115.852H172.238Z" fill="#FBC840"/>
<path d="M433.02 306.223V236.027C417.637 237.129 416.676 247.059 399.496 247.059C381.312 247.059 381.312 235.926 363.129 235.926C344.945 235.926 344.945 247.059 326.762 247.059C308.578 247.059 308.578 235.926 290.395 235.926C272.215 235.926 272.215 247.059 254.031 247.059C235.852 247.059 235.852 235.926 217.668 235.926C199.488 235.926 199.488 247.059 181.309 247.059C163.129 247.059 163.129 235.926 144.949 235.926C126.77 235.926 126.77 247.059 108.586 247.059C92.9922 247.059 90.7656 238.875 78.9805 236.543V306.738C90.7656 309.07 92.9922 317.254 108.586 317.254C126.77 317.254 126.77 306.117 144.949 306.117C163.129 306.117 163.129 317.254 181.309 317.254C199.488 317.254 199.488 306.117 217.668 306.117C235.852 306.117 235.852 317.254 254.031 317.254C272.215 317.254 272.215 306.117 290.395 306.117C308.578 306.117 308.578 317.254 326.762 317.254C344.945 317.254 344.945 306.117 363.129 306.117C381.312 306.117 381.312 317.254 399.496 317.254C416.676 317.254 417.637 307.32 433.02 306.223Z" fill="#52B0F5"/>
<path d="M150.906 236.391C149.152 236.098 147.191 235.926 144.949 235.926C126.77 235.926 126.77 247.059 108.586 247.059C92.9922 247.059 90.7656 238.875 78.9805 236.543V306.738C90.7656 309.07 92.9922 317.254 108.586 317.254C126.77 317.254 126.77 306.117 144.949 306.117C147.121 306.117 149.031 306.281 150.746 306.562C150.801 282.605 150.859 256.391 150.906 236.391Z" fill="#2299F2"/>
<path d="M431.586 376.547C417.559 378.141 416.129 387.445 399.496 387.445C381.312 387.445 381.312 376.312 363.129 376.312C344.945 376.312 344.945 387.445 326.762 387.445C308.578 387.445 308.578 376.312 290.398 376.312C272.215 376.312 272.215 387.445 254.031 387.445C235.852 387.445 235.852 376.312 217.668 376.312C199.488 376.312 199.488 387.445 181.309 387.445C163.133 387.445 163.133 376.312 144.949 376.312C126.77 376.312 126.77 387.445 108.586 387.445C93.6953 387.445 90.9961 379.98 80.5156 377.277C84.4375 406.898 95.75 434.258 112.523 457.438C126.867 455.961 128.191 446.504 144.949 446.504C163.129 446.504 163.129 457.641 181.309 457.641C199.488 457.641 199.488 446.504 217.668 446.504C235.852 446.504 235.852 457.641 254.031 457.641C272.215 457.641 272.215 446.504 290.395 446.504C308.578 446.504 308.578 457.641 326.762 457.641C344.945 457.641 344.945 446.504 363.129 446.504C381.254 446.504 381.316 457.566 399.332 457.637C416.324 434.223 427.742 406.535 431.586 376.547Z" fill="#52B0F5"/>
<path d="M150.883 376.773C149.133 376.48 147.18 376.312 144.949 376.312C126.77 376.312 126.77 387.445 108.586 387.445C93.6953 387.445 90.9922 379.98 80.5156 377.277C84.4375 406.898 95.75 434.258 112.523 457.438C126.867 455.961 128.191 446.508 144.949 446.508C158.977 446.508 162.188 453.133 171.27 456.16C159.504 431.922 152.324 405.082 150.883 376.773Z" fill="#2299F2"/>
<path d="M367.277 189.211C366.141 178.781 357.797 170.348 347.379 169.113C345.316 168.867 343.301 168.898 341.363 169.172C339.051 169.5 337.055 167.613 337.055 165.277C337.055 165.262 337.055 165.242 337.055 165.227C337.055 137.957 314.949 115.852 287.68 115.852C267.078 115.852 249.43 128.465 242.024 146.391C241.141 148.531 238.703 149.621 236.57 148.73C232.52 147.039 228.07 146.102 223.402 146.102C209.363 146.102 197.305 154.551 192.02 166.637C191.313 168.25 189.613 169.172 187.859 169.023C186.555 168.914 185.215 168.918 183.852 169.047C172.453 170.113 163.43 179.758 163.149 191.203C162.836 204.07 173.172 214.602 185.969 214.602H344.59C358.043 214.602 368.777 202.969 367.277 189.211Z" fill="#FCDB75"/>
<path d="M236.801 212.184C237.922 211.398 239.086 210.734 240.277 210.188C241.871 209.445 242.895 207.809 242.711 206.055C241.328 192.934 247.633 179.629 259.836 172.688C263.891 170.379 268.223 168.996 272.582 168.465C274.879 168.184 276.457 166.027 276.164 163.734C273.902 145.781 281.68 127.438 297.27 116.789C294.168 116.18 290.961 115.852 287.68 115.852C267.078 115.852 249.43 128.465 242.027 146.391C241.145 148.531 238.707 149.625 236.57 148.73C232.52 147.039 228.07 146.102 223.402 146.102C209.363 146.102 197.309 154.551 192.02 166.641C191.313 168.25 189.617 169.172 187.863 169.027C186.555 168.918 185.215 168.918 183.856 169.047C172.453 170.113 163.43 179.758 163.149 191.203C162.836 204.074 173.172 214.602 185.973 214.602H233.926C234.809 213.73 235.758 212.914 236.801 212.184Z" fill="#FBC840"/>
<path d="M290.906 165.512C291.598 159.176 296.668 154.051 302.996 153.301C304.25 153.152 305.473 153.172 306.648 153.34C308.055 153.535 309.27 152.391 309.27 150.973C309.27 150.961 309.27 150.949 309.27 150.941C309.27 134.375 322.699 120.945 339.266 120.945C351.781 120.945 362.504 128.609 367 139.5C367.535 140.797 369.02 141.461 370.316 140.922C372.777 139.891 375.48 139.32 378.316 139.32C386.844 139.32 394.168 144.453 397.383 151.801C397.812 152.777 398.844 153.34 399.906 153.25C400.699 153.184 401.516 153.184 402.344 153.262C409.27 153.91 414.75 159.77 414.922 166.723C415.109 174.539 408.828 180.938 401.055 180.938H304.691C296.52 180.938 289.996 173.867 290.906 165.512Z" fill="#FCF1D4"/>
<path d="M339.492 167.418C340.484 166.637 341.535 166.012 342.629 165.539C343.93 164.977 344.367 163.363 343.625 162.156C343.617 162.148 343.613 162.137 343.609 162.129C335.629 149.102 338.785 132.391 350.398 123.078C346.957 121.703 343.199 120.941 339.266 120.941C322.699 120.941 309.27 134.371 309.27 150.941V150.973C309.27 152.391 308.059 153.535 306.652 153.336C305.477 153.172 304.25 153.152 303 153.301C296.672 154.051 291.598 159.176 290.91 165.512C290 173.867 296.52 180.938 304.691 180.938H334.52C333.551 175.957 335.391 170.652 339.492 167.418Z" fill="#FFEBB3"/>
<path d="M376.809 480.18L227.094 274.895H163.633L195.598 504.488C214.918 509.387 235.152 512 256 512C299.934 512 341.156 500.426 376.809 480.18Z" fill="#F7577A"/>
<path d="M191.902 274.895H163.633L195.594 504.488C212.875 508.867 230.883 511.422 249.406 511.91L191.902 274.895Z" fill="#D93A59"/>
<path d="M222.336 408.688H181.098C176.484 408.688 172.746 404.945 172.746 400.336C172.746 395.723 176.484 391.984 181.098 391.984H222.336C226.949 391.984 230.688 395.727 230.688 400.336C230.688 404.949 226.949 408.688 222.336 408.688Z" fill="#BA1C37"/>
<path d="M242.715 492.684H192.789C188.18 492.684 184.441 488.945 184.441 484.336C184.441 479.723 188.18 475.984 192.789 475.984H242.715C247.328 475.984 251.066 479.723 251.066 484.336C251.066 488.945 247.328 492.684 242.715 492.684Z" fill="#BA1C37"/>
<path d="M205.219 338.125H171.273C166.66 338.125 162.926 334.387 162.926 329.773C162.926 325.16 166.66 321.426 171.273 321.426H205.219C209.828 321.426 213.566 325.164 213.566 329.773C213.566 334.387 209.828 338.125 205.219 338.125Z" fill="#BA1C37"/>
<path d="M217.984 237.559C217.113 233.984 213.91 231.473 210.234 231.473H171.609C167.203 231.473 163.633 235.043 163.633 239.445V274.895H227.094L217.984 237.559Z" fill="#D9F5FF"/>
<path d="M199.656 231.473H171.609C167.203 231.473 163.633 235.043 163.633 239.445V274.895H191.68V239.445C191.68 235.043 195.25 231.473 199.656 231.473Z" fill="#ABE4FE"/>
</svg>
