<svg width="512" height="512" viewBox="0 0 512 512" fill="none" xmlns="http://www.w3.org/2000/svg">
<path d="M489.086 343.551C497 319.465 501.297 293.734 501.297 267C501.297 131.691 391.609 22 256.297 22C120.988 22 11.2969 131.688 11.2969 267C11.2969 293.734 15.5977 319.465 23.5117 343.551H489.086Z" fill="#3C2B8E"/>
<path d="M41.8672 385.566C83.6406 460.957 164.004 512 256.297 512C348.594 512 428.953 460.957 470.73 385.566H41.8672Z" fill="#83D912"/>
<path d="M285 385.566C340.254 403.77 343.539 486.816 291.016 509.555C368.488 498.562 434.289 451.328 470.73 385.566H285Z" fill="#5BBF02"/>
<path d="M449.156 168.949C443.023 168.211 437.438 172.52 436.613 178.637L434.016 197.977L439.969 216.066L440.73 216.316C446.422 218.191 451.363 221.633 455.086 226.121L498.883 217.836C504.203 216.828 508.059 212.176 508.059 206.758V194.359C508.059 178.094 468.891 171.328 449.156 168.949Z" fill="#F9B50B"/>
<path d="M462.484 197.297C462.484 187.078 468.293 178.219 476.785 173.824C466.91 171.383 456.637 169.852 449.156 168.949C443.023 168.211 437.438 172.52 436.613 178.637L434.016 197.977L439.969 216.066L440.73 216.316C446.422 218.191 451.363 221.633 455.086 226.121L478.664 221.66C469.16 217.66 462.484 208.258 462.484 197.297Z" fill="#F79D0D"/>
<path d="M71.1797 214.754H73.5234L79.0469 197.977L76.4453 178.637C75.6211 172.52 70.0352 168.211 63.9062 168.949C44.1719 171.328 5 178.094 5 194.359V206.758C5 212.176 8.85547 216.828 14.1758 217.836L48.6562 224.356C54.3984 218.379 62.4219 214.754 71.1797 214.754Z" fill="#F9B50B"/>
<path d="M50.5781 197.297C50.5781 187.078 44.7695 178.219 36.2773 173.824C46.1523 171.383 56.4258 169.852 63.9062 168.949C70.0352 168.211 75.6211 172.52 76.4453 178.637L79.0469 197.977L73.0938 216.066L72.332 216.316C66.6406 218.191 61.6953 221.633 57.9766 226.121L34.3945 221.66C43.9023 217.66 50.5781 208.258 50.5781 197.297Z" fill="#F79D0D"/>
<path d="M321.262 51.6211C321.91 50.0938 322.273 48.418 322.273 46.6602V12.7266C322.273 5.72656 316.547 0 309.547 0H214.387C207.387 0 201.66 5.72656 201.66 12.7266V46.6602C201.66 48.418 202.023 50.0938 202.676 51.6211H321.262Z" fill="#D9F5FF"/>
<path d="M269.328 12.7266C269.328 5.72656 275.055 0 282.055 0H214.387C207.387 0 201.66 5.72656 201.66 12.7266V46.6602C201.66 48.418 202.023 50.0938 202.672 51.6211H270.34C269.688 50.0938 269.328 48.418 269.328 46.6602V12.7266Z" fill="#ABE4FE"/>
<path d="M345.859 71.0547V67.2031C345.859 57.4648 337.891 49.5 328.156 49.5H195.777C186.039 49.5 178.074 57.4648 178.074 67.2031V71.0547H345.859Z" fill="#F9B50B"/>
<path d="M274.523 49.5H195.777C186.039 49.5 178.074 57.4648 178.074 67.2031V71.0547H256.82V67.2031C256.82 57.4688 264.785 49.5 274.523 49.5Z" fill="#F79D0D"/>
<path d="M431.031 216.344C434.73 216.344 438.289 216.965 441.613 218.105L405.59 108.602C398.008 85.5625 376.492 69.9922 352.238 69.9922H160.82C136.566 69.9922 115.055 85.5625 107.473 108.602L72.0234 216.344H431.031Z" fill="#FBC840"/>
<path d="M161.211 215.047L185.367 98.6289C185.367 98.6289 180.613 69.9922 201.66 69.9922H201.664H160.82C136.566 69.9922 115.055 85.5625 107.473 108.602L72.0234 216.344H160.754L161.211 215.047Z" fill="#F9B50B"/>
<path d="M160.82 98.6289C148.902 98.6289 138.395 106.234 134.672 117.555L102.629 216.344L409.371 215.281L378.391 117.551C374.664 106.23 364.156 98.6289 352.238 98.6289H160.82Z" fill="#2299F2"/>
<path d="M383.574 215.371V176.344C383.574 169.742 378.172 164.344 371.574 164.344H281.934C275.336 164.344 269.934 169.742 269.934 176.344V215.766L383.574 215.371Z" fill="#1588E8"/>
<path d="M348.156 132.066H305.348C296.434 132.066 289.211 139.973 289.211 149.723C289.211 159.477 296.434 167.383 305.348 167.383H348.156C357.07 167.383 364.297 159.477 364.297 149.723C364.297 139.973 357.07 132.066 348.156 132.066Z" fill="#1588E8"/>
<path d="M242.066 215.859V176.344C242.066 169.742 236.664 164.344 230.066 164.344H140.426C133.828 164.344 128.426 169.742 128.426 176.344V216.254L242.066 215.859Z" fill="#1588E8"/>
<path d="M206.652 132.066H163.844C154.93 132.066 147.703 139.973 147.703 149.723C147.703 159.477 154.93 167.383 163.844 167.383H206.652C215.566 167.383 222.789 159.477 222.789 149.723C222.789 139.973 215.566 132.066 206.652 132.066Z" fill="#1588E8"/>
<path d="M166.91 117.555C169.539 106.234 176.957 98.6289 185.367 98.6289H160.82C148.902 98.6289 138.395 106.234 134.672 117.555L102.629 216.344L144.328 216.199L166.91 117.555Z" fill="#1588E8"/>
<path d="M214.387 128.32H309.547C316.547 128.32 322.273 122.594 322.273 115.594V98.6289H201.66V115.594C201.66 122.594 207.387 128.32 214.387 128.32Z" fill="#1588E8"/>
<path d="M258.797 115.594V98.6289H201.66V115.594C201.66 122.594 207.387 128.32 214.387 128.32H271.52C264.523 128.32 258.797 122.594 258.797 115.594Z" fill="#0678CE"/>
<path d="M327.055 178.52C306.75 178.52 290.289 194.977 290.289 215.281H363.816C363.816 194.977 347.359 178.52 327.055 178.52Z" fill="#52B0F5"/>
<path d="M327.055 193.383C314.957 193.383 305.152 203.188 305.152 215.281H348.953C348.953 203.188 339.148 193.383 327.055 193.383Z" fill="#1588E8"/>
<path d="M380.129 397.762V437.988C380.129 450.434 390.215 460.52 402.656 460.52H406.547C428.969 443.086 448.273 421.844 463.504 397.762H380.129Z" fill="#483BA8"/>
<path d="M421.816 437.988V397.762H380.129V437.988C380.129 450.434 390.215 460.52 402.656 460.52H406.547C412.367 455.992 417.973 451.203 423.359 446.184C422.367 443.641 421.816 440.883 421.816 437.988Z" fill="#3C2B8E"/>
<path d="M106.051 460.52H110.402C122.844 460.52 132.934 450.434 132.934 437.988V397.762H49.0898C64.3203 421.844 83.6289 443.086 106.051 460.52Z" fill="#483BA8"/>
<path d="M91.0117 437.988V397.762H49.0898C62.0859 418.312 78.0586 436.785 96.3945 452.598C93.0391 448.664 91.0117 443.562 91.0117 437.988Z" fill="#3C2B8E"/>
<path d="M463.891 308.961H423.066C406.469 308.961 392.887 295.379 392.887 278.777V266.73C392.887 250.129 406.469 236.547 423.066 236.547H462.48C458.391 223.055 445.812 213.16 431.027 213.16H71.1797C55.7852 213.16 42.7852 223.891 39.2656 238.234C42.3711 237.148 45.7031 236.547 49.1719 236.547H89.9922C106.594 236.547 120.176 250.129 120.176 266.73V278.777C120.176 295.379 106.594 308.961 89.9922 308.961H49.1719C45.3516 308.961 41.6914 308.23 38.3203 306.922C33.6797 305.098 29.7656 302.293 26.6758 298.84V342.801C27.418 342.691 28.168 342.617 28.9414 342.617H193.961C196.441 340.32 199.754 338.902 203.395 338.902H309.668C313.309 338.902 316.617 340.32 319.102 342.617H484.121C484.891 342.617 485.641 342.691 486.383 342.801V298.84C480.445 305.488 472.172 308.961 463.891 308.961Z" fill="#FBC840"/>
<path d="M39.2656 238.234C42.3711 237.148 45.7031 236.547 49.1719 236.547H89.9922C106.594 236.547 120.176 250.129 120.176 266.73V278.777C120.176 295.379 106.594 308.961 89.9922 308.961H49.1719C45.3516 308.961 41.6914 308.23 38.3203 306.922C33.6797 305.098 29.7656 302.293 26.6758 298.84V342.801C27.418 342.691 28.168 342.613 28.9414 342.613H193.961C194.656 341.969 195.43 341.402 196.246 340.906C193.465 334.297 194.988 328.191 197.152 323.793C199.762 318.5 199.98 312.352 197.68 306.918L172.426 247.293C170.242 242.137 165.996 238.164 160.75 236.203C140.691 228.711 145.023 213.16 145.023 213.16H71.1797C55.7852 213.16 42.7852 223.891 39.2656 238.234Z" fill="#F9B50B"/>
<path d="M344.387 246.391H168.676C159.641 246.391 152.246 253.781 152.246 262.816V292.531C152.246 301.566 159.641 308.961 168.676 308.961H344.387C353.422 308.961 360.812 301.566 360.812 292.531V262.816C360.812 253.781 353.422 246.391 344.387 246.391Z" fill="#483BA8"/>
<path d="M431.031 213.16H71.1797C55.7852 213.16 42.7852 223.891 39.2656 238.234C42.3711 237.148 45.7031 236.547 49.1719 236.547H89.9922C106.594 236.547 120.176 250.129 120.176 266.73L152.246 292.531H153.84V262.816C153.84 254.637 160.492 247.98 168.676 247.98H344.387C352.566 247.98 359.223 254.637 359.223 262.816V292.531H360.812L392.887 266.73C392.887 250.129 406.469 236.547 423.066 236.547H462.484C458.391 223.055 445.812 213.16 431.031 213.16Z" fill="#F9B50B"/>
<path d="M39.2656 238.234C42.3711 237.148 45.7031 236.547 49.1719 236.547H89.9922C106.594 236.547 120.176 250.129 120.176 266.73L152.246 292.531H153.84V262.816C153.84 254.637 160.492 247.98 168.676 247.98H172.719L172.426 247.297C170.242 242.141 165.996 238.168 160.75 236.207C140.691 228.711 145.023 213.16 145.023 213.16H71.1797C55.7852 213.16 42.7852 223.891 39.2656 238.234Z" fill="#F79D0D"/>
<path d="M463.891 236.547H423.066C406.469 236.547 392.887 250.129 392.887 266.73V278.777C392.887 295.379 406.469 308.961 423.066 308.961H463.891C480.488 308.961 494.07 295.379 494.07 278.777V266.73C494.07 250.129 480.488 236.547 463.891 236.547Z" fill="#2299F2"/>
<path d="M89.9922 236.547H49.1719C32.5703 236.547 18.9883 250.129 18.9883 266.73V278.777C18.9883 295.379 32.5703 308.961 49.1719 308.961H89.9922C106.594 308.961 120.176 295.379 120.176 278.777V266.73C120.176 250.129 106.594 236.547 89.9922 236.547Z" fill="#2299F2"/>
<path d="M193.961 342.617H28.9414C27.0352 342.617 25.2188 342.977 23.5312 343.605C30.1172 363.629 39.207 382.516 50.4414 399.883H193.961C191.203 397.34 189.465 393.707 189.465 389.668V352.832C189.465 348.797 191.203 345.164 193.961 342.617Z" fill="#82C6F9"/>
<path d="M319.102 399.887H462.152C473.418 382.469 482.523 363.535 489.113 343.453C487.547 342.922 485.871 342.617 484.121 342.617H319.102C321.855 345.164 323.594 348.793 323.594 352.832V389.668C323.594 393.707 321.855 397.34 319.102 399.887Z" fill="#ABE4FE"/>
<path d="M392.887 266.73V278.777C392.887 295.379 406.469 308.961 423.066 308.961H435.117C449.977 303.641 460.609 289.441 460.609 272.754C460.609 256.066 449.977 241.867 435.117 236.547H423.066C406.469 236.547 392.887 250.129 392.887 266.73Z" fill="#82C6F9"/>
<path d="M120.176 266.73V278.777C120.176 295.379 106.594 308.961 89.9922 308.961H77.9453C63.0859 303.641 52.4531 289.441 52.4531 272.754C52.4531 256.066 63.0859 241.867 77.9453 236.547H89.9922C106.594 236.547 120.176 250.129 120.176 266.73Z" fill="#82C6F9"/>
<path d="M325.188 389.668V352.832C325.188 344.262 318.238 337.312 309.668 337.312H203.395C194.824 337.312 187.875 344.262 187.875 352.832V389.668C187.875 398.238 194.82 405.188 203.395 405.188H309.668C318.238 405.188 325.188 398.238 325.188 389.668Z" fill="#D9F5FF"/>
<path d="M254.164 389.668V352.832C254.164 344.262 261.113 337.312 269.684 337.312H203.395C194.82 337.312 187.875 344.262 187.875 352.832V389.668C187.875 398.238 194.82 405.188 203.395 405.188H269.684C261.113 405.188 254.164 398.238 254.164 389.668Z" fill="#ABE4FE"/>
<path d="M462.191 356.934C454.285 356.934 447.875 363.344 447.875 371.25C447.875 379.156 454.285 385.566 462.191 385.566H470.73C475.828 376.367 480.363 366.812 484.262 356.934H462.191Z" fill="#D93A59"/>
<path d="M50.4023 356.934H28.332C32.2305 366.812 36.7695 376.367 41.8672 385.566H50.4023C58.3086 385.566 64.7188 379.156 64.7188 371.25C64.7188 363.344 58.3086 356.934 50.4023 356.934Z" fill="#D93A59"/>
<path d="M319.098 316.449C314.707 316.449 311.145 312.891 311.145 308.496V247.434C311.145 243.043 314.707 239.48 319.098 239.48C323.492 239.48 327.055 243.043 327.055 247.434V308.496C327.055 312.891 323.492 316.449 319.098 316.449Z" fill="#554CBF"/>
<path d="M277.387 316.449C272.992 316.449 269.434 312.891 269.434 308.496V247.434C269.434 243.043 272.992 239.48 277.387 239.48C281.781 239.48 285.34 243.043 285.34 247.434V308.496C285.34 312.891 281.781 316.449 277.387 316.449Z" fill="#554CBF"/>
<path d="M235.676 316.449C231.281 316.449 227.719 312.891 227.719 308.496V247.434C227.719 243.043 231.281 239.48 235.676 239.48C240.066 239.48 243.629 243.043 243.629 247.434V308.496C243.629 312.891 240.066 316.449 235.676 316.449Z" fill="#554CBF"/>
<path d="M193.961 316.449C189.566 316.449 186.008 312.891 186.008 308.496V247.434C186.008 243.043 189.566 239.48 193.961 239.48C198.352 239.48 201.914 243.043 201.914 247.434V308.496C201.914 312.891 198.352 316.449 193.961 316.449Z" fill="#554CBF"/>
<path d="M344.387 316.914H168.676C155.23 316.914 144.293 305.977 144.293 292.531V262.82C144.293 249.375 155.23 238.438 168.676 238.438H344.387C357.828 238.438 368.766 249.375 368.766 262.82V292.531C368.766 305.977 357.828 316.914 344.387 316.914ZM168.676 254.344C164.004 254.344 160.199 258.145 160.199 262.816V292.531C160.199 297.203 164.004 301.008 168.676 301.008H344.387C349.059 301.008 352.859 297.203 352.859 292.531V262.816C352.859 258.145 349.059 254.344 344.387 254.344H168.676Z" fill="#6464D8"/>
</svg>
