<svg width="512" height="512" viewBox="0 0 512 512" fill="none" xmlns="http://www.w3.org/2000/svg">
<g clip-path="url(#clip0)">
<path d="M484.819 306.258C488.202 290.035 489.999 273.23 489.999 256C489.999 120.692 380.308 11.0005 244.999 11.0005C109.691 11.0005 0 120.692 0 256C0 260.789 0.152344 265.543 0.42578 270.266L484.819 306.258Z" fill="#FBC840"/>
<path d="M3.62109 298.133C23.5976 413.363 124.058 501 244.999 501C365.944 501 466.405 413.363 486.378 298.133H3.62109Z" fill="#2299F2"/>
<path d="M158.64 140.184H166.613C168.379 140.184 169.816 141.622 169.816 143.383V163.227C169.816 164.989 168.379 166.422 166.594 166.422H163.312V213.981H313.097C321.777 213.981 329.773 218.192 334.703 225.282H355.789C376.89 225.282 393.722 207.032 391.375 185.458C389.594 169.098 376.5 155.872 360.16 153.934C356.929 153.547 353.769 153.598 350.73 154.028C347.101 154.543 343.969 151.583 343.972 147.918C343.972 147.891 343.972 147.864 343.972 147.836C343.972 105.067 309.301 70.3989 266.531 70.3989C234.222 70.3989 206.539 90.1841 194.929 118.297C193.547 121.653 189.722 123.368 186.375 121.969C180.015 119.313 173.043 117.84 165.722 117.84C157.511 117.84 149.738 119.684 142.781 122.977L158.64 140.184Z" fill="#FCDB75"/>
<path d="M301.245 163.309C302.417 152.54 311.034 143.833 321.792 142.555C323.921 142.305 325.999 142.336 327.999 142.622C330.386 142.958 332.448 141.012 332.448 138.598C332.448 138.583 332.448 138.563 332.448 138.547C332.448 110.391 355.273 87.5708 383.425 87.5708C404.694 87.5708 422.917 100.594 430.558 119.102C431.472 121.309 433.987 122.438 436.191 121.516C440.374 119.77 444.968 118.801 449.784 118.801C464.28 118.801 476.73 127.524 482.187 140.004C482.913 141.668 484.667 142.622 486.48 142.469C487.827 142.356 489.21 142.356 490.616 142.489C502.386 143.594 511.702 153.547 511.991 165.364C512.319 178.653 501.644 189.524 488.433 189.524H324.671C310.78 189.524 299.698 177.508 301.245 163.309Z" fill="#FCF1D4"/>
<path d="M379.562 166.614C381.3 165.364 383.136 164.383 385.023 163.665C387.277 162.805 388.14 160.102 386.972 157.993C386.964 157.977 386.952 157.961 386.944 157.946C374.144 134.79 381.269 106 402.624 91.3169C396.698 88.9028 390.218 87.5669 383.425 87.5669C355.269 87.5669 332.448 110.391 332.448 138.547V138.598C332.448 141.012 330.386 142.958 327.995 142.622C325.999 142.336 323.917 142.305 321.792 142.555C311.034 143.833 302.417 152.54 301.245 163.309C299.698 177.508 310.78 189.524 324.667 189.524H370.148C368.734 180.887 372.253 171.864 379.562 166.614Z" fill="#FFEBB3"/>
<path d="M43.6016 168.063H164.953V212.34H43.6016V168.063Z" fill="#ABE4FE"/>
<path d="M43.6016 168.063H104.277V212.34H43.6016V168.063Z" fill="#82C6F9"/>
<path d="M130.938 107.703C128.914 105.512 126.227 104.289 123.426 104.289H85.1289C82.3281 104.289 79.6367 105.512 77.6172 107.703L49.1914 138.543H159.359L130.938 107.703Z" fill="#D93A59"/>
<path d="M118.984 104.289H85.1289C82.3281 104.289 79.6367 105.512 77.6172 107.703L49.1953 138.543H99.4375L114.898 107.703C115.996 105.512 117.461 104.289 118.984 104.289Z" fill="#BA1C37"/>
<path d="M273.05 220.125C268.753 220.125 265.269 216.641 265.269 212.34V104.29C265.269 99.9888 268.753 96.5044 273.05 96.5044C277.351 96.5044 280.835 99.9888 280.835 104.29V212.34C280.835 216.641 277.351 220.125 273.05 220.125Z" fill="#483BA8"/>
<path d="M273.05 183.227C268.753 183.227 265.269 179.742 265.269 175.442V212.34C265.269 216.641 268.753 220.125 273.05 220.125C277.351 220.125 280.835 216.641 280.835 212.34V175.442C280.835 179.742 277.351 183.227 273.05 183.227Z" fill="#3C2B8E"/>
<path d="M269.886 109.754H236.812C231.011 109.754 226.308 114.457 226.308 120.262V133.871C226.308 139.672 231.011 144.375 236.812 144.375H269.886C271.636 144.375 273.05 142.957 273.05 141.211V112.918C273.05 111.172 271.636 109.754 269.886 109.754Z" fill="#F7577A"/>
<path d="M249.679 133.871V120.262C249.679 114.457 254.382 109.754 260.183 109.754H236.812C231.011 109.754 226.308 114.457 226.308 120.262V133.871C226.308 139.672 231.011 144.375 236.812 144.375H260.183C254.382 144.375 249.679 139.672 249.679 133.871Z" fill="#D93A59"/>
<path d="M166.617 136.469H41.9375C39.2656 136.469 37.0977 138.637 37.0977 141.309V165.297C37.0977 167.973 39.2656 170.137 41.9375 170.137H166.617C169.289 170.137 171.453 167.969 171.453 165.297V141.309C171.453 138.637 169.289 136.469 166.617 136.469Z" fill="#F7577A"/>
<path d="M97.7773 165.301V141.309C97.7773 138.637 99.9414 136.469 102.613 136.469H41.9375C39.2656 136.469 37.0977 138.637 37.0977 141.309V165.301C37.0977 167.973 39.2656 170.137 41.9375 170.137H102.613C99.9414 170.137 97.7773 167.973 97.7773 165.301Z" fill="#D93A59"/>
<path d="M367.395 271.125H23.375V223.426C23.375 216.156 29.2656 210.266 36.5312 210.266H313.094C322.633 210.266 331.512 215.121 336.652 223.152L367.395 271.125Z" fill="#D9F5FF"/>
<path d="M106.418 210.266H36.5352C29.2656 210.266 23.375 216.156 23.375 223.426V271.125H93.2617V223.426C93.2578 216.156 99.1523 210.266 106.418 210.266Z" fill="#ABE4FE"/>
<path d="M244.644 229.656H265.929C269.847 229.656 273.05 232.863 273.05 236.781V269.23H237.519V236.781C237.519 232.863 240.726 229.656 244.644 229.656Z" fill="#ABE4FE"/>
<path d="M210.734 246.402H200.894C196.597 246.402 193.113 242.918 193.113 238.621C193.113 234.32 196.597 230.836 200.894 230.836H210.734C215.035 230.836 218.519 234.32 218.519 238.621C218.519 242.918 215.035 246.402 210.734 246.402Z" fill="#52B0F5"/>
<path d="M95.531 246.402H85.6912C81.3904 246.402 77.906 242.918 77.906 238.621C77.906 234.32 81.3904 230.836 85.6912 230.836H95.531C99.8279 230.836 103.316 234.32 103.316 238.621C103.316 242.918 99.8279 246.402 95.531 246.402Z" fill="#52B0F5"/>
<path d="M133.933 246.402H124.094C119.793 246.402 116.308 242.918 116.308 238.621C116.308 234.32 119.793 230.836 124.094 230.836H133.933C138.23 230.836 141.715 234.32 141.715 238.621C141.715 242.918 138.23 246.402 133.933 246.402Z" fill="#52B0F5"/>
<path d="M172.335 246.402H162.492C158.195 246.402 154.71 242.918 154.71 238.621C154.71 234.32 158.195 230.836 162.492 230.836H172.335C176.632 230.836 180.117 234.32 180.117 238.621C180.117 242.918 176.632 246.402 172.335 246.402Z" fill="#52B0F5"/>
<path d="M465.058 282.016C460.761 282.016 457.272 278.531 457.272 274.23V245.988C457.272 241.688 460.757 238.203 465.058 238.203C469.358 238.203 472.843 241.688 472.843 245.988V274.23C472.843 278.531 469.358 282.016 465.058 282.016Z" fill="#483BA8"/>
<path d="M432.503 282.016C428.202 282.016 424.718 278.531 424.718 274.23V245.988C424.718 241.688 428.202 238.203 432.503 238.203C436.8 238.203 440.284 241.688 440.284 245.988V274.23C440.284 278.531 436.804 282.016 432.503 282.016Z" fill="#483BA8"/>
<path d="M399.948 282.016C395.647 282.016 392.163 278.531 392.163 274.23V245.988C392.163 241.688 395.647 238.203 399.948 238.203C404.245 238.203 407.729 241.688 407.729 245.988V274.23C407.729 278.531 404.245 282.016 399.948 282.016Z" fill="#483BA8"/>
<path d="M367.39 282.016C363.093 282.016 359.608 278.531 359.608 274.23V245.988C359.608 241.688 363.093 238.203 367.39 238.203C371.69 238.203 375.175 241.688 375.175 245.988V274.23C375.175 278.531 371.69 282.016 367.39 282.016Z" fill="#483BA8"/>
<path d="M328.394 282.016C326.64 282.016 324.874 281.426 323.421 280.215C320.116 277.465 319.667 272.555 322.417 269.25L345.921 241.008C347.402 239.23 349.593 238.203 351.905 238.203H470.89C475.187 238.203 478.675 241.691 478.675 245.988C478.675 250.289 475.187 253.773 470.89 253.773H355.554L334.382 279.211C332.843 281.059 330.628 282.016 328.394 282.016Z" fill="#6464D8"/>
<path d="M479.636 280.355C479.636 274.238 474.628 269.23 468.511 269.23H0.359375C1.47656 290.227 5.23827 310.519 11.3164 329.785C12.7304 329.988 14.1679 330.09 15.6132 330.09H229.16C239.148 330.09 249.085 328.695 258.687 325.941L378.429 291.602C388.03 288.852 397.968 287.453 407.956 287.453H479.636V280.355Z" fill="#554CBF"/>
<path d="M86.4453 280.043C86.4453 275.289 89.2578 271.168 93.2891 269.23H0.359375C1.47656 290.227 5.23828 310.52 11.3164 329.785C12.7305 329.988 14.168 330.09 15.6133 330.09H86.4453V280.043Z" fill="#483BA8"/>
<path d="M51.7852 290.516H30.4961C26.5781 290.516 23.375 293.723 23.375 297.637V330.09H58.9062V297.637C58.9062 293.723 55.6992 290.516 51.7852 290.516Z" fill="#3C2B8E"/>
<path d="M95.5312 307.262H85.6914C81.3906 307.262 77.9062 303.778 77.9062 299.481C77.9062 295.18 81.3906 291.696 85.6914 291.696H95.5312C99.8281 291.696 103.316 295.18 103.316 299.481C103.316 303.778 99.8281 307.262 95.5312 307.262Z" fill="#6464D8"/>
<path d="M249.137 307.262H239.297C234.996 307.262 231.512 303.778 231.512 299.481C231.512 295.18 234.996 291.696 239.297 291.696H249.137C253.438 291.696 256.922 295.18 256.922 299.481C256.922 303.778 253.438 307.262 249.137 307.262Z" fill="#6464D8"/>
<path d="M210.734 307.262H200.895C196.598 307.262 193.113 303.778 193.113 299.481C193.113 295.18 196.598 291.696 200.895 291.696H210.734C215.035 291.696 218.52 295.18 218.52 299.481C218.52 303.778 215.035 307.262 210.734 307.262Z" fill="#6464D8"/>
<path d="M172.336 307.262H162.492C158.195 307.262 154.711 303.778 154.711 299.481C154.711 295.18 158.195 291.696 162.492 291.696H172.336C176.633 291.696 180.117 295.18 180.117 299.481C180.117 303.778 176.633 307.262 172.336 307.262Z" fill="#6464D8"/>
<path d="M133.934 307.262H124.094C119.793 307.262 116.309 303.778 116.309 299.481C116.309 295.18 119.793 291.696 124.094 291.696H133.934C138.23 291.696 141.715 295.18 141.715 299.481C141.715 303.778 138.23 307.262 133.934 307.262Z" fill="#6464D8"/>
<path d="M488.077 287.453H407.96C397.972 287.453 388.03 288.852 378.429 291.602L258.687 325.941C249.089 328.695 239.148 330.09 229.16 330.09H15.6133C14.168 330.09 12.7305 329.988 11.3164 329.785C25.164 373.687 51.0351 412.246 85.0779 441.605H398.366L492.737 297.945C496.124 293.465 493.522 287.453 488.077 287.453Z" fill="#D93A59"/>
<path d="M69.4141 352.965C69.4141 342.199 76.6445 333.039 86.4844 330.09H15.6133C14.168 330.09 12.7305 329.988 11.3164 329.785C22.9531 366.676 43.0859 399.793 69.4141 426.851V352.965Z" fill="#BA1C37"/>
<path d="M407.659 353.18C393.421 353.18 381.839 341.598 381.839 327.359C381.839 313.117 393.421 301.535 407.659 301.535C421.901 301.535 433.483 313.117 433.483 327.359C433.483 341.594 421.901 353.18 407.659 353.18ZM407.659 317.102C402.007 317.102 397.405 321.703 397.405 327.355C397.405 333.012 402.007 337.613 407.659 337.613C413.315 337.613 417.917 333.012 417.917 327.355C417.917 321.703 413.315 317.102 407.659 317.102Z" fill="#F7577A"/>
<path d="M370.312 405.519C341.73 405.519 341.73 421.597 313.152 421.597C284.57 421.597 284.57 405.519 255.992 405.519C227.414 405.519 227.414 421.597 198.836 421.597C170.258 421.597 170.258 405.519 141.679 405.519C113.097 405.519 113.097 421.597 84.5193 421.597C72.0505 421.597 65.0232 418.535 58.6873 415.085C103.625 467.664 170.414 501 245 501C316.476 501 380.797 470.386 425.582 421.562C398.894 420.863 398.242 405.519 370.312 405.519Z" fill="#52B0F5"/>
<path d="M256.015 500.738C256.008 500.73 256 500.722 255.992 500.714C242.035 486.757 245.476 471.839 250.051 462.585C252.765 457.093 251.969 450.523 248.215 445.683C231.351 423.957 255.984 405.527 255.992 405.519C227.414 405.519 227.414 421.597 198.836 421.597C170.258 421.597 170.258 405.519 141.679 405.519C113.097 405.519 113.097 421.597 84.5193 421.597C72.0544 421.597 65.0232 418.535 58.6912 415.085C103.625 467.664 170.418 501 245 501C248.691 501 252.359 500.898 256.015 500.738Z" fill="#2299F2"/>
<path d="M245 501C297.844 501 346.777 484.273 386.797 455.824C382.426 454.402 377.203 453.464 370.312 453.464C341.73 453.464 341.73 469.539 313.152 469.539C284.574 469.539 284.574 453.464 255.992 453.464C227.414 453.464 227.414 469.539 198.836 469.539C170.258 469.539 170.258 453.464 141.679 453.464C126.844 453.464 119.707 457.796 112.277 461.96C150.523 486.66 196.086 501 245 501Z" fill="#82C6F9"/>
<path d="M256.023 500.75C256.011 500.738 256.004 500.726 255.992 500.714C242.035 486.757 245.476 471.839 250.051 462.585C251.453 459.75 251.91 456.632 251.519 453.613C227.34 455.199 225.836 469.539 198.836 469.539C170.258 469.539 170.258 453.464 141.679 453.464C126.844 453.464 119.707 457.796 112.277 461.96C150.523 486.66 196.086 501 245 501C248.695 501 252.367 500.91 256.023 500.75Z" fill="#52B0F5"/>
</g>
<defs>
<clipPath id="clip0">
<rect width="512" height="512" fill="white"/>
</clipPath>
</defs>
</svg>
