<svg width="512" height="512" viewBox="0 0 512 512" fill="none" xmlns="http://www.w3.org/2000/svg">
<path d="M501.004 267C501.004 402.309 391.312 512 256 512C120.691 512 11 402.309 11 267C11 131.688 120.691 21.9961 256 21.9961C391.312 21.9961 501.004 131.688 501.004 267Z" fill="#3C2B8E"/>
<path d="M371.602 388.938C365.145 391.539 358.379 393.309 351.465 394.203L399.332 465.703C405.742 461.07 411.918 456.137 417.84 450.922L371.602 388.938Z" fill="#6464D8"/>
<path d="M94.1602 450.922C100.086 456.137 106.262 461.07 112.672 465.703L160.539 394.203C153.621 393.309 146.859 391.539 140.402 388.938L94.1602 450.922Z" fill="#6464D8"/>
<path d="M180.551 219.539L150.52 43.2031C150.23 41.5039 150.289 39.8203 150.633 38.2188L119.789 53.8203C108.254 59.6523 100.539 71.0156 99.375 83.8906C99.2695 85.0391 99.1641 86.2422 99.0508 87.4727L104.855 126.621L120.898 151.719V310.941L182.945 363.684V396.211L182.738 396.746H183.867L184.793 394.363V269.715C184.793 252.898 183.375 236.117 180.551 219.539Z" fill="#ABE4FE"/>
<path d="M122.75 309.094V149.867L97.0625 109.684C90.9453 178.305 80.2969 301.172 80.2969 324.902C80.2969 345.441 106.602 370.844 126.754 383.754C139.98 392.223 155.344 396.742 171.055 396.742H183.867L184.793 394.359V361.832L122.75 309.094Z" fill="#FBC840"/>
<path d="M84.7031 340.91C112.641 345.996 118.84 318.203 118.84 318.203L125.758 311.102L184.793 361.281V394.363L183.867 396.746H171.055C155.344 396.746 139.98 392.227 126.754 383.754C111.629 374.066 93.0352 357.34 84.7031 340.91Z" fill="#F79D0D"/>
<path d="M157.043 278.699C154.785 277.027 152.73 275.148 150.871 273.109C148.953 272.719 146.973 272.5 144.938 272.5C132.352 272.5 121.602 280.336 117.285 291.395V305.426C117.285 317.461 121.309 329.227 128.996 338.484C142.59 354.859 163.68 365.23 184.793 371.805V293.398C172.844 288.941 163.789 283.691 157.043 278.699Z" fill="#F7577A"/>
<path d="M117.285 293.246C121.602 282.188 132.352 274.348 144.938 274.348C147.828 274.348 150.617 274.77 153.258 275.539C144.496 267.352 139.48 255.805 139.48 243.66V157.707C139.48 147.379 136.148 137.32 129.98 129.035L99.0508 87.4727C98.2148 96.7773 97.1836 108.289 96.0352 121.219L112.75 143.227C115.691 147.102 117.285 151.828 117.285 156.691V293.246Z" fill="#F7577A"/>
<path d="M150.871 273.109C148.953 272.719 146.973 272.5 144.938 272.5C132.352 272.5 121.602 280.336 117.285 291.395V305.426C117.285 309.758 117.812 314.047 118.84 318.199C124.324 326.219 133.539 331.477 143.984 331.477C160.805 331.477 174.441 317.844 174.441 301.023C174.441 296.145 173.285 291.535 171.246 287.445C165.66 284.582 160.961 281.598 157.043 278.699C154.785 277.027 152.73 275.148 150.871 273.109Z" fill="#D93A59"/>
<path d="M126.781 307.844C143.121 307.844 156.449 294.977 157.199 278.824C161.086 281.684 165.727 284.621 171.234 287.449C173.273 291.535 174.426 296.145 174.426 301.023C174.426 317.844 160.793 331.48 143.973 331.48C133.527 331.48 124.312 326.219 118.824 318.203C117.871 314.34 117.367 310.355 117.301 306.336C120.285 307.312 123.469 307.844 126.781 307.844Z" fill="#BA1C37"/>
<path d="M184.781 333.457C184.781 342.777 177.223 350.336 167.902 350.336C158.582 350.336 151.027 342.777 151.027 333.457C151.027 324.137 158.582 316.578 167.902 316.578C177.223 316.578 184.781 324.137 184.781 333.457Z" fill="#D93A59"/>
<path d="M412.949 87.4727C412.84 86.2422 412.73 85.0391 412.629 83.8906C411.465 71.0156 403.75 59.6523 392.215 53.8203L361.371 38.2188C361.715 39.8203 361.77 41.5039 361.48 43.2031L331.449 219.539C328.629 236.117 327.207 252.898 327.207 269.715V394.359L328.133 396.742H329.266L329.059 396.211V363.129L390.453 310.941V151.719L408.492 123.5L412.949 87.4727Z" fill="#C2EDFF"/>
<path d="M388.605 149.867V309.094L327.207 361.281V394.359L328.133 396.742H340.949C356.656 396.742 372.02 392.223 385.25 383.754C405.402 370.848 431.707 345.441 431.707 324.902C431.707 301.066 420.965 177.234 414.859 108.793L388.605 149.867Z" fill="#FBC840"/>
<path d="M427.301 340.91C399.359 345.996 393.164 318.203 393.164 318.203L386.242 311.102L327.207 361.281V394.363L328.133 396.746H340.949C356.656 396.746 372.02 392.227 385.25 383.754C400.375 374.066 418.965 357.34 427.301 340.91Z" fill="#F79D0D"/>
<path d="M354.961 278.699C357.219 277.027 359.273 275.148 361.133 273.109C363.051 272.719 365.031 272.5 367.062 272.5C379.652 272.5 390.398 280.336 394.719 291.395V305.426C394.719 317.461 390.695 329.227 383.008 338.484C369.41 354.859 348.32 365.23 327.211 371.805V293.398C339.156 288.941 348.211 283.691 354.961 278.699Z" fill="#F7577A"/>
<path d="M394.719 293.246C390.398 282.188 379.652 274.348 367.062 274.348C364.176 274.348 361.383 274.77 358.742 275.539C367.504 267.352 372.523 255.805 372.523 243.66V157.707C372.523 147.379 375.852 137.32 382.02 129.035L412.949 87.4727C413.789 96.7773 414.82 108.289 415.965 121.219L399.25 143.227C396.309 147.102 394.719 151.828 394.719 156.691V293.246Z" fill="#F7577A"/>
<path d="M361.133 273.109C363.051 272.719 365.031 272.5 367.062 272.5C379.652 272.5 390.398 280.336 394.719 291.395V305.426C394.719 309.758 394.188 314.047 393.164 318.199C387.68 326.219 378.465 331.477 368.016 331.477C351.195 331.477 337.562 317.844 337.562 301.023C337.562 296.145 338.715 291.535 340.758 287.445C346.344 284.582 351.043 281.598 354.961 278.699C357.219 277.027 359.273 275.148 361.133 273.109Z" fill="#D93A59"/>
<path d="M385.207 307.844C368.867 307.844 355.539 294.977 354.789 278.824C350.906 281.684 346.262 284.621 340.758 287.449C338.715 291.535 337.562 296.145 337.562 301.023C337.562 317.844 351.195 331.48 368.016 331.48C378.465 331.48 387.68 326.219 393.164 318.203C394.117 314.34 394.621 310.355 394.688 306.336C391.703 307.312 388.52 307.844 385.207 307.844Z" fill="#BA1C37"/>
<path d="M360.965 333.457C360.965 342.777 353.406 350.336 344.086 350.336C334.766 350.336 327.211 342.777 327.211 333.457C327.211 324.137 334.766 316.578 344.086 316.578C353.406 316.578 360.965 324.137 360.965 333.457Z" fill="#D93A59"/>
<path d="M400.832 190.984C400.832 200.652 392.996 208.488 383.328 208.488C373.664 208.488 365.824 200.652 365.824 190.984C365.824 181.32 373.664 173.48 383.328 173.48C392.996 173.48 400.832 181.32 400.832 190.984Z" fill="#D93A59"/>
<path d="M146.176 190.984C146.176 200.652 138.34 208.488 128.672 208.488C119.008 208.488 111.172 200.652 111.172 190.984C111.172 181.32 119.008 173.48 128.672 173.48C138.34 173.48 146.176 181.32 146.176 190.984Z" fill="#D93A59"/>
<path d="M153.812 449.441C155.562 451.289 157.992 452.34 160.539 452.34H349.977C352.52 452.34 354.953 451.289 356.699 449.441L375.848 429.152C379.355 425.441 379.187 419.586 375.473 416.082C371.758 412.574 365.906 412.742 362.398 416.457L345.988 433.844C335.973 433.844 174.602 433.844 164.527 433.844L148.113 416.457C144.609 412.742 138.754 412.574 135.043 416.082C131.328 419.586 131.16 425.441 134.664 429.152L153.812 449.441Z" fill="#6464D8"/>
<path d="M375.328 481.008C355.805 481.008 163.293 481.008 136.672 481.008C149.93 488.414 163.941 494.633 178.574 499.5H333.426C348.059 494.633 362.07 488.414 375.328 481.008Z" fill="#6464D8"/>
<path d="M353.711 28.4766C343.742 24.9922 326.711 20.125 302.867 17.0625C294.066 15.9336 285.797 12.4258 278.586 7.25391C272.226 2.6875 264.43 0 256 0C247.574 0 239.777 2.6875 233.414 7.25391C226.207 12.4258 217.937 15.9336 209.137 17.0625C185.293 20.1211 168.262 24.9922 158.289 28.4766C152.187 30.6133 148.512 36.8281 149.598 43.2031L179.629 219.539C182.449 236.117 183.867 252.898 183.867 269.715V322.93C183.867 315.621 189.797 309.691 197.105 309.691H314.894C322.207 309.691 328.133 315.621 328.133 322.93V269.715C328.133 252.898 329.551 236.117 332.375 219.539L362.406 43.2031C363.492 36.8281 359.816 30.6133 353.711 28.4766Z" fill="#D9F5FF"/>
<path d="M217.926 267.578C217.926 250.09 216.508 232.633 213.684 215.395L183.652 31.9844C182.98 27.8711 184.137 23.8281 186.566 20.8203C174.223 23.3711 164.762 26.2148 158.289 28.4766C152.187 30.6133 148.512 36.8281 149.598 43.2031L179.629 219.539C182.449 236.117 183.867 252.898 183.867 269.715V322.93C183.867 315.617 189.797 309.691 197.105 309.691H217.926V267.578Z" fill="#C2EDFF"/>
<path d="M314.895 405.359C322.207 405.359 328.133 399.43 328.133 392.121V321.078C328.133 313.77 322.207 307.844 314.895 307.844H197.105C189.797 307.844 183.867 313.77 183.867 321.078V392.121C183.867 399.43 189.797 405.359 197.105 405.359H314.895Z" fill="#6464D8"/>
<path d="M210.484 392.121V321.082C210.484 313.77 216.41 307.844 223.723 307.844H197.105C189.797 307.844 183.867 313.77 183.867 321.082V392.121C183.867 399.434 189.797 405.359 197.105 405.359H223.723C216.41 405.359 210.484 399.434 210.484 392.121Z" fill="#554CBF"/>
<path d="M216.797 370.988H295.203C300.07 370.988 304.016 374.934 304.016 379.801V405.359H207.984V379.801C207.984 374.934 211.93 370.988 216.797 370.988Z" fill="#554CBF"/>
<path d="M216.797 370.988H243.547C238.68 370.988 234.734 374.934 234.734 379.801V405.359H207.984V379.801C207.984 374.934 211.93 370.988 216.797 370.988Z" fill="#483BA8"/>
<path d="M157.137 87.4727L179.629 219.539C181.398 229.934 182.613 240.41 183.277 250.922H328.727C329.387 240.406 330.605 229.934 332.375 219.539L354.867 87.4727H157.137Z" fill="#52B0F5"/>
<path d="M158.73 96.8398L179.629 219.539C179.629 219.555 179.633 219.57 179.633 219.586C182.32 235.375 182.996 247.895 183.277 250.922H217.48C216.867 239.016 215.609 227.156 213.684 215.395L192.738 87.4727H157.137L158.73 96.8398Z" fill="#2299F2"/>
<path d="M305.879 227.793H206.125C195.086 227.793 185.172 222.613 178.758 214.422L179.629 219.539C181.398 229.934 182.613 240.41 183.277 250.922H328.727C329.387 240.406 330.605 229.934 332.375 219.539L333.246 214.422C326.832 222.613 316.914 227.793 305.879 227.793Z" fill="#2299F2"/>
<path d="M217.48 250.922C217.078 243.188 216.406 235.477 215.457 227.793H206.125C195.086 227.793 185.168 222.613 178.754 214.422C180.684 226.434 182.293 235.336 183.277 250.922H217.48Z" fill="#1588E8"/>
<path d="M290.016 87.4727C290.043 86.4922 290.059 85.5039 290.059 84.5078C290.059 51.9531 274.809 25.5664 256 25.5664C237.191 25.5664 221.945 51.9531 221.945 84.5078C221.945 85.5039 221.961 86.4922 221.988 87.4727H290.016Z" fill="#C2EDFF"/>
<path d="M256 25.5664C253.148 25.5664 250.379 26.1797 247.727 27.3242C256.75 33.7227 263.434 56.8945 263.434 84.5078C263.434 85.5039 263.422 86.4922 263.406 87.4727H290.016C290.043 86.4922 290.059 85.5039 290.059 84.5078C290.059 51.9531 274.809 25.5664 256 25.5664Z" fill="#ABE4FE"/>
<path d="M273.242 40.957C273.242 50.4805 265.523 58.1992 256 58.1992C246.477 58.1992 238.758 50.4805 238.758 40.957C238.758 31.4336 246.477 23.7148 256 23.7148C265.523 23.7148 273.242 31.4336 273.242 40.957Z" fill="#1588E8"/>
<path d="M256 65.1367C242.668 65.1367 231.824 54.2891 231.824 40.957C231.824 27.625 242.668 16.7773 256 16.7773C269.332 16.7773 280.18 27.625 280.18 40.957C280.18 54.2891 269.332 65.1367 256 65.1367ZM256 30.6523C250.316 30.6523 245.695 35.2734 245.695 40.957C245.695 46.6406 250.316 51.2656 256 51.2656C261.684 51.2656 266.309 46.6406 266.309 40.957C266.309 35.2734 261.684 30.6523 256 30.6523Z" fill="#52B0F5"/>
<path d="M255.91 56.0195C255.91 54.2188 256.469 52.5469 257.414 51.1562C256.953 51.2188 256.484 51.2656 256.004 51.2656C250.32 51.2656 245.695 46.6406 245.695 40.9609C245.695 37.3203 247.598 34.1211 250.453 32.2852C247.223 31.0234 244.914 27.8828 244.914 24.2188C244.914 22.0195 245.75 20.0156 247.105 18.4844C238.164 22.0352 231.824 30.7695 231.824 40.9609C231.824 54.293 242.668 65.1367 256 65.1367C258.133 65.1367 260.195 64.8594 262.164 64.3398C258.562 63.2852 255.91 59.9492 255.91 56.0195Z" fill="#2299F2"/>
<path d="M204.687 433.844C183.398 433.844 167.477 433.844 164.527 433.844L148.117 416.457C144.609 412.742 138.758 412.574 135.043 416.082C131.328 419.586 131.16 425.441 134.664 429.152L153.812 449.441C155.562 451.289 157.992 452.34 160.539 452.34H206.953C199.043 449.316 197.738 438.691 204.687 433.844Z" fill="#554CBF"/>
<path d="M200.164 490.254C200.164 486.266 202.379 482.801 205.641 481.008C172.637 481.008 145.512 481.008 136.672 481.008C149.93 488.414 163.945 494.633 178.574 499.504H205.641C202.379 497.707 200.164 494.238 200.164 490.254Z" fill="#554CBF"/>
</svg>
