<svg width="512" height="512" viewBox="0 0 512 512" fill="none" xmlns="http://www.w3.org/2000/svg">
<g clip-path="url(#clip0)">
<path d="M245 11C172.457 11 107.289 42.5391 62.4297 92.6406L68.207 425.605C112.797 472.07 175.52 501 245 501C380.312 501 490.004 391.312 490.004 256C490.004 120.691 380.312 11 245 11Z" fill="#83D912"/>
<path d="M432.574 413.594C468.406 370.992 490 316.023 490 256C490 233.961 487.074 212.605 481.617 192.289C473.656 187.976 464.551 185.519 454.863 185.519C440.402 185.519 427.215 190.976 417.246 199.941C413.141 203.633 407.016 203.633 402.91 199.941C392.941 190.976 379.758 185.519 365.293 185.519C350.828 185.519 337.645 190.976 327.676 199.941C323.629 203.582 317.387 203.582 313.34 199.941C303.371 190.976 290.188 185.519 275.723 185.519C261.121 185.519 247.828 191.078 237.824 200.195C233.902 203.769 227.973 203.769 224.047 200.195C202.707 180.746 170.062 180.582 148.531 199.941C146.43 201.836 143.797 202.75 141.176 202.703V413.594H432.574Z" fill="#5BBF02"/>
<path d="M231.121 352.594C233.039 350.805 234.293 348.312 234.488 345.492C236.48 316.605 260.047 294.012 288.902 293.133C294.211 292.973 298.469 288.848 298.801 283.547C299.645 270.039 305.324 256.797 315.812 246.641C326.199 236.574 339.469 231.324 352.867 230.828C358.305 230.625 362.789 226.281 363.164 220.855C364.012 208.59 368.863 196.57 377.668 186.898C373.688 186.004 369.547 185.519 365.293 185.519C350.828 185.519 337.645 190.976 327.676 199.941C323.629 203.582 317.387 203.582 313.34 199.941C303.371 190.976 290.188 185.519 275.723 185.519C261.125 185.519 247.828 191.078 237.828 200.191C233.902 203.769 227.973 203.769 224.047 200.191C202.707 180.746 170.062 180.582 148.535 199.941C146.43 201.836 143.797 202.75 141.176 202.703V413.594H290.211L231.121 352.594Z" fill="#58AA02"/>
<path d="M57.4258 413.594C102.367 467.031 169.711 501 245 501C320.289 501 387.633 467.031 432.574 413.594H57.4258Z" fill="#FCDB75"/>
<path d="M172.691 413.594H57.4258C81.2812 441.961 111.453 464.84 145.777 480.066C133.078 456.391 142.418 421.277 172.691 413.594Z" fill="#FBC840"/>
<path d="M437.754 400.867C437.754 400.758 437.746 400.648 437.746 400.539H498.945C506.125 400.539 512 406.41 512 413.594C512 420.773 506.125 426.648 498.945 426.648H431.637C435.543 418.895 437.754 410.141 437.754 400.867Z" fill="#6464D8"/>
<path d="M457.82 413.594C457.82 406.41 463.691 400.539 470.871 400.539H437.746C437.746 400.648 437.754 400.758 437.754 400.867C437.754 410.141 435.543 418.895 431.637 426.648H470.871C463.691 426.648 457.82 420.773 457.82 413.594Z" fill="#554CBF"/>
<path d="M486.086 338.496C484.086 337.66 482.277 336.484 480.691 335.062C478.094 339.121 473.496 341.836 468.285 341.836H455.168C447.113 341.836 440.523 335.359 440.523 327.441V321.695C440.523 313.777 447.113 307.297 455.168 307.297H456.598C423.324 283.219 367.113 280.336 342.797 280.301C334.887 280.289 327.121 278.168 320.277 274.211C304.945 265.355 290.145 257.59 276.078 250.785V250.797L220.082 226.871C211.336 223.625 203.188 220.832 195.746 218.445C169.09 209.891 141.27 205.539 113.27 205.539H5.21484C1.80469 221.824 0 238.699 0 256C0 310.059 17.5234 360.02 47.1797 400.539H322.957C323.137 368.988 348.762 343.465 380.352 343.465C411.945 343.465 437.566 368.988 437.746 400.539H498V356.375C498 348.559 493.301 341.504 486.086 338.496Z" fill="#F7577A"/>
<path d="M140.434 398.117C44.0703 371.531 64.4727 295.824 68.4297 283.684C68.8008 282.547 68.9062 281.348 68.7461 280.164L61.6445 228.523C61.5039 227.492 61.1562 226.496 60.6289 225.605C56.5391 218.668 57.6797 214.211 59.1836 211.789C60.332 209.945 60.7578 207.746 60.1836 205.652L60.1523 205.539H5.21484C1.80469 221.824 0 238.699 0 256C0 310.059 17.5234 360.02 47.1797 400.539H144.266C143.289 399.41 141.984 398.547 140.434 398.117Z" fill="#D93A59"/>
<path d="M303.309 401.539C303.488 359.137 337.906 323.816 380.352 323.816C422.793 323.816 457.215 359.137 457.395 401.539H437.746C437.566 369.988 411.941 343.465 380.352 343.465C348.758 343.465 323.137 369.988 322.957 401.539H303.309Z" fill="#554CBF"/>
<path d="M303.309 401.539H322.957C323.086 378.871 336.348 358.801 355.52 349.297C355.57 348.027 354.879 346.84 353.73 346.258C344.43 341.531 347.207 331.551 347.227 331.48C321.348 344.113 303.437 370.984 303.309 401.539Z" fill="#483BA8"/>
<path d="M476.254 329.344C477.477 331.699 479.145 333.77 481.145 335.453C478.535 340.215 473.473 343.465 467.688 343.465H453.961C445.531 343.465 438.637 336.57 438.637 328.141V322.023C438.637 313.594 445.531 306.699 453.961 306.699H455.762C464.367 312.77 471.508 320.211 476.254 329.344Z" fill="#82C6F9"/>
<path d="M457.395 328.141V322.023C457.395 317.891 459.062 314.129 461.746 311.363C459.848 309.727 457.852 308.172 455.762 306.699H453.961C445.531 306.699 438.637 313.598 438.637 322.023V328.141C438.637 336.57 445.531 343.469 453.961 343.469H467.688C468.555 343.469 469.402 343.387 470.234 343.246C462.977 342.047 457.395 335.723 457.395 328.141Z" fill="#52B0F5"/>
<path d="M277.82 251.641C256.715 241.359 237.227 233.23 220.078 226.871H137.305L147.699 287.91L148.113 287.941L266.605 296.793C282.863 279.098 279.699 258.902 277.82 251.641Z" fill="#82C6F9"/>
<path d="M188.23 280.543L181.289 239.773C180.484 235.047 181.617 230.5 184.059 226.871H137.309L147.699 287.91L148.117 287.941L194.641 291.418C191.336 288.766 188.984 284.957 188.23 280.543Z" fill="#52B0F5"/>
<path d="M84.8984 226.871H1.73047C0.597656 236.426 0 246.141 0 256C0 263.059 0.316406 270.039 0.898438 276.945L93.1289 283.836L84.8984 226.871Z" fill="#52B0F5"/>
<path d="M68.7773 282.016C68.8398 281.402 68.8281 280.781 68.7461 280.164L61.6445 228.523C61.5664 227.957 61.4219 227.406 61.2227 226.871H1.73047C0.597656 236.426 0 246.141 0 256C0 263.059 0.316406 270.039 0.898438 276.945L68.7773 282.016Z" fill="#2299F2"/>
<path d="M32.3828 311.023C32.1953 311.023 32.0078 311.016 31.8164 311L11.1406 309.457C7.01168 309.148 3.91012 305.551 4.22262 301.418C4.53121 297.289 8.10933 294.187 12.2578 294.496L32.9336 296.043C37.0664 296.351 40.164 299.949 39.8554 304.078C39.5625 308.019 36.2734 311.023 32.3828 311.023Z" fill="#BA1C37"/>
<path d="M189.184 322.707C188.996 322.707 188.809 322.699 188.617 322.687L167.941 321.141C163.812 320.832 160.715 317.234 161.019 313.105C161.328 308.973 164.91 305.875 169.059 306.184L189.734 307.727C193.867 308.035 196.965 311.637 196.656 315.766C196.359 319.707 193.074 322.707 189.184 322.707Z" fill="#D93A59"/>
<path d="M123.129 91.5352H63.4102C38.6055 118.902 19.9062 151.902 9.45312 188.391H130.324C133.414 188.391 135.945 185.863 135.945 182.773V104.352C135.945 97.3008 130.176 91.5352 123.129 91.5352Z" fill="#F7577A"/>
<path d="M123.129 91.5352H63.4102C53.1328 102.871 43.9258 115.191 35.8984 128.312L10.8008 183.938C10.3438 185.422 9.88281 186.898 9.45312 188.391H130.324C133.414 188.391 135.945 185.863 135.945 182.773V104.352C135.945 97.3008 130.176 91.5352 123.129 91.5352Z" fill="#F7577A"/>
<path d="M55.8008 182.773V104.352C55.8008 102.387 56.2617 100.527 57.0586 98.8594C49.293 108.141 42.2109 118.008 35.8672 128.379L10.7812 183.977C10.332 185.445 9.87891 186.91 9.45312 188.391H61.418C58.3281 188.391 55.8008 185.863 55.8008 182.773Z" fill="#D93A59"/>
<path d="M84.3555 91.5352H111.746V188.391H84.3555V91.5352Z" fill="#FBC840"/>
<path d="M35.957 128.176C24.5703 146.758 15.5898 166.973 9.45312 188.391H35.957V128.176Z" fill="#F79D0D"/>
<path d="M90.0391 77.5469V91.3594C90.0391 95.7852 93.625 99.3711 98.0508 99.3711C102.473 99.3711 106.059 95.7852 106.059 91.3594V77.5469C106.059 70.5234 103.184 64.1602 98.5508 59.5703C94.1914 62.8281 89.9492 66.2344 85.8203 69.7656C88.3594 71.4297 90.0391 74.293 90.0391 77.5469Z" fill="#D9F5FF"/>
<path d="M148.98 183.891H10.793C8.21875 192.258 6.09375 200.816 4.41797 209.539H148.98C156.035 209.539 161.805 203.766 161.805 196.715C161.805 189.66 156.035 183.891 148.98 183.891Z" fill="#554CBF"/>
<path d="M151.637 157.539H20.6094C18.4453 162.457 16.4336 167.457 14.5938 172.539H151.637C155.781 172.539 159.137 169.18 159.137 165.039C159.137 160.895 155.781 157.539 151.637 157.539Z" fill="#554CBF"/>
<path d="M48.4219 196.715C48.4219 189.66 54.1953 183.891 61.2461 183.891H10.793C8.21875 192.258 6.09375 200.816 4.41797 209.539H61.2461C54.1914 209.539 48.4219 203.766 48.4219 196.715Z" fill="#483BA8"/>
<path d="M51.0938 165.039C51.0938 160.895 54.4492 157.539 58.5938 157.539H20.6094C18.4453 162.457 16.4336 167.457 14.5938 172.539H58.5898C54.4492 172.539 51.0938 169.18 51.0938 165.039Z" fill="#483BA8"/>
<path d="M276.074 250.797C290.145 257.598 304.938 265.352 320.273 274.211L314.551 282.766C307.617 293.133 295.648 298.965 283.215 298.035L265 296.676C285.566 276.105 276.18 251.07 276.074 250.797Z" fill="#D93A59"/>
<path d="M148.117 287.941L92.6797 283.801L83.1875 226.871H137.93L148.117 287.941Z" fill="#554CBF"/>
<path d="M137.93 226.871L148.117 287.941L120.398 285.871L110.559 226.871H137.93Z" fill="#6464D8"/>
<path d="M251.203 275.301C253.598 274.855 256.129 274.613 258.75 274.613C273.523 274.613 285.5 282.191 285.5 291.535C285.5 300.879 273.523 308.457 258.75 308.457C256.129 308.457 253.598 308.215 251.203 307.77C247.285 307.043 244.5 303.535 244.5 299.551V283.52C244.5 279.535 247.285 276.027 251.203 275.301Z" fill="#D9F5FF"/>
<path d="M271.25 295.676C268.629 295.676 266.098 295.434 263.703 294.988C259.785 294.262 257 290.754 257 286.77V274.652C255 274.734 253.059 274.953 251.203 275.297C247.285 276.027 244.5 279.535 244.5 283.52V299.551C244.5 303.535 247.285 307.043 251.203 307.77C253.598 308.215 256.129 308.457 258.75 308.457C272.68 308.457 284.113 301.723 285.379 293.121C281.277 294.738 276.438 295.676 271.25 295.676Z" fill="#ABE4FE"/>
<path d="M142.648 162.691C138.508 162.691 135.148 166.047 135.148 170.191V189.215C135.148 193.355 138.508 196.715 142.648 196.715C146.789 196.715 150.148 193.355 150.148 189.215V170.191C150.148 166.047 146.789 162.691 142.648 162.691Z" fill="#6464D8"/>
<path d="M111.547 162.691C107.402 162.691 104.047 166.047 104.047 170.191V189.215C104.047 193.355 107.402 196.715 111.547 196.715C115.688 196.715 119.047 193.355 119.047 189.215V170.191C119.047 166.047 115.688 162.691 111.547 162.691Z" fill="#6464D8"/>
<path d="M80.4414 162.691C76.3008 162.691 72.9414 166.047 72.9414 170.191V189.215C72.9414 193.355 76.3008 196.715 80.4414 196.715C84.5859 196.715 87.9414 193.355 87.9414 189.215V170.191C87.9414 166.047 84.5859 162.691 80.4414 162.691Z" fill="#6464D8"/>
<path d="M49.3398 162.691C45.1953 162.691 41.8398 166.047 41.8398 170.191V189.215C41.8398 193.355 45.1953 196.715 49.3398 196.715C53.4805 196.715 56.8398 193.355 56.8398 189.215V170.191C56.8398 166.047 53.4805 162.691 49.3398 162.691Z" fill="#6464D8"/>
<path d="M10.7344 189.215C10.7344 193.355 14.0938 196.715 18.2344 196.715C22.3789 196.715 25.7344 193.355 25.7344 189.215V170.191C25.7344 166.105 22.4727 162.793 18.4102 162.699C15.5352 169.672 12.9688 176.805 10.7344 184.082V189.215Z" fill="#554CBF"/>
<path d="M322.949 400.867C322.949 400.758 322.957 400.648 322.957 400.539H47.1797C53.9219 409.75 61.2891 418.473 69.2266 426.648H329.066C325.16 418.895 322.949 410.141 322.949 400.867Z" fill="#554CBF"/>
<path d="M151.316 426.648C144.379 419.707 144.297 412.969 145.84 408.074C146.695 405.359 146 402.535 144.266 400.539H47.1797C53.9219 409.75 61.2891 418.473 69.2266 426.648H151.316Z" fill="#483BA8"/>
<path d="M380.352 341.965C347.871 341.965 321.449 368.391 321.449 400.867C321.449 433.348 347.871 459.773 380.352 459.773C412.828 459.773 439.254 433.348 439.254 400.867C439.254 368.391 412.832 341.965 380.352 341.965Z" fill="#483BA8"/>
<path d="M403.906 439.422C404.004 438.055 403.164 436.836 401.906 436.301C396.559 434.031 395.805 429.062 395.855 426.184C395.875 424.93 395.203 423.781 394.105 423.184C389.648 420.762 389.074 416.016 389.152 413.301C389.188 412.051 388.523 410.902 387.43 410.297C376.961 404.512 375.746 394.355 375.742 389.98C375.742 388.773 375.094 387.66 374.031 387.086C369.336 384.543 368.539 379.738 368.48 377.102C368.453 376.008 367.902 374.98 366.965 374.41C361.75 371.254 361.578 366.684 362.074 363.926C362.324 362.531 361.656 361.176 360.434 360.461C355.344 357.484 355.109 352.516 355.504 349.59C355.594 348.898 355.461 348.223 355.148 347.641C335.242 357.102 321.445 377.402 321.445 400.867C321.445 433.348 347.871 459.77 380.352 459.77C392.012 459.77 402.887 456.348 412.043 450.477C404.395 448.781 403.668 442.801 403.906 439.422Z" fill="#3C2B8E"/>
<path d="M413.477 400.539C413.477 418.832 398.645 433.664 380.352 433.664C362.055 433.664 347.227 418.832 347.227 400.539C347.227 382.242 362.055 367.414 380.352 367.414C398.645 367.414 413.477 382.242 413.477 400.539Z" fill="#2299F2"/>
<path d="M395.855 426.184C395.875 424.93 395.203 423.781 394.105 423.184C389.648 420.762 389.074 416.016 389.152 413.301C389.188 412.051 388.523 410.902 387.43 410.297C376.961 404.512 375.746 394.355 375.742 389.98C375.742 388.773 375.094 387.66 374.031 387.086C369.336 384.543 368.539 379.738 368.48 377.102C368.453 376.008 367.902 374.98 366.965 374.41C365.645 373.609 364.648 372.719 363.902 371.789C353.941 377.5 347.227 388.23 347.227 400.535C347.227 418.828 362.055 433.66 380.352 433.66C386.102 433.66 391.512 432.191 396.227 429.613C395.918 428.355 395.836 427.152 395.855 426.184Z" fill="#52B0F5"/>
<path d="M380.352 443.926C356.609 443.926 337.297 424.609 337.297 400.867C337.297 377.129 356.609 357.812 380.352 357.812C404.094 357.812 423.406 377.129 423.406 400.867C423.406 424.609 404.094 443.926 380.352 443.926ZM380.352 372.812C364.883 372.812 352.297 385.398 352.297 400.867C352.297 416.34 364.883 428.926 380.352 428.926C395.82 428.926 408.406 416.34 408.406 400.867C408.406 385.398 395.82 372.812 380.352 372.812Z" fill="#D9F5FF"/>
<path d="M401.906 436.301C396.559 434.031 395.805 429.062 395.855 426.184C395.863 425.586 395.711 425.012 395.434 424.508C391.074 427.301 385.902 428.926 380.352 428.926C364.883 428.926 352.297 416.34 352.297 400.867C352.297 389.789 358.754 380.191 368.098 375.637C367.84 375.141 367.461 374.711 366.969 374.41C361.75 371.254 361.582 366.684 362.078 363.926C362.199 363.254 362.102 362.594 361.832 362.004C347.336 368.941 337.297 383.754 337.297 400.867C337.297 424.609 356.609 443.926 380.352 443.926C388.754 443.926 396.598 441.496 403.234 437.312C402.891 436.883 402.438 436.527 401.906 436.301Z" fill="#ABE4FE"/>
<path d="M386.352 411.262C387.277 410.727 388.422 410.727 389.352 411.262L408.895 422.543C409.578 422.941 410.355 423.148 411.137 423.148C412.742 423.148 414.238 422.285 415.039 420.898C415.641 419.855 415.801 418.645 415.488 417.484C415.18 416.32 414.434 415.352 413.391 414.75L393.852 403.469C392.922 402.934 392.352 401.941 392.352 400.871C392.352 399.797 392.922 398.809 393.852 398.273L413.391 386.988C414.434 386.387 415.176 385.418 415.488 384.258C415.801 383.094 415.641 381.883 415.039 380.844C414.438 379.801 413.469 379.055 412.309 378.746C411.148 378.434 409.934 378.594 408.895 379.195L389.352 390.477C388.422 391.016 387.277 391.016 386.352 390.477C385.422 389.941 384.852 388.953 384.852 387.879V365.316C384.852 362.832 382.832 360.816 380.352 360.816C377.867 360.816 375.852 362.832 375.852 365.316V387.879C375.852 388.953 375.277 389.941 374.352 390.477C373.422 391.016 372.277 391.016 371.352 390.477L351.809 379.195C350.766 378.594 349.551 378.434 348.395 378.746C347.234 379.055 346.262 379.801 345.664 380.844C345.063 381.883 344.902 383.098 345.215 384.258C345.523 385.418 346.27 386.391 347.309 386.988L366.852 398.273C367.781 398.809 368.352 399.801 368.352 400.871C368.352 401.941 367.781 402.934 366.852 403.469L347.309 414.754C346.27 415.352 345.523 416.324 345.215 417.484C344.902 418.645 345.063 419.859 345.66 420.898C346.465 422.289 347.961 423.148 349.566 423.148C350.348 423.148 351.125 422.941 351.809 422.547L371.352 411.262C371.816 410.996 372.332 410.859 372.852 410.859C373.367 410.859 373.887 410.996 374.352 411.262C375.277 411.801 375.852 412.789 375.852 413.859V436.426C375.852 438.906 377.867 440.926 380.352 440.926C382.832 440.926 384.852 438.906 384.852 436.426V413.859C384.852 412.785 385.422 411.797 386.352 411.262Z" fill="#ABE4FE"/>
<path d="M366.852 403.469L347.309 414.75C346.27 415.352 345.524 416.32 345.211 417.481C344.902 418.645 345.063 419.856 345.66 420.899C346.465 422.285 347.961 423.149 349.567 423.149C350.348 423.149 351.125 422.938 351.809 422.543L371.352 411.262C371.813 410.992 372.332 410.859 372.852 410.859C373.367 410.859 373.887 410.992 374.352 411.262C375.277 411.797 375.852 412.785 375.852 413.859V436.426C375.852 438.906 377.867 440.926 380.352 440.926C382.832 440.926 384.852 438.906 384.852 436.426V413.859C384.852 412.785 385.422 411.797 386.352 411.262C386.926 410.93 387.578 410.828 388.219 410.906C387.988 410.672 387.727 410.461 387.43 410.297C376.961 404.512 375.746 394.356 375.742 389.981C375.742 389.649 375.692 389.328 375.598 389.02C375.348 389.617 374.93 390.141 374.352 390.477C373.422 391.012 372.277 391.012 371.352 390.477L351.809 379.195C350.766 378.594 349.551 378.434 348.395 378.746C347.231 379.055 346.262 379.801 345.66 380.844C345.059 381.883 344.899 383.098 345.211 384.258C345.524 385.418 346.266 386.391 347.309 386.988L366.852 398.274C367.777 398.809 368.352 399.801 368.352 400.871C368.352 401.942 367.777 402.93 366.852 403.469Z" fill="#82C6F9"/>
<path d="M386.445 400.867C386.445 404.234 383.715 406.965 380.352 406.965C376.984 406.965 374.258 404.234 374.258 400.867C374.258 397.504 376.984 394.773 380.352 394.773C383.715 394.773 386.445 397.504 386.445 400.867Z" fill="#554CBF"/>
</g>
<defs>
<clipPath id="clip0">
<rect width="512" height="512" fill="white"/>
</clipPath>
</defs>
</svg>
