<svg width="512" height="512" viewBox="0 0 512 512" fill="none" xmlns="http://www.w3.org/2000/svg">
<path d="M76.2812 433.488C121.031 481.77 184.98 512 256 512C327.02 512 390.969 481.77 435.719 433.488H76.2812Z" fill="#FCDB75"/>
<path d="M467.695 390.383C488.859 354.145 501 311.992 501 267C501 131.691 391.309 22 256 22C120.691 22 11 131.691 11 267C11 311.992 23.1406 354.145 44.3047 390.383H467.695Z" fill="#2299F2"/>
<path d="M284.461 433.488C317.41 445.238 319.668 494.422 289.328 509.746C346.891 501.91 398.094 474.086 435.719 433.488H284.461Z" fill="#FBC840"/>
<path d="M480.297 108.941C466.004 108.941 453.926 118.398 449.965 131.398C452.738 141.223 454.832 151.207 456.246 161.289C462.059 168.055 470.676 172.348 480.297 172.348C497.809 172.348 512 158.156 512 140.645C512 123.137 497.805 108.941 480.297 108.941Z" fill="#ABE4FE"/>
<path d="M486.582 109.566C482.309 110.938 478.465 113.723 475.864 117.797C469.926 127.094 472.649 139.441 481.946 145.379C491.242 151.316 503.59 148.59 509.528 139.293C510.367 137.977 511.024 136.598 511.524 135.184C509.289 122.328 499.321 112.129 486.582 109.566Z" fill="#D9F5FF"/>
<path d="M31.7031 108.941C45.9961 108.941 58.0742 118.398 62.0352 131.398C59.2617 141.223 57.168 151.207 55.7539 161.289C49.9414 168.055 41.3242 172.348 31.7031 172.348C14.1953 172.348 0 158.156 0 140.645C0 123.133 14.1953 108.941 31.7031 108.941Z" fill="#ABE4FE"/>
<path d="M38.3164 109.656C29.7422 111.973 23.4258 119.785 23.4258 129.086C23.4258 140.215 32.4453 149.234 43.5742 149.234C50.0312 149.234 55.7656 146.184 59.4531 141.461C60.2344 138.09 61.0938 134.734 62.0352 131.398C58.707 120.465 49.6211 112.059 38.3164 109.656Z" fill="#D9F5FF"/>
<path d="M475.129 159.172L460.926 159.109C463.504 171.949 464.812 185.023 464.812 198.164V200.977L474.945 201.02C481.766 201.051 487.367 195.492 487.398 188.672L487.473 171.625C487.504 164.805 481.949 159.199 475.129 159.172Z" fill="#82C6F9"/>
<path d="M47.1876 198.164C47.1876 185.023 48.4962 171.949 51.0744 159.109L36.8712 159.172C30.0509 159.199 24.4962 164.805 24.5275 171.625L24.6017 188.676C24.629 195.496 30.2345 201.051 37.0548 201.02L47.1876 200.977V198.164Z" fill="#82C6F9"/>
<path d="M134.055 456.73C128.586 456.73 123.824 453.223 122.207 448.008L121.871 446.914H89.7227C105.625 461.621 123.48 474.242 142.859 484.352C143.656 481.945 144.094 479.379 144.094 476.719V451.625C141.816 454.781 138.133 456.73 134.055 456.73Z" fill="#483BA8"/>
<path d="M390.129 446.914L389.789 448.008C388.176 453.223 383.414 456.73 377.945 456.73C373.867 456.73 370.184 454.781 367.902 451.625V476.719C367.902 479.383 368.344 481.945 369.141 484.352C388.52 474.246 406.375 461.621 422.277 446.914H390.129Z" fill="#483BA8"/>
<path d="M43.5703 389.141C47.9805 396.789 52.7969 404.168 57.9766 411.266H454.02C459.199 404.168 464.02 396.789 468.426 389.145V226.109C388.605 233.965 318.719 275.625 273.258 336.574C264.625 348.145 247.371 348.145 238.742 336.574C193.277 275.625 123.391 233.965 43.5703 226.109V389.141Z" fill="#D93A59"/>
<path d="M143.457 255.68C113.016 239.926 79.293 229.625 43.5742 226.109V389.141C47.9805 396.789 52.8008 404.168 57.9805 411.266H143.457V255.68Z" fill="#BA1C37"/>
<path d="M459.781 139.988L439.473 73.1875C433.348 53.0391 414.766 39.2656 393.711 39.2656C385.941 39.2656 126.059 39.2656 118.293 39.2656C97.2344 39.2656 78.6523 53.0391 72.5273 73.1875L52.2227 139.988C46.4883 158.848 43.5742 178.449 43.5742 198.164V228.172C123.395 236.031 193.281 277.691 238.742 338.641C247.371 350.211 264.629 350.211 273.258 338.641C318.719 277.691 388.605 236.031 468.426 228.172V198.164C468.426 178.453 465.512 158.848 459.781 139.988Z" fill="#D9F5FF"/>
<path d="M118.289 39.2656C97.2344 39.2656 78.6523 53.0391 72.5273 73.1875L52.2188 139.988C46.4883 158.848 43.5742 178.453 43.5742 198.164V228.172C79.293 231.691 113.016 241.992 143.457 257.746V208.73L136.668 181.934L167.008 70.707C167.547 68.7344 167.449 66.6133 166.574 64.7656C164.367 60.1055 165.574 56.3242 167.129 53.8477C168.535 51.6055 168.879 48.8867 168.016 46.3867C167.07 43.6445 166.883 41.2812 167.141 39.2656C139.621 39.2656 120.324 39.2656 118.289 39.2656Z" fill="#ABE4FE"/>
<path d="M161.672 307.684C152.863 292.43 133.36 287.203 118.106 296.012C102.852 304.82 97.6252 324.324 106.43 339.578C115.238 354.832 134.746 360.059 150 351.254C165.254 342.445 170.481 322.941 161.672 307.684Z" fill="#52B0F5"/>
<path d="M146.246 353.105C144.836 350.68 144.648 348.164 144.808 346.289C144.969 344.398 144.019 342.574 142.41 341.562C124.754 330.484 122.601 314.164 122.543 307.254C122.527 305.367 121.527 303.609 119.859 302.719C117.422 301.422 115.805 299.867 114.75 298.258C102.137 307.832 98.3085 325.512 106.433 339.586C114.535 353.617 131.68 359.152 146.246 353.105Z" fill="#2299F2"/>
<path d="M104.973 181.938C110.801 197.543 125.883 208.734 143.457 208.734H368.543C386.117 208.734 401.199 197.543 407.027 181.938H104.973Z" fill="#ABE4FE"/>
<path d="M241.051 181.938H104.973C110.801 197.543 125.887 208.734 143.457 208.734H241.895C241.348 208.734 240.801 208.723 240.254 208.703C222.934 208.012 223.719 181.938 241.051 181.938Z" fill="#82C6F9"/>
<path d="M136.664 181.938H104.973C110.801 197.543 125.883 208.734 143.457 208.734L136.664 181.938Z" fill="#52B0F5"/>
<path d="M437.637 166.75C436.469 160.465 434.953 154.242 433.086 148.102L412.777 81.3008C410.207 72.8477 402.547 67.168 393.707 67.168H282.109C275.09 67.168 269.398 72.8594 269.398 79.8789V181.934H425.016C433.047 181.938 439.102 174.645 437.637 166.75Z" fill="#52B0F5"/>
<path d="M229.891 67.168H118.289C109.516 67.168 101.774 72.9062 99.2229 81.3008L78.9143 148.102C77.0471 154.242 75.5315 160.465 74.3635 166.75C72.8986 174.645 78.9533 181.934 86.9807 181.934H242.602V79.8789C242.602 72.8594 236.91 67.168 229.891 67.168Z" fill="#52B0F5"/>
<path d="M331.793 67.168H282.109C275.09 67.168 269.398 72.8594 269.398 79.8789V181.934H319.082V79.8789C319.082 72.8594 324.773 67.168 331.793 67.168Z" fill="#2299F2"/>
<path d="M124.047 166.75C125.215 160.465 126.731 154.242 128.598 148.102L148.906 81.3008C151.457 72.9062 159.199 67.168 167.973 67.168H118.289C109.516 67.168 101.774 72.9062 99.2229 81.3008L78.9143 148.102C77.051 154.242 75.5315 160.465 74.3635 166.75C72.8986 174.645 78.9533 181.938 86.9846 181.938H136.668C128.637 181.938 122.582 174.645 124.047 166.75Z" fill="#2299F2"/>
<path d="M118.289 40.3008H393.707C399.543 40.3008 405.184 41.3633 410.426 43.3203C410.164 19.4492 390.566 0 366.641 0H145.359C121.434 0 101.836 19.4492 101.574 43.3203C106.816 41.3633 112.457 40.3008 118.289 40.3008Z" fill="#D9F5FF"/>
<path d="M101.574 43.3203C106.816 41.3633 112.457 40.3008 118.289 40.3008H167.055C167.176 37.7578 168.008 35.7148 169.035 34.1445C170.871 31.3477 171.133 27.7656 169.375 24.9219C161 11.3672 173.434 0 173.434 0H145.359C121.434 0 101.836 19.4492 101.574 43.3203Z" fill="#ABE4FE"/>
<path d="M282.074 268.32C282.074 283.352 269.891 295.531 254.863 295.531C239.832 295.531 227.652 283.352 227.652 268.32C227.652 253.293 239.832 241.109 254.863 241.109C269.891 241.109 282.074 253.293 282.074 268.32Z" fill="#ABE4FE"/>
<path d="M264.027 277.199C254.062 277.199 245.984 269.121 245.984 259.156C245.984 250.594 251.949 243.445 259.945 241.594C258.297 241.281 256.598 241.113 254.859 241.113C239.832 241.113 227.648 253.293 227.648 268.324C227.648 283.352 239.832 295.535 254.859 295.535C271.836 295.535 284.781 280.105 281.59 263.238C279.738 271.234 272.59 277.199 264.027 277.199Z" fill="#82C6F9"/>
<path d="M413 50.6328H99C93.293 50.6328 88.668 46.0078 88.668 40.3008C88.668 34.5938 93.293 29.9688 99 29.9688H413C418.707 29.9688 423.332 34.5938 423.332 40.3008C423.332 46.0078 418.707 50.6328 413 50.6328Z" fill="#ABE4FE"/>
<path d="M170.504 29.9648H99C93.293 29.9648 88.6641 34.5938 88.6641 40.3008C88.6641 46.0078 93.293 50.6328 99 50.6328H168.348C168.59 49.2266 168.492 47.7773 168.016 46.3867C166.098 40.8281 167.289 36.8086 169.035 34.1406C169.871 32.8672 170.363 31.4258 170.504 29.9648Z" fill="#82C6F9"/>
<path d="M429.746 252.879C429.746 264.004 420.727 273.027 409.602 273.027C398.473 273.027 389.453 264.004 389.453 252.879C389.453 241.75 398.473 232.73 409.602 232.73C420.727 232.73 429.746 241.75 429.746 252.879Z" fill="#FBC840"/>
<path d="M415.539 261.148C407.691 261.148 401.328 254.785 401.328 246.938C401.328 240.039 406.25 234.289 412.773 233.004C411.738 232.84 410.684 232.73 409.602 232.73C398.473 232.73 389.453 241.75 389.453 252.879C389.453 264.004 398.473 273.023 409.602 273.023C420.727 273.023 429.746 264.004 429.746 252.879C429.746 251.797 429.637 250.742 429.473 249.703C428.188 256.227 422.438 261.148 415.539 261.148Z" fill="#F79D0D"/>
<path d="M154.59 359.211C134.976 370.535 109.808 363.789 98.4842 344.176C87.16 324.562 93.9061 299.394 113.519 288.07C133.133 276.746 158.301 283.492 169.625 303.102C180.949 322.719 174.203 347.887 154.59 359.211ZM122.695 303.969C111.851 310.23 108.121 324.152 114.383 334.996C120.644 345.844 134.566 349.574 145.41 343.312C156.262 337.047 159.988 323.129 153.726 312.281C147.465 301.434 133.547 297.707 122.695 303.969Z" fill="#82C6F9"/>
<path d="M154.59 359.211C145.496 356.148 144.496 349.977 144.808 346.289C144.879 345.445 144.719 344.617 144.39 343.867C133.707 349.336 120.449 345.504 114.383 334.996C108.305 324.465 111.644 311.039 121.769 304.535C121.312 303.785 120.664 303.152 119.859 302.723C110.039 297.492 113.519 288.07 113.519 288.07C93.9061 299.395 87.16 324.562 98.4842 344.176C109.808 363.789 134.976 370.535 154.59 359.211Z" fill="#52B0F5"/>
<path d="M423.176 381.328H88.8242C72.5039 381.328 58.8984 393.133 56.0781 408.652C60.3789 414.707 64.9492 420.551 69.7656 426.18C70.5664 424.965 71.0312 423.508 71.0312 421.945V414.617C71.0312 404.809 79.0156 396.828 88.8242 396.828H423.172C432.984 396.828 440.965 404.809 440.965 414.617V421.945C440.965 423.508 441.434 424.965 442.23 426.184C447.047 420.551 451.621 414.711 455.918 408.656C453.102 393.133 439.492 381.328 423.176 381.328Z" fill="#F7577A"/>
<path d="M367.719 450.531C367.312 449.227 367.094 447.836 367.094 446.398V411.266H144.902V446.398C144.902 447.836 144.684 449.227 144.281 450.531H367.719Z" fill="#82C6F9"/>
<path d="M123.203 411.266H57.9805C68.4492 425.613 80.4414 438.781 93.7227 450.531H123.828C123.426 449.223 123.203 447.836 123.203 446.398V411.266Z" fill="#52B0F5"/>
<path d="M388.797 411.266V446.398C388.797 447.836 388.574 449.223 388.172 450.531H418.277C431.559 438.781 443.547 425.613 454.02 411.266H388.797Z" fill="#82C6F9"/>
<path d="M134.055 462.414C126.348 462.414 120.105 456.168 120.105 448.465V389.078C120.105 381.371 126.348 375.125 134.055 375.125C141.758 375.125 148.004 381.371 148.004 389.078V448.465C148.004 456.168 141.758 462.414 134.055 462.414Z" fill="#D9F5FF"/>
<path d="M377.945 462.414C370.238 462.414 363.996 456.168 363.996 448.465V389.078C363.996 381.371 370.238 375.125 377.945 375.125C385.648 375.125 391.895 381.371 391.895 389.078V448.465C391.895 456.168 385.648 462.414 377.945 462.414Z" fill="#D9F5FF"/>
<path d="M134.055 424.969C126.348 424.969 120.105 418.727 120.105 411.02V448.465C120.105 456.168 126.348 462.414 134.055 462.414C141.758 462.414 148.004 456.168 148.004 448.465V411.02C148.004 418.723 141.758 424.969 134.055 424.969Z" fill="#ABE4FE"/>
<path d="M377.945 424.969C370.238 424.969 363.996 418.727 363.996 411.02V448.465C363.996 456.168 370.238 462.414 377.945 462.414C385.648 462.414 391.895 456.168 391.895 448.465V411.02C391.895 418.723 385.648 424.969 377.945 424.969Z" fill="#ABE4FE"/>
<path d="M122.547 252.879C122.547 264.004 113.527 273.027 102.398 273.027C91.2734 273.027 82.2539 264.004 82.2539 252.879C82.2539 241.75 91.2734 232.73 102.398 232.73C113.527 232.73 122.547 241.75 122.547 252.879Z" fill="#FBC840"/>
<path d="M108.34 261.148C100.492 261.148 94.1289 254.785 94.1289 246.938C94.1289 240.039 99.0508 234.289 105.57 233.004C104.535 232.84 103.48 232.73 102.398 232.73C91.2734 232.73 82.2539 241.75 82.2539 252.879C82.2539 264.004 91.2734 273.023 102.398 273.023C113.527 273.023 122.547 264.004 122.547 252.879C122.547 251.797 122.438 250.742 122.273 249.703C120.984 256.227 115.238 261.148 108.34 261.148Z" fill="#F79D0D"/>
<path d="M405.555 307.684C396.75 292.43 377.242 287.203 361.988 296.012C346.734 304.82 341.508 324.324 350.316 339.578C359.121 354.832 378.629 360.059 393.883 351.254C409.137 342.445 414.363 322.941 405.555 307.684Z" fill="#52B0F5"/>
<path d="M390.137 353.105C388.726 350.68 388.539 348.164 388.695 346.289C388.855 344.398 387.91 342.574 386.301 341.562C368.644 330.484 366.492 314.164 366.433 307.254C366.418 305.367 365.414 303.609 363.75 302.719C361.312 301.422 359.695 299.867 358.641 298.258C346.023 307.832 342.199 325.512 350.324 339.586C358.422 353.617 375.57 359.152 390.137 353.105Z" fill="#2299F2"/>
<path d="M398.48 359.211C378.867 370.535 353.699 363.789 342.375 344.176C331.051 324.562 337.797 299.394 357.41 288.07C377.023 276.746 402.191 283.492 413.515 303.102C424.84 322.719 418.094 347.887 398.48 359.211ZM366.586 303.969C355.738 310.23 352.012 324.152 358.273 334.996C364.535 345.844 378.453 349.574 389.301 343.312C400.148 337.047 403.879 323.129 397.617 312.281C391.355 301.434 377.433 297.707 366.586 303.969Z" fill="#82C6F9"/>
<path d="M398.48 359.211C389.387 356.148 388.387 349.977 388.695 346.289C388.769 345.445 388.609 344.617 388.277 343.867C377.594 349.336 364.34 345.504 358.273 334.996C352.191 324.465 355.531 311.039 365.66 304.535C365.199 303.785 364.555 303.152 363.75 302.723C353.926 297.492 357.406 288.07 357.406 288.07C337.797 299.395 331.051 324.562 342.375 344.176C353.699 363.789 378.867 370.535 398.48 359.211Z" fill="#52B0F5"/>
</svg>
