<svg width="512" height="512" viewBox="0 0 512 512" fill="none" xmlns="http://www.w3.org/2000/svg">
<path d="M442.734 424.461C478.484 381.879 500.031 326.965 500.031 267.016C500.031 131.695 390.332 22 255.016 22C119.695 22 10 131.695 10 267.016C10 308.645 20.3945 347.836 38.707 382.168L442.734 424.461Z" fill="#2299F2"/>
<path d="M442.723 424.461C472.488 389.008 492.41 345.008 498.242 296.664C464.371 295.094 462.871 275.316 426.211 275.316C388.039 275.316 388.039 296.789 349.867 296.789C311.695 296.789 311.695 275.316 273.523 275.316C235.355 275.316 235.355 296.789 197.184 296.789C159.016 296.789 159.016 275.316 120.844 275.316C82.6719 275.316 82.6719 296.789 44.5 296.789C28.4727 296.789 19.1797 293 10.9609 288.609C13.8906 322.195 23.6094 353.84 38.7227 382.168L442.723 424.461Z" fill="#52B0F5"/>
<path d="M442.738 424.461C460.738 403.02 475.141 378.457 484.996 351.691C463.133 346.449 457.398 332.133 426.211 332.133C388.035 332.133 388.035 353.605 349.863 353.605C311.691 353.605 311.691 332.133 273.523 332.133C235.352 332.133 235.352 353.605 197.184 353.605C159.012 353.605 159.012 332.133 120.84 332.133C82.6719 332.133 82.6719 353.605 44.5 353.605C36.4961 353.605 30.1836 352.656 24.832 351.164C28.75 361.867 33.3945 372.219 38.7031 382.164L442.738 424.461Z" fill="#82C6F9"/>
<path d="M234.883 373.781L275.445 373.789C280.637 337.535 294.523 331.988 294.523 331.988C293.688 331.988 236.883 331.988 215.805 331.988C215.805 331.988 229.691 337.535 234.883 373.781Z" fill="#483BA8"/>
<path d="M249.059 331.988C236.184 331.988 223.57 331.988 215.805 331.988C215.805 331.988 229.691 337.535 234.883 373.781H256.035C254.137 337.535 249.059 331.988 249.059 331.988Z" fill="#3C2B8E"/>
<path d="M246.188 16.3125H264.141C264.488 16.3125 264.832 16.3281 265.168 16.3633V10C265.168 4.47656 260.688 0 255.164 0C249.641 0 245.164 4.47656 245.164 10V16.3633C245.5 16.3281 245.844 16.3125 246.188 16.3125Z" fill="#554CBF"/>
<path d="M255.164 341.992C249.641 341.992 245.164 337.512 245.164 331.988V180.945C245.164 175.422 249.641 170.941 255.164 170.941C260.688 170.941 265.168 175.422 265.168 180.945V331.988C265.168 337.512 260.688 341.992 255.164 341.992Z" fill="#554CBF"/>
<path d="M255.164 170.941C249.641 170.941 245.164 175.422 245.164 180.945V234.055C245.164 228.527 249.641 224.051 255.164 224.051C260.688 224.051 265.168 228.531 265.168 234.055V180.945C265.168 175.422 260.688 170.941 255.164 170.941Z" fill="#483BA8"/>
<path d="M425.062 352.852L365.867 410.246L365.262 410.836L365.402 411.668C365.648 413.121 365.773 414.586 365.773 416.016C365.773 430.305 354.145 441.93 339.855 441.93C330.93 441.93 322.742 437.418 317.949 429.863L317.48 429.117L71.2617 429.066C92.8203 453.492 119.164 473.602 148.84 487.891H361.191C393.078 472.535 421.125 450.473 443.512 423.543L425.062 352.852Z" fill="#F9B50B"/>
<path d="M183.66 487.891L184.621 485.246V430.691L184.352 429.09L71.2578 429.066C92.8203 453.496 119.16 473.602 148.84 487.895H183.66V487.891Z" fill="#F79D0D"/>
<path d="M255.164 30.4062C288.668 30.4062 316.398 103.906 321.117 199.637C321.117 199.637 350.156 176.582 386.289 196.273C387.965 197.188 389.824 197.578 391.652 197.457C381.227 102.793 324.094 30.4062 255.164 30.4062Z" fill="#FBC840"/>
<path d="M366.188 130.734C359.656 134.328 352.152 136.371 344.172 136.371C335.738 136.371 327.84 134.086 321.055 130.102C318.418 128.551 315.48 127.82 312.578 127.879C316.879 149.5 319.84 173.754 321.117 199.641C321.117 199.641 350.156 176.582 386.289 196.274C387.965 197.188 389.824 197.578 391.652 197.457C388.93 172.727 383.012 149.524 374.535 128.727C371.664 128.641 368.781 129.309 366.188 130.734Z" fill="#F9B50B"/>
<path d="M255.164 185.266C231.625 185.266 209.289 190.414 189.215 199.641C193.934 103.906 221.66 30.4062 255.164 30.4062C288.668 30.4062 316.398 103.91 321.117 199.641C301.039 190.414 278.707 185.266 255.164 185.266Z" fill="#F7577A"/>
<path d="M302.5 131.774C290.07 142.613 273.824 149.184 256.031 149.184C237.961 149.184 221.48 142.406 208.977 131.258C205.855 128.477 201.867 127.047 197.898 127.137C193.52 148.945 190.504 173.457 189.215 199.641C209.289 190.414 231.625 185.266 255.164 185.266C278.707 185.266 301.039 190.414 321.117 199.637C319.84 173.754 316.879 149.5 312.578 127.879C308.957 127.949 305.383 129.258 302.5 131.774Z" fill="#D93A59"/>
<path d="M255.164 30.4062C221.66 30.4062 193.934 103.906 189.215 199.637C189.215 199.637 160.172 176.582 124.043 196.273C122.363 197.188 120.504 197.578 118.68 197.457C129.105 102.793 186.238 30.4062 255.164 30.4062Z" fill="#FBC840"/>
<path d="M190.258 129.406C183.223 133.82 174.902 136.371 165.984 136.371C158.004 136.371 150.5 134.328 143.969 130.734C141.426 129.336 138.609 128.672 135.797 128.727C127.32 149.523 121.402 172.727 118.68 197.457C120.504 197.578 122.367 197.188 124.043 196.273C160.172 176.582 189.215 199.641 189.215 199.641C190.504 173.457 193.52 148.945 197.898 127.137C195.254 127.195 192.617 127.926 190.258 129.406Z" fill="#F9B50B"/>
<path d="M448.23 183.578C427.832 95.8086 349.141 30.4062 255.164 30.4062C324.09 30.4062 381.223 102.789 391.648 197.445C393.445 197.328 395.211 196.723 396.734 195.617C404.594 189.906 421.062 181.137 439.152 190.551C444.051 193.102 449.449 188.828 448.23 183.578Z" fill="#F7577A"/>
<path d="M448.23 183.582C443.02 161.172 434.004 140.223 421.91 121.449C415.176 128.582 405.629 133.039 395.043 133.039C389.836 133.039 384.879 131.961 380.387 130.012C378.504 129.199 376.523 128.785 374.535 128.727C383.008 149.52 388.926 172.719 391.648 197.445C393.445 197.328 395.211 196.727 396.73 195.617C404.594 189.906 421.062 181.137 439.152 190.555C444.051 193.102 449.449 188.828 448.23 183.582Z" fill="#D93A59"/>
<path d="M71.1758 190.555C89.2695 181.137 105.738 189.906 113.598 195.617C115.117 196.727 116.883 197.328 118.68 197.445C129.109 102.789 186.242 30.4062 255.164 30.4062C161.188 30.4062 82.5 95.8125 62.1016 183.582C60.8828 188.828 66.2735 193.105 71.1758 190.555Z" fill="#F7577A"/>
<path d="M129.77 130.012C125.277 131.961 120.324 133.039 115.117 133.039C104.582 133.039 95.082 128.625 88.3516 121.555C76.293 140.305 67.3008 161.211 62.1016 183.582C60.8828 188.828 66.2735 193.105 71.1758 190.555C89.2695 181.137 105.738 189.906 113.598 195.617C115.117 196.727 116.883 197.328 118.68 197.445C121.406 172.719 127.32 149.52 135.797 128.727C133.75 128.766 131.707 129.172 129.77 130.012Z" fill="#D93A59"/>
<path d="M294.625 371.793L59.4414 371.742C51.0117 371.742 43.4297 375.352 38.1484 381.105C47.3711 398.602 58.6484 414.844 71.6602 429.516L294.609 429.562C310.562 429.566 323.5 416.637 323.504 400.684C323.508 384.73 310.578 371.797 294.625 371.793Z" fill="#D9F5FF"/>
<path d="M192.766 406.648C183.449 405.879 176.125 398.09 176.125 388.574C176.125 380.973 180.801 374.473 187.43 371.77L59.4414 371.742C51.0156 371.742 43.4297 375.352 38.1484 381.109C47.375 398.602 58.6484 414.844 71.6602 429.516L192.766 429.539V406.648Z" fill="#ABE4FE"/>
<path d="M363.305 401.535C355.762 401.531 348.234 398.598 342.57 392.754C331.465 381.301 331.746 363.016 343.199 351.91L427.07 270.59C438.523 259.484 456.812 259.766 467.914 271.219C479.02 282.672 478.738 300.961 467.285 312.063L383.414 393.387C377.801 398.828 370.547 401.535 363.305 401.535Z" fill="#D9F5FF"/>
<path d="M416.301 329.523C413 333.457 408.051 335.965 402.508 335.965C392.566 335.965 384.508 327.906 384.508 317.965C384.508 315.129 385.184 312.457 386.352 310.074L343.199 351.91C331.746 363.016 331.465 381.305 342.57 392.754C348.234 398.598 355.762 401.531 363.305 401.535C370.551 401.535 377.801 398.828 383.414 393.387L433.109 345.203L416.301 329.523Z" fill="#ABE4FE"/>
<path d="M341.637 403.98L51.7891 403.918C58.1367 413.324 65.125 422.254 72.6836 430.668L341.629 430.727H341.633C349.016 430.727 355.004 424.738 355.008 417.355C355.008 409.969 349.023 403.98 341.637 403.98Z" fill="#FCDB75"/>
<path d="M171.895 417.355C171.895 409.969 177.879 403.98 185.262 403.98L51.7891 403.918C58.1367 413.324 65.1289 422.254 72.6836 430.668L184.621 430.691C177.539 430.355 171.895 424.523 171.895 417.355Z" fill="#F9B50B"/>
<path d="M263.449 430.711L341.629 430.727H341.633C341.852 430.727 342.062 430.703 342.277 430.691L263.449 430.711Z" fill="#FCDB75"/>
<path d="M366.469 485.27L143.492 485.238C176.25 502.012 213.281 511.605 252.516 512H257.453C296.684 511.617 333.715 502.031 366.469 485.27Z" fill="#FCDB75"/>
<path d="M184.57 485.246L143.492 485.238C154.211 490.727 165.391 495.426 176.949 499.309C176.09 493.691 178.852 487.543 184.57 485.246Z" fill="#F9B50B"/>
<path d="M341.633 430.727C338.145 430.727 334.656 429.367 332.031 426.66C326.891 421.36 327.023 412.891 332.324 407.75L479.543 265.008C484.848 259.871 493.313 260 498.453 265.301C503.598 270.606 503.465 279.07 498.16 284.211L350.941 426.953C348.344 429.473 344.988 430.727 341.633 430.727Z" fill="#FFEBB3"/>
<path d="M421.883 355.562C417.797 355.562 413.719 353.973 410.652 350.809C406.57 346.602 405.34 340.688 406.906 335.438L332.324 407.75C327.02 412.895 326.891 421.359 332.031 426.66C334.652 429.367 338.141 430.727 341.633 430.727C344.984 430.727 348.344 429.473 350.941 426.953L424.871 355.273C423.883 355.465 422.883 355.562 421.883 355.562Z" fill="#FCDB75"/>
<path d="M367.375 416.012C367.375 431.211 355.055 443.535 339.852 443.535C324.652 443.535 312.332 431.211 312.332 416.012C312.332 400.812 324.652 388.488 339.852 388.488C355.055 388.488 367.375 400.812 367.375 416.012Z" fill="#FBC840"/>
<path d="M302.062 341.988H208.27C202.746 341.988 198.27 337.512 198.27 331.988C198.27 326.461 202.746 321.984 208.27 321.984H302.062C307.586 321.984 312.062 326.465 312.062 331.988C312.062 337.512 307.586 341.988 302.062 341.988Z" fill="#6464D8"/>
<path d="M239.336 331.988C239.336 326.461 243.812 321.984 249.34 321.984H208.27C202.746 321.984 198.27 326.465 198.27 331.988C198.27 337.512 202.746 341.988 208.27 341.988H249.34C243.812 341.988 239.336 337.512 239.336 331.988Z" fill="#554CBF"/>
<path d="M274.145 24.3125C274.145 18.7891 269.668 14.3125 264.145 14.3125H246.188C240.664 14.3125 236.188 18.7891 236.188 24.3125C236.188 29.8359 240.664 34.3125 246.188 34.3125H264.141C269.668 34.3164 274.145 29.8359 274.145 24.3125Z" fill="#6464D8"/>
<path d="M344.035 429.562C344.035 426.457 345.512 423.703 347.797 421.945L337.863 406.137C336.793 406.547 335.637 406.781 334.422 406.781C329.109 406.781 324.809 402.477 324.809 397.168C324.809 395.297 325.352 393.555 326.277 392.074C317.953 396.805 312.332 405.75 312.332 416.012C312.332 431.215 324.652 443.535 339.852 443.535C345.379 443.535 350.523 441.902 354.832 439.098C354.445 439.145 354.051 439.176 353.648 439.176C348.34 439.176 344.035 434.871 344.035 429.562Z" fill="#F9B50B"/>
<path d="M352.258 416.012C352.258 422.863 346.703 428.418 339.852 428.418C333 428.418 327.445 422.863 327.445 416.012C327.445 409.16 333 403.605 339.852 403.605C346.703 403.605 352.258 409.16 352.258 416.012Z" fill="#F79D0D"/>
</svg>
