<svg width="512" height="512" viewBox="0 0 512 512" fill="none" xmlns="http://www.w3.org/2000/svg">
<path d="M245 22C179.723 22 120.41 47.5352 76.4961 89.1562L42.8516 405.414C45.2148 408.855 47.6484 412.238 50.1758 415.547H439.824C471.297 374.336 490 322.855 490 267C490 131.688 380.309 22 245 22Z" fill="#FC6938"/>
<path d="M351.305 487.773H138.695C170.852 503.289 206.906 512 245 512C283.094 512 319.148 503.289 351.305 487.773Z" fill="#52B0F5"/>
<path d="M226.605 511.293C215.727 507.191 214.664 500.203 215.406 495.535C215.863 492.637 214.773 489.684 212.367 488.008C212.258 487.93 212.156 487.852 212.047 487.773H138.695C165.645 500.777 195.141 508.941 226.605 511.293Z" fill="#2299F2"/>
<path d="M429.074 132.012H382.805V164.461H429.074C456.906 164.461 479.551 187.102 479.551 214.938C479.551 242.77 456.906 265.414 429.074 265.414C419.621 265.414 410.32 268.57 402.82 274.312L382.516 288.367C381.398 305.551 376.98 321.836 369.871 336.582L421.645 300.746C421.914 300.559 422.18 300.363 422.441 300.16C424.324 298.68 426.68 297.863 429.074 297.863C474.801 297.863 512 260.664 512 214.938C512 169.211 474.801 132.012 429.074 132.012Z" fill="#98341A"/>
<path d="M430.414 164.492C416.637 156.152 420.516 135.324 436.145 132.332C429.164 131.738 428.156 132.121 382.805 132.012V164.461C399.66 164.469 428.109 164.434 430.414 164.492Z" fill="#872815"/>
<path d="M432.098 265.312C427.641 265.578 415.43 264.656 402.82 274.309L382.516 288.363C381.398 305.551 376.98 321.836 369.871 336.578C434.07 293.305 420.438 298.465 433.742 297.723C418.898 292.594 417.789 271.961 432.098 265.312Z" fill="#872815"/>
<path d="M369.59 88.1211H77.6055C29.8516 132.828 0 196.422 0 267C0 318.922 16.1641 367.059 43.7188 406.688C54.168 409.371 65.1211 410.797 76.4062 410.797H254.16C326.535 410.797 385.207 352.125 385.207 279.75V103.742C385.207 95.1133 378.215 88.1211 369.59 88.1211Z" fill="#AA3D27"/>
<path d="M75.4297 279.75V103.742C75.4297 95.1133 82.4219 88.1211 91.0469 88.1211H77.6055C29.8516 132.828 0 196.422 0 267C0 318.922 16.1641 367.062 43.7188 406.688C54.168 409.371 65.1211 410.797 76.4062 410.797H206.48C134.102 410.797 75.4297 352.125 75.4297 279.75Z" fill="#98341A"/>
<path d="M369.59 88.1211H77.6055C57.6953 106.766 40.8984 128.691 28.0781 153.039H385.207V103.738C385.207 95.1133 378.215 88.1211 369.59 88.1211Z" fill="#98341A"/>
<path d="M28.0898 153.043H75.4297V103.742C75.4297 95.1133 82.4219 88.1211 91.0469 88.1211H77.6055C57.7461 106.715 40.8789 128.766 28.0898 153.043Z" fill="#872815"/>
<path d="M369.59 88.1211H77.6055C67.0273 98.0273 57.3164 108.844 48.6289 120.473H385.207V103.738C385.207 95.1133 378.215 88.1211 369.59 88.1211Z" fill="#AA3D27"/>
<path d="M48.6523 120.473H75.4297V103.742C75.4297 95.1133 82.4219 88.1211 91.0469 88.1211H77.6055C67.2852 97.7812 57.5664 108.555 48.6523 120.473Z" fill="#98341A"/>
<path d="M316.422 182.984L290.012 156.57C287.75 154.313 284.684 153.043 281.488 153.043H228.43C225.234 153.043 222.168 154.313 219.906 156.57L194.797 181.684C192.535 183.941 191.266 187.008 191.266 190.203V303.469C191.266 310.125 196.664 315.52 203.32 315.52H307.898C314.555 315.52 319.949 310.125 319.949 303.469V191.504C319.949 188.309 318.68 185.242 316.422 182.984ZM255.609 211.02C245.02 211.02 236.438 202.438 236.438 191.848C236.438 181.258 245.02 172.676 255.609 172.676C266.199 172.676 274.781 181.262 274.781 191.848C274.781 202.438 266.199 211.02 255.609 211.02Z" fill="#FCDB75"/>
<path d="M228.82 303.469V190.203C228.82 187.008 230.09 183.941 232.352 181.684L257.461 156.57C259.723 154.313 262.785 153.043 265.984 153.043H228.43C225.234 153.043 222.168 154.313 219.906 156.57L194.797 181.684C192.535 183.941 191.266 187.008 191.266 190.203V303.469C191.266 310.125 196.66 315.52 203.32 315.52H240.871C234.219 315.52 228.82 310.125 228.82 303.469Z" fill="#FBC840"/>
<path d="M156.609 56.4453C151.633 56.4453 147.598 52.4102 147.598 47.4336C147.598 40.6602 151.523 36.7539 153.801 34.7148C151.523 32.6797 147.598 28.7695 147.598 21.9961C147.598 14.7461 152.094 10.7813 154.254 8.875C154.441 8.71094 154.66 8.51172 154.855 8.33594C155.324 3.79688 159.16 0.257812 163.82 0.257812C168.801 0.257812 172.836 4.29297 172.836 9.27344C172.836 16.0508 168.906 19.9609 166.629 21.9961C168.906 24.0312 172.836 27.9414 172.836 34.7188C172.836 41.9688 168.34 45.9336 166.18 47.8398C165.992 48.0039 165.77 48.1992 165.578 48.375C165.105 52.9102 161.27 56.4453 156.609 56.4453Z" fill="#FF8564"/>
<path d="M223.086 56.4453C218.105 56.4453 214.07 52.4102 214.07 47.4336C214.07 40.6602 217.996 36.7539 220.273 34.7148C217.996 32.6797 214.07 28.7695 214.07 21.9961C214.07 14.7461 218.566 10.7813 220.727 8.875C220.914 8.71094 221.133 8.51172 221.328 8.33594C221.797 3.79688 225.633 0.257812 230.297 0.257812C235.273 0.257812 239.309 4.29297 239.309 9.27344C239.309 16.0508 235.379 19.9609 233.102 21.9961C235.379 24.0312 239.309 27.9414 239.309 34.7188C239.309 41.9688 234.812 45.9336 232.652 47.8398C232.465 48.0039 232.242 48.1992 232.051 48.375C231.578 52.9102 227.742 56.4453 223.086 56.4453Z" fill="#FF8564"/>
<path d="M289.363 56.1406C284.387 56.1055 280.379 52.043 280.41 47.0625C280.457 40.2891 284.41 36.4102 286.703 34.3906C284.441 32.3359 280.539 28.3984 280.59 21.625C280.641 14.375 285.16 10.4414 287.336 8.55078C287.523 8.38672 287.746 8.19141 287.941 8.01562C288.437 3.50391 292.266 0 296.898 0H296.961C301.941 0.0351562 305.949 4.09766 305.914 9.07422C305.867 15.8555 301.91 19.7344 299.617 21.7578C301.883 23.8086 305.785 27.7461 305.738 34.5234C305.684 41.7695 301.16 45.7031 298.988 47.5938C298.801 47.7578 298.578 47.9492 298.383 48.125C297.895 52.5508 294.168 56.1406 289.363 56.1406Z" fill="#FF8564"/>
<path d="M145.086 490.758H359.242C378.129 490.758 393.824 476.438 396.039 458.125C394.633 458.242 393.215 458.309 391.785 458.309H91.9531C108.117 471.254 125.949 482.199 145.086 490.758Z" fill="#ABE4FE"/>
<path d="M145.086 490.758H214.695C214.168 489.68 213.395 488.723 212.367 488.008C200.715 479.883 202.074 470.34 204.211 464.961C205.082 462.77 204.961 460.332 203.883 458.309H91.9531C108.117 471.254 125.949 482.199 145.086 490.758Z" fill="#82C6F9"/>
<path d="M255.609 220.77C239.664 220.77 226.688 207.797 226.688 191.848C226.688 175.902 239.664 162.93 255.609 162.93C271.559 162.93 284.531 175.902 284.531 191.848C284.531 207.797 271.555 220.77 255.609 220.77Z" fill="#FBC840"/>
<path d="M439.582 426.383L441.004 422.168C442.887 416.582 438.734 410.801 432.84 410.801H46.6406C60.3203 429.637 76.6172 446.453 95 460.711H391.785C413.434 460.711 432.668 446.898 439.582 426.383Z" fill="#D9F5FF"/>
<path d="M206.477 410.797H46.6406C60.3203 429.641 76.6172 446.453 95 460.711H204.699C204.484 459.34 203.91 458.031 202.973 456.941C178.93 429.02 206.473 410.801 206.477 410.797Z" fill="#ABE4FE"/>
<path d="M274.891 213.379C257.957 213.348 262.426 198.34 262.426 198.34L255.609 195.383V162.926C239.66 162.926 226.688 175.898 226.688 191.848C226.688 207.793 239.66 220.77 255.609 220.77C263.012 220.77 269.77 217.973 274.891 213.379Z" fill="#F9B50B"/>
<path d="M255.609 182.426C250.414 182.426 246.188 186.652 246.188 191.848C246.188 197.047 250.414 201.273 255.609 201.273C260.809 201.273 265.035 197.047 265.035 191.848C265.031 186.652 260.805 182.426 255.609 182.426Z" fill="#AA3D27"/>
<path d="M255.008 189.297C250.031 189.297 245.996 185.262 245.996 180.281V80.332C245.996 75.3516 250.031 71.3164 255.008 71.3164C259.988 71.3164 264.023 75.3516 264.023 80.332V180.285C264.023 185.262 259.988 189.297 255.008 189.297Z" fill="#D9F5FF"/>
<path d="M255.008 139.98C250.027 139.98 245.992 135.941 245.992 130.965V180.281C245.992 185.262 250.027 189.297 255.008 189.297C259.988 189.297 264.023 185.262 264.023 180.281V130.965C264.023 135.941 259.988 139.98 255.008 139.98Z" fill="#ABE4FE"/>
</svg>
