<svg width="512" height="512" viewBox="0 0 512 512" fill="none" xmlns="http://www.w3.org/2000/svg">
<path d="M500.055 324.77C504.535 306.246 506.926 286.902 506.926 267C506.926 131.691 397.235 22 261.926 22C126.613 22 16.9221 131.688 16.9221 267C16.9221 297.535 22.5275 326.758 32.7346 353.719C50.3596 359.566 331.895 450.082 500.055 324.77Z" fill="#2299F2"/>
<path d="M423.402 338.34C421.231 318.422 405.293 302.32 385.399 299.957C381.465 299.492 377.617 299.551 373.922 300.074C369.5 300.699 365.688 297.097 365.692 292.636C365.692 292.601 365.692 292.57 365.692 292.539C365.692 240.469 323.481 198.258 271.41 198.258C232.074 198.258 198.371 222.347 184.235 256.574C182.547 260.656 177.895 262.746 173.82 261.043C166.078 257.808 157.59 256.019 148.676 256.019C121.871 256.019 98.8478 272.152 88.7502 295.234C87.4025 298.312 84.1603 300.074 80.8127 299.793C78.3166 299.582 75.758 299.586 73.1564 299.832C51.3908 301.871 34.1603 320.285 33.6252 342.14C33.0275 366.711 52.7658 386.82 77.2033 386.82H380.082C405.766 386.82 426.262 364.605 423.402 338.34Z" fill="#ABE4FE"/>
<path d="M217.707 338.086C225.004 332.965 232.985 329.558 241.176 327.758C245.492 326.812 248.102 322.429 247.137 318.121C239.051 281.98 252.809 242.902 285.008 220.312C293.395 214.429 302.402 210.109 311.695 207.281C299.481 201.496 285.824 198.258 271.41 198.258C232.074 198.258 198.371 222.347 184.235 256.574C182.547 260.656 177.895 262.746 173.82 261.043C166.078 257.808 157.59 256.019 148.676 256.019C121.871 256.019 98.8478 272.152 88.7501 295.234C87.4025 298.312 84.1603 300.074 80.8126 299.793C78.3166 299.586 75.758 299.586 73.1564 299.832C51.3908 301.871 34.1564 320.285 33.6252 342.14C33.0236 366.711 52.7619 386.82 77.1994 386.82H190.067C191.461 367.937 200.996 349.808 217.707 338.086Z" fill="#82C6F9"/>
<path d="M500.652 322.336C497.543 320.601 494.059 319.472 490.355 319.125C488.773 318.976 487.219 318.976 485.703 319.101C483.668 319.273 481.699 318.203 480.883 316.332C474.746 302.308 460.758 292.508 444.477 292.508C439.059 292.508 433.902 293.597 429.199 295.562C426.723 296.594 423.898 295.328 422.871 292.847C414.285 272.051 393.809 257.418 369.914 257.418C338.277 257.418 312.633 283.062 312.633 314.695V314.758C312.637 317.469 310.32 319.656 307.633 319.273C305.387 318.957 303.051 318.922 300.66 319.203C288.574 320.64 278.891 330.422 277.574 342.519C275.836 358.476 288.289 371.972 303.894 371.972H483.348C490.805 356.269 496.652 339.656 500.652 322.336Z" fill="#D9F5FF"/>
<path d="M400.574 468.988C419.613 455.894 436.719 440.199 451.352 422.383C402.692 433.668 337.582 430.527 265.051 378.523C165.613 307.23 80.1252 327.773 31.8635 351.43C41.4455 377.535 55.3517 401.555 72.7033 422.625C89.4533 427.332 302.52 486.312 400.574 468.988Z" fill="#52B0F5"/>
<path d="M239.531 460.164C241.82 441.691 221.93 429.543 221.93 429.543C221.93 429.543 235.844 410.882 212.344 387.382C188.844 363.882 208.024 346.39 208.024 346.39C133.344 315.468 70.6057 332.437 31.8635 351.429C41.4455 377.535 55.3517 401.554 72.7033 422.629C82.4377 425.363 158.367 446.394 239.531 460.164Z" fill="#2299F2"/>
<path d="M71.6525 421.328C116.57 476.644 185.113 512 261.926 512C314.258 512 362.75 495.582 402.559 467.629C362.332 467.383 315.484 461.019 265.051 442.675C188.926 414.984 120.984 414.601 71.6525 421.328Z" fill="#FCDB75"/>
<path d="M245.004 511.402C233.09 499.312 230.203 483.129 237.106 468.379C247.797 445.519 222.254 429.746 221.942 429.554C163.383 415.113 111.457 415.902 71.6525 421.328C113.246 472.547 175.094 506.629 245.004 511.402Z" fill="#FBC840"/>
<path d="M492.883 348.894C443.805 326.418 360.914 309.797 265.051 378.523C337.582 430.531 402.695 433.668 451.352 422.379C469.168 400.683 483.316 375.875 492.883 348.894Z" fill="#2299F2"/>
<path d="M492.883 348.894C443.805 326.418 360.914 309.797 265.051 378.523C337.582 430.531 402.695 433.668 451.352 422.379C469.168 400.683 483.316 375.875 492.883 348.894Z" fill="#2299F2"/>
<path d="M374.344 381.332C374.344 358.211 388.105 338.312 407.879 329.355C366.492 328.765 317.73 340.754 265.051 378.523C313.609 413.34 358.84 426.25 398.035 427.597C383.691 417.234 374.344 400.379 374.344 381.332Z" fill="#1588E8"/>
<path d="M266.594 6.81241C248.805 25.1054 197.27 84.4101 190.152 163.879C190.152 163.879 255.617 109.074 271.422 9.25382C271.856 6.51554 268.527 4.82413 266.594 6.81241Z" fill="#ABF222"/>
<path d="M210.867 88.1641C200.719 110.281 192.664 135.82 190.152 163.879C190.152 163.879 215.727 142.469 238.762 102.043C227.332 110.297 211.191 102.375 210.867 88.1641Z" fill="#83D912"/>
<path d="M362.09 134.164C292.625 97.0897 215.852 133.5 191.738 146.961C187.734 149.199 186.938 154.812 189.941 157.449C206.379 171.859 229.863 175.242 251.676 165.617C273.914 155.808 304.879 146.633 340.152 148.902C346.902 149.336 353.777 148.324 360.359 145.918C365.52 144.031 366.609 136.574 362.09 134.164Z" fill="#83D912"/>
<path d="M280.258 118.672C240.309 122.219 206.352 138.801 191.738 146.961C187.734 149.199 186.938 154.812 189.941 157.449C206.379 171.859 229.863 175.242 251.68 165.617C260.91 161.547 271.648 157.586 283.57 154.508C267.125 149.391 264.883 126.816 280.258 118.672Z" fill="#5BBF02"/>
<path d="M119.82 0.675736C189.047 39.5 199.863 124.457 201.539 152.242C201.817 156.855 197.481 160.586 193.61 159.469C172.445 153.344 156.813 135.246 153.125 111.5C149.367 87.2929 140.328 56.0195 119.235 27.3085C115.199 21.8125 112.324 15.4296 110.785 8.5312C109.582 3.12886 115.32 -1.8477 119.82 0.675736Z" fill="#83D912"/>
<path d="M175.988 58.9844C177.184 76.2461 157.219 86.0664 144.231 75.4258C148.672 88.2969 151.438 100.613 153.125 111.5C156.813 135.246 172.445 153.344 193.613 159.469C197.481 160.586 201.816 156.859 201.539 152.242C200.496 134.973 195.918 95.6211 175.988 58.9844Z" fill="#5BBF02"/>
<path d="M359.746 238.101C315.078 156.34 224.477 147.574 194.938 146.957C190.027 146.851 186.297 152.289 187.68 156.91C195.246 182.203 215.223 200.195 240.582 203.445C266.434 206.762 300.043 216.109 331.547 240.168C337.578 244.769 344.488 247.922 351.879 249.429C357.668 250.613 362.652 243.418 359.746 238.101Z" fill="#5BBF02"/>
<path d="M271.461 195.66C271.461 183.597 279.945 173.519 291.27 171.054C252.59 150.656 212.711 147.328 194.938 146.957C190.027 146.851 186.297 152.285 187.68 156.91C195.246 182.203 215.223 200.195 240.582 203.445C251.633 204.863 264.102 207.387 277.215 211.687C273.621 207.332 271.461 201.75 271.461 195.66Z" fill="#58AA02"/>
<path d="M279.305 319.055C283.539 223.637 218.672 167.156 196.481 150.699C192.789 147.965 187.41 150.695 186.297 155.473C180.231 181.621 187.024 208.086 204.805 224.59C222.934 241.414 244.145 267.684 256.875 305.656C259.313 312.922 263.098 319.398 268.016 324.699C271.871 328.852 279.027 325.258 279.305 319.055Z" fill="#83D912"/>
<path d="M223.625 243.828C223.625 231.027 234 220.652 246.797 220.652C251.145 220.652 255.207 221.852 258.684 223.934C238.773 185.121 209.867 160.625 196.481 150.699C192.793 147.965 187.41 150.695 186.301 155.473C180.234 181.621 187.023 208.086 204.809 224.59C210.887 230.234 217.313 236.945 223.648 244.797C223.637 244.477 223.625 244.152 223.625 243.828Z" fill="#5BBF02"/>
<path d="M34.176 59.9569C127.117 53.492 183.356 125.074 199.797 149.617C202.531 153.695 199.969 159.765 195.328 161.094C169.949 168.359 144.024 161.234 127.613 141.629C110.883 121.644 84.8908 98.3788 47.6447 84.8163C40.5158 82.2225 34.133 78.0975 28.8791 72.6913C24.7619 68.453 28.133 60.3749 34.176 59.9569Z" fill="#5BBF02"/>
<path d="M199.797 149.617C189.555 134.324 163.863 100.785 123.481 79.2266C125.399 82.7813 126.488 86.8438 126.488 91.1641C126.488 104.75 115.731 115.82 102.266 116.328C112.359 124.719 120.762 133.449 127.613 141.633C144.024 161.234 169.949 168.359 195.328 161.098C199.969 159.766 202.531 153.695 199.797 149.617Z" fill="#58AA02"/>
<path d="M9.36736 171.351C87.4455 116.34 169.988 140.515 195.813 150.336C200.106 151.969 200.707 157.973 197.281 161.484C178.531 180.691 152.582 189.238 129.094 183.164C105.149 176.969 71.59 173.265 32.7463 183.015C25.3127 184.883 17.8166 185.183 10.7033 183.898C5.12908 182.894 4.29315 174.93 9.36736 171.351Z" fill="#83D912"/>
<path d="M195.817 150.336C179.902 144.289 142.457 132.797 97.797 137.723C105.633 141.441 111.051 149.422 111.051 158.668C111.051 166.773 106.883 173.906 100.582 178.047C111.137 179.133 120.707 180.992 129.094 183.164C152.582 189.238 178.531 180.691 197.281 161.484C200.711 157.973 200.106 151.969 195.817 150.336Z" fill="#5BBF02"/>
<path d="M198.66 150.859C193.192 147.266 185.828 148.809 181.856 154.004C160.031 182.523 97.6329 275.035 75.1173 425.5C88.9259 441.758 104.817 456.188 122.379 468.379C125.309 305.527 182.832 199.191 202.371 167.664C205.887 161.992 204.266 154.543 198.66 150.859Z" fill="#98341A"/>
<path d="M198.66 150.859C193.192 147.266 185.828 148.809 181.856 154.004C169.227 170.508 143.008 208.441 118.797 266.633C131.594 258.637 148.707 265.383 152.422 280.195C170.473 223.039 191.887 184.578 202.371 167.664C205.887 161.992 204.266 154.543 198.66 150.859Z" fill="#872815"/>
<path d="M167.485 245.84C166.356 245.84 165.207 245.59 164.121 245.07L135.086 231.141C131.207 229.281 129.574 224.629 131.434 220.75C133.293 216.871 137.949 215.234 141.824 217.094L170.86 231.023C174.738 232.883 176.371 237.539 174.512 241.418C173.172 244.211 170.387 245.84 167.485 245.84Z" fill="#AA3D27"/>
<path d="M148.778 299.922C147.879 299.922 146.973 299.766 146.082 299.437L111.028 286.508C106.988 285.02 104.926 280.543 106.414 276.504C107.903 272.469 112.383 270.406 116.414 271.891L151.473 284.82C155.508 286.309 157.574 290.789 156.086 294.824C154.926 297.973 151.945 299.922 148.778 299.922Z" fill="#AA3D27"/>
<path d="M135.918 351.742C135.188 351.742 134.446 351.637 133.711 351.422L93.465 339.539C89.3361 338.324 86.9807 333.992 88.1994 329.867C89.4143 325.738 93.7502 323.383 97.8713 324.598L138.117 336.481C142.246 337.699 144.602 342.031 143.383 346.156C142.383 349.547 139.281 351.742 135.918 351.742Z" fill="#AA3D27"/>
<path d="M126.246 414.109C125.988 414.109 125.731 414.098 125.465 414.07L78.3205 409.383C74.0393 408.957 70.9143 405.145 71.34 400.863C71.7658 396.582 75.5666 393.449 79.8596 393.883L127.008 398.57C131.289 398.996 134.414 402.809 133.988 407.09C133.586 411.109 130.199 414.109 126.246 414.109Z" fill="#AA3D27"/>
<path d="M199.285 153.559C199.285 167.469 188.012 178.742 174.102 178.742C160.191 178.742 148.914 167.469 148.914 153.559C148.914 139.648 160.191 128.375 174.102 128.375C188.012 128.375 199.285 139.648 199.285 153.559Z" fill="#ABF222"/>
<path d="M231.387 170.477C231.387 184.383 220.109 195.66 206.203 195.66C192.293 195.66 181.016 184.383 181.016 170.477C181.016 156.566 192.293 145.289 206.203 145.289C220.109 145.289 231.387 156.566 231.387 170.477Z" fill="#ABF222"/>
<path d="M215.336 177.391C206.473 177.391 199.285 170.207 199.285 161.34C199.285 153.863 204.41 147.594 211.332 145.812C209.676 145.469 207.961 145.289 206.203 145.289C192.293 145.289 181.02 156.566 181.02 170.473C181.02 184.383 192.293 195.66 206.203 195.66C220.113 195.66 231.387 184.383 231.387 170.473C231.387 168.715 231.207 167 230.863 165.344C229.082 172.27 222.816 177.391 215.336 177.391Z" fill="#83D912"/>
</svg>
