<svg width="511" height="511" viewBox="0 0 511 511" fill="none" xmlns="http://www.w3.org/2000/svg">
<path d="M468.786 388.818C489.632 352.829 501.573 311.036 501.573 266.452C501.573 131.419 392.108 21.9531 257.071 21.9531C122.038 21.9531 12.5728 131.419 12.5728 266.452C12.5728 311.036 24.5103 352.829 45.3563 388.818H468.786Z" fill="#2299F2"/>
<path d="M257.024 510.954C347.886 510.954 427.168 461.387 469.316 387.82C489.998 331.691 487.055 284.05 487.055 284.05L484.989 284.385C457.776 317.052 366.03 341.079 257.024 341.079C148.015 341.079 56.2686 317.052 29.0562 284.385L26.9938 284.05C26.9938 284.05 24.0503 331.691 44.7286 387.82C86.8767 461.387 166.159 510.954 257.024 510.954Z" fill="#5BBF02"/>
<path d="M29.0562 284.385L27.0406 284.058C27.0367 284.065 27.0133 284.159 26.9782 284.299C26.7872 288.011 24.9042 334.011 44.7287 387.82C97.9761 480.763 205.29 528.474 310.311 505.125C319.554 420.845 319.005 340.716 319.005 340.716L317.999 338.494C317.784 338.51 317.566 338.525 317.352 338.545C206.366 348.065 66.6935 329.562 29.0562 284.385Z" fill="#58AA02"/>
<path d="M26.9938 284.05C51.3407 318.058 145.087 343.391 257.024 343.391C368.962 343.391 462.704 318.058 487.055 284.05C483.527 262.982 477.503 242.83 469.297 223.96C469.308 224.222 469.328 224.483 469.328 224.744C469.328 262.892 374.276 293.816 257.024 293.816C139.769 293.816 44.7169 262.892 44.7169 224.744C44.7169 224.483 44.7403 224.222 44.7481 223.96C36.5415 242.83 30.522 262.982 26.9938 284.05Z" fill="#FCDB75"/>
<path d="M319.005 340.716L299.535 297.789L291.293 292.915C280.135 293.508 268.693 293.816 257.024 293.816C139.769 293.816 44.7169 262.892 44.7169 224.744C44.7169 224.483 44.7403 224.222 44.7481 223.96C36.5415 242.83 30.522 262.982 26.9938 284.05C51.3407 318.058 145.087 343.391 257.024 343.391C278.475 343.391 299.25 342.459 319.005 340.716Z" fill="#FBC840"/>
<path d="M470.486 227.446C470.486 267.091 374.276 299.223 257.024 299.223C139.769 299.223 43.5591 267.087 43.5591 227.446C43.5591 187.805 139.769 155.668 257.024 155.668C374.276 155.668 470.486 187.805 470.486 227.446Z" fill="#FFEBB3"/>
<path d="M257.024 155.668C139.769 155.668 43.5591 187.805 43.5591 227.446C43.5591 267.087 139.769 299.223 257.024 299.223C271.566 299.223 285.785 298.728 299.535 297.785C301.426 294.027 299.757 289.009 295.223 287.57C278.736 282.338 257.067 272.779 278.393 263.169C310.112 248.869 286.841 214.959 278.393 212.456C278.393 212.456 262.307 200.307 272.299 183.185C274.588 179.263 272.619 174.214 268.327 172.744C259.317 169.668 248.713 163.976 257.024 155.668Z" fill="#FCDB75"/>
<path d="M421.484 219.508C421.484 195.185 347.851 175.469 257.024 175.469C166.194 175.469 92.5608 195.185 92.5608 219.508C92.5608 243.828 166.194 263.543 257.024 263.543C347.851 263.543 421.484 243.828 421.484 219.508Z" fill="#FCDB75"/>
<path d="M92.5608 219.508C92.5608 243.828 166.194 263.543 257.024 263.543C264.26 263.543 271.387 263.418 278.377 263.177C278.385 263.173 278.389 263.169 278.393 263.169C310.112 248.873 286.841 214.962 278.393 212.455C278.393 212.455 262.307 200.307 272.299 183.185C273.73 180.732 273.496 177.836 272.069 175.656C267.114 175.536 262.096 175.469 257.024 175.469C166.194 175.469 92.5608 195.185 92.5608 219.508Z" fill="#FBC840"/>
<path d="M107.407 237.812C133.36 252.997 190.588 263.543 257.024 263.543C323.457 263.543 380.689 252.997 406.638 237.812C380.689 222.631 323.461 212.081 257.024 212.081C190.588 212.081 133.36 222.631 107.407 237.812Z" fill="#F7577A"/>
<path d="M278.393 263.169C335.562 261.181 383.515 251.34 406.638 237.812C383.515 224.284 335.558 214.444 278.393 212.456C292.872 225.239 292.872 250.385 278.393 263.169Z" fill="#D93A59"/>
<path d="M474.646 80.1908C473.893 80.1908 473.129 80.0856 472.373 79.8633L430.65 67.6567C426.365 66.4014 423.909 61.9141 425.164 57.6334C426.416 53.3488 430.903 50.8926 435.188 52.1441L476.911 64.3507C481.191 65.6061 483.651 70.0934 482.396 74.3741C481.367 77.9023 478.143 80.1908 474.646 80.1908Z" fill="#52B0F5"/>
<path d="M393.332 72.2806C389.262 70.4404 384.478 72.2533 382.646 76.3235L298.837 262.105C305.145 261.66 311.305 261.122 317.293 260.491L397.375 82.9667C399.211 78.9004 397.398 74.1129 393.332 72.2806Z" fill="#52B0F5"/>
<path d="M99.2158 33.4697C96.1593 33.4697 93.2314 31.7232 91.8708 28.7641L83.9176 11.4581C82.0541 7.40353 83.8279 2.60433 87.8864 0.740783C91.941 -1.12276 96.7363 0.655013 98.5998 4.70569L106.553 22.0117C108.42 26.0663 106.643 30.8655 102.588 32.729C101.493 33.2319 100.346 33.4697 99.2158 33.4697Z" fill="#52B0F5"/>
<path d="M217.301 262.249L149.336 114.366C147.473 110.308 142.674 108.534 138.619 110.397C134.565 112.261 132.787 117.056 134.65 121.111L198.806 260.701C204.814 261.313 210.985 261.828 217.301 262.249Z" fill="#52B0F5"/>
<path d="M390.003 90.4209C388.521 90.4209 387.016 90.1168 385.578 89.4657C380.155 87.0174 377.741 80.6393 380.19 75.2163C389.722 54.0818 413.694 43.0565 435.944 49.5633C441.655 51.2319 444.93 57.2163 443.258 62.9278C441.589 68.6393 435.605 71.9141 429.893 70.2416C417.897 66.729 404.973 72.6822 399.831 84.0739C398.034 88.0583 394.108 90.4209 390.003 90.4209Z" fill="#82C6F9"/>
<path d="M96.4478 18.9433C118.865 8.77181 159.734 49.5241 191.964 112.14C191.964 112.14 204.393 87.8983 234.545 90.101C235.944 90.2024 237.305 89.8983 238.49 89.2628C202.771 29.0953 142.565 -1.9845 96.4478 18.9433Z" fill="#FBC840"/>
<path d="M234.545 90.1011C235.945 90.2024 237.309 89.8983 238.49 89.2629C228.085 71.7346 215.598 56.6781 201.987 44.6548C199.278 45.8478 196.997 47.9569 195.574 50.6938C188.869 63.6021 178.588 66.5573 171.574 66.8925C169.5 66.9939 167.543 67.6138 165.82 68.6352C174.798 81.3603 183.668 96.0231 191.964 112.144C191.964 112.14 204.393 87.8983 234.545 90.1011Z" fill="#F79D0D"/>
<path d="M143.473 122.553C127.723 129.699 114.346 139.929 103.715 152.198C77.8007 86.7132 74.0346 29.1188 96.4478 18.9434C118.865 8.77189 159.734 49.5242 191.964 112.14C175.73 112.066 159.223 115.403 143.473 122.553Z" fill="#F7577A"/>
<path d="M191.964 112.14C183.668 96.0231 174.798 81.3604 165.82 68.6353C163.574 69.9725 161.73 71.992 160.572 74.4403C143.964 109.571 111.758 107.368 96.288 103.91C93.5745 103.306 90.8143 103.602 88.366 104.647C92.0229 119.567 97.1574 135.629 103.715 152.194C114.346 139.929 127.723 129.699 143.473 122.553C159.223 115.403 175.73 112.066 191.964 112.14Z" fill="#D93A59"/>
<path d="M96.4478 18.9434C74.0346 29.1188 77.8006 86.7132 103.715 152.194C103.715 152.194 77.286 145.59 59.0911 169.734C58.249 170.857 57.1223 171.684 55.8631 172.155C34.0892 105.657 50.3348 39.8751 96.4478 18.9434Z" fill="#FBC840"/>
<path d="M103.715 152.195C97.1573 135.629 92.0228 119.567 88.3659 104.647C86.2217 105.563 84.3113 107.052 82.8961 109.033C72.2529 123.898 60.4868 124.733 53.2783 123.341C51.0015 122.9 48.6974 123.111 46.5804 123.859C47.4537 139.473 50.5064 155.793 55.8631 172.156C57.1223 171.684 58.249 170.857 59.0911 169.735C77.286 145.59 103.715 152.195 103.715 152.195Z" fill="#F79D0D"/>
<path d="M272.132 62.7989C231.831 10.2728 159.325 -9.59074 96.4478 18.9433C142.565 -1.98452 202.767 29.0914 238.486 89.255C239.656 88.6312 240.654 87.6917 241.332 86.4909C244.857 80.2804 253.215 69.4149 268.178 70.218C272.229 70.4363 274.541 65.9373 272.132 62.7989Z" fill="#F7577A"/>
<path d="M238.486 89.2551C239.656 88.6313 240.654 87.6918 241.332 86.491C244.857 80.2805 253.215 69.415 268.178 70.2181C272.229 70.4365 274.541 65.9374 272.131 62.799C259.636 46.5145 244.046 33.3722 226.607 23.8362C224.674 40.5964 214.81 43.688 207.422 43.5554C205.512 43.5203 203.668 43.9141 201.987 44.6548C215.594 56.6743 228.081 71.7308 238.486 89.2551Z" fill="#D93A59"/>
<path d="M21.9841 181.96C31.2277 170.167 44.9119 171.037 51.9021 172.471C53.2588 172.748 54.6195 172.615 55.8592 172.148C34.0932 105.653 50.3349 39.8751 96.4478 18.9434C33.5747 47.4813 0.791136 115.134 13.7931 180.05C14.5728 183.933 19.4772 185.161 21.9841 181.96Z" fill="#F7577A"/>
<path d="M13.793 180.05C14.5728 183.933 19.4772 185.161 21.9841 181.961C31.2277 170.167 44.9119 171.037 51.906 172.471C53.2588 172.748 54.6234 172.616 55.8592 172.148C50.5064 155.789 47.4538 139.473 46.5805 123.859C44.6156 124.553 42.8105 125.707 41.3407 127.282C24.3232 145.551 12.678 130.347 12.5767 130.21C10.1439 146.534 10.4558 163.384 13.793 180.05Z" fill="#D93A59"/>
<path d="M89.0286 30.0546C86.1904 30.0546 83.477 28.4328 82.2177 25.6882C80.4985 21.9299 82.1476 17.4854 85.9058 15.7623L100.596 9.03323C104.354 7.31004 108.799 8.95916 110.518 12.7174C112.241 16.4757 110.592 20.9201 106.834 22.6394L92.1397 29.3724C91.13 29.8363 90.0696 30.0546 89.0286 30.0546Z" fill="#82C6F9"/>
</svg>
