<svg width="512" height="512" viewBox="0 0 512 512" fill="none" xmlns="http://www.w3.org/2000/svg">
<g clip-path="url(#clip0)">
<path d="M449.266 417.582C481.68 376.035 501 323.777 501 267C501 131.691 391.309 22 256 22C120.691 22 11 131.691 11 267C11 323.777 30.3203 376.039 62.7344 417.582H449.266Z" fill="#2299F2"/>
<path d="M195.613 311.852C186.859 338.602 195.18 366.75 203.703 385.656C212.848 405.938 224.496 427.004 233.856 443.93C239.941 454.941 245.195 464.449 248.25 470.992C249.953 474.641 253.867 476.617 257.781 475.793C260.363 475.246 262.621 473.398 263.816 470.844C266.981 464.086 272.395 454.227 278.66 442.809C287.801 426.156 299.176 405.438 308.289 385.668C317.688 365.277 326.918 335.578 317.512 309.871C315.578 304.59 313.18 300.348 310.84 297.027C301.074 290.527 294.395 282.859 294.395 274.043C294.395 268.707 294.395 270.305 294.395 266.852C285.094 275.168 269.137 285.762 256 286.082C242.859 285.762 226.906 275.168 217.606 266.852V274.043C217.606 282.078 212.051 289.156 203.68 295.27C200.981 299.227 197.945 304.727 195.613 311.852Z" fill="#FE9D9A"/>
<path d="M142.91 482.684C151.59 469.293 155.984 452.098 155.984 431.539C155.984 376.746 163.801 336.703 179.836 309.191C180.23 308.594 180.629 308.02 181.031 307.457C155.141 318.281 125.004 323.781 125.004 323.781C113.719 325.949 88.957 333.828 74.8477 362.047C68.2109 375.32 64.1484 394.559 61.9688 416.582C83.6289 444.637 111.246 467.844 142.91 484.355V482.684Z" fill="#FE9D9A"/>
<path d="M125.004 323.781C113.719 325.949 88.957 333.828 74.8477 362.047C68.2109 375.32 64.1484 394.559 61.9688 416.582C72.7148 430.504 84.9336 443.227 98.3828 454.535C101.691 436.805 105.148 414.836 108.227 388.328C112.613 350.547 125.344 330.984 138.258 320.918C130.262 322.82 125.004 323.781 125.004 323.781Z" fill="#F98F8F"/>
<path d="M437.152 362.047C423.043 333.828 398.277 325.949 386.996 323.781C386.996 323.781 356.863 318.281 330.977 307.461C331.359 308 331.742 308.547 332.117 309.121C348.195 336.699 356.016 376.746 356.016 431.539C356.016 452.094 360.41 469.289 369.09 482.684L368.883 484.465C400.633 467.945 428.324 444.695 450.031 416.582C447.852 394.559 443.789 375.324 437.152 362.047Z" fill="#FE9D9A"/>
<path d="M195.613 311.852C186.859 338.602 195.18 366.75 203.703 385.656C212.848 405.938 224.496 427.004 233.856 443.93C239.941 454.941 245.195 464.449 248.25 470.992C249.953 474.641 253.867 476.617 257.781 475.793C260.363 475.246 262.621 473.398 263.816 470.844C266.981 464.086 272.395 454.227 278.66 442.809C287.801 426.156 299.176 405.438 308.289 385.668C317.633 365.402 326.801 335.938 317.672 310.34C315.613 333.156 294.969 353.082 281.309 353.082C273.316 353.082 266.836 356.539 262.434 359.891C258.801 362.652 253.836 362.555 250.152 359.855C236.856 350.102 206.891 343.918 221.395 329.414C234.02 316.789 240.742 296.32 243.695 283.363C233.906 279.617 224.121 272.676 217.606 266.852V274.043C217.606 279.344 215.184 284.227 211.137 288.691C209.059 290.988 206.531 293.172 203.691 295.25C200.992 299.211 197.949 304.715 195.613 311.852Z" fill="#F98F8F"/>
<path d="M158.004 166.562L256.609 181.926L355.215 166.562C355.215 166.562 370.262 161.801 370.262 148.852C370.262 135.902 316.059 115.77 256.609 115.77C256.609 115.77 144.602 121.164 144.602 148.848C144.602 148.848 143.703 160.43 158.004 166.562Z" fill="#F9B50B"/>
<path d="M256 512C297.672 512 336.902 501.586 371.258 483.234C364.199 472.914 357.516 456.547 357.516 431.539C357.516 398.359 355.109 345.574 333.414 308.363C319.223 286.852 300.863 288.691 300.863 288.691C300.863 288.691 339.48 314.43 306.926 385.039C291.641 418.199 270.32 453.426 262.461 470.207C261.496 472.262 259.691 473.855 257.473 474.324C254.152 475.023 250.98 473.297 249.609 470.359C241.809 453.641 220.125 418.43 205.07 385.039C175.559 319.582 211.137 288.691 211.137 288.691C211.137 288.691 192.773 286.852 178.582 308.363C156.891 345.574 154.484 398.359 154.484 431.539C154.484 456.547 147.801 472.914 140.738 483.234C175.098 501.586 214.328 512 256 512Z" fill="#D93A59"/>
<path d="M338.105 256.262C331.855 234.371 329.262 217.285 328.703 204.078C323.957 221.207 317.754 236.375 310.195 249.305C305.836 256.766 300.426 263.449 294.141 269.238C284.754 324.016 302.309 365.277 316.121 387.824C319.035 392.578 326.793 390.586 326.719 385.098C326.098 339.688 354.934 315.199 338.105 256.262Z" fill="#3C2B8E"/>
<path d="M182.105 193.25C182.105 193.25 177.488 164.024 182.809 146.617C177.98 143.402 168.656 141.828 164.465 145.93C155.879 154.324 162.168 166.996 165.18 175.004C166.105 177.465 166.699 179.949 166.969 182.441C167.555 187.856 170.488 195.777 182.66 195.59C182.477 194.809 182.285 194.043 182.105 193.25Z" fill="#FE9D9A"/>
<path d="M180.281 171.406C178.172 172.777 175.656 173.582 172.949 173.582C168.937 173.582 165.344 171.82 162.871 169.035C163.672 171.191 164.508 173.215 165.18 175.008C166.105 177.465 166.699 179.949 166.969 182.441C167.555 187.855 170.492 195.777 182.66 195.59C182.477 194.809 182.285 194.043 182.105 193.25C182.105 193.25 180.523 183.215 180.281 171.406Z" fill="#F98F8F"/>
<path d="M348.746 145.93C344.555 141.828 335.23 143.402 330.402 146.617C335.723 164.024 331.105 193.25 331.105 193.25C330.926 194.039 330.738 194.809 330.555 195.59C342.723 195.777 345.656 187.856 346.242 182.441C346.512 179.949 347.109 177.465 348.031 175.004C351.043 167 357.336 154.324 348.746 145.93Z" fill="#FE9D9A"/>
<path d="M341.902 173.582C338.465 173.582 335.332 172.281 332.949 170.16C332.801 182.504 331.105 193.25 331.105 193.25C330.926 194.043 330.738 194.809 330.555 195.59C342.723 195.777 345.656 187.855 346.242 182.441C346.512 179.949 347.109 177.465 348.031 175.008C348.469 173.84 348.98 172.574 349.5 171.238C347.336 172.715 344.723 173.582 341.902 173.582Z" fill="#F98F8F"/>
<path d="M182.809 146.617C183.863 143.16 185.309 140.168 187.266 137.965C189.023 135.98 190.129 133.527 190.207 130.906C190.664 115.574 196.559 68.332 253.145 90.0234C255.367 90.8789 257.848 90.8789 260.07 90.0234C316.656 68.332 322.551 115.574 323.008 130.906C323.086 133.527 324.188 135.98 325.949 137.965C327.902 140.168 329.348 143.16 330.406 146.617C333.273 144.707 337.723 143.391 341.746 143.484V108.691C341.746 80.4922 326.031 54.3633 300.523 41.2031C288.871 35.1914 274.383 31.0195 256.609 31.0195C238.836 31.0195 224.348 35.1914 212.691 41.2031C187.184 54.3633 171.469 80.4922 171.469 108.691V143.484C175.488 143.391 179.941 144.707 182.809 146.617Z" fill="#3C2B8E"/>
<path d="M326.402 137.563C324.648 135.586 323.684 133.277 323.613 130.887C323.344 121.785 321.043 99.5118 305.606 89.2345C294.656 81.9415 279.262 82.0157 259.852 89.461C257.758 90.2618 255.453 90.2618 253.359 89.461C233.949 82.0196 218.555 81.9415 207.606 89.2306C192.172 99.5118 189.871 121.785 189.602 130.887C189.527 133.277 188.566 135.586 186.809 137.563C177.145 148.453 179.262 180.281 181.516 193.383C186.512 215.426 193.746 234.649 203.016 250.516C212.43 266.625 226.684 279.152 244.234 286.746C252.098 290.149 261.113 290.149 268.977 286.746C286.527 279.152 300.781 266.625 310.195 250.516C319.465 234.652 326.699 215.43 331.703 193.344C333.871 179.57 336.18 148.582 326.402 137.563Z" fill="#FFBAAE"/>
<path d="M239.723 250.516C233.059 234.649 227.856 215.426 224.266 193.383C222.645 180.281 221.121 148.453 228.07 137.563C229.332 135.586 230.027 133.277 230.078 130.887C230.273 121.785 231.926 99.5118 243.023 89.2306C243.965 88.3595 244.957 87.5978 245.988 86.9376C230.02 82.129 217.133 82.8907 207.606 89.2306C192.172 99.5118 189.871 121.785 189.602 130.887C189.527 133.277 188.566 135.586 186.809 137.563C177.145 148.453 179.262 180.277 181.516 193.383C186.512 215.426 193.746 234.649 203.016 250.516C212.43 266.625 226.684 279.152 244.238 286.746C252.102 290.149 261.113 290.149 268.977 286.746C269.051 286.715 269.121 286.68 269.195 286.645C256.648 279.043 246.461 266.559 239.723 250.516Z" fill="#FE9D9A"/>
<path d="M256.609 95.3867C291.102 95.3867 323.043 98.375 349.148 103.453L337.215 37.5703C335.422 28.1641 329.676 20.2852 321.762 16.3789C300.23 5.74609 278.324 0.390625 256.609 0C234.895 0.390625 212.988 5.74609 191.453 16.3789C183.539 20.2852 177.793 28.1641 176.004 37.5703L164.066 103.453C190.172 98.375 222.113 95.3867 256.609 95.3867Z" fill="#FBC840"/>
<path d="M215.754 29.4492C217.137 18.8828 221.562 10.0352 227.66 5.64453C229.176 4.55469 230.695 3.52734 232.215 2.53516C218.574 5.13281 204.941 9.71875 191.453 16.3789C183.539 20.2852 177.793 28.1602 176.004 37.5703L164.07 103.453C177.152 100.906 191.699 98.8906 207.301 97.5078L215.754 29.4492Z" fill="#F9B50B"/>
<path d="M256.609 68.6992C224.285 68.6992 194.211 71.3203 169.07 75.8281L164.066 103.449C190.172 98.375 222.113 95.3867 256.609 95.3867C291.102 95.3867 323.043 98.375 349.148 103.449L344.145 75.8281C319.008 71.3203 288.93 68.6992 256.609 68.6992Z" fill="#F97396"/>
<path d="M210.648 70.5352C195.762 71.7539 181.781 73.5508 169.07 75.8281C168.547 78.7188 164.559 100.742 164.066 103.449C177.148 100.906 191.699 98.8867 207.301 97.5078L210.648 70.5352Z" fill="#F7577A"/>
<path d="M292.125 96.4727C293.473 96.4492 306.894 100.016 322.289 93.0547C320.867 91.2539 320.141 88.9102 320.469 86.4727L321.836 76.3828C322.164 73.9453 323.488 71.8789 325.34 70.5234C312.394 59.7734 298.527 59.6055 297.168 59.2031C295.613 58.9922 294.184 60.082 293.973 61.6367C292.609 71.6992 291.051 83.2148 289.687 93.2773C289.48 94.832 290.57 96.2617 292.125 96.4727Z" fill="#F7577A"/>
<path d="M321.836 76.3828L320.469 86.4727C320.141 88.9102 320.867 91.2539 322.289 93.0508C313.023 97.2422 304.48 97.6172 298.844 97.2578C299.078 97.2031 299.312 97.1484 299.547 97.0859C310.266 94.1211 316.555 83.0273 313.59 72.3047C312.148 67.1016 308.793 62.9492 304.496 60.3867C310.004 61.6094 317.824 64.2812 325.34 70.5234C323.492 71.8789 322.168 73.9453 321.836 76.3828Z" fill="#D93A59"/>
<path d="M346.742 79.7538L345.375 89.8436C345.047 92.2811 343.723 94.3476 341.871 95.703C354.863 106.508 368.75 106.641 370.043 107.023C371.598 107.234 373.027 106.144 373.238 104.59C374.602 94.5233 376.16 83.0116 377.523 72.9491C377.734 71.3944 376.645 69.9608 375.09 69.7499C373.676 69.7772 360.262 66.2499 344.926 73.1757C346.344 74.9726 347.07 77.3163 346.742 79.7538Z" fill="#F7577A"/>
<path d="M368.641 69.7423C358.027 72.6798 351.805 83.6603 354.738 94.2735C356.164 99.422 359.484 103.535 363.738 106.07C358.211 104.961 349.871 102.359 341.871 95.7032C343.723 94.3517 345.047 92.2814 345.375 89.8439L346.742 79.754C347.07 77.3165 346.344 74.9728 344.922 73.1759C355.859 68.2384 365.812 68.6134 371.141 69.2267C370.309 69.3478 369.473 69.5157 368.641 69.7423Z" fill="#D93A59"/>
<path d="M326.707 96.1251L336.797 97.4922C341.555 98.1368 345.977 94.7696 346.617 90.0118L347.984 79.9219C348.629 75.1641 345.266 70.7422 340.508 70.1016L330.414 68.7344C325.656 68.0899 321.238 71.4532 320.594 76.2149L319.227 86.3047C318.586 91.0626 321.949 95.4805 326.707 96.1251Z" fill="#F97396"/>
<path d="M333.731 77.9062L332.344 88.164C331.789 92.2461 334.148 96.0742 337.809 97.5625C337.477 97.5586 337.137 97.5351 336.801 97.4922L326.707 96.125C321.949 95.4804 318.586 91.0625 319.231 86.3047L320.594 76.2148C321.238 71.457 325.656 68.0898 330.414 68.7344L340.508 70.1015C340.848 70.1445 341.176 70.2148 341.5 70.3008C337.578 70.7617 334.285 73.8242 333.731 77.9062Z" fill="#F7577A"/>
<path d="M256.609 90.0273C162.047 90.0273 85.3867 108.879 85.3867 132.133C85.3867 146.359 114.078 158.938 158.004 166.562C151.844 162.348 148.414 157.672 148.414 152.746C148.414 134.234 196.855 119.23 256.609 119.23C316.359 119.23 364.801 134.234 364.801 152.746C364.801 157.672 361.371 162.348 355.215 166.562C399.137 158.938 427.828 146.359 427.828 132.133C427.828 108.879 351.172 90.0273 256.609 90.0273Z" fill="#FCDB75"/>
<path d="M294.152 509.043C267.441 499.195 262.391 470.359 262.391 470.359L262.387 470.348C261.406 472.332 259.641 473.867 257.477 474.324C254.156 475.023 250.98 473.297 249.609 470.359C249.609 470.371 244.555 499.195 217.848 509.043C230.277 510.988 243.02 512 256 512C268.98 512 281.723 510.988 294.152 509.043Z" fill="#BA1C37"/>
<path d="M230.82 120.191C175.785 110.832 207.77 91.8906 208.008 91.75C137.121 96.9023 85.3867 113.031 85.3867 132.137C85.3867 146.359 114.078 158.938 158 166.562C151.844 162.352 148.414 157.672 148.414 152.746C148.414 136.988 183.52 123.773 230.82 120.191Z" fill="#FBC840"/>
</g>
<defs>
<clipPath id="clip0">
<rect width="512" height="512" fill="white"/>
</clipPath>
</defs>
</svg>
