<svg width="512" height="512" viewBox="0 0 512 512" fill="none" xmlns="http://www.w3.org/2000/svg">
<g clip-path="url(#clip0)">
<path d="M11.0273 265.809L493.734 326.398C498.473 307.379 501 287.484 501 267C501 131.691 391.312 22 256 22C121.09 22 11.6602 131.047 11.0156 265.809H11.0273Z" fill="#FBC840"/>
<path d="M426.984 308.066C332.234 253.344 288.938 163.086 269.402 99C260.426 69.5507 232.93 57.4414 211.691 73.6445L211.039 74.1406C198.25 83.9023 182.273 83.7539 169.594 73.7656L169.383 73.5976C148.051 56.7929 120.172 69.0195 111.09 98.8593C86.3203 180.238 47.6719 231.144 11.0273 264.809C11.0195 265.539 11 266.266 11 267C11 317.945 26.5547 365.254 53.1641 404.445C63.1016 396.641 75.625 391.98 89.2422 391.98C92.6914 391.98 96.0625 392.285 99.3438 392.863C102.863 393.48 106.375 391.812 108.305 388.809C122.184 367.215 146.41 352.902 173.988 352.902C198.68 352.902 220.688 364.375 234.984 382.273C237.367 385.258 241.363 386.477 244.938 385.137C251.902 382.531 259.438 381.102 267.312 381.102C291.586 381.102 312.699 394.633 323.523 414.562C325.828 418.805 331.066 420.57 335.332 418.316C343.586 413.953 352.996 411.48 362.98 411.48C375.523 411.48 387.152 415.387 396.727 422.039C400.434 424.613 405.461 424.043 408.434 420.652C418.191 409.516 432.508 402.48 448.477 402.48C452.223 402.48 455.879 402.875 459.406 403.613C470.672 386.871 479.914 368.656 486.812 349.324C471.766 336.629 452.258 322.664 426.984 308.066Z" fill="#98341A"/>
<path d="M192.445 81.2968C184.551 81.7734 176.57 79.2617 169.594 73.7656L169.383 73.5976C148.051 56.7929 120.172 69.0195 111.09 98.8593C86.3203 180.238 47.6719 231.144 11.0273 264.809C11.0234 265.539 11 266.266 11 267C11 317.941 26.5547 365.254 53.1641 404.445C63.1016 396.641 75.6289 391.98 89.2461 391.98C92.6914 391.98 96.0664 392.285 99.3438 392.863C102.863 393.48 106.375 391.812 108.305 388.809C117.352 374.73 130.797 363.758 146.695 357.816C164.906 309.945 174.215 250.703 173.238 192.156C171.535 89.539 192.445 81.2968 192.445 81.2968Z" fill="#872815"/>
<path d="M372 240.176C370.223 223.844 357.148 210.637 340.832 208.699C337.605 208.316 334.449 208.363 331.418 208.793C327.793 209.309 324.664 206.355 324.668 202.695C324.668 202.668 324.668 202.641 324.668 202.613C324.668 159.906 290.047 125.285 247.34 125.285C215.078 125.285 187.434 145.043 175.84 173.117C174.457 176.465 170.641 178.176 167.297 176.781C160.949 174.129 153.984 172.66 146.676 172.66C124.691 172.66 105.805 185.895 97.5234 204.824C96.4218 207.352 93.7617 208.793 91.0156 208.562C88.9687 208.391 86.871 208.395 84.7382 208.594C66.8828 210.27 52.7499 225.371 52.3124 243.297C51.8203 263.449 68.0117 279.941 88.0546 279.941H336.469C357.535 279.941 374.348 261.719 372 240.176Z" fill="#FCDB75"/>
<path d="M180.484 274.805C178.062 254.281 187.672 233.32 206.644 222.211C212.949 218.516 219.703 216.266 226.519 215.344C230.109 214.859 232.539 211.453 232.039 207.863C227.855 177.781 241.723 146.762 269.562 130.457C270.289 130.031 271.023 129.645 271.758 129.242C264.078 126.687 255.875 125.285 247.34 125.285C215.078 125.285 187.434 145.043 175.84 173.117C174.457 176.465 170.641 178.18 167.297 176.781C160.949 174.129 153.984 172.66 146.676 172.66C124.691 172.66 105.805 185.895 97.5234 204.824C96.4218 207.352 93.7617 208.793 91.0156 208.562C88.9687 208.391 86.871 208.395 84.7343 208.594C66.8828 210.27 52.7499 225.371 52.3124 243.297C51.8203 263.449 68.0117 279.941 88.0507 279.941H178.66C179.984 278.598 180.715 276.742 180.484 274.805Z" fill="#FBC840"/>
<path d="M269.469 216.316C270.613 205.812 279.023 197.316 289.516 196.07C291.594 195.824 293.621 195.855 295.574 196.133C297.902 196.461 299.918 194.562 299.914 192.207C299.914 192.191 299.914 192.172 299.914 192.156C299.914 164.684 322.184 142.414 349.656 142.414C370.406 142.414 388.188 155.125 395.645 173.184C396.535 175.336 398.988 176.438 401.141 175.539C405.223 173.832 409.703 172.887 414.406 172.887C428.547 172.887 440.695 181.398 446.02 193.578C446.731 195.203 448.441 196.129 450.211 195.98C451.527 195.871 452.875 195.871 454.246 196C465.731 197.078 474.82 206.789 475.102 218.32C475.422 231.285 465.008 241.895 452.113 241.895H292.324C278.773 241.895 267.961 230.176 269.469 216.316Z" fill="#FCF1D4"/>
<path d="M363.391 188.41C369.301 176.648 379.242 168.262 390.695 164.059C381.731 150.992 366.695 142.414 349.652 142.414C322.184 142.414 299.914 164.688 299.914 192.156V192.207C299.914 194.562 297.902 196.461 295.57 196.133C293.621 195.855 291.594 195.824 289.516 196.07C279.02 197.316 270.613 205.812 269.469 216.32C267.961 230.176 278.773 241.898 292.324 241.898H369.063C357.254 227.184 354.367 206.367 363.391 188.41Z" fill="#FFEBB3"/>
<path d="M437.711 221.84C431.242 200.625 411.434 191.902 396.133 203.574L395.664 203.93C386.453 210.961 374.941 210.855 365.809 203.66L365.656 203.539C350.289 191.434 330.207 200.242 323.664 221.738C297.973 306.152 251.543 345.062 218.559 366.891C224.746 371.203 230.285 376.391 234.984 382.273C237.367 385.258 241.363 386.473 244.938 385.137C251.902 382.531 259.438 381.102 267.312 381.102C291.586 381.102 312.699 394.633 323.523 414.562C325.828 418.801 331.066 420.57 335.332 418.312C343.586 413.949 352.996 411.48 362.98 411.48C375.523 411.48 387.152 415.383 396.727 422.039C400.434 424.613 405.461 424.039 408.434 420.648C418.191 409.516 432.508 402.48 448.477 402.48C452.223 402.48 455.879 402.871 459.406 403.609C475.215 380.121 487.047 353.738 493.973 325.43C463.855 291.234 447.027 252.406 437.711 221.84Z" fill="#BA4D3C"/>
<path d="M375.84 279.942C375.84 222.211 395.637 203.961 395.664 203.934C386.453 210.965 374.945 210.859 365.809 203.66L365.656 203.543C350.289 191.438 330.211 200.242 323.664 221.738C297.973 306.156 251.543 345.067 218.559 366.891C224.746 371.207 230.285 376.391 234.984 382.274C237.367 385.258 241.363 386.477 244.938 385.137C251.902 382.531 259.438 381.102 267.312 381.102C291.586 381.102 312.699 394.633 323.523 414.563C325.828 418.805 331.066 420.57 335.332 418.313C338.258 416.77 341.328 415.465 344.516 414.422C373.246 383.844 375.84 326.391 375.84 279.942Z" fill="#AA3D27"/>
<path d="M405.727 50.9961C405.727 79.1602 382.895 101.992 354.73 101.992C326.566 101.992 303.734 79.1602 303.734 50.9961C303.734 22.832 326.566 0 354.73 0C382.895 0 405.727 22.832 405.727 50.9961Z" fill="#FC6938"/>
<path d="M370.012 71.4375C350.281 71.4375 334.293 55.4453 334.293 35.7188C334.293 18.3789 346.652 3.92578 363.039 0.683594C360.336 0.242188 357.562 0 354.73 0C326.566 0 303.73 22.832 303.73 50.9961C303.73 79.1641 326.566 101.996 354.73 101.996C382.895 101.996 405.727 79.1641 405.727 50.9961C405.727 48.168 405.488 45.3945 405.043 42.6875C401.801 59.0781 387.352 71.4375 370.012 71.4375Z" fill="#ED4F24"/>
<path d="M241.031 361.016C241.762 354.312 247.125 348.895 253.82 348.098C255.144 347.941 256.437 347.961 257.684 348.137C259.172 348.348 260.453 347.137 260.453 345.637C260.453 345.625 260.453 345.613 260.453 345.602C260.453 328.078 274.66 313.871 292.184 313.871C305.422 313.871 316.766 321.977 321.523 333.496C322.094 334.871 323.66 335.574 325.031 335.004C327.637 333.914 330.492 333.312 333.492 333.312C342.516 333.312 350.262 338.742 353.66 346.512C354.113 347.547 355.203 348.137 356.332 348.043C357.172 347.973 358.031 347.977 358.906 348.059C366.234 348.742 372.031 354.941 372.215 362.297C372.414 370.566 365.769 377.336 357.547 377.336H255.609C246.965 377.332 240.066 369.855 241.031 361.016Z" fill="#FCDB75"/>
<path d="M300.176 373.539C306.152 361.727 318.508 355.27 330.934 356.223C332.418 356.34 333.75 355.258 333.859 353.773C334.062 350.961 334.816 348.137 336.172 345.461C338.16 341.531 341.172 338.461 344.715 336.398C341.43 334.441 337.594 333.309 333.492 333.309C330.492 333.309 327.633 333.914 325.027 335.004C323.656 335.574 322.09 334.871 321.523 333.496C316.766 321.977 305.422 313.871 292.184 313.871C274.66 313.871 260.453 328.078 260.453 345.602V345.637C260.453 347.137 259.172 348.348 257.684 348.137C256.437 347.961 255.144 347.941 253.82 348.098C247.125 348.895 241.758 354.312 241.027 361.016C240.066 369.855 246.965 377.332 255.609 377.332H298.562C299.016 376.055 299.547 374.785 300.176 373.539Z" fill="#FBC840"/>
<path d="M304.43 371.617C303.699 364.914 298.336 359.496 291.637 358.699C290.312 358.543 289.019 358.562 287.773 358.738C286.289 358.949 285.004 357.738 285.004 356.234C285.004 356.227 285.004 356.215 285.004 356.203C285.004 338.68 270.797 324.473 253.273 324.473C240.035 324.473 228.691 332.578 223.933 344.098C223.367 345.473 221.801 346.176 220.43 345.602C217.824 344.516 214.969 343.91 211.969 343.91C202.945 343.91 195.195 349.344 191.797 357.109C191.344 358.148 190.254 358.738 189.129 358.645C188.285 358.574 187.426 358.574 186.551 358.656C179.226 359.344 173.426 365.543 173.246 372.898C173.043 381.168 179.687 387.938 187.91 387.938H289.848C298.492 387.934 305.391 380.457 304.43 371.617Z" fill="#FCF1D4"/>
<path d="M244.824 371.129C246.996 369.059 249.476 367.52 252.113 366.508C253.5 365.973 254.148 364.383 253.609 362.996C249.094 351.383 251.695 337.684 261.269 328.539C262.113 327.734 262.988 326.992 263.894 326.297C260.57 325.117 257 324.473 253.273 324.473C240.035 324.473 228.691 332.578 223.933 344.098C223.367 345.473 221.801 346.176 220.43 345.602C217.824 344.516 214.965 343.91 211.969 343.91C202.945 343.91 195.195 349.344 191.797 357.109C191.344 358.148 190.254 358.738 189.129 358.645C188.285 358.574 187.426 358.574 186.551 358.656C179.226 359.344 173.426 365.543 173.246 372.898C173.043 381.168 179.687 387.938 187.91 387.938H238.055C237.805 381.84 240.066 375.672 244.824 371.129Z" fill="#FFEBB3"/>
<path d="M256 512C341.477 512 416.715 468.219 460.551 401.867C456.672 400.965 452.633 400.48 448.477 400.48C432.508 400.48 418.188 407.516 408.434 418.648C405.461 422.039 400.43 422.613 396.727 420.039C387.152 413.383 375.523 409.48 362.98 409.48C352.992 409.48 343.586 411.949 335.332 416.312C331.066 418.57 325.828 416.805 323.523 412.562C312.699 392.633 291.586 379.102 267.309 379.102C259.438 379.102 251.898 380.531 244.938 383.137C241.363 384.473 237.367 383.258 234.984 380.273C220.688 362.371 198.68 350.902 173.988 350.902C146.41 350.902 122.184 365.211 108.305 386.805C106.371 389.812 102.863 391.477 99.3438 390.859C96.0625 390.281 92.6875 389.98 89.2422 389.98C75.2227 389.98 62.3711 394.93 52.3008 403.156C96.2578 468.789 171.078 512 256 512Z" fill="#83D912"/>
<path d="M175.801 479.035C179.254 479.07 182.391 476.969 183.496 473.699C185.652 467.328 188.957 461.23 193.461 455.715C207.34 438.703 228.891 431.645 249.047 435.453C253.336 436.266 257.566 433.602 258.426 429.324C260.086 421.047 263.734 413.039 269.445 406.039C276.617 397.25 286 391.336 296.137 388.43C297.031 388.172 297.848 387.77 298.574 387.258C289.328 382.062 278.664 379.102 267.309 379.102C259.434 379.102 251.898 380.531 244.934 383.137C241.359 384.477 237.363 383.258 234.98 380.273C220.684 362.375 198.68 350.902 173.988 350.902C146.41 350.902 122.18 365.211 108.301 386.809C106.371 389.812 102.859 391.48 99.3438 390.859C96.0625 390.285 92.6875 389.98 89.2422 389.98C75.2227 389.98 62.3711 394.93 52.3008 403.156C75.6289 437.992 107.652 466.508 145.27 485.602C154.871 481.148 165.32 478.93 175.801 479.035Z" fill="#5BBF02"/>
</g>
<defs>
<clipPath id="clip0">
<rect width="512" height="512" fill="white"/>
</clipPath>
</defs>
</svg>
