<svg width="512" height="512" viewBox="0 0 512 512" fill="none" xmlns="http://www.w3.org/2000/svg">
<path d="M245 11C165.066 11 94.082 49.2852 49.3633 108.512L80.3555 437.43C123.852 476.93 181.613 501 245 501C380.309 501 490 391.309 490 256C490 120.691 380.309 11 245 11V11Z" fill="#2299F2"/>
<path d="M76.1172 433.488C120.066 475.32 179.535 501 245 501C310.469 501 369.934 475.32 413.887 433.488H76.1172Z" fill="#554CBF"/>
<path d="M185.605 433.488H76.1172C99.0352 455.305 126.184 472.715 156.191 484.391C145.324 464.48 155.531 433.488 185.605 433.488Z" fill="#483BA8"/>
<path d="M105.137 109.426C105.496 109.426 105.859 109.41 106.219 109.398V96.3789C106.219 87.3438 98.8945 80.0195 89.8594 80.0195C80.8242 80.0195 73.5 87.3438 73.5 96.3789V109.426H105.137Z" fill="#554CBF"/>
<path d="M89.8594 100.781C82.9375 100.781 77.0352 96.4727 74.6445 90.3984C73.9141 92.2539 73.5039 94.2656 73.5039 96.3789V109.426H105.137C105.496 109.426 105.859 109.41 106.219 109.398V96.3789C106.219 94.2656 105.805 92.2539 105.074 90.3984C102.688 96.4727 96.7812 100.781 89.8594 100.781Z" fill="#483BA8"/>
<path d="M476.68 86.0742H152.129C143.133 86.0742 134.57 89.9531 128.633 96.7148C122.695 103.473 114.133 107.352 105.137 107.352H50.2539C43.5234 116.152 37.375 125.422 31.8672 135.105H502.109C503.051 135.105 503.961 135.246 504.82 135.492V114.219C504.82 98.6758 492.223 86.0742 476.68 86.0742Z" fill="#483BA8"/>
<path d="M167.191 114.219C167.191 98.6758 179.789 86.0742 195.336 86.0742H152.129C143.133 86.0742 134.57 89.9531 128.633 96.7148C122.695 103.473 114.133 107.352 105.137 107.352H50.2539C43.5234 116.152 37.375 125.422 31.8672 135.105H167.191V114.219Z" fill="#3C2B8E"/>
<path d="M463.672 117.531H400.555C396.258 117.531 392.77 114.047 392.77 109.746C392.77 105.449 396.258 101.965 400.555 101.965H463.672C467.973 101.965 471.457 105.449 471.457 109.746C471.457 114.047 467.973 117.531 463.672 117.531Z" fill="#6464D8"/>
<path d="M427.617 109.746C427.617 105.449 431.105 101.965 435.402 101.965H400.555C396.258 101.965 392.773 105.449 392.773 109.746C392.773 114.047 396.258 117.531 400.555 117.531H435.402C431.102 117.531 427.617 114.047 427.617 109.746Z" fill="#554CBF"/>
<path d="M502.109 134.07H106.145L74.0391 174.332V431.469C76.4609 433.828 78.9297 436.141 81.4453 438.398H474.973C495.34 438.398 512 421.738 512 401.371V143.961C512 138.496 507.57 134.07 502.109 134.07Z" fill="#D9F5FF"/>
<path d="M167.191 134.07H108.223L74.0391 174.332V431.469C76.4609 433.828 78.9297 436.141 81.4453 438.398H167.191V134.07Z" fill="#ABE4FE"/>
<path d="M0 256C0 325.844 29.2266 388.859 76.1172 433.488V134.07H32.4492C11.8047 169.977 0 211.609 0 256Z" fill="#D93A59"/>
<path d="M13.9609 174.332H76.1172L108.223 134.07C77.0898 134.07 53.8047 134.07 32.4492 134.07C25.1211 146.813 18.9258 160.281 13.9609 174.332Z" fill="#BA1C37"/>
<path d="M411.566 157.332C407.613 159.926 404.586 163.406 402.559 167.336C407.777 172.899 412.594 178.981 416.922 185.578C421.25 192.176 424.91 199.016 427.934 206.02C432.348 205.727 436.742 204.336 440.695 201.742C452.941 193.711 456.367 177.215 448.336 164.973C440.305 152.727 423.809 149.301 411.566 157.332Z" fill="#ABE4FE"/>
<path d="M411.566 157.332C407.613 159.926 404.586 163.406 402.559 167.336C407.777 172.899 412.594 178.981 416.922 185.578C421.25 192.176 424.91 199.016 427.934 206.02C432.348 205.727 436.742 204.336 440.695 201.742C452.941 193.711 456.367 177.215 448.336 164.973C440.305 152.727 423.809 149.301 411.566 157.332Z" fill="#ABE4FE"/>
<path d="M417.586 186.613C420.465 176.887 429.465 169.785 440.129 169.785C444.395 169.785 448.391 170.93 451.844 172.914C451.137 170.16 449.98 167.477 448.336 164.973C440.305 152.727 423.809 149.301 411.566 157.332C407.613 159.926 404.586 163.402 402.559 167.336C407.777 172.895 412.594 178.981 416.922 185.578C417.148 185.922 417.363 186.27 417.586 186.613Z" fill="#82C6F9"/>
<path d="M416.016 180.449C366.922 110.215 270.187 93.0742 199.953 142.172C129.719 191.266 112.578 288 161.672 358.234C210.766 428.469 307.504 445.609 377.738 396.512C447.973 347.418 465.109 250.684 416.016 180.449Z" fill="#3C2B8E"/>
<path d="M372.82 392.355C373.035 391.121 372.199 389.953 370.949 389.867C367.445 389.633 364.078 387.879 361.914 384.777C359.746 381.68 359.254 377.918 360.23 374.551C360.578 373.344 359.711 372.141 358.469 371.973C348.078 370.566 338.285 364.992 331.805 355.723C325.684 346.969 323.672 336.57 325.359 326.816C325.531 325.809 324.937 324.816 323.965 324.52C321.969 323.902 320.156 322.648 318.871 320.809C317.367 318.656 316.859 316.109 317.242 313.707C317.43 312.539 316.687 311.461 315.519 311.258C312.394 310.715 309.48 308.973 307.516 306.168C305.605 303.434 304.965 300.199 305.453 297.148C305.641 296.004 304.883 294.926 303.738 294.754C293.144 293.156 283.199 287.391 276.574 277.918C269.953 268.441 267.953 257.121 270.094 246.621C270.324 245.488 269.57 244.406 268.434 244.188C265.402 243.602 262.582 241.887 260.672 239.152C258.711 236.348 258.078 233.012 258.644 229.887C258.851 228.727 258.094 227.652 256.934 227.43C254.547 226.965 252.328 225.613 250.824 223.465C249.535 221.621 248.98 219.488 249.09 217.402C249.141 216.387 248.414 215.488 247.41 215.305C237.668 213.539 228.594 208.078 222.476 199.324C215.992 190.051 214.125 178.941 216.375 168.699C216.644 167.473 215.812 166.246 214.559 166.16C211.059 165.922 207.699 164.164 205.531 161.066C203.363 157.965 202.871 154.199 203.851 150.832C204.191 149.664 203.453 148.438 202.258 148.234C200.16 147.887 198.199 146.727 196.883 144.848C196.809 144.738 196.746 144.625 196.68 144.516C129.199 194.297 113.359 289.102 161.684 358.23C210.004 427.359 304.48 445.047 374.41 398.777C372.937 396.863 372.437 394.535 372.82 392.355Z" fill="#2C217C"/>
<path d="M382.211 402.887C308.57 454.363 206.777 436.332 155.301 362.691C103.824 289.051 121.856 187.258 195.496 135.781C269.137 84.3048 370.93 102.336 422.406 175.977C473.883 249.617 455.852 351.406 382.211 402.887ZM204.414 148.543C137.813 195.102 121.504 287.168 168.063 353.774C214.621 420.379 306.688 436.688 373.293 390.125C439.899 343.566 456.203 251.5 409.645 184.895C363.086 118.289 271.02 101.981 204.414 148.543Z" fill="#554CBF"/>
<path d="M384.789 401.016C381.574 402.75 377.469 402.098 374.965 399.438C373.059 397.414 372.395 394.789 372.82 392.355C372.926 391.746 372.774 391.156 372.445 390.703C305.91 436.539 214.426 420.098 168.063 353.773C121.695 287.441 137.684 195.871 203.598 149.129C203.305 148.676 202.836 148.336 202.258 148.238C200.16 147.887 198.199 146.73 196.883 144.848C194.422 141.324 195.113 136.551 198.352 133.844C197.395 134.48 196.441 135.121 195.496 135.781C121.856 187.262 103.824 289.051 155.301 362.691C206.777 436.332 308.57 454.363 382.211 402.887C383.145 402.234 384.063 401.57 384.977 400.902C384.914 400.938 384.856 400.98 384.789 401.016Z" fill="#3C2B8E"/>
<path d="M391.922 197.293C352.129 140.363 273.723 126.473 216.797 166.266C159.867 206.059 145.977 284.465 185.77 341.391C225.563 398.316 303.969 412.211 360.895 372.418C417.82 332.625 431.711 254.219 391.922 197.293Z" fill="#483BA8"/>
<path d="M358.469 371.973C348.078 370.566 338.285 364.992 331.805 355.723C325.684 346.969 323.672 336.57 325.359 326.816C325.531 325.809 324.937 324.816 323.965 324.52C321.969 323.902 320.156 322.648 318.871 320.809C317.367 318.656 316.859 316.109 317.242 313.707C317.43 312.539 316.687 311.461 315.519 311.258C312.394 310.715 309.48 308.973 307.516 306.168C305.605 303.434 304.965 300.199 305.453 297.148C305.641 296.004 304.883 294.926 303.738 294.754C293.144 293.156 283.199 287.391 276.574 277.918C269.953 268.441 267.953 257.121 270.094 246.621C270.324 245.488 269.57 244.406 268.434 244.188C265.402 243.602 262.582 241.887 260.672 239.152C258.711 236.348 258.078 233.012 258.644 229.887C258.851 228.727 258.094 227.652 256.934 227.43C254.547 226.965 252.328 225.613 250.824 223.465C249.535 221.621 248.98 219.488 249.09 217.402C249.141 216.387 248.414 215.488 247.41 215.305C237.668 213.539 228.594 208.078 222.476 199.324C215.992 190.051 214.125 178.941 216.375 168.699C216.519 168.027 216.332 167.363 215.934 166.883C159.738 206.863 146.187 284.754 185.777 341.387C225.367 398.02 303.172 412.051 360.023 373.012C359.707 372.469 359.148 372.062 358.469 371.973Z" fill="#3C2B8E"/>
<path d="M322.613 317.629C295.984 336.246 259.172 329.727 240.559 303.094C221.941 276.465 228.465 239.652 255.094 221.039C281.723 202.422 318.535 208.941 337.148 235.574C355.766 262.203 349.246 299.016 322.613 317.629Z" fill="#52B0F5"/>
<path d="M317.242 313.707C317.43 312.539 316.684 311.461 315.519 311.258C312.394 310.715 309.476 308.973 307.516 306.168C305.605 303.434 304.961 300.199 305.453 297.148C305.637 296.004 304.883 294.926 303.738 294.754C293.141 293.156 283.195 287.391 276.574 277.918C269.949 268.441 267.953 257.121 270.094 246.621C270.324 245.488 269.57 244.406 268.433 244.188C265.398 243.602 262.582 241.887 260.672 239.152C258.711 236.348 258.078 233.012 258.641 229.887C258.851 228.727 258.094 227.652 256.933 227.43C254.75 227.008 252.719 225.836 251.234 223.996C227.883 243.348 222.879 277.805 240.558 303.094C258.234 328.383 292.312 335.52 318.508 320.234C317.293 318.211 316.891 315.898 317.242 313.707Z" fill="#2299F2"/>
<path d="M327.074 324.012C296.926 345.086 255.254 337.703 234.176 307.555C213.101 277.406 220.484 235.734 250.633 214.656C280.781 193.582 322.453 200.965 343.527 231.113C364.605 261.262 357.223 302.934 327.074 324.012ZM259.551 227.418C236.437 243.574 230.781 275.523 246.937 298.637C263.094 321.746 295.039 327.406 318.152 311.25C341.266 295.094 346.926 263.148 330.769 240.035C314.613 216.922 282.664 211.262 259.551 227.418Z" fill="#2299F2"/>
<path d="M323.965 324.52C321.969 323.902 320.156 322.648 318.867 320.809C317.363 318.656 316.855 316.109 317.242 313.707C317.34 313.113 317.191 312.543 316.871 312.098C293.871 327.18 262.801 321.324 246.937 298.633C231.074 275.945 236.254 244.75 258.312 228.332C258.008 227.879 257.523 227.543 256.934 227.43C254.543 226.969 252.328 225.617 250.82 223.465C249.535 221.621 248.98 219.488 249.086 217.406C249.113 216.918 248.957 216.465 248.68 216.098C220.187 237.582 213.57 278.07 234.18 307.555C254.785 337.035 295.086 344.73 325.051 325.348C324.801 324.965 324.43 324.66 323.965 324.52Z" fill="#1588E8"/>
<path d="M271.149 244.004C257.184 253.769 253.762 273.074 263.524 287.039C273.289 301.004 292.594 304.426 306.559 294.66C320.527 284.898 323.945 265.594 314.184 251.629C304.418 237.66 285.113 234.242 271.149 244.004Z" fill="#82C6F9"/>
<path d="M303.738 294.754C293.145 293.156 283.199 287.391 276.574 277.918C269.953 268.441 267.953 257.121 270.094 246.621C270.211 246.047 270.07 245.48 269.758 245.039C256.969 255.082 254.098 273.551 263.527 287.039C272.957 300.527 291.285 304.176 305.109 295.613C304.801 295.164 304.32 294.84 303.738 294.754Z" fill="#52B0F5"/>
<path d="M338.473 204.012C309.566 182.016 268.961 181.398 239.234 204.012C235.816 206.613 230.934 205.953 228.328 202.531C225.726 199.109 226.387 194.227 229.809 191.621C264.594 165.152 312.879 164.977 347.898 191.621C351.32 194.227 351.984 199.109 349.379 202.531C346.781 205.945 341.898 206.617 338.473 204.012Z" fill="#554CBF"/>
<path d="M205.563 320.234C203.316 316.57 204.469 311.777 208.137 309.531C211.805 307.289 216.594 308.437 218.84 312.105C250.934 364.52 326.844 364.406 358.867 312.105C361.113 308.437 365.906 307.289 369.57 309.531C373.238 311.777 374.391 316.57 372.145 320.234C333.969 382.578 243.656 382.445 205.563 320.234Z" fill="#554CBF"/>
<path d="M137.977 170.488H123.965C119.664 170.488 116.18 167.004 116.18 162.703C116.18 158.406 119.664 154.922 123.965 154.922H137.977C142.273 154.922 145.758 158.406 145.758 162.703C145.758 167.004 142.273 170.488 137.977 170.488Z" fill="#52B0F5"/>
</svg>
