<svg width="512" height="512" viewBox="0 0 512 512" fill="none" xmlns="http://www.w3.org/2000/svg">
<g clip-path="url(#clip0)">
<path d="M256 22C120.691 22 11 131.688 11 267C11 350.797 53.0781 424.758 117.254 468.934L394.762 468.926C458.926 424.746 501 350.793 501 267C501 131.688 391.309 22 256 22Z" fill="#3C2B8E"/>
<path d="M158.785 42.0625C145.316 61.3047 137.406 84.7227 137.406 109.992C137.406 175.492 190.504 228.59 256.004 228.59C321.504 228.59 374.602 175.492 374.602 109.992C374.602 84.7266 366.695 61.3086 353.23 42.0703C323.422 29.1641 290.547 22 255.996 22C221.457 22 188.59 29.1641 158.785 42.0625Z" fill="#2C217C"/>
<path d="M144.859 130.242C155.461 131.234 165.074 124.719 168.367 114.809C180.406 78.5664 215.016 52.625 255.535 53.6602C302.859 54.8711 341.395 93.457 342.543 140.785C343.766 191.16 303.297 232.383 253.195 232.383H159.16C140.848 232.383 125.855 246.578 124.574 264.566L352.328 492.32C364.613 487.062 376.383 480.836 387.535 473.723V144.09H387.531C388.117 69.9688 327.316 8.66406 253.191 8.66406C194.016 8.66406 143.781 46.9336 125.871 100.07C120.91 114.785 129.398 128.797 144.859 130.242Z" fill="#FBC840"/>
<path d="M144.859 130.242C155.461 131.234 165.074 124.719 168.367 114.809C175.422 93.5742 190.23 75.8867 209.43 65.0781L205.031 48.0898C197.605 44.6445 196.027 39.0156 195.93 35.1328C195.871 32.6758 194.52 30.4453 192.336 29.3203C190.25 28.2422 188.863 26.9336 187.957 25.5625C158.996 41.6836 136.613 68.1953 125.871 100.07C120.91 114.785 129.398 128.797 144.859 130.242Z" fill="#F9B50B"/>
<path d="M250.484 241.047C247.281 237.848 246.16 234.902 246.102 232.383H159.16C140.848 232.383 125.855 246.582 124.574 264.57L250.484 390.477V241.047Z" fill="#F9B50B"/>
<path d="M256 512C290.871 512 324.035 504.699 354.066 491.566L124.809 262.309C124.594 263.863 124.477 265.453 124.477 267.066V473.73C162.473 497.957 207.594 512 256 512Z" fill="#F7577A"/>
<path d="M250.484 387.984L124.809 262.309C124.594 263.863 124.477 265.453 124.477 267.066V473.73C161.027 497.035 204.172 510.91 250.484 511.934V387.984Z" fill="#D93A59"/>
<path d="M144.051 138.871C158.566 140.234 171.965 131.461 176.59 117.539C187.863 83.5977 219.453 61.4062 255.312 62.3242C275.969 62.8516 295.469 71.2773 310.223 86.0508C324.977 100.824 333.379 120.34 333.879 140.992C334.41 162.953 326.273 183.688 310.957 199.379C295.637 215.074 275.121 223.719 253.195 223.719H159.16C138.723 223.719 121.559 237.938 117.004 256.996L133.141 273.133V267.066C133.141 252.719 144.812 241.047 159.16 241.047H253.195C279.832 241.047 304.754 230.547 323.359 211.48C341.965 192.422 351.855 167.238 351.207 140.574C350.598 115.453 340.398 91.7383 322.488 73.8047C304.578 55.8711 280.879 45.6406 255.758 45C234.227 44.457 213.656 50.7461 196.23 63.207C179.441 75.2148 166.621 92.5703 160.144 112.078C158.074 118.301 152.125 122.223 145.668 121.617C141.09 121.188 137.371 119.105 135.195 115.758C132.875 112.188 132.477 107.598 134.082 102.84C151.32 51.6953 199.187 17.332 253.191 17.332C286.707 17.332 318.32 30.5938 342.215 54.6758C366.117 78.7656 379.133 110.496 378.867 144.023C378.867 144.129 378.867 144.23 378.871 144.332V478.996C384.812 475.547 390.59 471.848 396.199 467.926V144.09C396.199 144.031 396.199 143.973 396.199 143.91C396.437 105.82 381.641 69.8047 354.519 42.4688C327.348 15.082 291.363 0 253.191 0C191.742 0 137.273 39.1016 117.656 97.3047C114.375 107.043 115.473 117.211 120.664 125.199C125.711 132.969 134.234 137.949 144.051 138.871Z" fill="#FCDB75"/>
<path d="M144.051 138.871C158.566 140.234 171.965 131.461 176.59 117.539C182.883 98.6016 195.5 83.3242 211.656 73.6758L207.188 56.4141C203.422 58.4258 199.758 60.6836 196.23 63.207C179.441 75.2148 166.621 92.5703 160.145 112.074C158.074 118.301 152.125 122.223 145.668 121.613C141.09 121.188 137.371 119.105 135.195 115.758C132.875 112.184 132.477 107.598 134.082 102.84C144.676 71.4102 166.844 46.3359 194.887 31.6602C194.27 30.6875 193.406 29.8672 192.336 29.3203C183.574 24.8008 187.086 16.1641 187.086 16.1641C155.059 32.8477 129.742 61.4453 117.656 97.3047C114.375 107.043 115.469 117.211 120.66 125.199C125.711 132.969 134.234 137.949 144.051 138.871Z" fill="#FBC840"/>
<path d="M250.484 223.719H159.16C138.723 223.719 121.559 237.938 117.004 256.996L133.141 273.133V267.066C133.141 252.719 144.812 241.047 159.16 241.047H250.484C240.605 231.172 250.484 223.719 250.484 223.719Z" fill="#FBC840"/>
<path d="M133.141 479.004V270.641L117.523 255.023C116.414 258.852 115.809 262.891 115.809 267.066V467.934C121.422 471.855 127.199 475.551 133.141 479.004Z" fill="#F97396"/>
<path d="M350.414 393.996C350.414 446.141 308.148 488.406 256.004 488.406C203.863 488.406 161.594 446.141 161.594 393.996C161.594 341.855 203.863 299.586 256.004 299.586C308.148 299.586 350.414 341.855 350.414 393.996Z" fill="#D9F5FF"/>
<path d="M256.008 386C237.832 366 252.188 337.047 252.188 337.047L251.434 319.727C240.527 308.82 250.461 299.773 250.484 299.75C200.91 302.609 161.594 343.711 161.594 393.996C161.594 444.859 201.816 486.32 252.188 488.324C241.324 477.457 252.191 468.266 252.191 468.266V450.949C233.332 424.332 246.922 397.168 246.922 397.168L256.008 386Z" fill="#ABE4FE"/>
<path d="M256.008 468.422C236.125 468.422 217.438 460.68 203.383 446.621C174.363 417.605 174.363 370.391 203.383 341.371C217.438 327.316 236.129 319.574 256.008 319.574C275.887 319.574 294.574 327.312 308.633 341.371C337.648 370.391 337.648 417.605 308.633 446.621C294.574 460.68 275.887 468.422 256.008 468.422ZM256.008 336.902C240.758 336.902 226.418 342.844 215.637 353.625C204.852 364.41 198.914 378.746 198.914 393.996C198.914 409.246 204.852 423.582 215.637 434.367C226.418 445.152 240.758 451.09 256.008 451.09C271.254 451.09 285.594 445.152 296.375 434.367C307.16 423.586 313.098 409.246 313.098 393.996C313.098 378.746 307.16 364.41 296.375 353.629C285.594 342.844 271.254 336.902 256.008 336.902Z" fill="#F7577A"/>
<path d="M302.504 449.16C300.285 449.16 298.07 448.312 296.375 446.621L203.383 353.629C199.996 350.242 199.996 344.758 203.383 341.371C206.766 337.988 212.254 337.988 215.637 341.371L308.633 434.367C312.016 437.75 312.016 443.238 308.633 446.621C306.938 448.312 304.723 449.16 302.504 449.16Z" fill="#F7577A"/>
<path d="M325.434 69.8945C303.289 31.5429 254.246 18.4023 215.894 40.5468C177.543 62.6874 164.402 111.73 186.547 150.082C208.691 188.434 257.73 201.574 296.082 179.43C334.437 157.289 347.574 108.246 325.434 69.8945Z" fill="#554CBF"/>
<path d="M261.969 123.328L247.434 98.1523C216.648 111.062 187.164 76.5586 205.035 48.0898C175.262 72.543 166.652 115.621 186.551 150.086C206.449 184.551 248.059 198.637 284.125 185.078C250.512 186.32 235.418 143.512 261.969 123.328Z" fill="#483BA8"/>
<path d="M273.129 109.992C273.129 119.453 265.457 127.121 255.996 127.121C246.535 127.121 238.863 119.453 238.863 109.992C238.863 100.527 246.535 92.8594 255.996 92.8594C265.457 92.8594 273.129 100.527 273.129 109.992Z" fill="#6464D8"/>
<path d="M259.176 384.91L215.637 341.371C212.25 337.988 206.766 337.988 203.379 341.371C199.996 344.758 199.996 350.242 203.379 353.629L246.922 397.168C244.262 389.547 251.594 382.266 259.176 384.91Z" fill="#D93A59"/>
<path d="M252.191 450.949C222.73 449.016 198.914 424.57 198.914 393.996C198.914 363.402 222.746 338.977 252.188 337.047C244.809 333.855 244.359 323.551 251.434 319.727C233.273 320.82 216.352 328.398 203.379 341.371C157.867 386.887 188.148 464.453 251.434 468.266C244.359 464.441 244.809 454.141 252.191 450.949Z" fill="#D93A59"/>
</g>
<defs>
<clipPath id="clip0">
<rect width="512" height="512" fill="white"/>
</clipPath>
</defs>
</svg>
