<svg width="512" height="512" viewBox="0 0 512 512" fill="none" xmlns="http://www.w3.org/2000/svg">
<g clip-path="url(#clip0)">
<path d="M256 22C120.691 22 11 131.688 11 267C11 381.344 89.332 477.383 195.258 504.406L299.488 508.152C414.051 487.629 501 387.469 501 267C501 131.688 391.309 22 256 22Z" fill="#83D912"/>
<path d="M172.273 287C167.32 287.305 163.461 291.41 163.461 296.375C163.461 301.34 167.32 305.445 172.273 305.75L358.832 314.039C358.832 301.676 358.832 291.074 358.832 278.711L172.273 287Z" fill="#52B0F5"/>
<path d="M172.273 287C167.32 287.305 163.461 291.41 163.461 296.375C163.461 301.34 167.32 305.445 172.273 305.75L358.832 314.039C358.832 301.676 358.832 291.074 358.832 278.711L172.273 287Z" fill="#82C6F9"/>
<path d="M308.652 296.375C308.652 288.938 313.488 282.637 320.188 280.426L172.273 287C167.32 287.305 163.461 291.41 163.461 296.375C163.461 301.34 167.32 305.445 172.273 305.75L320.188 312.324C313.488 310.113 308.652 303.812 308.652 296.375Z" fill="#52B0F5"/>
<path d="M382.355 260.141C372.547 261.699 355.734 266.195 355.734 278.711V314.039C355.734 326.555 372.547 331.051 382.355 332.609C385.977 333.184 389.246 330.363 389.246 326.699C389.246 319.363 389.246 273.438 389.246 266.055C389.246 262.387 385.977 259.566 382.355 260.141Z" fill="#2299F2"/>
<path d="M382.355 303.453C372.547 302.523 355.73 299.832 355.73 292.348V314.039C355.73 326.555 372.547 331.051 382.355 332.609C385.977 333.184 389.246 330.363 389.246 326.695C389.246 323.355 389.246 311.992 389.246 299.922C389.246 302.113 385.977 303.801 382.355 303.453Z" fill="#1588E8"/>
<path d="M351.383 12.9219H207.609V27.1836C207.609 33.4062 202.566 38.4531 196.34 38.4531H361.051V22.5898C361.051 17.2695 356.699 12.9219 351.383 12.9219Z" fill="#483BA8"/>
<path d="M244.789 12.9219H207.609V27.1836C207.609 33.4062 202.566 38.4531 196.34 38.4531H235.121V22.5898C235.121 17.2695 239.473 12.9219 244.789 12.9219Z" fill="#3C2B8E"/>
<path d="M198.406 0H134.43C128.203 0 123.16 5.04688 123.16 11.2695V27.1836C123.16 33.4062 128.203 38.4531 134.43 38.4531H198.406C204.633 38.4531 209.68 33.4062 209.68 27.1836V11.2695C209.68 5.04688 204.633 0 198.406 0V0Z" fill="#6464D8"/>
<path d="M156.145 27.1836V11.2695C156.145 5.04688 161.191 0 167.414 0H134.43C128.203 0 123.16 5.04688 123.16 11.2695V27.1836C123.16 33.4062 128.203 38.4531 134.43 38.4531H167.414C161.191 38.4531 156.145 33.4062 156.145 27.1836Z" fill="#554CBF"/>
<path d="M107.367 82.7812H89.5859C82.3125 82.7812 76.418 88.6758 76.418 95.9453V133.316C76.418 140.586 82.3125 146.48 89.5859 146.48H107.367V82.7812Z" fill="#52B0F5"/>
<path d="M76.418 106.129V133.316C76.418 140.586 82.3125 146.48 89.5859 146.48H107.367V119.297H89.5859C82.3125 119.297 76.418 113.402 76.418 106.129Z" fill="#2299F2"/>
<path d="M107.367 146.48H89.5859C82.3125 146.48 76.418 152.379 76.418 159.648V197.02C76.418 204.289 82.3125 210.184 89.5859 210.184H107.367V146.48Z" fill="#52B0F5"/>
<path d="M76.418 169.832V197.016C76.418 204.289 82.3125 210.184 89.5859 210.184H107.367V183H89.5859C82.3125 182.996 76.418 177.102 76.418 169.832Z" fill="#2299F2"/>
<path d="M377.281 36.3867H106.926C100.348 36.3867 94.9648 41.7695 94.9648 48.3477V247.133C94.9648 253.711 100.348 259.094 106.926 259.094H218.305C226.652 259.094 233.422 265.863 233.422 274.211V310.008C233.422 317.52 239.195 323.984 246.699 324.34C254.711 324.715 261.324 318.332 261.324 310.402V274.211C261.324 265.863 268.09 259.094 276.438 259.094H377.281C383.863 259.094 389.246 253.711 389.246 247.133V48.3477C389.246 41.7695 383.863 36.3867 377.281 36.3867Z" fill="#D9F5FF"/>
<path d="M149.824 247.133V48.3477C149.824 41.7695 155.211 36.3867 161.789 36.3867H106.926C100.348 36.3867 94.9648 41.7695 94.9648 48.3477V247.133C94.9648 253.711 100.348 259.094 106.926 259.094H161.789C155.211 259.094 149.824 253.711 149.824 247.133Z" fill="#ABE4FE"/>
<path d="M289.227 326.422V280.281C289.227 272.574 282.98 266.328 275.273 266.328C267.57 266.328 261.324 272.574 261.324 280.281V326.422H289.227Z" fill="#3C2B8E"/>
<path d="M232.93 326.422V280.281C232.93 272.574 226.684 266.328 218.977 266.328C211.273 266.328 205.027 272.574 205.027 280.281V326.422H232.93Z" fill="#3C2B8E"/>
<path d="M275.273 299.422C267.57 299.422 261.324 293.176 261.324 285.469V326.422H289.227V285.469C289.227 293.176 282.98 299.422 275.273 299.422Z" fill="#2C217C"/>
<path d="M218.98 299.422C211.273 299.422 205.027 293.176 205.027 285.469V326.422H232.93V285.469C232.93 293.176 226.684 299.422 218.98 299.422Z" fill="#2C217C"/>
<path d="M229.664 264.262C231.996 266.922 233.422 270.395 233.422 274.211V310.008C233.422 317.52 239.195 323.984 246.699 324.34C254.711 324.715 261.324 318.332 261.324 310.402V274.211C261.324 270.395 262.746 266.922 265.078 264.262H229.664Z" fill="#ABE4FE"/>
<path d="M233.422 298.34C233.422 290.824 239.195 284.363 246.699 284.012C254.711 283.633 261.324 290.016 261.324 297.945V274.211C261.324 270.395 262.746 266.922 265.078 264.262H229.664C231.996 266.922 233.422 270.395 233.422 274.211V298.34Z" fill="#82C6F9"/>
<path d="M385.305 69.4725C358.16 27.5507 302.176 15.5702 260.254 42.7147C218.332 69.8554 206.352 125.844 233.496 167.766C260.641 209.687 316.625 221.664 358.547 194.523C400.469 167.379 412.449 111.391 385.305 69.4725Z" fill="#483BA8"/>
<path d="M356.441 188.09C356.734 187.078 356.016 186.051 354.969 185.898C352.547 185.543 350.277 184.191 348.844 181.977C347.375 179.707 347.09 177.012 347.824 174.609C348.148 173.543 347.422 172.453 346.312 172.336C341.648 171.84 337.234 169.332 334.488 165.094C331.711 160.801 331.246 155.672 332.777 151.168C333.152 150.059 332.41 148.91 331.242 148.801C326.512 148.352 322.019 145.828 319.238 141.535C315.543 135.832 315.945 128.645 319.676 123.422L309.23 107.289C302.937 108.555 296.219 105.98 292.523 100.273C289.742 95.9805 289.281 90.8516 290.808 86.3477C291.183 85.2383 290.441 84.0898 289.277 83.9805C284.543 83.5312 280.051 81.0117 277.269 76.7188C274.527 72.4805 274.043 67.4258 275.504 62.9648C275.848 61.9062 275.152 60.7969 274.047 60.6562C271.555 60.3438 269.211 58.9805 267.742 56.7109C266.305 54.4922 266 51.8711 266.672 49.5117C266.965 48.4766 266.285 47.4258 265.219 47.2695C262.832 46.9219 260.601 45.6055 259.164 43.4492C218.137 70.8555 206.594 126.223 233.496 167.773C260.398 209.324 315.637 221.457 357.433 195.238C356.043 193.027 355.762 190.426 356.441 188.09Z" fill="#3C2B8E"/>
<path d="M345.664 174.633C314.785 194.625 273.395 185.77 253.402 154.887C233.406 124.008 242.266 82.6172 273.145 62.625C304.027 42.6289 345.418 51.4883 365.41 82.3672C385.402 113.25 376.547 154.641 345.664 174.633Z" fill="#82C6F9"/>
<path d="M347.68 173.258C347.41 172.766 346.926 172.398 346.313 172.336C341.648 171.84 337.234 169.332 334.488 165.094C331.711 160.801 331.246 155.672 332.777 151.168C333.152 150.059 332.41 148.91 331.242 148.801C326.512 148.352 322.02 145.832 319.238 141.539C315.543 135.832 315.945 128.645 319.676 123.422L309.23 107.289C302.938 108.555 296.219 105.98 292.523 100.273C289.742 95.9805 289.281 90.8516 290.809 86.3477C291.184 85.2383 290.441 84.0898 289.277 83.9805C284.543 83.5312 280.051 81.0117 277.27 76.7188C274.527 72.4805 274.043 67.4258 275.504 62.9648C275.691 62.3867 275.563 61.793 275.227 61.3516C274.531 61.7656 273.832 62.1797 273.145 62.625C242.266 82.6172 233.406 124.008 253.398 154.887C273.395 185.77 314.781 194.629 345.664 174.633C346.352 174.188 347.016 173.723 347.68 173.258Z" fill="#52B0F5"/>
<path d="M288.309 86.0469C270.344 97.6798 265.191 121.758 276.824 139.723C288.453 157.691 312.535 162.844 330.5 151.211C348.465 139.578 353.617 115.5 341.988 97.5352C330.355 79.5665 306.277 74.4141 288.309 86.0469Z" fill="#52B0F5"/>
<path d="M332.637 149.711C332.363 149.223 331.867 148.859 331.242 148.801C326.512 148.352 322.02 145.832 319.238 141.539C315.543 135.832 315.945 128.645 319.676 123.422L309.23 107.289C302.938 108.555 296.219 105.98 292.523 100.273C289.742 95.9805 289.281 90.8516 290.809 86.3477C291.008 85.7578 290.887 85.1602 290.555 84.7109C289.797 85.1328 289.047 85.5703 288.309 86.0469C270.344 97.6797 265.191 121.758 276.824 139.723C288.453 157.691 312.535 162.844 330.5 151.211C331.238 150.734 331.945 150.23 332.637 149.711Z" fill="#2299F2"/>
<path d="M301.559 106.508C294.875 110.836 292.957 119.793 297.285 126.477C301.613 133.16 310.57 135.074 317.254 130.75C323.938 126.422 325.852 117.465 321.527 110.781C317.199 104.098 308.242 102.184 301.559 106.508Z" fill="#1588E8"/>
<path d="M362.762 201.043C317.32 230.465 256.414 217.43 226.992 171.984C197.57 126.543 210.605 65.6367 256.047 36.2148C301.488 6.79685 362.398 19.8281 391.816 65.2734C421.238 110.715 408.203 171.621 362.762 201.043ZM264.473 49.2304C226.203 74.0039 215.23 125.293 240.004 163.562C264.781 201.828 316.07 212.805 354.336 188.027C392.605 163.254 403.582 111.965 378.805 73.6953C354.031 35.4297 302.742 24.4531 264.473 49.2304Z" fill="#554CBF"/>
<path d="M357.449 195.266C356.043 193.047 355.758 190.434 356.441 188.09C356.582 187.605 356.484 187.121 356.238 186.73C355.605 187.164 354.984 187.609 354.34 188.031C316.07 212.805 264.781 201.828 240.008 163.562C215.23 125.293 226.207 74.0039 264.473 49.2305C265.121 48.8125 265.777 48.4297 266.434 48.0312C266.164 47.6367 265.738 47.3477 265.223 47.2695C262.797 46.918 260.527 45.5664 259.094 43.3516C257.336 40.6367 257.273 37.3164 258.621 34.6133C257.758 35.1367 256.898 35.6641 256.051 36.2188C210.605 65.6406 197.57 126.547 226.992 171.988C256.414 217.43 317.32 230.465 362.762 201.043C363.629 200.484 364.477 199.91 365.316 199.328C362.25 199.445 359.172 197.984 357.449 195.266Z" fill="#483BA8"/>
<path d="M183.996 118.629C183.996 134.012 171.527 146.48 156.145 146.48C140.762 146.48 128.289 134.012 128.289 118.629C128.289 103.246 140.762 90.7773 156.145 90.7773C171.527 90.7773 183.996 103.246 183.996 118.629Z" fill="#52B0F5"/>
<path d="M165.043 128.684C154.574 128.684 146.09 120.199 146.09 109.73C146.09 100.641 152.488 93.0547 161.027 91.2109C159.441 90.9297 157.812 90.7773 156.145 90.7773C140.762 90.7773 128.293 103.246 128.293 118.629C128.293 134.012 140.762 146.484 156.145 146.484C171.527 146.484 183.996 134.012 183.996 118.629C183.996 116.965 183.844 115.332 183.562 113.746C181.719 122.285 174.133 128.684 165.043 128.684Z" fill="#2299F2"/>
<path d="M141.988 71.5469H135.141C130.859 71.5469 127.391 68.0781 127.391 63.7969C127.391 59.5156 130.859 56.0469 135.141 56.0469H141.988C146.27 56.0469 149.738 59.5156 149.738 63.7969C149.738 68.0742 146.27 71.5469 141.988 71.5469Z" fill="#554CBF"/>
<path d="M307.484 338.305C307.484 346.012 301.238 352.258 293.531 352.258H201.211C193.508 352.258 187.262 346.012 187.262 338.305C187.262 330.602 193.508 324.355 201.211 324.355H293.531C301.238 324.355 307.484 330.602 307.484 338.305Z" fill="#483BA8"/>
<path d="M218.98 338.305C218.98 330.602 225.227 324.355 232.93 324.355H201.211C193.508 324.355 187.262 330.602 187.262 338.305C187.262 346.012 193.508 352.258 201.211 352.258H232.93C225.227 352.258 218.98 346.012 218.98 338.305Z" fill="#3C2B8E"/>
<path d="M308.836 352.258H185.906C178.41 352.258 172.273 358.391 172.273 365.891V389.453C172.273 396.953 178.41 403.086 185.906 403.086H308.836C316.336 403.086 322.469 396.953 322.469 389.453V365.891C322.469 358.391 316.336 352.258 308.836 352.258Z" fill="#554CBF"/>
<path d="M221.957 389.457V365.891C221.957 358.391 228.094 352.258 235.59 352.258H185.906C178.41 352.258 172.273 358.391 172.273 365.891V389.457C172.273 396.953 178.41 403.09 185.906 403.09H235.59C228.094 403.09 221.957 396.953 221.957 389.457Z" fill="#483BA8"/>
<path d="M272.789 405.156V392.352C272.789 384.855 266.652 378.723 259.156 378.723H235.59C228.094 378.723 221.957 384.855 221.957 392.352V405.156H272.789Z" fill="#6464D8"/>
<path d="M280.273 403.09H214.469C203.902 403.09 195.258 411.734 195.258 422.301V504.406C214.684 509.359 235.031 512 256 512C270.84 512 285.375 510.68 299.488 508.152V422.301C299.488 411.734 290.84 403.09 280.273 403.09Z" fill="#483BA8"/>
<path d="M240.754 422.301C240.754 411.734 245.625 403.09 251.578 403.09H214.469C203.902 403.09 195.258 411.734 195.258 422.301V504.406C209.938 508.148 225.148 510.57 240.754 511.531V422.301Z" fill="#3C2B8E"/>
<path d="M307.484 450.629C307.484 458.332 301.238 464.578 293.531 464.578H201.211C193.508 464.578 187.262 458.332 187.262 450.629C187.262 442.922 193.508 436.676 201.211 436.676H293.531C301.238 436.676 307.484 442.922 307.484 450.629Z" fill="#FCDB75"/>
<path d="M227.762 450.629C227.762 442.922 234.008 436.676 241.711 436.676H201.211C193.508 436.676 187.262 442.922 187.262 450.629C187.262 458.332 193.508 464.578 201.211 464.578H241.711C234.008 464.578 227.762 458.332 227.762 450.629Z" fill="#F9B50B"/>
</g>
<defs>
<clipPath id="clip0">
<rect width="512" height="512" fill="white"/>
</clipPath>
</defs>
</svg>
