<svg width="512" height="512" viewBox="0 0 512 512" fill="none" xmlns="http://www.w3.org/2000/svg">
<path d="M256 22C120.692 22 11.0005 131.688 11.0005 267C11.0005 356.547 59.0513 434.859 130.766 477.598L190.024 503C211.016 508.859 233.141 512 256 512C391.309 512 501 402.309 501 267C501 131.688 391.309 22 256 22Z" fill="#3C2B8E"/>
<path d="M439.758 249L379.125 202.394C370.281 195.597 357.977 195.597 349.137 202.394L288.504 249C282.445 253.656 278.895 260.863 278.895 268.507V487.398C278.895 500.984 289.91 512 303.496 512H424.766C438.352 512 449.367 500.984 449.367 487.398V268.507C449.367 260.863 445.816 253.656 439.758 249ZM364.129 269.5C353.738 269.5 344.805 261.089 344.805 250.175C344.805 238.714 354.773 229.8 366.035 230.949C375.633 231.824 383.457 240.085 383.457 250.175C383.457 260.597 375 269.5 364.129 269.5Z" fill="#F7577A"/>
<path d="M293.316 436.796C287.418 436.796 282.195 433.956 278.895 429.585V487.398C278.895 500.984 289.91 511.999 303.496 511.999H424.766C438.352 511.999 449.367 500.984 449.367 487.398V427.898C446.219 433.218 440.441 436.796 433.816 436.796C424.434 436.796 416.727 429.648 415.828 420.499H311.301C310.406 429.648 302.699 436.796 293.316 436.796Z" fill="#D93A59"/>
<path d="M130.762 477.597C149.105 488.527 168.992 497.132 190.02 502.999V345.898H130.762V477.597Z" fill="#D9F5FF"/>
<path d="M190.02 428.464C190.016 428.472 178.375 445.663 164.285 432.757C162.082 430.741 158.781 430.632 156.414 432.452C151.461 436.277 142.23 439.933 130.762 428.464V477.597C149.105 488.527 168.988 497.132 190.02 503.003V428.464Z" fill="#ABE4FE"/>
<path d="M160.391 390.468V492.64C169.969 496.702 179.863 500.167 190.023 502.999V377.988H172.875C166.008 377.988 160.391 383.605 160.391 390.468Z" fill="#ABE4FE"/>
<path d="M210.864 319.48H109.922C106.723 319.48 103.598 319.171 100.555 318.609C102.11 333.878 115.102 345.898 130.766 345.898H190.024C205.684 345.898 218.676 333.878 220.231 318.609C217.188 319.171 214.059 319.48 210.864 319.48Z" fill="#F9B50B"/>
<path d="M137.829 319.48H109.922C106.723 319.48 103.598 319.171 100.555 318.609C102.11 333.878 115.102 345.898 130.762 345.898H158.575C147.985 345.898 139.172 334.332 137.829 319.48Z" fill="#F79D0D"/>
<path d="M409.82 373.464H317.273C312.453 373.464 308.547 377.37 308.547 382.191V474.738C308.547 479.558 312.453 483.464 317.273 483.464H409.82C414.637 483.464 418.547 479.558 418.547 474.738V382.191C418.547 377.37 414.637 373.464 409.82 373.464Z" fill="#D9F5FF"/>
<path d="M308.547 428.464V474.738C308.547 479.558 312.453 483.464 317.273 483.464H409.82C414.641 483.464 418.547 479.558 418.547 474.738V428.464C396.977 428.464 328.305 428.464 308.547 428.464Z" fill="#ABE4FE"/>
<path d="M402.371 428.464H384.621C384.008 428.464 383.512 428.96 383.512 429.57V447.323C383.512 447.937 383.016 448.429 382.406 448.429H364.652C364.043 448.429 363.547 448.925 363.547 449.538V467.288C363.547 467.902 364.043 468.398 364.652 468.398H403.48V429.57C403.477 428.96 402.984 428.464 402.371 428.464Z" fill="#3C2B8E"/>
<path d="M363.547 428.465V409.605C363.547 408.996 363.051 408.5 362.438 408.5H344.688C344.075 408.5 343.579 408.996 343.579 409.605V427.359C343.579 427.969 343.083 428.465 342.473 428.465H324.719C324.11 428.465 323.614 428.961 323.614 429.57V467.289C323.614 467.902 324.11 468.398 324.719 468.398H342.473C343.083 468.398 343.579 467.902 343.579 467.289V449.539C343.579 448.93 344.075 448.434 344.688 448.434H362.438C363.051 448.434 363.547 447.938 363.547 447.324V428.465Z" fill="#483BA8"/>
<path d="M324.719 408.5H342.473C343.083 408.5 343.579 408.004 343.579 407.391V389.641C343.579 389.027 343.083 388.531 342.473 388.531H324.719C324.11 388.531 323.614 389.027 323.614 389.641V407.391C323.614 408.004 324.11 408.5 324.719 408.5Z" fill="#483BA8"/>
<path d="M402.372 388.531H364.653C364.04 388.531 363.547 389.027 363.547 389.641V407.391C363.547 408.004 364.04 408.5 364.653 408.5H402.239C402.922 408.5 403.477 407.941 403.477 407.258V389.641C403.477 389.027 402.985 388.531 402.372 388.531Z" fill="#483BA8"/>
<path d="M392.25 348.921H336.012C331.891 348.921 328.547 345.577 328.547 341.456C328.547 337.335 331.891 333.991 336.012 333.991H392.25C396.371 333.991 399.711 337.335 399.711 341.456C399.711 345.577 396.371 348.921 392.25 348.921Z" fill="#F97396"/>
<path d="M210.864 155.683H209.782C202.614 155.683 196.067 152.008 191.938 146.144C187.79 140.254 180.934 136.386 173.223 136.386H147.563C139.852 136.386 132.997 140.254 128.848 146.144C124.719 152.004 118.172 155.683 111.004 155.683H109.922C81.4731 155.683 58.1958 178.961 58.1958 207.41V268.797C58.1958 297.242 81.4731 320.519 109.922 320.519H210.864C239.313 320.519 262.59 297.242 262.59 268.797V207.41C262.59 178.961 239.313 155.683 210.864 155.683ZM160.391 201.57C149.528 201.57 140.192 192.777 140.192 181.367C140.192 169.386 150.61 160.066 162.383 161.269C172.418 162.183 180.594 170.816 180.594 181.367C180.594 192.261 171.758 201.57 160.391 201.57Z" fill="#FBC840"/>
<path d="M137.754 320.523C137.504 319.758 137.168 319.023 136.711 318.351C127.575 304.859 132.094 293.226 135.563 287.531C137.094 285.015 137.27 281.914 136.133 279.199C129.028 262.273 132.063 247.707 135.063 239.57C136.528 235.597 135.055 231.129 131.528 228.789C95.0044 204.605 111.004 155.683 111.004 155.683H109.922C81.4731 155.683 58.1958 178.961 58.1958 207.41V268.797C58.1958 297.242 81.4731 320.519 109.922 320.519H137.754V320.523Z" fill="#F9B50B"/>
<path d="M217.77 258.23C217.77 242.933 192.079 230.535 160.391 230.535C128.704 230.535 103.016 242.933 103.016 258.23C103.016 273.527 128.704 285.925 160.391 285.925C192.079 285.925 217.77 273.527 217.77 258.23Z" fill="#FCDB75"/>
<path d="M136.133 279.199C129.028 262.273 132.063 247.707 135.063 239.57C135.821 237.515 135.786 235.328 135.094 233.371C116.094 237.886 103.016 247.32 103.016 258.23C103.016 269.476 116.903 279.148 136.844 283.484C136.946 282.042 136.708 280.57 136.133 279.199Z" fill="#FBC840"/>
<path d="M160.391 209.371C144.949 209.371 132.387 196.808 132.387 181.367C132.387 173.472 135.758 165.898 141.633 160.593C147.5 155.293 155.352 152.711 163.176 153.508C177.281 154.793 188.395 167.031 188.395 181.367C188.395 196.808 175.832 209.371 160.391 209.371ZM160.402 168.972C157.328 168.972 154.375 170.109 152.09 172.172C149.445 174.562 147.992 177.824 147.992 181.367C147.992 188.203 153.555 193.765 160.391 193.765C167.227 193.765 172.789 188.203 172.789 181.367C172.789 175.023 167.906 169.605 161.672 169.039C161.25 168.996 160.824 168.972 160.402 168.972Z" fill="#FCDB75"/>
<path d="M364.129 276.96C349.359 276.96 337.344 264.945 337.344 250.171C337.344 242.621 340.566 235.375 346.188 230.3C351.805 225.23 359.32 222.761 366.793 223.523C380.285 224.753 390.918 236.46 390.918 250.171C390.918 264.945 378.902 276.96 364.129 276.96ZM364.141 238.32C361.199 238.32 358.375 239.402 356.191 241.378C353.66 243.66 352.266 246.785 352.266 250.171C352.266 256.714 357.59 262.035 364.129 262.035C370.672 262.035 375.992 256.714 375.992 250.171C375.992 244.105 371.32 238.925 365.359 238.378C364.949 238.339 364.543 238.32 364.141 238.32Z" fill="#F97396"/>
<path d="M323.613 429.57V467.288C323.613 467.902 324.109 468.398 324.719 468.398H342.473C343.082 468.398 343.578 467.902 343.578 467.288V449.538C343.578 448.929 344.074 448.433 344.688 448.433H362.441C363.051 448.433 363.547 447.937 363.547 447.323V428.464C352.613 439.398 342.473 428.464 342.473 428.464H324.719C324.109 428.464 323.613 428.96 323.613 429.57Z" fill="#3C2B8E"/>
<path d="M369.445 262.636C369.445 261.957 369.523 261.296 369.66 260.66C368.008 261.535 366.125 262.035 364.129 262.035C357.59 262.035 352.27 256.714 352.27 250.175C352.27 246.785 353.66 243.664 356.191 241.378C358.375 239.406 361.195 238.32 364.129 238.32V223.39C357.559 223.386 351.133 225.835 346.188 230.3C340.566 235.378 337.344 242.621 337.344 250.175C337.344 264.945 349.359 276.96 364.129 276.96C369.93 276.96 375.305 275.101 379.695 271.957C379.402 271.984 379.109 272 378.812 272C373.641 272 369.445 267.808 369.445 262.636Z" fill="#D93A59"/>
<path d="M165.613 196.457C165.613 194.758 166.121 193.176 166.984 191.851C165.07 193.058 162.816 193.765 160.391 193.765C153.555 193.765 147.992 188.203 147.992 181.367C147.992 177.824 149.449 174.558 152.094 172.172C154.375 170.109 157.324 168.976 160.395 168.976V153.371C153.516 153.363 146.805 155.922 141.633 160.594C135.758 165.898 132.391 173.472 132.391 181.367C132.391 196.808 144.953 209.371 160.391 209.371C166.078 209.371 171.367 207.664 175.789 204.742C175.234 204.855 174.66 204.918 174.074 204.918C169.402 204.918 165.613 201.129 165.613 196.457Z" fill="#F9B50B"/>
<path d="M364.129 253.27C358.637 253.27 353.18 247.816 353.18 242.32V111.82C353.18 61.1367 312.945 21.9023 262.262 21.9023C211.578 21.9023 171.344 61.1367 171.344 111.82V171.559C171.344 177.055 165.887 182.512 160.391 182.512C154.898 182.512 149.441 177.055 149.441 171.559V111.82C149.441 50.1602 200.602 0 262.262 0C323.918 0 375.082 50.1602 375.082 111.82V242.32C375.082 247.816 369.625 253.27 364.129 253.27Z" fill="#D9F5FF"/>
<path d="M266.234 0.0781548C202.883 -2.1445 149.441 48.7774 149.441 111.82V171.559C149.441 177.055 154.895 182.508 160.391 182.508C165.887 182.508 171.34 177.055 171.34 171.559V111.82C171.34 60.7969 211.953 21.7891 262.5 21.9024C252.086 16.8321 254.863 1.3555 266.234 0.0781548Z" fill="#ABE4FE"/>
<path d="M190.02 428.464C190.016 428.472 178.375 445.663 164.285 432.757C163.176 431.745 161.793 431.214 160.391 431.167V492.64C169.969 496.702 179.863 500.167 190.02 502.999V428.464Z" fill="#82C6F9"/>
</svg>
